<?xml version="1.0" standalone="no"?>
 <!DOCTYPE svg PUBLIC "-//W3C//DTD SVG 1.1//EN" 
 "http://www.w3.org/Graphics/SVG/1.1/DTD/svg11.dtd"> 
<svg
  xmlns:svg="http://www.w3.org/2000/svg"
  xmlns="http://www.w3.org/2000/svg"
  xmlns:xlink="http://www.w3.org/1999/xlink"
  version="1.1"
  width="297.0022mm" height="210.0072mm" viewBox="0.0000 0.0000 297.0022 210.0072">
<title>SVG Image created as OpenMowerMainboard-F_CrtYd.svg date 2024/07/23 19:13:15 </title>
  <desc>Image generated by PCBNEW </desc>
<g style="fill:#000000; fill-opacity:1.0000;stroke:#000000; stroke-opacity:1.0000;
stroke-linecap:round; stroke-linejoin:round;"
 transform="translate(0 0) scale(1 1)">
</g>
<g style="fill:none; 
stroke:#000000; stroke-width:0.1500; stroke-opacity:1; 
stroke-linecap:round; stroke-linejoin:round;">
<path d="M177.0022 166.0072
L285.0022 166.0072
L285.0022 198.0072
L177.0022 198.0072
L177.0022 166.0072
" />
</g>
<g style="fill:none; 
stroke:#000000; stroke-width:0.1500; stroke-opacity:1; 
stroke-linecap:round; stroke-linejoin:round;">
<path d="M10.0000 10.0000
L287.0022 10.0000
L287.0022 200.0072
L10.0000 200.0072
L10.0000 10.0000
" />
</g>
<g style="fill:none; 
stroke:#000000; stroke-width:0.1500; stroke-opacity:1; 
stroke-linecap:round; stroke-linejoin:round;">
<path d="M12.0000 12.0000
L285.0022 12.0000
L285.0022 198.0072
L12.0000 198.0072
L12.0000 12.0000
" />
</g>
<g style="fill:none; 
stroke:#000000; stroke-width:0.1500; stroke-opacity:1; 
stroke-linecap:round; stroke-linejoin:round;">
<path d="M60.0000 12.0000
L60.0000 10.0000
" />
</g>
<g style="fill:none; 
stroke:#000000; stroke-width:0.1500; stroke-opacity:1; 
stroke-linecap:round; stroke-linejoin:round;">
<path d="M110.0000 12.0000
L110.0000 10.0000
" />
</g>
<g style="fill:none; 
stroke:#000000; stroke-width:0.1500; stroke-opacity:1; 
stroke-linecap:round; stroke-linejoin:round;">
<path d="M160.0000 12.0000
L160.0000 10.0000
" />
</g>
<g style="fill:none; 
stroke:#000000; stroke-width:0.1500; stroke-opacity:1; 
stroke-linecap:round; stroke-linejoin:round;">
<path d="M210.0000 12.0000
L210.0000 10.0000
" />
</g>
<g style="fill:none; 
stroke:#000000; stroke-width:0.1500; stroke-opacity:1; 
stroke-linecap:round; stroke-linejoin:round;">
<path d="M260.0000 12.0000
L260.0000 10.0000
" />
</g>
<g style="fill:none; 
stroke:#000000; stroke-width:0.1500; stroke-opacity:1; 
stroke-linecap:round; stroke-linejoin:round;">
<text x="35.0000" y="11.6500"
textLength="1.4281" font-size="1.7333" lengthAdjust="spacingAndGlyphs"
text-anchor="start" opacity="0">1</text>
<g class="stroked-text"><desc>1</desc>
<path d="M36.0892 11.5936
L35.3463 11.5936
" />
<path d="M35.7177 11.5936
L35.7177 10.2936
" />
<path d="M35.7177 10.2936
L35.5939 10.4793
" />
<path d="M35.5939 10.4793
L35.4701 10.6031
" />
<path d="M35.4701 10.6031
L35.3463 10.6650
" />
</g></g>
<g style="fill:none; 
stroke:#000000; stroke-width:0.1500; stroke-opacity:1; 
stroke-linecap:round; stroke-linejoin:round;">
<text x="85.0000" y="11.6500"
textLength="1.4281" font-size="1.7333" lengthAdjust="spacingAndGlyphs"
text-anchor="start" opacity="0">2</text>
<g class="stroked-text"><desc>2</desc>
<path d="M85.3463 10.4174
L85.4082 10.3555
" />
<path d="M85.4082 10.3555
L85.5320 10.2936
" />
<path d="M85.5320 10.2936
L85.8415 10.2936
" />
<path d="M85.8415 10.2936
L85.9654 10.3555
" />
<path d="M85.9654 10.3555
L86.0273 10.4174
" />
<path d="M86.0273 10.4174
L86.0892 10.5412
" />
<path d="M86.0892 10.5412
L86.0892 10.6650
" />
<path d="M86.0892 10.6650
L86.0273 10.8507
" />
<path d="M86.0273 10.8507
L85.2844 11.5936
" />
<path d="M85.2844 11.5936
L86.0892 11.5936
" />
</g></g>
<g style="fill:none; 
stroke:#000000; stroke-width:0.1500; stroke-opacity:1; 
stroke-linecap:round; stroke-linejoin:round;">
<text x="135.0000" y="11.6500"
textLength="1.4281" font-size="1.7333" lengthAdjust="spacingAndGlyphs"
text-anchor="start" opacity="0">3</text>
<g class="stroked-text"><desc>3</desc>
<path d="M135.2844 10.2936
L136.0892 10.2936
" />
<path d="M136.0892 10.2936
L135.6558 10.7888
" />
<path d="M135.6558 10.7888
L135.8415 10.7888
" />
<path d="M135.8415 10.7888
L135.9654 10.8507
" />
<path d="M135.9654 10.8507
L136.0273 10.9127
" />
<path d="M136.0273 10.9127
L136.0892 11.0365
" />
<path d="M136.0892 11.0365
L136.0892 11.3460
" />
<path d="M136.0892 11.3460
L136.0273 11.4698
" />
<path d="M136.0273 11.4698
L135.9654 11.5317
" />
<path d="M135.9654 11.5317
L135.8415 11.5936
" />
<path d="M135.8415 11.5936
L135.4701 11.5936
" />
<path d="M135.4701 11.5936
L135.3463 11.5317
" />
<path d="M135.3463 11.5317
L135.2844 11.4698
" />
</g></g>
<g style="fill:none; 
stroke:#000000; stroke-width:0.1500; stroke-opacity:1; 
stroke-linecap:round; stroke-linejoin:round;">
<text x="185.0000" y="11.6500"
textLength="1.4281" font-size="1.7333" lengthAdjust="spacingAndGlyphs"
text-anchor="start" opacity="0">4</text>
<g class="stroked-text"><desc>4</desc>
<path d="M185.9654 10.7269
L185.9654 11.5936
" />
<path d="M185.6558 10.2317
L185.3463 11.1603
" />
<path d="M185.3463 11.1603
L186.1511 11.1603
" />
</g></g>
<g style="fill:none; 
stroke:#000000; stroke-width:0.1500; stroke-opacity:1; 
stroke-linecap:round; stroke-linejoin:round;">
<text x="235.0000" y="11.6500"
textLength="1.4281" font-size="1.7333" lengthAdjust="spacingAndGlyphs"
text-anchor="start" opacity="0">5</text>
<g class="stroked-text"><desc>5</desc>
<path d="M236.0273 10.2936
L235.4082 10.2936
" />
<path d="M235.4082 10.2936
L235.3463 10.9127
" />
<path d="M235.3463 10.9127
L235.4082 10.8507
" />
<path d="M235.4082 10.8507
L235.5320 10.7888
" />
<path d="M235.5320 10.7888
L235.8415 10.7888
" />
<path d="M235.8415 10.7888
L235.9654 10.8507
" />
<path d="M235.9654 10.8507
L236.0273 10.9127
" />
<path d="M236.0273 10.9127
L236.0892 11.0365
" />
<path d="M236.0892 11.0365
L236.0892 11.3460
" />
<path d="M236.0892 11.3460
L236.0273 11.4698
" />
<path d="M236.0273 11.4698
L235.9654 11.5317
" />
<path d="M235.9654 11.5317
L235.8415 11.5936
" />
<path d="M235.8415 11.5936
L235.5320 11.5936
" />
<path d="M235.5320 11.5936
L235.4082 11.5317
" />
<path d="M235.4082 11.5317
L235.3463 11.4698
" />
</g></g>
<g style="fill:none; 
stroke:#000000; stroke-width:0.1500; stroke-opacity:1; 
stroke-linecap:round; stroke-linejoin:round;">
<text x="285.0000" y="11.6500"
textLength="1.4281" font-size="1.7333" lengthAdjust="spacingAndGlyphs"
text-anchor="start" opacity="0">6</text>
<g class="stroked-text"><desc>6</desc>
<path d="M285.9654 10.2936
L285.7177 10.2936
" />
<path d="M285.7177 10.2936
L285.5939 10.3555
" />
<path d="M285.5939 10.3555
L285.5320 10.4174
" />
<path d="M285.5320 10.4174
L285.4082 10.6031
" />
<path d="M285.4082 10.6031
L285.3463 10.8507
" />
<path d="M285.3463 10.8507
L285.3463 11.3460
" />
<path d="M285.3463 11.3460
L285.4082 11.4698
" />
<path d="M285.4082 11.4698
L285.4701 11.5317
" />
<path d="M285.4701 11.5317
L285.5939 11.5936
" />
<path d="M285.5939 11.5936
L285.8415 11.5936
" />
<path d="M285.8415 11.5936
L285.9654 11.5317
" />
<path d="M285.9654 11.5317
L286.0273 11.4698
" />
<path d="M286.0273 11.4698
L286.0892 11.3460
" />
<path d="M286.0892 11.3460
L286.0892 11.0365
" />
<path d="M286.0892 11.0365
L286.0273 10.9127
" />
<path d="M286.0273 10.9127
L285.9654 10.8507
" />
<path d="M285.9654 10.8507
L285.8415 10.7888
" />
<path d="M285.8415 10.7888
L285.5939 10.7888
" />
<path d="M285.5939 10.7888
L285.4701 10.8507
" />
<path d="M285.4701 10.8507
L285.4082 10.9127
" />
<path d="M285.4082 10.9127
L285.3463 11.0365
" />
</g></g>
<g style="fill:none; 
stroke:#000000; stroke-width:0.1500; stroke-opacity:1; 
stroke-linecap:round; stroke-linejoin:round;">
<path d="M60.0000 198.0072
L60.0000 200.0072
" />
</g>
<g style="fill:none; 
stroke:#000000; stroke-width:0.1500; stroke-opacity:1; 
stroke-linecap:round; stroke-linejoin:round;">
<path d="M110.0000 198.0072
L110.0000 200.0072
" />
</g>
<g style="fill:none; 
stroke:#000000; stroke-width:0.1500; stroke-opacity:1; 
stroke-linecap:round; stroke-linejoin:round;">
<path d="M160.0000 198.0072
L160.0000 200.0072
" />
</g>
<g style="fill:none; 
stroke:#000000; stroke-width:0.1500; stroke-opacity:1; 
stroke-linecap:round; stroke-linejoin:round;">
<path d="M210.0000 198.0072
L210.0000 200.0072
" />
</g>
<g style="fill:none; 
stroke:#000000; stroke-width:0.1500; stroke-opacity:1; 
stroke-linecap:round; stroke-linejoin:round;">
<path d="M260.0000 198.0072
L260.0000 200.0072
" />
</g>
<g style="fill:none; 
stroke:#000000; stroke-width:0.1500; stroke-opacity:1; 
stroke-linecap:round; stroke-linejoin:round;">
<text x="35.0000" y="199.6572"
textLength="1.4281" font-size="1.7333" lengthAdjust="spacingAndGlyphs"
text-anchor="start" opacity="0">1</text>
<g class="stroked-text"><desc>1</desc>
<path d="M36.0892 199.6008
L35.3463 199.6008
" />
<path d="M35.7177 199.6008
L35.7177 198.3008
" />
<path d="M35.7177 198.3008
L35.5939 198.4865
" />
<path d="M35.5939 198.4865
L35.4701 198.6103
" />
<path d="M35.4701 198.6103
L35.3463 198.6722
" />
</g></g>
<g style="fill:none; 
stroke:#000000; stroke-width:0.1500; stroke-opacity:1; 
stroke-linecap:round; stroke-linejoin:round;">
<text x="85.0000" y="199.6572"
textLength="1.4281" font-size="1.7333" lengthAdjust="spacingAndGlyphs"
text-anchor="start" opacity="0">2</text>
<g class="stroked-text"><desc>2</desc>
<path d="M85.3463 198.4246
L85.4082 198.3627
" />
<path d="M85.4082 198.3627
L85.5320 198.3008
" />
<path d="M85.5320 198.3008
L85.8415 198.3008
" />
<path d="M85.8415 198.3008
L85.9654 198.3627
" />
<path d="M85.9654 198.3627
L86.0273 198.4246
" />
<path d="M86.0273 198.4246
L86.0892 198.5484
" />
<path d="M86.0892 198.5484
L86.0892 198.6722
" />
<path d="M86.0892 198.6722
L86.0273 198.8579
" />
<path d="M86.0273 198.8579
L85.2844 199.6008
" />
<path d="M85.2844 199.6008
L86.0892 199.6008
" />
</g></g>
<g style="fill:none; 
stroke:#000000; stroke-width:0.1500; stroke-opacity:1; 
stroke-linecap:round; stroke-linejoin:round;">
<text x="135.0000" y="199.6572"
textLength="1.4281" font-size="1.7333" lengthAdjust="spacingAndGlyphs"
text-anchor="start" opacity="0">3</text>
<g class="stroked-text"><desc>3</desc>
<path d="M135.2844 198.3008
L136.0892 198.3008
" />
<path d="M136.0892 198.3008
L135.6558 198.7960
" />
<path d="M135.6558 198.7960
L135.8415 198.7960
" />
<path d="M135.8415 198.7960
L135.9654 198.8579
" />
<path d="M135.9654 198.8579
L136.0273 198.9199
" />
<path d="M136.0273 198.9199
L136.0892 199.0437
" />
<path d="M136.0892 199.0437
L136.0892 199.3532
" />
<path d="M136.0892 199.3532
L136.0273 199.4770
" />
<path d="M136.0273 199.4770
L135.9654 199.5389
" />
<path d="M135.9654 199.5389
L135.8415 199.6008
" />
<path d="M135.8415 199.6008
L135.4701 199.6008
" />
<path d="M135.4701 199.6008
L135.3463 199.5389
" />
<path d="M135.3463 199.5389
L135.2844 199.4770
" />
</g></g>
<g style="fill:none; 
stroke:#000000; stroke-width:0.1500; stroke-opacity:1; 
stroke-linecap:round; stroke-linejoin:round;">
<text x="185.0000" y="199.6572"
textLength="1.4281" font-size="1.7333" lengthAdjust="spacingAndGlyphs"
text-anchor="start" opacity="0">4</text>
<g class="stroked-text"><desc>4</desc>
<path d="M185.9654 198.7341
L185.9654 199.6008
" />
<path d="M185.6558 198.2389
L185.3463 199.1675
" />
<path d="M185.3463 199.1675
L186.1511 199.1675
" />
</g></g>
<g style="fill:none; 
stroke:#000000; stroke-width:0.1500; stroke-opacity:1; 
stroke-linecap:round; stroke-linejoin:round;">
<text x="235.0000" y="199.6572"
textLength="1.4281" font-size="1.7333" lengthAdjust="spacingAndGlyphs"
text-anchor="start" opacity="0">5</text>
<g class="stroked-text"><desc>5</desc>
<path d="M236.0273 198.3008
L235.4082 198.3008
" />
<path d="M235.4082 198.3008
L235.3463 198.9199
" />
<path d="M235.3463 198.9199
L235.4082 198.8579
" />
<path d="M235.4082 198.8579
L235.5320 198.7960
" />
<path d="M235.5320 198.7960
L235.8415 198.7960
" />
<path d="M235.8415 198.7960
L235.9654 198.8579
" />
<path d="M235.9654 198.8579
L236.0273 198.9199
" />
<path d="M236.0273 198.9199
L236.0892 199.0437
" />
<path d="M236.0892 199.0437
L236.0892 199.3532
" />
<path d="M236.0892 199.3532
L236.0273 199.4770
" />
<path d="M236.0273 199.4770
L235.9654 199.5389
" />
<path d="M235.9654 199.5389
L235.8415 199.6008
" />
<path d="M235.8415 199.6008
L235.5320 199.6008
" />
<path d="M235.5320 199.6008
L235.4082 199.5389
" />
<path d="M235.4082 199.5389
L235.3463 199.4770
" />
</g></g>
<g style="fill:none; 
stroke:#000000; stroke-width:0.1500; stroke-opacity:1; 
stroke-linecap:round; stroke-linejoin:round;">
<text x="285.0000" y="199.6572"
textLength="1.4281" font-size="1.7333" lengthAdjust="spacingAndGlyphs"
text-anchor="start" opacity="0">6</text>
<g class="stroked-text"><desc>6</desc>
<path d="M285.9654 198.3008
L285.7177 198.3008
" />
<path d="M285.7177 198.3008
L285.5939 198.3627
" />
<path d="M285.5939 198.3627
L285.5320 198.4246
" />
<path d="M285.5320 198.4246
L285.4082 198.6103
" />
<path d="M285.4082 198.6103
L285.3463 198.8579
" />
<path d="M285.3463 198.8579
L285.3463 199.3532
" />
<path d="M285.3463 199.3532
L285.4082 199.4770
" />
<path d="M285.4082 199.4770
L285.4701 199.5389
" />
<path d="M285.4701 199.5389
L285.5939 199.6008
" />
<path d="M285.5939 199.6008
L285.8415 199.6008
" />
<path d="M285.8415 199.6008
L285.9654 199.5389
" />
<path d="M285.9654 199.5389
L286.0273 199.4770
" />
<path d="M286.0273 199.4770
L286.0892 199.3532
" />
<path d="M286.0892 199.3532
L286.0892 199.0437
" />
<path d="M286.0892 199.0437
L286.0273 198.9199
" />
<path d="M286.0273 198.9199
L285.9654 198.8579
" />
<path d="M285.9654 198.8579
L285.8415 198.7960
" />
<path d="M285.8415 198.7960
L285.5939 198.7960
" />
<path d="M285.5939 198.7960
L285.4701 198.8579
" />
<path d="M285.4701 198.8579
L285.4082 198.9199
" />
<path d="M285.4082 198.9199
L285.3463 199.0437
" />
</g></g>
<g style="fill:none; 
stroke:#000000; stroke-width:0.1500; stroke-opacity:1; 
stroke-linecap:round; stroke-linejoin:round;">
<path d="M10.0000 60.0000
L12.0000 60.0000
" />
</g>
<g style="fill:none; 
stroke:#000000; stroke-width:0.1500; stroke-opacity:1; 
stroke-linecap:round; stroke-linejoin:round;">
<path d="M10.0000 110.0000
L12.0000 110.0000
" />
</g>
<g style="fill:none; 
stroke:#000000; stroke-width:0.1500; stroke-opacity:1; 
stroke-linecap:round; stroke-linejoin:round;">
<path d="M10.0000 160.0000
L12.0000 160.0000
" />
</g>
<g style="fill:none; 
stroke:#000000; stroke-width:0.1500; stroke-opacity:1; 
stroke-linecap:round; stroke-linejoin:round;">
<text x="11.0000" y="35.6500"
textLength="1.3043" font-size="1.7333" lengthAdjust="spacingAndGlyphs"
text-anchor="middle" opacity="0">A</text>
<g class="stroked-text"><desc>A</desc>
<path d="M10.6905 35.2222
L11.3095 35.2222
" />
<path d="M10.5667 35.5936
L11.0000 34.2936
" />
<path d="M11.0000 34.2936
L11.4333 35.5936
" />
</g></g>
<g style="fill:none; 
stroke:#000000; stroke-width:0.1500; stroke-opacity:1; 
stroke-linecap:round; stroke-linejoin:round;">
<text x="11.0000" y="85.6500"
textLength="1.4900" font-size="1.7333" lengthAdjust="spacingAndGlyphs"
text-anchor="middle" opacity="0">B</text>
<g class="stroked-text"><desc>B</desc>
<path d="M11.0929 84.9127
L11.2786 84.9746
" />
<path d="M11.2786 84.9746
L11.3405 85.0365
" />
<path d="M11.3405 85.0365
L11.4024 85.1603
" />
<path d="M11.4024 85.1603
L11.4024 85.3460
" />
<path d="M11.4024 85.3460
L11.3405 85.4698
" />
<path d="M11.3405 85.4698
L11.2786 85.5317
" />
<path d="M11.2786 85.5317
L11.1548 85.5936
" />
<path d="M11.1548 85.5936
L10.6595 85.5936
" />
<path d="M10.6595 85.5936
L10.6595 84.2936
" />
<path d="M10.6595 84.2936
L11.0929 84.2936
" />
<path d="M11.0929 84.2936
L11.2167 84.3555
" />
<path d="M11.2167 84.3555
L11.2786 84.4174
" />
<path d="M11.2786 84.4174
L11.3405 84.5412
" />
<path d="M11.3405 84.5412
L11.3405 84.6650
" />
<path d="M11.3405 84.6650
L11.2786 84.7888
" />
<path d="M11.2786 84.7888
L11.2167 84.8507
" />
<path d="M11.2167 84.8507
L11.0929 84.9127
" />
<path d="M11.0929 84.9127
L10.6595 84.9127
" />
</g></g>
<g style="fill:none; 
stroke:#000000; stroke-width:0.1500; stroke-opacity:1; 
stroke-linecap:round; stroke-linejoin:round;">
<text x="11.0000" y="135.6500"
textLength="1.4900" font-size="1.7333" lengthAdjust="spacingAndGlyphs"
text-anchor="middle" opacity="0">C</text>
<g class="stroked-text"><desc>C</desc>
<path d="M11.4024 135.4698
L11.3405 135.5317
" />
<path d="M11.3405 135.5317
L11.1548 135.5936
" />
<path d="M11.1548 135.5936
L11.0310 135.5936
" />
<path d="M11.0310 135.5936
L10.8452 135.5317
" />
<path d="M10.8452 135.5317
L10.7214 135.4079
" />
<path d="M10.7214 135.4079
L10.6595 135.2841
" />
<path d="M10.6595 135.2841
L10.5976 135.0365
" />
<path d="M10.5976 135.0365
L10.5976 134.8507
" />
<path d="M10.5976 134.8507
L10.6595 134.6031
" />
<path d="M10.6595 134.6031
L10.7214 134.4793
" />
<path d="M10.7214 134.4793
L10.8452 134.3555
" />
<path d="M10.8452 134.3555
L11.0310 134.2936
" />
<path d="M11.0310 134.2936
L11.1548 134.2936
" />
<path d="M11.1548 134.2936
L11.3405 134.3555
" />
<path d="M11.3405 134.3555
L11.4024 134.4174
" />
</g></g>
<g style="fill:none; 
stroke:#000000; stroke-width:0.1500; stroke-opacity:1; 
stroke-linecap:round; stroke-linejoin:round;">
<text x="11.0000" y="185.6500"
textLength="1.4900" font-size="1.7333" lengthAdjust="spacingAndGlyphs"
text-anchor="middle" opacity="0">D</text>
<g class="stroked-text"><desc>D</desc>
<path d="M10.6595 185.5936
L10.6595 184.2936
" />
<path d="M10.6595 184.2936
L10.9690 184.2936
" />
<path d="M10.9690 184.2936
L11.1548 184.3555
" />
<path d="M11.1548 184.3555
L11.2786 184.4793
" />
<path d="M11.2786 184.4793
L11.3405 184.6031
" />
<path d="M11.3405 184.6031
L11.4024 184.8507
" />
<path d="M11.4024 184.8507
L11.4024 185.0365
" />
<path d="M11.4024 185.0365
L11.3405 185.2841
" />
<path d="M11.3405 185.2841
L11.2786 185.4079
" />
<path d="M11.2786 185.4079
L11.1548 185.5317
" />
<path d="M11.1548 185.5317
L10.9690 185.5936
" />
<path d="M10.9690 185.5936
L10.6595 185.5936
" />
</g></g>
<g style="fill:none; 
stroke:#000000; stroke-width:0.1500; stroke-opacity:1; 
stroke-linecap:round; stroke-linejoin:round;">
<path d="M287.0022 60.0000
L285.0022 60.0000
" />
</g>
<g style="fill:none; 
stroke:#000000; stroke-width:0.1500; stroke-opacity:1; 
stroke-linecap:round; stroke-linejoin:round;">
<path d="M287.0022 110.0000
L285.0022 110.0000
" />
</g>
<g style="fill:none; 
stroke:#000000; stroke-width:0.1500; stroke-opacity:1; 
stroke-linecap:round; stroke-linejoin:round;">
<path d="M287.0022 160.0000
L285.0022 160.0000
" />
</g>
<g style="fill:none; 
stroke:#000000; stroke-width:0.1500; stroke-opacity:1; 
stroke-linecap:round; stroke-linejoin:round;">
<text x="286.0022" y="35.6500"
textLength="1.3043" font-size="1.7333" lengthAdjust="spacingAndGlyphs"
text-anchor="middle" opacity="0">A</text>
<g class="stroked-text"><desc>A</desc>
<path d="M285.6927 35.2222
L286.3117 35.2222
" />
<path d="M285.5689 35.5936
L286.0022 34.2936
" />
<path d="M286.0022 34.2936
L286.4355 35.5936
" />
</g></g>
<g style="fill:none; 
stroke:#000000; stroke-width:0.1500; stroke-opacity:1; 
stroke-linecap:round; stroke-linejoin:round;">
<text x="286.0022" y="85.6500"
textLength="1.4900" font-size="1.7333" lengthAdjust="spacingAndGlyphs"
text-anchor="middle" opacity="0">B</text>
<g class="stroked-text"><desc>B</desc>
<path d="M286.0951 84.9127
L286.2808 84.9746
" />
<path d="M286.2808 84.9746
L286.3427 85.0365
" />
<path d="M286.3427 85.0365
L286.4046 85.1603
" />
<path d="M286.4046 85.1603
L286.4046 85.3460
" />
<path d="M286.4046 85.3460
L286.3427 85.4698
" />
<path d="M286.3427 85.4698
L286.2808 85.5317
" />
<path d="M286.2808 85.5317
L286.1570 85.5936
" />
<path d="M286.1570 85.5936
L285.6617 85.5936
" />
<path d="M285.6617 85.5936
L285.6617 84.2936
" />
<path d="M285.6617 84.2936
L286.0951 84.2936
" />
<path d="M286.0951 84.2936
L286.2189 84.3555
" />
<path d="M286.2189 84.3555
L286.2808 84.4174
" />
<path d="M286.2808 84.4174
L286.3427 84.5412
" />
<path d="M286.3427 84.5412
L286.3427 84.6650
" />
<path d="M286.3427 84.6650
L286.2808 84.7888
" />
<path d="M286.2808 84.7888
L286.2189 84.8507
" />
<path d="M286.2189 84.8507
L286.0951 84.9127
" />
<path d="M286.0951 84.9127
L285.6617 84.9127
" />
</g></g>
<g style="fill:none; 
stroke:#000000; stroke-width:0.1500; stroke-opacity:1; 
stroke-linecap:round; stroke-linejoin:round;">
<text x="286.0022" y="135.6500"
textLength="1.4900" font-size="1.7333" lengthAdjust="spacingAndGlyphs"
text-anchor="middle" opacity="0">C</text>
<g class="stroked-text"><desc>C</desc>
<path d="M286.4046 135.4698
L286.3427 135.5317
" />
<path d="M286.3427 135.5317
L286.1570 135.5936
" />
<path d="M286.1570 135.5936
L286.0332 135.5936
" />
<path d="M286.0332 135.5936
L285.8474 135.5317
" />
<path d="M285.8474 135.5317
L285.7236 135.4079
" />
<path d="M285.7236 135.4079
L285.6617 135.2841
" />
<path d="M285.6617 135.2841
L285.5998 135.0365
" />
<path d="M285.5998 135.0365
L285.5998 134.8507
" />
<path d="M285.5998 134.8507
L285.6617 134.6031
" />
<path d="M285.6617 134.6031
L285.7236 134.4793
" />
<path d="M285.7236 134.4793
L285.8474 134.3555
" />
<path d="M285.8474 134.3555
L286.0332 134.2936
" />
<path d="M286.0332 134.2936
L286.1570 134.2936
" />
<path d="M286.1570 134.2936
L286.3427 134.3555
" />
<path d="M286.3427 134.3555
L286.4046 134.4174
" />
</g></g>
<g style="fill:none; 
stroke:#000000; stroke-width:0.1500; stroke-opacity:1; 
stroke-linecap:round; stroke-linejoin:round;">
<text x="286.0022" y="185.6500"
textLength="1.4900" font-size="1.7333" lengthAdjust="spacingAndGlyphs"
text-anchor="middle" opacity="0">D</text>
<g class="stroked-text"><desc>D</desc>
<path d="M285.6617 185.5936
L285.6617 184.2936
" />
<path d="M285.6617 184.2936
L285.9712 184.2936
" />
<path d="M285.9712 184.2936
L286.1570 184.3555
" />
<path d="M286.1570 184.3555
L286.2808 184.4793
" />
<path d="M286.2808 184.4793
L286.3427 184.6031
" />
<path d="M286.3427 184.6031
L286.4046 184.8507
" />
<path d="M286.4046 184.8507
L286.4046 185.0365
" />
<path d="M286.4046 185.0365
L286.3427 185.2841
" />
<path d="M286.3427 185.2841
L286.2808 185.4079
" />
<path d="M286.2808 185.4079
L286.1570 185.5317
" />
<path d="M286.1570 185.5317
L285.9712 185.5936
" />
<path d="M285.9712 185.5936
L285.6617 185.5936
" />
</g></g>
<g style="fill:none; 
stroke:#000000; stroke-width:0.1500; stroke-opacity:1; 
stroke-linecap:round; stroke-linejoin:round;">
<text x="200.0022" y="193.8572"
textLength="7.0071" font-size="2.0000" lengthAdjust="spacingAndGlyphs"
text-anchor="start" opacity="0">Date: </text>
<g class="stroked-text"><desc>Date: </desc>
<path d="M200.4580 193.7933
L200.4580 192.2933
" />
<path d="M200.4580 192.2933
L200.8152 192.2933
" />
<path d="M200.8152 192.2933
L201.0295 192.3648
" />
<path d="M201.0295 192.3648
L201.1723 192.5076
" />
<path d="M201.1723 192.5076
L201.2437 192.6505
" />
<path d="M201.2437 192.6505
L201.3152 192.9362
" />
<path d="M201.3152 192.9362
L201.3152 193.1505
" />
<path d="M201.3152 193.1505
L201.2437 193.4362
" />
<path d="M201.2437 193.4362
L201.1723 193.5790
" />
<path d="M201.1723 193.5790
L201.0295 193.7219
" />
<path d="M201.0295 193.7219
L200.8152 193.7933
" />
<path d="M200.8152 193.7933
L200.4580 193.7933
" />
<path d="M202.6009 193.7933
L202.6009 193.0076
" />
<path d="M202.6009 193.0076
L202.5295 192.8648
" />
<path d="M202.5295 192.8648
L202.3866 192.7933
" />
<path d="M202.3866 192.7933
L202.1009 192.7933
" />
<path d="M202.1009 192.7933
L201.9580 192.8648
" />
<path d="M202.6009 193.7219
L202.4580 193.7933
" />
<path d="M202.4580 193.7933
L202.1009 193.7933
" />
<path d="M202.1009 193.7933
L201.9580 193.7219
" />
<path d="M201.9580 193.7219
L201.8866 193.5790
" />
<path d="M201.8866 193.5790
L201.8866 193.4362
" />
<path d="M201.8866 193.4362
L201.9580 193.2933
" />
<path d="M201.9580 193.2933
L202.1009 193.2219
" />
<path d="M202.1009 193.2219
L202.4580 193.2219
" />
<path d="M202.4580 193.2219
L202.6009 193.1505
" />
<path d="M203.1009 192.7933
L203.6723 192.7933
" />
<path d="M203.3152 192.2933
L203.3152 193.5790
" />
<path d="M203.3152 193.5790
L203.3866 193.7219
" />
<path d="M203.3866 193.7219
L203.5295 193.7933
" />
<path d="M203.5295 193.7933
L203.6723 193.7933
" />
<path d="M204.7437 193.7219
L204.6009 193.7933
" />
<path d="M204.6009 193.7933
L204.3152 193.7933
" />
<path d="M204.3152 193.7933
L204.1723 193.7219
" />
<path d="M204.1723 193.7219
L204.1009 193.5790
" />
<path d="M204.1009 193.5790
L204.1009 193.0076
" />
<path d="M204.1009 193.0076
L204.1723 192.8648
" />
<path d="M204.1723 192.8648
L204.3152 192.7933
" />
<path d="M204.3152 192.7933
L204.6009 192.7933
" />
<path d="M204.6009 192.7933
L204.7437 192.8648
" />
<path d="M204.7437 192.8648
L204.8152 193.0076
" />
<path d="M204.8152 193.0076
L204.8152 193.1505
" />
<path d="M204.8152 193.1505
L204.1009 193.2933
" />
<path d="M205.4580 193.6505
L205.5295 193.7219
" />
<path d="M205.5295 193.7219
L205.4580 193.7933
" />
<path d="M205.4580 193.7933
L205.3866 193.7219
" />
<path d="M205.3866 193.7219
L205.4580 193.6505
" />
<path d="M205.4580 193.6505
L205.4580 193.7933
" />
<path d="M205.4580 192.8648
L205.5295 192.9362
" />
<path d="M205.5295 192.9362
L205.4580 193.0076
" />
<path d="M205.4580 193.0076
L205.3866 192.9362
" />
<path d="M205.3866 192.9362
L205.4580 192.8648
" />
<path d="M205.4580 192.8648
L205.4580 193.0076
" />
</g></g>
<g style="fill:none; 
stroke:#000000; stroke-width:0.1500; stroke-opacity:1; 
stroke-linecap:round; stroke-linejoin:round;">
<path d="M177.0022 194.5072
L285.0022 194.5072
" />
</g>
<g style="fill:none; 
stroke:#000000; stroke-width:0.1500; stroke-opacity:1; 
stroke-linecap:round; stroke-linejoin:round;">
<text x="178.0022" y="196.6572"
textLength="20.6500" font-size="2.0000" lengthAdjust="spacingAndGlyphs"
text-anchor="start" opacity="0">${KICAD_VERSION}</text>
<g class="stroked-text"><desc>${KICAD_VERSION}</desc>
<path d="M178.3866 196.5219
L178.6009 196.5933
" />
<path d="M178.6009 196.5933
L178.9580 196.5933
" />
<path d="M178.9580 196.5933
L179.1009 196.5219
" />
<path d="M179.1009 196.5219
L179.1723 196.4505
" />
<path d="M179.1723 196.4505
L179.2437 196.3076
" />
<path d="M179.2437 196.3076
L179.2437 196.1648
" />
<path d="M179.2437 196.1648
L179.1723 196.0219
" />
<path d="M179.1723 196.0219
L179.1009 195.9505
" />
<path d="M179.1009 195.9505
L178.9580 195.8790
" />
<path d="M178.9580 195.8790
L178.6723 195.8076
" />
<path d="M178.6723 195.8076
L178.5295 195.7362
" />
<path d="M178.5295 195.7362
L178.4580 195.6648
" />
<path d="M178.4580 195.6648
L178.3866 195.5219
" />
<path d="M178.3866 195.5219
L178.3866 195.3790
" />
<path d="M178.3866 195.3790
L178.4580 195.2362
" />
<path d="M178.4580 195.2362
L178.5295 195.1648
" />
<path d="M178.5295 195.1648
L178.6723 195.0933
" />
<path d="M178.6723 195.0933
L179.0295 195.0933
" />
<path d="M179.0295 195.0933
L179.2437 195.1648
" />
<path d="M178.8152 194.8790
L178.8152 196.8076
" />
<path d="M180.3152 197.1648
L180.2437 197.1648
" />
<path d="M180.2437 197.1648
L180.1009 197.0933
" />
<path d="M180.1009 197.0933
L180.0295 196.9505
" />
<path d="M180.0295 196.9505
L180.0295 196.2362
" />
<path d="M180.0295 196.2362
L179.9580 196.0933
" />
<path d="M179.9580 196.0933
L179.8152 196.0219
" />
<path d="M179.8152 196.0219
L179.9580 195.9505
" />
<path d="M179.9580 195.9505
L180.0295 195.8076
" />
<path d="M180.0295 195.8076
L180.0295 195.0933
" />
<path d="M180.0295 195.0933
L180.1009 194.9505
" />
<path d="M180.1009 194.9505
L180.2437 194.8790
" />
<path d="M180.2437 194.8790
L180.3152 194.8790
" />
<path d="M180.8866 196.5933
L180.8866 195.0933
" />
<path d="M181.7437 196.5933
L181.1009 195.7362
" />
<path d="M181.7437 195.0933
L180.8866 195.9505
" />
<path d="M182.3866 196.5933
L182.3866 195.0933
" />
<path d="M183.9580 196.4505
L183.8866 196.5219
" />
<path d="M183.8866 196.5219
L183.6723 196.5933
" />
<path d="M183.6723 196.5933
L183.5295 196.5933
" />
<path d="M183.5295 196.5933
L183.3152 196.5219
" />
<path d="M183.3152 196.5219
L183.1723 196.3790
" />
<path d="M183.1723 196.3790
L183.1009 196.2362
" />
<path d="M183.1009 196.2362
L183.0295 195.9505
" />
<path d="M183.0295 195.9505
L183.0295 195.7362
" />
<path d="M183.0295 195.7362
L183.1009 195.4505
" />
<path d="M183.1009 195.4505
L183.1723 195.3076
" />
<path d="M183.1723 195.3076
L183.3152 195.1648
" />
<path d="M183.3152 195.1648
L183.5295 195.0933
" />
<path d="M183.5295 195.0933
L183.6723 195.0933
" />
<path d="M183.6723 195.0933
L183.8866 195.1648
" />
<path d="M183.8866 195.1648
L183.9580 195.2362
" />
<path d="M184.5295 196.1648
L185.2437 196.1648
" />
<path d="M184.3866 196.5933
L184.8866 195.0933
" />
<path d="M184.8866 195.0933
L185.3866 196.5933
" />
<path d="M185.8866 196.5933
L185.8866 195.0933
" />
<path d="M185.8866 195.0933
L186.2437 195.0933
" />
<path d="M186.2437 195.0933
L186.4580 195.1648
" />
<path d="M186.4580 195.1648
L186.6009 195.3076
" />
<path d="M186.6009 195.3076
L186.6723 195.4505
" />
<path d="M186.6723 195.4505
L186.7437 195.7362
" />
<path d="M186.7437 195.7362
L186.7437 195.9505
" />
<path d="M186.7437 195.9505
L186.6723 196.2362
" />
<path d="M186.6723 196.2362
L186.6009 196.3790
" />
<path d="M186.6009 196.3790
L186.4580 196.5219
" />
<path d="M186.4580 196.5219
L186.2437 196.5933
" />
<path d="M186.2437 196.5933
L185.8866 196.5933
" />
<path d="M187.0295 196.7362
L188.1723 196.7362
" />
<path d="M188.3152 195.0933
L188.8152 196.5933
" />
<path d="M188.8152 196.5933
L189.3152 195.0933
" />
<path d="M189.8152 195.8076
L190.3152 195.8076
" />
<path d="M190.5295 196.5933
L189.8152 196.5933
" />
<path d="M189.8152 196.5933
L189.8152 195.0933
" />
<path d="M189.8152 195.0933
L190.5295 195.0933
" />
<path d="M192.0295 196.5933
L191.5295 195.8790
" />
<path d="M191.1723 196.5933
L191.1723 195.0933
" />
<path d="M191.1723 195.0933
L191.7437 195.0933
" />
<path d="M191.7437 195.0933
L191.8866 195.1648
" />
<path d="M191.8866 195.1648
L191.9580 195.2362
" />
<path d="M191.9580 195.2362
L192.0295 195.3790
" />
<path d="M192.0295 195.3790
L192.0295 195.5933
" />
<path d="M192.0295 195.5933
L191.9580 195.7362
" />
<path d="M191.9580 195.7362
L191.8866 195.8076
" />
<path d="M191.8866 195.8076
L191.7437 195.8790
" />
<path d="M191.7437 195.8790
L191.1723 195.8790
" />
<path d="M192.6009 196.5219
L192.8152 196.5933
" />
<path d="M192.8152 196.5933
L193.1723 196.5933
" />
<path d="M193.1723 196.5933
L193.3152 196.5219
" />
<path d="M193.3152 196.5219
L193.3866 196.4505
" />
<path d="M193.3866 196.4505
L193.4580 196.3076
" />
<path d="M193.4580 196.3076
L193.4580 196.1648
" />
<path d="M193.4580 196.1648
L193.3866 196.0219
" />
<path d="M193.3866 196.0219
L193.3152 195.9505
" />
<path d="M193.3152 195.9505
L193.1723 195.8790
" />
<path d="M193.1723 195.8790
L192.8866 195.8076
" />
<path d="M192.8866 195.8076
L192.7437 195.7362
" />
<path d="M192.7437 195.7362
L192.6723 195.6648
" />
<path d="M192.6723 195.6648
L192.6009 195.5219
" />
<path d="M192.6009 195.5219
L192.6009 195.3790
" />
<path d="M192.6009 195.3790
L192.6723 195.2362
" />
<path d="M192.6723 195.2362
L192.7437 195.1648
" />
<path d="M192.7437 195.1648
L192.8866 195.0933
" />
<path d="M192.8866 195.0933
L193.2437 195.0933
" />
<path d="M193.2437 195.0933
L193.4580 195.1648
" />
<path d="M194.1009 196.5933
L194.1009 195.0933
" />
<path d="M195.1009 195.0933
L195.3866 195.0933
" />
<path d="M195.3866 195.0933
L195.5295 195.1648
" />
<path d="M195.5295 195.1648
L195.6723 195.3076
" />
<path d="M195.6723 195.3076
L195.7437 195.5933
" />
<path d="M195.7437 195.5933
L195.7437 196.0933
" />
<path d="M195.7437 196.0933
L195.6723 196.3790
" />
<path d="M195.6723 196.3790
L195.5295 196.5219
" />
<path d="M195.5295 196.5219
L195.3866 196.5933
" />
<path d="M195.3866 196.5933
L195.1009 196.5933
" />
<path d="M195.1009 196.5933
L194.9580 196.5219
" />
<path d="M194.9580 196.5219
L194.8152 196.3790
" />
<path d="M194.8152 196.3790
L194.7437 196.0933
" />
<path d="M194.7437 196.0933
L194.7437 195.5933
" />
<path d="M194.7437 195.5933
L194.8152 195.3076
" />
<path d="M194.8152 195.3076
L194.9580 195.1648
" />
<path d="M194.9580 195.1648
L195.1009 195.0933
" />
<path d="M196.3866 196.5933
L196.3866 195.0933
" />
<path d="M196.3866 195.0933
L197.2437 196.5933
" />
<path d="M197.2437 196.5933
L197.2437 195.0933
" />
<path d="M197.8152 197.1648
L197.8866 197.1648
" />
<path d="M197.8866 197.1648
L198.0295 197.0933
" />
<path d="M198.0295 197.0933
L198.1009 196.9505
" />
<path d="M198.1009 196.9505
L198.1009 196.2362
" />
<path d="M198.1009 196.2362
L198.1723 196.0933
" />
<path d="M198.1723 196.0933
L198.3152 196.0219
" />
<path d="M198.3152 196.0219
L198.1723 195.9505
" />
<path d="M198.1723 195.9505
L198.1009 195.8076
" />
<path d="M198.1009 195.8076
L198.1009 195.0933
" />
<path d="M198.1009 195.0933
L198.0295 194.9505
" />
<path d="M198.0295 194.9505
L197.8866 194.8790
" />
<path d="M197.8866 194.8790
L197.8152 194.8790
" />
</g></g>
<g style="fill:none; 
stroke:#000000; stroke-width:0.1500; stroke-opacity:1; 
stroke-linecap:round; stroke-linejoin:round;">
<path d="M177.0022 191.5072
L285.0022 191.5072
" />
</g>
<g style="fill:none; 
stroke:#000000; stroke-width:0.3000; stroke-opacity:1; 
stroke-linecap:round; stroke-linejoin:round;">
<text x="263.0022" y="193.8572"
textLength="6.3857" font-size="2.0000" lengthAdjust="spacingAndGlyphs"
text-anchor="start" opacity="0">Rev: </text>
<g class="stroked-text"><desc>Rev: </desc>
<path d="M264.4139 193.7855
L263.9139 193.0712
" />
<path d="M263.5567 193.7855
L263.5567 192.2855
" />
<path d="M263.5567 192.2855
L264.1281 192.2855
" />
<path d="M264.1281 192.2855
L264.2710 192.3570
" />
<path d="M264.2710 192.3570
L264.3424 192.4284
" />
<path d="M264.3424 192.4284
L264.4139 192.5712
" />
<path d="M264.4139 192.5712
L264.4139 192.7855
" />
<path d="M264.4139 192.7855
L264.3424 192.9284
" />
<path d="M264.3424 192.9284
L264.2710 192.9998
" />
<path d="M264.2710 192.9998
L264.1281 193.0712
" />
<path d="M264.1281 193.0712
L263.5567 193.0712
" />
<path d="M265.6281 193.7141
L265.4853 193.7855
" />
<path d="M265.4853 193.7855
L265.1996 193.7855
" />
<path d="M265.1996 193.7855
L265.0567 193.7141
" />
<path d="M265.0567 193.7141
L264.9853 193.5712
" />
<path d="M264.9853 193.5712
L264.9853 192.9998
" />
<path d="M264.9853 192.9998
L265.0567 192.8570
" />
<path d="M265.0567 192.8570
L265.1996 192.7855
" />
<path d="M265.1996 192.7855
L265.4853 192.7855
" />
<path d="M265.4853 192.7855
L265.6281 192.8570
" />
<path d="M265.6281 192.8570
L265.6996 192.9998
" />
<path d="M265.6996 192.9998
L265.6996 193.1427
" />
<path d="M265.6996 193.1427
L264.9853 193.2855
" />
<path d="M266.1996 192.7855
L266.5567 193.7855
" />
<path d="M266.5567 193.7855
L266.9139 192.7855
" />
<path d="M267.4853 193.6427
L267.5567 193.7141
" />
<path d="M267.5567 193.7141
L267.4853 193.7855
" />
<path d="M267.4853 193.7855
L267.4139 193.7141
" />
<path d="M267.4139 193.7141
L267.4853 193.6427
" />
<path d="M267.4853 193.6427
L267.4853 193.7855
" />
<path d="M267.4853 192.8570
L267.5567 192.9284
" />
<path d="M267.5567 192.9284
L267.4853 192.9998
" />
<path d="M267.4853 192.9998
L267.4139 192.9284
" />
<path d="M267.4139 192.9284
L267.4853 192.8570
" />
<path d="M267.4853 192.8570
L267.4853 192.9998
" />
</g></g>
<g style="fill:none; 
stroke:#000000; stroke-width:0.1500; stroke-opacity:1; 
stroke-linecap:round; stroke-linejoin:round;">
<text x="178.0022" y="193.8572"
textLength="9.3643" font-size="2.0000" lengthAdjust="spacingAndGlyphs"
text-anchor="start" opacity="0">Size: A4</text>
<g class="stroked-text"><desc>Size: A4</desc>
<path d="M178.3866 193.7219
L178.6009 193.7933
" />
<path d="M178.6009 193.7933
L178.9580 193.7933
" />
<path d="M178.9580 193.7933
L179.1009 193.7219
" />
<path d="M179.1009 193.7219
L179.1723 193.6505
" />
<path d="M179.1723 193.6505
L179.2437 193.5076
" />
<path d="M179.2437 193.5076
L179.2437 193.3648
" />
<path d="M179.2437 193.3648
L179.1723 193.2219
" />
<path d="M179.1723 193.2219
L179.1009 193.1505
" />
<path d="M179.1009 193.1505
L178.9580 193.0790
" />
<path d="M178.9580 193.0790
L178.6723 193.0076
" />
<path d="M178.6723 193.0076
L178.5295 192.9362
" />
<path d="M178.5295 192.9362
L178.4580 192.8648
" />
<path d="M178.4580 192.8648
L178.3866 192.7219
" />
<path d="M178.3866 192.7219
L178.3866 192.5790
" />
<path d="M178.3866 192.5790
L178.4580 192.4362
" />
<path d="M178.4580 192.4362
L178.5295 192.3648
" />
<path d="M178.5295 192.3648
L178.6723 192.2933
" />
<path d="M178.6723 192.2933
L179.0295 192.2933
" />
<path d="M179.0295 192.2933
L179.2437 192.3648
" />
<path d="M179.8866 193.7933
L179.8866 192.7933
" />
<path d="M179.8866 192.2933
L179.8152 192.3648
" />
<path d="M179.8152 192.3648
L179.8866 192.4362
" />
<path d="M179.8866 192.4362
L179.9580 192.3648
" />
<path d="M179.9580 192.3648
L179.8866 192.2933
" />
<path d="M179.8866 192.2933
L179.8866 192.4362
" />
<path d="M180.4580 192.7933
L181.2437 192.7933
" />
<path d="M181.2437 192.7933
L180.4580 193.7933
" />
<path d="M180.4580 193.7933
L181.2437 193.7933
" />
<path d="M182.3866 193.7219
L182.2437 193.7933
" />
<path d="M182.2437 193.7933
L181.9580 193.7933
" />
<path d="M181.9580 193.7933
L181.8152 193.7219
" />
<path d="M181.8152 193.7219
L181.7437 193.5790
" />
<path d="M181.7437 193.5790
L181.7437 193.0076
" />
<path d="M181.7437 193.0076
L181.8152 192.8648
" />
<path d="M181.8152 192.8648
L181.9580 192.7933
" />
<path d="M181.9580 192.7933
L182.2437 192.7933
" />
<path d="M182.2437 192.7933
L182.3866 192.8648
" />
<path d="M182.3866 192.8648
L182.4580 193.0076
" />
<path d="M182.4580 193.0076
L182.4580 193.1505
" />
<path d="M182.4580 193.1505
L181.7437 193.2933
" />
<path d="M183.1009 193.6505
L183.1723 193.7219
" />
<path d="M183.1723 193.7219
L183.1009 193.7933
" />
<path d="M183.1009 193.7933
L183.0295 193.7219
" />
<path d="M183.0295 193.7219
L183.1009 193.6505
" />
<path d="M183.1009 193.6505
L183.1009 193.7933
" />
<path d="M183.1009 192.8648
L183.1723 192.9362
" />
<path d="M183.1723 192.9362
L183.1009 193.0076
" />
<path d="M183.1009 193.0076
L183.0295 192.9362
" />
<path d="M183.0295 192.9362
L183.1009 192.8648
" />
<path d="M183.1009 192.8648
L183.1009 193.0076
" />
<path d="M184.8866 193.3648
L185.6009 193.3648
" />
<path d="M184.7437 193.7933
L185.2437 192.2933
" />
<path d="M185.2437 192.2933
L185.7437 193.7933
" />
<path d="M186.8866 192.7933
L186.8866 193.7933
" />
<path d="M186.5295 192.2219
L186.1723 193.2933
" />
<path d="M186.1723 193.2933
L187.1009 193.2933
" />
</g></g>
<g style="fill:none; 
stroke:#000000; stroke-width:0.1500; stroke-opacity:1; 
stroke-linecap:round; stroke-linejoin:round;">
<text x="263.0022" y="196.6572"
textLength="8.5071" font-size="2.0000" lengthAdjust="spacingAndGlyphs"
text-anchor="start" opacity="0">Id: 1/1</text>
<g class="stroked-text"><desc>Id: 1/1</desc>
<path d="M263.4580 196.5933
L263.4580 195.0933
" />
<path d="M264.8152 196.5933
L264.8152 195.0933
" />
<path d="M264.8152 196.5219
L264.6723 196.5933
" />
<path d="M264.6723 196.5933
L264.3866 196.5933
" />
<path d="M264.3866 196.5933
L264.2437 196.5219
" />
<path d="M264.2437 196.5219
L264.1723 196.4505
" />
<path d="M264.1723 196.4505
L264.1009 196.3076
" />
<path d="M264.1009 196.3076
L264.1009 195.8790
" />
<path d="M264.1009 195.8790
L264.1723 195.7362
" />
<path d="M264.1723 195.7362
L264.2437 195.6648
" />
<path d="M264.2437 195.6648
L264.3866 195.5933
" />
<path d="M264.3866 195.5933
L264.6723 195.5933
" />
<path d="M264.6723 195.5933
L264.8152 195.6648
" />
<path d="M265.5295 196.4505
L265.6009 196.5219
" />
<path d="M265.6009 196.5219
L265.5295 196.5933
" />
<path d="M265.5295 196.5933
L265.4580 196.5219
" />
<path d="M265.4580 196.5219
L265.5295 196.4505
" />
<path d="M265.5295 196.4505
L265.5295 196.5933
" />
<path d="M265.5295 195.6648
L265.6009 195.7362
" />
<path d="M265.6009 195.7362
L265.5295 195.8076
" />
<path d="M265.5295 195.8076
L265.4580 195.7362
" />
<path d="M265.4580 195.7362
L265.5295 195.6648
" />
<path d="M265.5295 195.6648
L265.5295 195.8076
" />
<path d="M268.1723 196.5933
L267.3152 196.5933
" />
<path d="M267.7437 196.5933
L267.7437 195.0933
" />
<path d="M267.7437 195.0933
L267.6009 195.3076
" />
<path d="M267.6009 195.3076
L267.4580 195.4505
" />
<path d="M267.4580 195.4505
L267.3152 195.5219
" />
<path d="M269.8866 195.0219
L268.6009 196.9505
" />
<path d="M271.1723 196.5933
L270.3152 196.5933
" />
<path d="M270.7437 196.5933
L270.7437 195.0933
" />
<path d="M270.7437 195.0933
L270.6009 195.3076
" />
<path d="M270.6009 195.3076
L270.4580 195.4505
" />
<path d="M270.4580 195.4505
L270.3152 195.5219
" />
</g></g>
<g style="fill:none; 
stroke:#000000; stroke-width:0.1500; stroke-opacity:1; 
stroke-linecap:round; stroke-linejoin:round;">
<path d="M177.0022 187.5072
L285.0022 187.5072
" />
</g>
<g style="fill:none; 
stroke:#000000; stroke-width:0.4000; stroke-opacity:1; 
stroke-linecap:round; stroke-linejoin:round;">
<text x="178.0022" y="190.3072"
textLength="9.6571" font-size="2.6667" lengthAdjust="spacingAndGlyphs"
text-anchor="start" opacity="0">Title: </text>
<g class="stroked-text"><desc>Title: </desc>
<path d="M178.6939 188.2116
L179.8368 188.2116
" />
<path d="M179.0154 190.2116
L179.2654 188.2116
" />
<path d="M180.2535 190.2116
L180.4201 188.8783
" />
<path d="M180.5035 188.2116
L180.3963 188.3069
" />
<path d="M180.3963 188.3069
L180.4796 188.4021
" />
<path d="M180.4796 188.4021
L180.5868 188.3069
" />
<path d="M180.5868 188.3069
L180.5035 188.2116
" />
<path d="M180.5035 188.2116
L180.4796 188.4021
" />
<path d="M181.0868 188.8783
L181.8487 188.8783
" />
<path d="M181.4558 188.2116
L181.2415 189.9259
" />
<path d="M181.2415 189.9259
L181.3130 190.1164
" />
<path d="M181.3130 190.1164
L181.4915 190.2116
" />
<path d="M181.4915 190.2116
L181.6820 190.2116
" />
<path d="M182.6344 190.2116
L182.4558 190.1164
" />
<path d="M182.4558 190.1164
L182.3844 189.9259
" />
<path d="M182.3844 189.9259
L182.5987 188.2116
" />
<path d="M184.1701 190.1164
L183.9677 190.2116
" />
<path d="M183.9677 190.2116
L183.5868 190.2116
" />
<path d="M183.5868 190.2116
L183.4082 190.1164
" />
<path d="M183.4082 190.1164
L183.3368 189.9259
" />
<path d="M183.3368 189.9259
L183.4320 189.1640
" />
<path d="M183.4320 189.1640
L183.5511 188.9735
" />
<path d="M183.5511 188.9735
L183.7535 188.8783
" />
<path d="M183.7535 188.8783
L184.1344 188.8783
" />
<path d="M184.1344 188.8783
L184.3130 188.9735
" />
<path d="M184.3130 188.9735
L184.3844 189.1640
" />
<path d="M184.3844 189.1640
L184.3606 189.3545
" />
<path d="M184.3606 189.3545
L183.3844 189.5450
" />
<path d="M185.1344 190.0212
L185.2177 190.1164
" />
<path d="M185.2177 190.1164
L185.1106 190.2116
" />
<path d="M185.1106 190.2116
L185.0273 190.1164
" />
<path d="M185.0273 190.1164
L185.1344 190.0212
" />
<path d="M185.1344 190.0212
L185.1106 190.2116
" />
<path d="M185.2654 188.9735
L185.3487 189.0688
" />
<path d="M185.3487 189.0688
L185.2415 189.1640
" />
<path d="M185.2415 189.1640
L185.1582 189.0688
" />
<path d="M185.1582 189.0688
L185.2654 188.9735
" />
<path d="M185.2654 188.9735
L185.2415 189.1640
" />
</g></g>
<g style="fill:none; 
stroke:#000000; stroke-width:0.1500; stroke-opacity:1; 
stroke-linecap:round; stroke-linejoin:round;">
<text x="178.0022" y="186.4572"
textLength="41.7929" font-size="2.0000" lengthAdjust="spacingAndGlyphs"
text-anchor="start" opacity="0">File: OpenMowerMainboard.kicad_pcb</text>
<g class="stroked-text"><desc>File: OpenMowerMainboard.kicad_pcb</desc>
<path d="M178.9580 185.6076
L178.4580 185.6076
" />
<path d="M178.4580 186.3933
L178.4580 184.8933
" />
<path d="M178.4580 184.8933
L179.1723 184.8933
" />
<path d="M179.7437 186.3933
L179.7437 185.3933
" />
<path d="M179.7437 184.8933
L179.6723 184.9648
" />
<path d="M179.6723 184.9648
L179.7437 185.0362
" />
<path d="M179.7437 185.0362
L179.8152 184.9648
" />
<path d="M179.8152 184.9648
L179.7437 184.8933
" />
<path d="M179.7437 184.8933
L179.7437 185.0362
" />
<path d="M180.6723 186.3933
L180.5295 186.3219
" />
<path d="M180.5295 186.3219
L180.4580 186.1790
" />
<path d="M180.4580 186.1790
L180.4580 184.8933
" />
<path d="M181.8152 186.3219
L181.6723 186.3933
" />
<path d="M181.6723 186.3933
L181.3866 186.3933
" />
<path d="M181.3866 186.3933
L181.2437 186.3219
" />
<path d="M181.2437 186.3219
L181.1723 186.1790
" />
<path d="M181.1723 186.1790
L181.1723 185.6076
" />
<path d="M181.1723 185.6076
L181.2437 185.4648
" />
<path d="M181.2437 185.4648
L181.3866 185.3933
" />
<path d="M181.3866 185.3933
L181.6723 185.3933
" />
<path d="M181.6723 185.3933
L181.8152 185.4648
" />
<path d="M181.8152 185.4648
L181.8866 185.6076
" />
<path d="M181.8866 185.6076
L181.8866 185.7505
" />
<path d="M181.8866 185.7505
L181.1723 185.8933
" />
<path d="M182.5295 186.2505
L182.6009 186.3219
" />
<path d="M182.6009 186.3219
L182.5295 186.3933
" />
<path d="M182.5295 186.3933
L182.4580 186.3219
" />
<path d="M182.4580 186.3219
L182.5295 186.2505
" />
<path d="M182.5295 186.2505
L182.5295 186.3933
" />
<path d="M182.5295 185.4648
L182.6009 185.5362
" />
<path d="M182.6009 185.5362
L182.5295 185.6076
" />
<path d="M182.5295 185.6076
L182.4580 185.5362
" />
<path d="M182.4580 185.5362
L182.5295 185.4648
" />
<path d="M182.5295 185.4648
L182.5295 185.6076
" />
<path d="M184.6723 184.8933
L184.9580 184.8933
" />
<path d="M184.9580 184.8933
L185.1009 184.9648
" />
<path d="M185.1009 184.9648
L185.2437 185.1076
" />
<path d="M185.2437 185.1076
L185.3152 185.3933
" />
<path d="M185.3152 185.3933
L185.3152 185.8933
" />
<path d="M185.3152 185.8933
L185.2437 186.1790
" />
<path d="M185.2437 186.1790
L185.1009 186.3219
" />
<path d="M185.1009 186.3219
L184.9580 186.3933
" />
<path d="M184.9580 186.3933
L184.6723 186.3933
" />
<path d="M184.6723 186.3933
L184.5295 186.3219
" />
<path d="M184.5295 186.3219
L184.3866 186.1790
" />
<path d="M184.3866 186.1790
L184.3152 185.8933
" />
<path d="M184.3152 185.8933
L184.3152 185.3933
" />
<path d="M184.3152 185.3933
L184.3866 185.1076
" />
<path d="M184.3866 185.1076
L184.5295 184.9648
" />
<path d="M184.5295 184.9648
L184.6723 184.8933
" />
<path d="M185.9580 185.3933
L185.9580 186.8933
" />
<path d="M185.9580 185.4648
L186.1009 185.3933
" />
<path d="M186.1009 185.3933
L186.3866 185.3933
" />
<path d="M186.3866 185.3933
L186.5295 185.4648
" />
<path d="M186.5295 185.4648
L186.6009 185.5362
" />
<path d="M186.6009 185.5362
L186.6723 185.6790
" />
<path d="M186.6723 185.6790
L186.6723 186.1076
" />
<path d="M186.6723 186.1076
L186.6009 186.2505
" />
<path d="M186.6009 186.2505
L186.5295 186.3219
" />
<path d="M186.5295 186.3219
L186.3866 186.3933
" />
<path d="M186.3866 186.3933
L186.1009 186.3933
" />
<path d="M186.1009 186.3933
L185.9580 186.3219
" />
<path d="M187.8866 186.3219
L187.7437 186.3933
" />
<path d="M187.7437 186.3933
L187.4580 186.3933
" />
<path d="M187.4580 186.3933
L187.3152 186.3219
" />
<path d="M187.3152 186.3219
L187.2437 186.1790
" />
<path d="M187.2437 186.1790
L187.2437 185.6076
" />
<path d="M187.2437 185.6076
L187.3152 185.4648
" />
<path d="M187.3152 185.4648
L187.4580 185.3933
" />
<path d="M187.4580 185.3933
L187.7437 185.3933
" />
<path d="M187.7437 185.3933
L187.8866 185.4648
" />
<path d="M187.8866 185.4648
L187.9580 185.6076
" />
<path d="M187.9580 185.6076
L187.9580 185.7505
" />
<path d="M187.9580 185.7505
L187.2437 185.8933
" />
<path d="M188.6009 185.3933
L188.6009 186.3933
" />
<path d="M188.6009 185.5362
L188.6723 185.4648
" />
<path d="M188.6723 185.4648
L188.8152 185.3933
" />
<path d="M188.8152 185.3933
L189.0295 185.3933
" />
<path d="M189.0295 185.3933
L189.1723 185.4648
" />
<path d="M189.1723 185.4648
L189.2437 185.6076
" />
<path d="M189.2437 185.6076
L189.2437 186.3933
" />
<path d="M189.9580 186.3933
L189.9580 184.8933
" />
<path d="M189.9580 184.8933
L190.4580 185.9648
" />
<path d="M190.4580 185.9648
L190.9580 184.8933
" />
<path d="M190.9580 184.8933
L190.9580 186.3933
" />
<path d="M191.8866 186.3933
L191.7437 186.3219
" />
<path d="M191.7437 186.3219
L191.6723 186.2505
" />
<path d="M191.6723 186.2505
L191.6009 186.1076
" />
<path d="M191.6009 186.1076
L191.6009 185.6790
" />
<path d="M191.6009 185.6790
L191.6723 185.5362
" />
<path d="M191.6723 185.5362
L191.7437 185.4648
" />
<path d="M191.7437 185.4648
L191.8866 185.3933
" />
<path d="M191.8866 185.3933
L192.1009 185.3933
" />
<path d="M192.1009 185.3933
L192.2437 185.4648
" />
<path d="M192.2437 185.4648
L192.3152 185.5362
" />
<path d="M192.3152 185.5362
L192.3866 185.6790
" />
<path d="M192.3866 185.6790
L192.3866 186.1076
" />
<path d="M192.3866 186.1076
L192.3152 186.2505
" />
<path d="M192.3152 186.2505
L192.2437 186.3219
" />
<path d="M192.2437 186.3219
L192.1009 186.3933
" />
<path d="M192.1009 186.3933
L191.8866 186.3933
" />
<path d="M192.8866 185.3933
L193.1723 186.3933
" />
<path d="M193.1723 186.3933
L193.4580 185.6790
" />
<path d="M193.4580 185.6790
L193.7437 186.3933
" />
<path d="M193.7437 186.3933
L194.0295 185.3933
" />
<path d="M195.1723 186.3219
L195.0295 186.3933
" />
<path d="M195.0295 186.3933
L194.7437 186.3933
" />
<path d="M194.7437 186.3933
L194.6009 186.3219
" />
<path d="M194.6009 186.3219
L194.5295 186.1790
" />
<path d="M194.5295 186.1790
L194.5295 185.6076
" />
<path d="M194.5295 185.6076
L194.6009 185.4648
" />
<path d="M194.6009 185.4648
L194.7437 185.3933
" />
<path d="M194.7437 185.3933
L195.0295 185.3933
" />
<path d="M195.0295 185.3933
L195.1723 185.4648
" />
<path d="M195.1723 185.4648
L195.2437 185.6076
" />
<path d="M195.2437 185.6076
L195.2437 185.7505
" />
<path d="M195.2437 185.7505
L194.5295 185.8933
" />
<path d="M195.8866 186.3933
L195.8866 185.3933
" />
<path d="M195.8866 185.6790
L195.9580 185.5362
" />
<path d="M195.9580 185.5362
L196.0295 185.4648
" />
<path d="M196.0295 185.4648
L196.1723 185.3933
" />
<path d="M196.1723 185.3933
L196.3152 185.3933
" />
<path d="M196.8152 186.3933
L196.8152 184.8933
" />
<path d="M196.8152 184.8933
L197.3152 185.9648
" />
<path d="M197.3152 185.9648
L197.8152 184.8933
" />
<path d="M197.8152 184.8933
L197.8152 186.3933
" />
<path d="M199.1723 186.3933
L199.1723 185.6076
" />
<path d="M199.1723 185.6076
L199.1009 185.4648
" />
<path d="M199.1009 185.4648
L198.9580 185.3933
" />
<path d="M198.9580 185.3933
L198.6723 185.3933
" />
<path d="M198.6723 185.3933
L198.5295 185.4648
" />
<path d="M199.1723 186.3219
L199.0295 186.3933
" />
<path d="M199.0295 186.3933
L198.6723 186.3933
" />
<path d="M198.6723 186.3933
L198.5295 186.3219
" />
<path d="M198.5295 186.3219
L198.4580 186.1790
" />
<path d="M198.4580 186.1790
L198.4580 186.0362
" />
<path d="M198.4580 186.0362
L198.5295 185.8933
" />
<path d="M198.5295 185.8933
L198.6723 185.8219
" />
<path d="M198.6723 185.8219
L199.0295 185.8219
" />
<path d="M199.0295 185.8219
L199.1723 185.7505
" />
<path d="M199.8866 186.3933
L199.8866 185.3933
" />
<path d="M199.8866 184.8933
L199.8152 184.9648
" />
<path d="M199.8152 184.9648
L199.8866 185.0362
" />
<path d="M199.8866 185.0362
L199.9580 184.9648
" />
<path d="M199.9580 184.9648
L199.8866 184.8933
" />
<path d="M199.8866 184.8933
L199.8866 185.0362
" />
<path d="M200.6009 185.3933
L200.6009 186.3933
" />
<path d="M200.6009 185.5362
L200.6723 185.4648
" />
<path d="M200.6723 185.4648
L200.8152 185.3933
" />
<path d="M200.8152 185.3933
L201.0295 185.3933
" />
<path d="M201.0295 185.3933
L201.1723 185.4648
" />
<path d="M201.1723 185.4648
L201.2437 185.6076
" />
<path d="M201.2437 185.6076
L201.2437 186.3933
" />
<path d="M201.9580 186.3933
L201.9580 184.8933
" />
<path d="M201.9580 185.4648
L202.1009 185.3933
" />
<path d="M202.1009 185.3933
L202.3866 185.3933
" />
<path d="M202.3866 185.3933
L202.5295 185.4648
" />
<path d="M202.5295 185.4648
L202.6009 185.5362
" />
<path d="M202.6009 185.5362
L202.6723 185.6790
" />
<path d="M202.6723 185.6790
L202.6723 186.1076
" />
<path d="M202.6723 186.1076
L202.6009 186.2505
" />
<path d="M202.6009 186.2505
L202.5295 186.3219
" />
<path d="M202.5295 186.3219
L202.3866 186.3933
" />
<path d="M202.3866 186.3933
L202.1009 186.3933
" />
<path d="M202.1009 186.3933
L201.9580 186.3219
" />
<path d="M203.5295 186.3933
L203.3866 186.3219
" />
<path d="M203.3866 186.3219
L203.3152 186.2505
" />
<path d="M203.3152 186.2505
L203.2437 186.1076
" />
<path d="M203.2437 186.1076
L203.2437 185.6790
" />
<path d="M203.2437 185.6790
L203.3152 185.5362
" />
<path d="M203.3152 185.5362
L203.3866 185.4648
" />
<path d="M203.3866 185.4648
L203.5295 185.3933
" />
<path d="M203.5295 185.3933
L203.7437 185.3933
" />
<path d="M203.7437 185.3933
L203.8866 185.4648
" />
<path d="M203.8866 185.4648
L203.9580 185.5362
" />
<path d="M203.9580 185.5362
L204.0295 185.6790
" />
<path d="M204.0295 185.6790
L204.0295 186.1076
" />
<path d="M204.0295 186.1076
L203.9580 186.2505
" />
<path d="M203.9580 186.2505
L203.8866 186.3219
" />
<path d="M203.8866 186.3219
L203.7437 186.3933
" />
<path d="M203.7437 186.3933
L203.5295 186.3933
" />
<path d="M205.3152 186.3933
L205.3152 185.6076
" />
<path d="M205.3152 185.6076
L205.2437 185.4648
" />
<path d="M205.2437 185.4648
L205.1009 185.3933
" />
<path d="M205.1009 185.3933
L204.8152 185.3933
" />
<path d="M204.8152 185.3933
L204.6723 185.4648
" />
<path d="M205.3152 186.3219
L205.1723 186.3933
" />
<path d="M205.1723 186.3933
L204.8152 186.3933
" />
<path d="M204.8152 186.3933
L204.6723 186.3219
" />
<path d="M204.6723 186.3219
L204.6009 186.1790
" />
<path d="M204.6009 186.1790
L204.6009 186.0362
" />
<path d="M204.6009 186.0362
L204.6723 185.8933
" />
<path d="M204.6723 185.8933
L204.8152 185.8219
" />
<path d="M204.8152 185.8219
L205.1723 185.8219
" />
<path d="M205.1723 185.8219
L205.3152 185.7505
" />
<path d="M206.0295 186.3933
L206.0295 185.3933
" />
<path d="M206.0295 185.6790
L206.1009 185.5362
" />
<path d="M206.1009 185.5362
L206.1723 185.4648
" />
<path d="M206.1723 185.4648
L206.3152 185.3933
" />
<path d="M206.3152 185.3933
L206.4580 185.3933
" />
<path d="M207.6009 186.3933
L207.6009 184.8933
" />
<path d="M207.6009 186.3219
L207.4580 186.3933
" />
<path d="M207.4580 186.3933
L207.1723 186.3933
" />
<path d="M207.1723 186.3933
L207.0295 186.3219
" />
<path d="M207.0295 186.3219
L206.9580 186.2505
" />
<path d="M206.9580 186.2505
L206.8866 186.1076
" />
<path d="M206.8866 186.1076
L206.8866 185.6790
" />
<path d="M206.8866 185.6790
L206.9580 185.5362
" />
<path d="M206.9580 185.5362
L207.0295 185.4648
" />
<path d="M207.0295 185.4648
L207.1723 185.3933
" />
<path d="M207.1723 185.3933
L207.4580 185.3933
" />
<path d="M207.4580 185.3933
L207.6009 185.4648
" />
<path d="M208.3152 186.2505
L208.3866 186.3219
" />
<path d="M208.3866 186.3219
L208.3152 186.3933
" />
<path d="M208.3152 186.3933
L208.2437 186.3219
" />
<path d="M208.2437 186.3219
L208.3152 186.2505
" />
<path d="M208.3152 186.2505
L208.3152 186.3933
" />
<path d="M209.0295 186.3933
L209.0295 184.8933
" />
<path d="M209.1723 185.8219
L209.6009 186.3933
" />
<path d="M209.6009 185.3933
L209.0295 185.9648
" />
<path d="M210.2437 186.3933
L210.2437 185.3933
" />
<path d="M210.2437 184.8933
L210.1723 184.9648
" />
<path d="M210.1723 184.9648
L210.2437 185.0362
" />
<path d="M210.2437 185.0362
L210.3152 184.9648
" />
<path d="M210.3152 184.9648
L210.2437 184.8933
" />
<path d="M210.2437 184.8933
L210.2437 185.0362
" />
<path d="M211.6009 186.3219
L211.4580 186.3933
" />
<path d="M211.4580 186.3933
L211.1723 186.3933
" />
<path d="M211.1723 186.3933
L211.0295 186.3219
" />
<path d="M211.0295 186.3219
L210.9580 186.2505
" />
<path d="M210.9580 186.2505
L210.8866 186.1076
" />
<path d="M210.8866 186.1076
L210.8866 185.6790
" />
<path d="M210.8866 185.6790
L210.9580 185.5362
" />
<path d="M210.9580 185.5362
L211.0295 185.4648
" />
<path d="M211.0295 185.4648
L211.1723 185.3933
" />
<path d="M211.1723 185.3933
L211.4580 185.3933
" />
<path d="M211.4580 185.3933
L211.6009 185.4648
" />
<path d="M212.8866 186.3933
L212.8866 185.6076
" />
<path d="M212.8866 185.6076
L212.8152 185.4648
" />
<path d="M212.8152 185.4648
L212.6723 185.3933
" />
<path d="M212.6723 185.3933
L212.3866 185.3933
" />
<path d="M212.3866 185.3933
L212.2437 185.4648
" />
<path d="M212.8866 186.3219
L212.7437 186.3933
" />
<path d="M212.7437 186.3933
L212.3866 186.3933
" />
<path d="M212.3866 186.3933
L212.2437 186.3219
" />
<path d="M212.2437 186.3219
L212.1723 186.1790
" />
<path d="M212.1723 186.1790
L212.1723 186.0362
" />
<path d="M212.1723 186.0362
L212.2437 185.8933
" />
<path d="M212.2437 185.8933
L212.3866 185.8219
" />
<path d="M212.3866 185.8219
L212.7437 185.8219
" />
<path d="M212.7437 185.8219
L212.8866 185.7505
" />
<path d="M214.2437 186.3933
L214.2437 184.8933
" />
<path d="M214.2437 186.3219
L214.1009 186.3933
" />
<path d="M214.1009 186.3933
L213.8152 186.3933
" />
<path d="M213.8152 186.3933
L213.6723 186.3219
" />
<path d="M213.6723 186.3219
L213.6009 186.2505
" />
<path d="M213.6009 186.2505
L213.5295 186.1076
" />
<path d="M213.5295 186.1076
L213.5295 185.6790
" />
<path d="M213.5295 185.6790
L213.6009 185.5362
" />
<path d="M213.6009 185.5362
L213.6723 185.4648
" />
<path d="M213.6723 185.4648
L213.8152 185.3933
" />
<path d="M213.8152 185.3933
L214.1009 185.3933
" />
<path d="M214.1009 185.3933
L214.2437 185.4648
" />
<path d="M214.6009 186.5362
L215.7437 186.5362
" />
<path d="M216.1009 185.3933
L216.1009 186.8933
" />
<path d="M216.1009 185.4648
L216.2437 185.3933
" />
<path d="M216.2437 185.3933
L216.5295 185.3933
" />
<path d="M216.5295 185.3933
L216.6723 185.4648
" />
<path d="M216.6723 185.4648
L216.7437 185.5362
" />
<path d="M216.7437 185.5362
L216.8152 185.6790
" />
<path d="M216.8152 185.6790
L216.8152 186.1076
" />
<path d="M216.8152 186.1076
L216.7437 186.2505
" />
<path d="M216.7437 186.2505
L216.6723 186.3219
" />
<path d="M216.6723 186.3219
L216.5295 186.3933
" />
<path d="M216.5295 186.3933
L216.2437 186.3933
" />
<path d="M216.2437 186.3933
L216.1009 186.3219
" />
<path d="M218.1009 186.3219
L217.9580 186.3933
" />
<path d="M217.9580 186.3933
L217.6723 186.3933
" />
<path d="M217.6723 186.3933
L217.5295 186.3219
" />
<path d="M217.5295 186.3219
L217.4580 186.2505
" />
<path d="M217.4580 186.2505
L217.3866 186.1076
" />
<path d="M217.3866 186.1076
L217.3866 185.6790
" />
<path d="M217.3866 185.6790
L217.4580 185.5362
" />
<path d="M217.4580 185.5362
L217.5295 185.4648
" />
<path d="M217.5295 185.4648
L217.6723 185.3933
" />
<path d="M217.6723 185.3933
L217.9580 185.3933
" />
<path d="M217.9580 185.3933
L218.1009 185.4648
" />
<path d="M218.7437 186.3933
L218.7437 184.8933
" />
<path d="M218.7437 185.4648
L218.8866 185.3933
" />
<path d="M218.8866 185.3933
L219.1723 185.3933
" />
<path d="M219.1723 185.3933
L219.3152 185.4648
" />
<path d="M219.3152 185.4648
L219.3866 185.5362
" />
<path d="M219.3866 185.5362
L219.4580 185.6790
" />
<path d="M219.4580 185.6790
L219.4580 186.1076
" />
<path d="M219.4580 186.1076
L219.3866 186.2505
" />
<path d="M219.3866 186.2505
L219.3152 186.3219
" />
<path d="M219.3152 186.3219
L219.1723 186.3933
" />
<path d="M219.1723 186.3933
L218.8866 186.3933
" />
<path d="M218.8866 186.3933
L218.7437 186.3219
" />
</g></g>
<g style="fill:none; 
stroke:#000000; stroke-width:0.1500; stroke-opacity:1; 
stroke-linecap:round; stroke-linejoin:round;">
<path d="M177.0022 181.5072
L285.0022 181.5072
" />
</g>
<g style="fill:none; 
stroke:#000000; stroke-width:0.1500; stroke-opacity:1; 
stroke-linecap:round; stroke-linejoin:round;">
<text x="178.0022" y="183.7572"
textLength="8.2214" font-size="2.0000" lengthAdjust="spacingAndGlyphs"
text-anchor="start" opacity="0">Sheet: </text>
<g class="stroked-text"><desc>Sheet: </desc>
<path d="M178.3866 183.6219
L178.6009 183.6933
" />
<path d="M178.6009 183.6933
L178.9580 183.6933
" />
<path d="M178.9580 183.6933
L179.1009 183.6219
" />
<path d="M179.1009 183.6219
L179.1723 183.5505
" />
<path d="M179.1723 183.5505
L179.2437 183.4076
" />
<path d="M179.2437 183.4076
L179.2437 183.2648
" />
<path d="M179.2437 183.2648
L179.1723 183.1219
" />
<path d="M179.1723 183.1219
L179.1009 183.0505
" />
<path d="M179.1009 183.0505
L178.9580 182.9790
" />
<path d="M178.9580 182.9790
L178.6723 182.9076
" />
<path d="M178.6723 182.9076
L178.5295 182.8362
" />
<path d="M178.5295 182.8362
L178.4580 182.7648
" />
<path d="M178.4580 182.7648
L178.3866 182.6219
" />
<path d="M178.3866 182.6219
L178.3866 182.4790
" />
<path d="M178.3866 182.4790
L178.4580 182.3362
" />
<path d="M178.4580 182.3362
L178.5295 182.2648
" />
<path d="M178.5295 182.2648
L178.6723 182.1933
" />
<path d="M178.6723 182.1933
L179.0295 182.1933
" />
<path d="M179.0295 182.1933
L179.2437 182.2648
" />
<path d="M179.8866 183.6933
L179.8866 182.1933
" />
<path d="M180.5295 183.6933
L180.5295 182.9076
" />
<path d="M180.5295 182.9076
L180.4580 182.7648
" />
<path d="M180.4580 182.7648
L180.3152 182.6933
" />
<path d="M180.3152 182.6933
L180.1009 182.6933
" />
<path d="M180.1009 182.6933
L179.9580 182.7648
" />
<path d="M179.9580 182.7648
L179.8866 182.8362
" />
<path d="M181.8152 183.6219
L181.6723 183.6933
" />
<path d="M181.6723 183.6933
L181.3866 183.6933
" />
<path d="M181.3866 183.6933
L181.2437 183.6219
" />
<path d="M181.2437 183.6219
L181.1723 183.4790
" />
<path d="M181.1723 183.4790
L181.1723 182.9076
" />
<path d="M181.1723 182.9076
L181.2437 182.7648
" />
<path d="M181.2437 182.7648
L181.3866 182.6933
" />
<path d="M181.3866 182.6933
L181.6723 182.6933
" />
<path d="M181.6723 182.6933
L181.8152 182.7648
" />
<path d="M181.8152 182.7648
L181.8866 182.9076
" />
<path d="M181.8866 182.9076
L181.8866 183.0505
" />
<path d="M181.8866 183.0505
L181.1723 183.1933
" />
<path d="M183.1009 183.6219
L182.9580 183.6933
" />
<path d="M182.9580 183.6933
L182.6723 183.6933
" />
<path d="M182.6723 183.6933
L182.5295 183.6219
" />
<path d="M182.5295 183.6219
L182.4580 183.4790
" />
<path d="M182.4580 183.4790
L182.4580 182.9076
" />
<path d="M182.4580 182.9076
L182.5295 182.7648
" />
<path d="M182.5295 182.7648
L182.6723 182.6933
" />
<path d="M182.6723 182.6933
L182.9580 182.6933
" />
<path d="M182.9580 182.6933
L183.1009 182.7648
" />
<path d="M183.1009 182.7648
L183.1723 182.9076
" />
<path d="M183.1723 182.9076
L183.1723 183.0505
" />
<path d="M183.1723 183.0505
L182.4580 183.1933
" />
<path d="M183.6009 182.6933
L184.1723 182.6933
" />
<path d="M183.8152 182.1933
L183.8152 183.4790
" />
<path d="M183.8152 183.4790
L183.8866 183.6219
" />
<path d="M183.8866 183.6219
L184.0295 183.6933
" />
<path d="M184.0295 183.6933
L184.1723 183.6933
" />
<path d="M184.6723 183.5505
L184.7437 183.6219
" />
<path d="M184.7437 183.6219
L184.6723 183.6933
" />
<path d="M184.6723 183.6933
L184.6009 183.6219
" />
<path d="M184.6009 183.6219
L184.6723 183.5505
" />
<path d="M184.6723 183.5505
L184.6723 183.6933
" />
<path d="M184.6723 182.7648
L184.7437 182.8362
" />
<path d="M184.7437 182.8362
L184.6723 182.9076
" />
<path d="M184.6723 182.9076
L184.6009 182.8362
" />
<path d="M184.6009 182.8362
L184.6723 182.7648
" />
<path d="M184.6723 182.7648
L184.6723 182.9076
" />
</g></g>
<g style="fill:none; 
stroke:#000000; stroke-width:0.3000; stroke-opacity:1; 
stroke-linecap:round; stroke-linejoin:round;">
<text x="178.0022" y="180.7572"
textLength="0.9000" font-size="2.0000" lengthAdjust="spacingAndGlyphs"
text-anchor="start" opacity="0"></text>
<g class="stroked-text"><desc></desc>
</g></g>
<g style="fill:none; 
stroke:#000000; stroke-width:0.1500; stroke-opacity:1; 
stroke-linecap:round; stroke-linejoin:round;">
<text x="178.0022" y="177.7572"
textLength="0.4500" font-size="2.0000" lengthAdjust="spacingAndGlyphs"
text-anchor="start" opacity="0"></text>
<g class="stroked-text"><desc></desc>
</g></g>
<g style="fill:none; 
stroke:#000000; stroke-width:0.1500; stroke-opacity:1; 
stroke-linecap:round; stroke-linejoin:round;">
<text x="178.0022" y="174.7572"
textLength="0.4500" font-size="2.0000" lengthAdjust="spacingAndGlyphs"
text-anchor="start" opacity="0"></text>
<g class="stroked-text"><desc></desc>
</g></g>
<g style="fill:none; 
stroke:#000000; stroke-width:0.1500; stroke-opacity:1; 
stroke-linecap:round; stroke-linejoin:round;">
<text x="178.0022" y="171.7572"
textLength="0.4500" font-size="2.0000" lengthAdjust="spacingAndGlyphs"
text-anchor="start" opacity="0"></text>
<g class="stroked-text"><desc></desc>
</g></g>
<g style="fill:none; 
stroke:#000000; stroke-width:0.1500; stroke-opacity:1; 
stroke-linecap:round; stroke-linejoin:round;">
<text x="178.0022" y="168.7572"
textLength="0.4500" font-size="2.0000" lengthAdjust="spacingAndGlyphs"
text-anchor="start" opacity="0"></text>
<g class="stroked-text"><desc></desc>
</g></g>
<g style="fill:none; 
stroke:#000000; stroke-width:0.1500; stroke-opacity:1; 
stroke-linecap:round; stroke-linejoin:round;">
<path d="M197.0022 191.5072
L197.0022 194.5072
" />
</g>
<g style="fill:none; 
stroke:#000000; stroke-width:0.1500; stroke-opacity:1; 
stroke-linecap:round; stroke-linejoin:round;">
<path d="M261.0022 191.5072
L261.0022 198.0072
" />
</g>
<g style="fill:none; 
stroke:#000000; stroke-width:0.0500; stroke-opacity:1; 
stroke-linecap:round; stroke-linejoin:round;">
<path d="M74.8460 107.1330
L74.8460 155.5330
" />
<path d="M74.8460 155.5330
L86.8460 155.5330
" />
<path d="M86.8460 107.1330
L74.8460 107.1330
" />
<path d="M86.8460 155.5330
L86.8460 107.1330
" />
<path d="M62.7000 118.6190
L62.7000 130.6190
" />
<path d="M62.7000 130.6190
L69.1000 130.6190
" />
<path d="M69.1000 118.6190
L62.7000 118.6190
" />
<path d="M69.1000 130.6190
L69.1000 118.6190
" />
<path d="M275.6400 17.4780
L275.6400 24.2280
" />
<path d="M275.6400 24.2280
L286.5400 24.2280
" />
<path d="M286.5400 17.4780
L275.6400 17.4780
" />
<path d="M286.5400 24.2280
L286.5400 17.4780
" />
<path d="M275.6400 25.4455
L275.6400 32.1955
" />
<path d="M275.6400 32.1955
L286.5400 32.1955
" />
<path d="M286.5400 25.4455
L275.6400 25.4455
" />
<path d="M286.5400 32.1955
L286.5400 25.4455
" />
<path d="M271.0150 1.5430
L271.0150 8.2930
" />
<path d="M271.0150 8.2930
L284.4150 8.2930
" />
<path d="M284.4150 1.5430
L271.0150 1.5430
" />
<path d="M284.4150 8.2930
L284.4150 1.5430
" />
<path d="M271.0150 9.5105
L271.0150 16.2605
" />
<path d="M271.0150 16.2605
L284.4150 16.2605
" />
<path d="M284.4150 9.5105
L271.0150 9.5105
" />
<path d="M284.4150 16.2605
L284.4150 9.5105
" />
<path d="M258.3900 17.4780
L258.3900 24.2280
" />
<path d="M258.3900 24.2280
L271.7900 24.2280
" />
<path d="M271.7900 17.4780
L258.3900 17.4780
" />
<path d="M271.7900 24.2280
L271.7900 17.4780
" />
<path d="M258.3900 25.4455
L258.3900 32.1955
" />
<path d="M258.3900 32.1955
L271.7900 32.1955
" />
<path d="M271.7900 25.4455
L258.3900 25.4455
" />
<path d="M271.7900 32.1955
L271.7900 25.4455
" />
<path d="M258.3900 33.4130
L258.3900 40.1630
" />
<path d="M258.3900 40.1630
L271.7900 40.1630
" />
<path d="M271.7900 33.4130
L258.3900 33.4130
" />
<path d="M271.7900 40.1630
L271.7900 33.4130
" />
<path d="M286.3860 9.5105
L286.3860 16.2605
" />
<path d="M286.3860 16.2605
L297.2860 16.2605
" />
<path d="M297.2860 9.5105
L286.3860 9.5105
" />
<path d="M297.2860 16.2605
L297.2860 9.5105
" />
<path d="M65.2410 136.9370
L65.2410 149.8370
" />
<path d="M65.2410 149.8370
L70.7410 149.8370
" />
<path d="M70.7410 136.9370
L65.2410 136.9370
" />
<path d="M70.7410 149.8370
L70.7410 136.9370
" />
<path d="M286.3860 1.5430
L286.3860 8.2930
" />
<path d="M286.3860 8.2930
L297.2860 8.2930
" />
<path d="M297.2860 1.5430
L286.3860 1.5430
" />
<path d="M297.2860 8.2930
L297.2860 1.5430
" />
<path d="M92.6700 60.4330
L101.6700 60.4330
" />
<path d="M92.6700 63.9330
L92.6700 60.4330
" />
<path d="M101.6700 60.4330
L101.6700 63.9330
" />
<path d="M101.6700 63.9330
L92.6700 63.9330
" />
<circle cx="72.0000" cy="100.0000" r="1.2500" /> 
<path d="M229.8900 52.7430
L235.6900 52.7430
" />
<path d="M229.8900 60.0430
L229.8900 52.7430
" />
<path d="M229.8900 60.0430
L235.6900 60.0430
" />
<path d="M235.6900 60.0430
L235.6900 52.7430
" />
<path d="M259.6400 161.5430
L261.5400 161.5430
" />
<path d="M259.6400 165.2430
L259.6400 161.5430
" />
<path d="M261.5400 161.5430
L261.5400 165.2430
" />
<path d="M261.5400 165.2430
L259.6400 165.2430
" />
<path d="M194.2660 128.6530
L197.2260 128.6530
" />
<path d="M194.2660 130.1130
L194.2660 128.6530
" />
<path d="M197.2260 128.6530
L197.2260 130.1130
" />
<path d="M197.2260 130.1130
L194.2660 130.1130
" />
<path d="M262.6700 161.6930
L262.6700 165.0930
" />
<path d="M262.6700 165.0930
L266.5100 165.0930
" />
<path d="M266.5100 161.6930
L262.6700 161.6930
" />
<path d="M266.5100 165.0930
L266.5100 161.6930
" />
<path d="M253.5400 35.2430
L257.2400 35.2430
" />
<path d="M253.5400 37.1430
L253.5400 35.2430
" />
<path d="M257.2400 35.2430
L257.2400 37.1430
" />
<path d="M257.2400 37.1430
L253.5400 37.1430
" />
<path d="M94.0460 73.5130
L95.9460 73.5130
" />
<path d="M94.0460 77.2130
L94.0460 73.5130
" />
<path d="M95.9460 73.5130
L95.9460 77.2130
" />
<path d="M95.9460 77.2130
L94.0460 77.2130
" />
<circle cx="231.5900" cy="101.3930" r="1.2500" /> 
<path d="M209.7100 159.2130
L213.4700 159.2130
" />
<path d="M209.7100 161.1730
L209.7100 159.2130
" />
<path d="M213.4700 159.2130
L213.4700 161.1730
" />
<path d="M213.4700 161.1730
L209.7100 161.1730
" />
<circle cx="154.4584" cy="106.3480" r="5.2500" /> 
<path d="M206.1260 78.6330
L209.4860 78.6330
" />
<path d="M206.1260 80.5330
L206.1260 78.6330
" />
<path d="M209.4860 78.6330
L209.4860 80.5330
" />
<path d="M209.4860 80.5330
L206.1260 80.5330
" />
<path d="M190.8480 98.4098
L194.5480 98.4098
" />
<path d="M190.8480 100.3098
L190.8480 98.4098
" />
<path d="M194.5480 98.4098
L194.5480 100.3098
" />
<path d="M194.5480 100.3098
L190.8480 100.3098
" />
<path d="M209.7100 162.9630
L209.7100 166.3630
" />
<path d="M209.7100 166.3630
L213.8100 166.3630
" />
<path d="M213.8100 162.9630
L209.7100 162.9630
" />
<path d="M213.8100 166.3630
L213.8100 162.9630
" />
<path d="M184.8460 144.4330
L184.8460 154.2830
" />
<path d="M185.9960 143.2830
L184.8460 144.4330
" />
<path d="M188.8460 142.1330
L188.8460 143.2830
" />
<path d="M188.8460 143.2830
L185.9960 143.2830
" />
<path d="M188.8460 154.2830
L184.8460 154.2830
" />
<path d="M188.8460 155.4330
L188.8460 154.2830
" />
<path d="M191.8460 142.1330
L188.8460 142.1330
" />
<path d="M191.8460 143.2830
L191.8460 142.1330
" />
<path d="M191.8460 154.2830
L191.8460 155.4330
" />
<path d="M191.8460 155.4330
L188.8460 155.4330
" />
<path d="M194.6960 143.2830
L191.8460 143.2830
" />
<path d="M194.6960 143.2830
L195.8460 144.4330
" />
<path d="M195.8460 144.4330
L195.8460 154.2830
" />
<path d="M195.8460 154.2830
L191.8460 154.2830
" />
<path d="M62.2500 88.3000
L62.2500 61.9500
" />
<path d="M62.2500 88.3000
L69.5500 88.3000
" />
<path d="M69.5500 61.9500
L62.2500 61.9500
" />
<path d="M69.5500 61.9500
L69.5500 88.3000
" />
<path d="M249.3400 35.2430
L253.0400 35.2430
" />
<path d="M249.3400 37.1430
L249.3400 35.2430
" />
<path d="M253.0400 35.2430
L253.0400 37.1430
" />
<path d="M253.0400 37.1430
L249.3400 37.1430
" />
<path d="M180.3660 103.1030
L183.3260 103.1030
" />
<path d="M180.3660 104.5630
L180.3660 103.1030
" />
<path d="M183.3260 103.1030
L183.3260 104.5630
" />
<path d="M183.3260 104.5630
L180.3660 104.5630
" />
<path d="M296.9600 56.2630
L298.8600 56.2630
" />
<path d="M296.9600 59.9630
L296.9600 56.2630
" />
<path d="M298.8600 56.2630
L298.8600 59.9630
" />
<path d="M298.8600 59.9630
L296.9600 59.9630
" />
<path d="M193.1398 67.6808
L193.1398 70.1808
" />
<path d="M193.1398 67.6808
L197.7398 67.6808
" />
<path d="M197.7398 70.1808
L193.1398 70.1808
" />
<path d="M197.7398 70.1808
L197.7398 67.6808
" />
<path d="M253.5400 37.4430
L257.2400 37.4430
" />
<path d="M253.5400 39.3430
L253.5400 37.4430
" />
<path d="M257.2400 37.4430
L257.2400 39.3430
" />
<path d="M257.2400 39.3430
L253.5400 39.3430
" />
<path d="M216.5250 57.4980
L218.4250 57.4980
" />
<path d="M216.5250 61.1980
L216.5250 57.4980
" />
<path d="M218.4250 57.4980
L218.4250 61.1980
" />
<path d="M218.4250 61.1980
L216.5250 61.1980
" />
<path d="M233.5900 86.0430
L233.5900 88.3430
" />
<path d="M233.5900 86.0430
L237.9900 86.0430
" />
<path d="M237.9900 86.0430
L237.9900 88.3430
" />
<path d="M237.9900 88.3430
L233.5900 88.3430
" />
<circle cx="154.4584" cy="155.1550" r="5.2500" /> 
<path d="M203.6292 85.5408
L203.6292 111.9908
" />
<path d="M203.6292 111.9908
L207.2292 111.9908
" />
<path d="M207.2292 85.5408
L203.6292 85.5408
" />
<path d="M207.2292 111.9908
L207.2292 85.5408
" />
<path d="M268.9567 58.0430
L272.6567 58.0430
" />
<path d="M268.9567 59.9430
L268.9567 58.0430
" />
<path d="M272.6567 58.0430
L272.6567 59.9430
" />
<path d="M272.6567 59.9430
L268.9567 59.9430
" />
<circle cx="283.5900" cy="162.3930" r="1.2500" /> 
<path d="M293.9600 56.2630
L295.8600 56.2630
" />
<path d="M293.9600 59.9630
L293.9600 56.2630
" />
<path d="M295.8600 56.2630
L295.8600 59.9630
" />
<path d="M295.8600 59.9630
L293.9600 59.9630
" />
<path d="M173.4460 144.4330
L173.4460 154.2830
" />
<path d="M174.5960 143.2830
L173.4460 144.4330
" />
<path d="M177.4460 142.1330
L177.4460 143.2830
" />
<path d="M177.4460 143.2830
L174.5960 143.2830
" />
<path d="M177.4460 154.2830
L173.4460 154.2830
" />
<path d="M177.4460 155.4330
L177.4460 154.2830
" />
<path d="M180.4460 142.1330
L177.4460 142.1330
" />
<path d="M180.4460 143.2830
L180.4460 142.1330
" />
<path d="M180.4460 154.2830
L180.4460 155.4330
" />
<path d="M180.4460 155.4330
L177.4460 155.4330
" />
<path d="M183.2960 143.2830
L180.4460 143.2830
" />
<path d="M183.2960 143.2830
L184.4460 144.4330
" />
<path d="M184.4460 144.4330
L184.4460 154.2830
" />
<path d="M184.4460 154.2830
L180.4460 154.2830
" />
<path d="M190.8660 128.6530
L193.8260 128.6530
" />
<path d="M190.8660 130.1130
L190.8660 128.6530
" />
<path d="M193.8260 128.6530
L193.8260 130.1130
" />
<path d="M193.8260 130.1130
L190.8660 130.1130
" />
<circle cx="180.2650" cy="82.8100" r="1.2500" /> 
<path d="M194.7980 102.1698
L194.7980 104.6698
" />
<path d="M194.7980 102.1698
L199.3980 102.1698
" />
<path d="M199.3980 104.6698
L194.7980 104.6698
" />
<path d="M199.3980 104.6698
L199.3980 102.1698
" />
<path d="M189.2460 125.8330
L193.8460 125.8330
" />
<path d="M189.2460 128.1330
L189.2460 125.8330
" />
<path d="M193.8460 125.8330
L193.8460 128.1330
" />
<path d="M193.8460 128.1330
L189.2460 128.1330
" />
<path d="M107.8460 106.6080
L112.3460 106.6080
" />
<path d="M107.8460 113.9080
L107.8460 106.6080
" />
<path d="M112.3460 106.6080
L112.3460 113.9080
" />
<path d="M112.3460 113.9080
L107.8460 113.9080
" />
<path d="M187.3460 131.3330
L187.3460 138.2330
" />
<path d="M187.3460 138.2330
L196.1460 138.2330
" />
<path d="M196.1460 131.3330
L187.3460 131.3330
" />
<path d="M196.1460 138.2330
L196.1460 131.3330
" />
<path d="M127.9960 109.9330
L131.4960 109.9330
" />
<path d="M127.9960 116.9330
L127.9960 109.9330
" />
<path d="M131.4960 109.9330
L131.4960 116.9330
" />
<path d="M131.4960 116.9330
L127.9960 116.9330
" />
<path d="M108.3460 151.2380
L112.8460 151.2380
" />
<path d="M108.3460 158.5380
L108.3460 151.2380
" />
<path d="M112.8460 151.2380
L112.8460 158.5380
" />
<path d="M112.8460 158.5380
L108.3460 158.5380
" />
<path d="M114.3460 112.6830
L118.8460 112.6830
" />
<path d="M114.3460 119.9830
L114.3460 112.6830
" />
<path d="M118.8460 112.6830
L118.8460 119.9830
" />
<path d="M118.8460 119.9830
L114.3460 119.9830
" />
<path d="M174.6960 125.4330
L176.5960 125.4330
" />
<path d="M174.6960 129.1330
L174.6960 125.4330
" />
<path d="M176.5960 125.4330
L176.5960 129.1330
" />
<path d="M176.5960 129.1330
L174.6960 129.1330
" />
<path d="M219.0650 57.4980
L220.9650 57.4980
" />
<path d="M219.0650 61.1980
L219.0650 57.4980
" />
<path d="M220.9650 57.4980
L220.9650 61.1980
" />
<path d="M220.9650 61.1980
L219.0650 61.1980
" />
<path d="M233.5900 83.4430
L237.9900 83.4430
" />
<path d="M233.5900 85.7430
L233.5900 83.4430
" />
<path d="M237.9900 85.7430
L233.5900 85.7430
" />
<path d="M237.9900 85.7430
L237.9900 83.4430
" />
<path d="M287.9600 56.2630
L289.8600 56.2630
" />
<path d="M287.9600 59.9630
L287.9600 56.2630
" />
<path d="M289.8600 56.2630
L289.8600 59.9630
" />
<path d="M289.8600 59.9630
L287.9600 59.9630
" />
<path d="M174.6960 121.2330
L176.5960 121.2330
" />
<path d="M174.6960 124.9330
L174.6960 121.2330
" />
<path d="M176.5960 121.2330
L176.5960 124.9330
" />
<path d="M176.5960 124.9330
L174.6960 124.9330
" />
<path d="M62.2500 116.1500
L62.2500 89.8000
" />
<path d="M62.2500 116.1500
L69.5500 116.1500
" />
<path d="M69.5500 89.8000
L62.2500 89.8000
" />
<path d="M69.5500 89.8000
L69.5500 116.1500
" />
<circle cx="154.4584" cy="138.8860" r="5.2500" /> 
<path d="M237.2900 52.8430
L243.0900 52.8430
" />
<path d="M237.2900 60.1430
L237.2900 52.8430
" />
<path d="M237.2900 60.1430
L243.0900 60.1430
" />
<path d="M243.0900 60.1430
L243.0900 52.8430
" />
<path d="M127.9460 79.1330
L131.4460 79.1330
" />
<path d="M127.9460 86.1330
L127.9460 79.1330
" />
<path d="M131.4460 79.1330
L131.4460 86.1330
" />
<path d="M131.4460 86.1330
L127.9460 86.1330
" />
<path d="M281.9300 49.2330
L283.8900 49.2330
" />
<path d="M281.9300 52.9930
L281.9300 49.2330
" />
<path d="M283.8900 49.2330
L283.8900 52.9930
" />
<path d="M283.8900 52.9930
L281.9300 52.9930
" />
<circle cx="199.5460" cy="80.3830" r="1.2500" /> 
<circle cx="197.7460" cy="76.3830" r="1.2500" /> 
<path d="M273.3400 53.0730
L273.3400 56.9130
" />
<path d="M273.3400 56.9130
L276.7400 56.9130
" />
<path d="M276.7400 53.0730
L273.3400 53.0730
" />
<path d="M276.7400 56.9130
L276.7400 53.0730
" />
<path d="M57.4960 135.4330
L57.4960 151.3330
" />
<path d="M57.4960 151.3330
L64.2460 151.3330
" />
<path d="M64.2460 135.4330
L57.4960 135.4330
" />
<path d="M64.2460 151.3330
L64.2460 135.4330
" />
<circle cx="124.7460" cy="123.4830" r="1.2500" /> 
<path d="M233.3400 71.9430
L233.3400 74.4430
" />
<path d="M233.3400 71.9430
L236.6400 71.9430
" />
<path d="M236.6400 74.4430
L233.3400 74.4430
" />
<path d="M236.6400 74.4430
L236.6400 71.9430
" />
<path d="M281.9600 56.2630
L283.8600 56.2630
" />
<path d="M281.9600 59.9630
L281.9600 56.2630
" />
<path d="M283.8600 56.2630
L283.8600 59.9630
" />
<path d="M283.8600 59.9630
L281.9600 59.9630
" />
<path d="M259.3400 100.4730
L263.0400 100.4730
" />
<path d="M259.3400 102.3730
L259.3400 100.4730
" />
<path d="M263.0400 100.4730
L263.0400 102.3730
" />
<path d="M263.0400 102.3730
L259.3400 102.3730
" />
<path d="M264.7233 58.0430
L268.4233 58.0430
" />
<path d="M264.7233 59.9430
L264.7233 58.0430
" />
<path d="M268.4233 58.0430
L268.4233 59.9430
" />
<path d="M268.4233 59.9430
L264.7233 59.9430
" />
<path d="M264.7233 50.2430
L268.4233 50.2430
" />
<path d="M264.7233 52.1430
L264.7233 50.2430
" />
<path d="M268.4233 50.2430
L268.4233 52.1430
" />
<path d="M268.4233 52.1430
L264.7233 52.1430
" />
<circle cx="154.4584" cy="122.6170" r="5.2500" /> 
<path d="M273.1900 58.0430
L276.8900 58.0430
" />
<path d="M273.1900 59.9430
L273.1900 58.0430
" />
<path d="M276.8900 58.0430
L276.8900 59.9430
" />
<path d="M276.8900 59.9430
L273.1900 59.9430
" />
<path d="M194.2460 123.0330
L198.8460 123.0330
" />
<path d="M194.2460 125.3330
L194.2460 123.0330
" />
<path d="M198.8460 123.0330
L198.8460 125.3330
" />
<path d="M198.8460 125.3330
L194.2460 125.3330
" />
<path d="M107.8460 74.1080
L112.3460 74.1080
" />
<path d="M107.8460 81.4080
L107.8460 74.1080
" />
<path d="M112.3460 74.1080
L112.3460 81.4080
" />
<path d="M112.3460 81.4080
L107.8460 81.4080
" />
<path d="M221.2700 160.4030
L224.8700 160.4030
" />
<path d="M221.2700 165.2030
L221.2700 160.4030
" />
<path d="M224.8700 160.4030
L224.8700 165.2030
" />
<path d="M224.8700 165.2030
L221.2700 165.2030
" />
<path d="M201.3360 78.6330
L205.0360 78.6330
" />
<path d="M201.3360 80.5330
L201.3360 78.6330
" />
<path d="M205.0360 78.6330
L205.0360 80.5330
" />
<path d="M205.0360 80.5330
L201.3360 80.5330
" />
<path d="M249.3400 37.4430
L253.0400 37.4430
" />
<path d="M249.3400 39.3430
L249.3400 37.4430
" />
<path d="M253.0400 37.4430
L253.0400 39.3430
" />
<path d="M253.0400 39.3430
L249.3400 39.3430
" />
<path d="M290.9600 56.2630
L292.8600 56.2630
" />
<path d="M290.9600 59.9630
L290.9600 56.2630
" />
<path d="M292.8600 56.2630
L292.8600 59.9630
" />
<path d="M292.8600 59.9630
L290.9600 59.9630
" />
<circle cx="154.4584" cy="90.0790" r="5.2500" /> 
<path d="M268.9567 50.2430
L272.6567 50.2430
" />
<path d="M268.9567 52.1430
L268.9567 50.2430
" />
<path d="M272.6567 50.2430
L272.6567 52.1430
" />
<path d="M272.6567 52.1430
L268.9567 52.1430
" />
<path d="M182.4460 126.7330
L187.0460 126.7330
" />
<path d="M182.4460 129.0330
L182.4460 126.7330
" />
<path d="M187.0460 126.7330
L187.0460 129.0330
" />
<path d="M187.0460 129.0330
L182.4460 129.0330
" />
<path d="M189.2460 123.0330
L193.8460 123.0330
" />
<path d="M189.2460 125.3330
L189.2460 123.0330
" />
<path d="M193.8460 123.0330
L193.8460 125.3330
" />
<path d="M193.8460 125.3330
L189.2460 125.3330
" />
<path d="M288.9600 33.4130
L288.9600 40.1630
" />
<path d="M288.9600 40.1630
L297.3600 40.1630
" />
<path d="M297.3600 33.4130
L288.9600 33.4130
" />
<path d="M297.3600 40.1630
L297.3600 33.4130
" />
<path d="M173.4460 109.0830
L177.4460 109.0830
" />
<path d="M173.4460 118.9330
L173.4460 109.0830
" />
<path d="M174.5960 120.0830
L173.4460 118.9330
" />
<path d="M174.5960 120.0830
L177.4460 120.0830
" />
<path d="M177.4460 107.9330
L180.4460 107.9330
" />
<path d="M177.4460 109.0830
L177.4460 107.9330
" />
<path d="M177.4460 120.0830
L177.4460 121.2330
" />
<path d="M177.4460 121.2330
L180.4460 121.2330
" />
<path d="M180.4460 107.9330
L180.4460 109.0830
" />
<path d="M180.4460 109.0830
L184.4460 109.0830
" />
<path d="M180.4460 120.0830
L183.2960 120.0830
" />
<path d="M180.4460 121.2330
L180.4460 120.0830
" />
<path d="M183.2960 120.0830
L184.4460 118.9330
" />
<path d="M184.4460 118.9330
L184.4460 109.0830
" />
<path d="M177.1460 126.6330
L177.1460 129.1330
" />
<path d="M177.1460 126.6330
L181.7460 126.6330
" />
<path d="M181.7460 129.1330
L177.1460 129.1330
" />
<path d="M181.7460 129.1330
L181.7460 126.6330
" />
<path d="M178.8660 129.6530
L181.8260 129.6530
" />
<path d="M178.8660 131.1130
L178.8660 129.6530
" />
<path d="M181.8260 129.6530
L181.8260 131.1130
" />
<path d="M181.8260 131.1130
L178.8660 131.1130
" />
<path d="M91.8460 73.5630
L93.7460 73.5630
" />
<path d="M91.8460 77.2630
L91.8460 73.5630
" />
<path d="M93.7460 73.5630
L93.7460 77.2630
" />
<path d="M93.7460 77.2630
L91.8460 77.2630
" />
<path d="M256.6400 161.5430
L258.5400 161.5430
" />
<path d="M256.6400 165.2430
L256.6400 161.5430
" />
<path d="M258.5400 161.5430
L258.5400 165.2430
" />
<path d="M258.5400 165.2430
L256.6400 165.2430
" />
<path d="M245.2400 50.4180
L258.3400 50.4180
" />
<path d="M245.2400 59.9680
L245.2400 50.4180
" />
<path d="M258.3400 50.4180
L258.3400 59.9680
" />
<path d="M258.3400 59.9680
L245.2400 59.9680
" />
<path d="M233.6650 78.8430
L237.9150 78.8430
" />
<path d="M233.6650 82.3430
L233.6650 78.8430
" />
<path d="M237.9150 78.8430
L237.9150 82.3430
" />
<path d="M237.9150 82.3430
L233.6650 82.3430
" />
<path d="M276.8900 33.4130
L276.8900 40.1630
" />
<path d="M276.8900 40.1630
L285.2900 40.1630
" />
<path d="M285.2900 33.4130
L276.8900 33.4130
" />
<path d="M285.2900 40.1630
L285.2900 33.4130
" />
<path d="M180.7160 138.2030
L182.1760 138.2030
" />
<path d="M180.7160 141.1630
L180.7160 138.2030
" />
<path d="M182.1760 138.2030
L182.1760 141.1630
" />
<path d="M182.1760 141.1630
L180.7160 141.1630
" />
<path d="M260.6400 53.0730
L260.6400 56.9130
" />
<path d="M260.6400 56.9130
L264.0400 56.9130
" />
<path d="M264.0400 53.0730
L260.6400 53.0730
" />
<path d="M264.0400 56.9130
L264.0400 53.0730
" />
<path d="M107.8460 86.2380
L112.3460 86.2380
" />
<path d="M107.8460 93.5380
L107.8460 86.2380
" />
<path d="M112.3460 86.2380
L112.3460 93.5380
" />
<path d="M112.3460 93.5380
L107.8460 93.5380
" />
<circle cx="180.0760" cy="157.8280" r="1.2500" /> 
<path d="M190.8480 102.4738
L194.5480 102.4738
" />
<path d="M190.8480 104.3738
L190.8480 102.4738
" />
<path d="M194.5480 102.4738
L194.5480 104.3738
" />
<path d="M194.5480 104.3738
L190.8480 104.3738
" />
<path d="M273.1900 50.2430
L276.8900 50.2430
" />
<path d="M273.1900 52.1430
L273.1900 50.2430
" />
<path d="M276.8900 50.2430
L276.8900 52.1430
" />
<path d="M276.8900 52.1430
L273.1900 52.1430
" />
<path d="M290.6100 18.7955
L290.6100 32.1955
" />
<path d="M290.6100 32.1955
L297.3600 32.1955
" />
<path d="M297.3600 18.7955
L290.6100 18.7955
" />
<path d="M297.3600 32.1955
L297.3600 18.7955
" />
<path d="M108.3460 139.1080
L112.8460 139.1080
" />
<path d="M108.3460 146.4080
L108.3460 139.1080
" />
<path d="M112.8460 139.1080
L112.8460 146.4080
" />
<path d="M112.8460 146.4080
L108.3460 146.4080
" />
<path d="M269.1067 53.0730
L269.1067 56.9130
" />
<path d="M269.1067 56.9130
L272.5067 56.9130
" />
<path d="M272.5067 53.0730
L269.1067 53.0730
" />
<path d="M272.5067 56.9130
L272.5067 53.0730
" />
<circle cx="124.7460" cy="153.0330" r="1.2500" /> 
<path style="fill:none; 
stroke:#000000; stroke-width:0.0500; stroke-opacity:1; 
stroke-linecap:round; stroke-linejoin:round;fill:none"
d="M 237.1460,164.2165
235.3680,164.2165
235.3680,165.4865
231.8120,165.4865
231.8120,164.2165
230.0340,164.2165
230.0340,160.9145
237.1460,160.9145
Z" /> 
<path d="M182.4460 129.4030
L185.8460 129.4030
" />
<path d="M182.4460 131.3630
L182.4460 129.4030
" />
<path d="M185.8460 129.4030
L185.8460 131.3630
" />
<path d="M185.8460 131.3630
L182.4460 131.3630
" />
<circle cx="89.7460" cy="108.9330" r="1.2500" /> 
<path d="M114.3460 80.1830
L118.8460 80.1830
" />
<path d="M114.3460 87.4830
L114.3460 80.1830
" />
<path d="M118.8460 80.1830
L118.8460 87.4830
" />
<path d="M118.8460 87.4830
L114.3460 87.4830
" />
<path d="M127.9960 143.0830
L131.4960 143.0830
" />
<path d="M127.9960 150.0830
L127.9960 143.0830
" />
<path d="M131.4960 143.0830
L131.4960 150.0830
" />
<path d="M131.4960 150.0830
L127.9960 150.0830
" />
<path d="M114.3460 145.1830
L118.8460 145.1830
" />
<path d="M114.3460 152.4830
L114.3460 145.1830
" />
<path d="M118.8460 145.1830
L118.8460 152.4830
" />
<path d="M118.8460 152.4830
L114.3460 152.4830
" />
<path d="M80.4760 78.1330
L80.4760 85.1330
" />
<path d="M80.4760 85.1330
L91.5760 85.1330
" />
<path d="M91.5760 78.1330
L80.4760 78.1330
" />
<path d="M91.5760 85.1330
L91.5760 78.1330
" />
<path d="M174.6960 130.8330
L176.5960 130.8330
" />
<path d="M174.6960 134.5330
L174.6960 130.8330
" />
<path d="M176.5960 130.8330
L176.5960 134.5330
" />
<path d="M176.5960 134.5330
L174.6960 134.5330
" />
<path d="M214.2250 159.2980
L214.2250 166.1980
" />
<path d="M214.2250 166.1980
L219.7250 166.1980
" />
<path d="M219.7250 159.2980
L214.2250 159.2980
" />
<path d="M219.7250 166.1980
L219.7250 159.2980
" />
<circle cx="231.1900" cy="85.7930" r="1.5000" /> 
<path style="fill:none; 
stroke:#000000; stroke-width:0.0500; stroke-opacity:1; 
stroke-linecap:round; stroke-linejoin:round;fill:none"
d="M 300.4765,71.4351
302.0465,71.4351
302.0465,80.4751
300.4765,80.4751
300.4765,87.4951
248.1765,87.4951
248.1765,64.4151
300.4765,64.4151
Z" /> 
<path d="M199.4760 112.6830
L200.4160 112.6830
" />
<path d="M199.4760 114.8830
L199.4760 112.6830
" />
<path d="M200.4160 112.6830
L200.4160 114.8830
" />
<path d="M200.4160 114.8830
L199.4760 114.8830
" />
<path d="M202.7950 81.1260
L224.1450 81.1260
" />
<path d="M202.7950 84.6760
L202.7950 81.1260
" />
<path d="M224.1450 81.1260
L224.1450 84.6760
" />
<path d="M224.1450 84.6760
L202.7950 84.6760
" />
<path d="M260.4900 58.0430
L264.1900 58.0430
" />
<path d="M260.4900 59.9430
L260.4900 58.0430
" />
<path d="M264.1900 58.0430
L264.1900 59.9430
" />
<path d="M264.1900 59.9430
L260.4900 59.9430
" />
<circle cx="277.5900" cy="44.3930" r="1.2500" /> 
<path d="M86.1460 73.5030
L88.0460 73.5030
" />
<path d="M86.1460 77.2030
L86.1460 73.5030
" />
<path d="M88.0460 73.5030
L88.0460 77.2030
" />
<path d="M88.0460 77.2030
L86.1460 77.2030
" />
<path d="M202.7950 63.3460
L224.1450 63.3460
" />
<path d="M202.7950 66.8960
L202.7950 63.3460
" />
<path d="M224.1450 63.3460
L224.1450 66.8960
" />
<path d="M224.1450 66.8960
L202.7950 66.8960
" />
<path d="M240.1400 65.1430
L240.1400 67.6430
" />
<path d="M240.1400 65.1430
L243.4400 65.1430
" />
<path d="M243.4400 67.6430
L240.1400 67.6430
" />
<path d="M243.4400 67.6430
L243.4400 65.1430
" />
<path d="M180.3660 100.3530
L183.3260 100.3530
" />
<path d="M180.3660 101.8130
L180.3660 100.3530
" />
<path d="M183.3260 100.3530
L183.3260 101.8130
" />
<path d="M183.3260 101.8130
L180.3660 101.8130
" />
<path d="M76.2460 71.4330
L85.2460 71.4330
" />
<path d="M76.2460 74.9330
L76.2460 71.4330
" />
<path d="M85.2460 71.4330
L85.2460 74.9330
" />
<path d="M85.2460 74.9330
L76.2460 74.9330
" />
<circle cx="200.3460" cy="134.5830" r="1.2500" /> 
<path d="M252.9400 165.6430
L252.9400 162.3430
" />
<path d="M252.9400 165.6430
L255.4400 165.6430
" />
<path d="M255.4400 162.3430
L252.9400 162.3430
" />
<path d="M255.4400 162.3430
L255.4400 165.6430
" />
<path d="M229.3100 80.6130
L233.0700 80.6130
" />
<path d="M229.3100 82.5730
L229.3100 80.6130
" />
<path d="M233.0700 80.6130
L233.0700 82.5730
" />
<path d="M233.0700 82.5730
L229.3100 82.5730
" />
</g>
<g style="fill:none; 
stroke:#000000; stroke-width:0.1000; stroke-opacity:1; 
stroke-linecap:round; stroke-linejoin:round;">
<path d="M179.5710 131.7330
L185.9210 131.7330
" />
<path d="M179.5710 137.8330
L179.5710 131.7330
" />
<path d="M185.9210 131.7330
L185.9210 137.8330
" />
<path d="M185.9210 137.8330
L179.5710 137.8330
" />
</g>
<g style="fill:none; 
stroke:#000000; stroke-width:0.0500; stroke-opacity:1; 
stroke-linecap:round; stroke-linejoin:round;">
<circle cx="288.6650" cy="20.2100" r="1.2500" /> 
<path d="M108.3460 118.7380
L112.8460 118.7380
" />
<path d="M108.3460 126.0380
L108.3460 118.7380
" />
<path d="M112.8460 118.7380
L112.8460 126.0380
" />
<path d="M112.8460 126.0380
L108.3460 126.0380
" />
<circle cx="297.9100" cy="49.1130" r="1.5000" /> 
<path d="M194.2460 125.8330
L198.8460 125.8330
" />
<path d="M194.2460 128.1330
L194.2460 125.8330
" />
<path d="M198.8460 125.8330
L198.8460 128.1330
" />
<path d="M198.8460 128.1330
L194.2460 128.1330
" />
<path d="M238.5900 160.8430
L238.5900 166.9930
" />
<path d="M238.5900 166.9930
L249.7900 166.9930
" />
<path d="M249.7900 160.8430
L238.5900 160.8430
" />
<path d="M249.7900 166.9930
L249.7900 160.8430
" />
<circle cx="271.5900" cy="123.3930" r="1.2500" /> 
<path d="M182.5460 140.5330
L187.1460 140.5330
" />
<path d="M182.5460 142.8330
L182.5460 140.5330
" />
<path d="M187.1460 140.5330
L187.1460 142.8330
" />
<path d="M187.1460 142.8330
L182.5460 142.8330
" />
<path d="M74.9260 76.6830
L78.7660 76.6830
" />
<path d="M74.9260 84.6830
L74.9260 76.6830
" />
<path d="M78.7660 76.6830
L78.7660 84.6830
" />
<path d="M78.7660 84.6830
L74.9260 84.6830
" />
<circle cx="282.5900" cy="91.3930" r="1.2500" /> 
<path d="M194.7980 98.1058
L194.7980 100.6058
" />
<path d="M194.7980 98.1058
L199.3980 98.1058
" />
<path d="M199.3980 100.6058
L194.7980 100.6058
" />
<path d="M199.3980 100.6058
L199.3980 98.1058
" />
<path d="M174.2535 140.2830
L174.2535 135.6830
" />
<path d="M174.2535 140.2830
L176.7535 140.2830
" />
<path d="M176.7535 135.6830
L174.2535 135.6830
" />
<path d="M176.7535 135.6830
L176.7535 140.2830
" />
<path d="M186.3992 82.8790
L200.8992 82.8790
" />
<path d="M186.3992 97.2790
L186.3992 82.8790
" />
<path d="M200.8992 82.8790
L200.8992 97.2790
" />
<path d="M200.8992 97.2790
L186.3992 97.2790
" />
<path d="M250.1400 165.6430
L250.1400 162.3430
" />
<path d="M250.1400 165.6430
L252.6400 165.6430
" />
<path d="M252.6400 162.3430
L250.1400 162.3430
" />
<path d="M252.6400 162.3430
L252.6400 165.6430
" />
<path d="M285.3300 47.4130
L285.3300 54.8130
" />
<path d="M285.3300 54.8130
L294.4900 54.8130
" />
<path d="M294.4900 47.4130
L285.3300 47.4130
" />
<path d="M294.4900 54.8130
L294.4900 47.4130
" />
<path d="M284.9600 56.2630
L286.8600 56.2630
" />
<path d="M284.9600 59.9630
L284.9600 56.2630
" />
<path d="M286.8600 56.2630
L286.8600 59.9630
" />
<path d="M286.8600 59.9630
L284.9600 59.9630
" />
<path d="M182.5460 138.2030
L185.9460 138.2030
" />
<path d="M182.5460 140.1630
L182.5460 138.2030
" />
<path d="M185.9460 138.2030
L185.9460 140.1630
" />
<path d="M185.9460 140.1630
L182.5460 140.1630
" />
<path d="M264.8733 53.0730
L264.8733 56.9130
" />
<path d="M264.8733 56.9130
L268.2733 56.9130
" />
<path d="M268.2733 53.0730
L264.8733 53.0730
" />
<path d="M268.2733 56.9130
L268.2733 53.0730
" />
<path d="M259.3400 103.4230
L263.0400 103.4230
" />
<path d="M259.3400 105.3230
L259.3400 103.4230
" />
<path d="M263.0400 103.4230
L263.0400 105.3230
" />
<path d="M263.0400 105.3230
L259.3400 105.3230
" />
<path d="M260.4900 50.2430
L264.1900 50.2430
" />
<path d="M260.4900 52.1430
L260.4900 50.2430
" />
<path d="M264.1900 50.2430
L264.1900 52.1430
" />
<path d="M264.1900 52.1430
L260.4900 52.1430
" />
<circle cx="297.9100" cy="53.1130" r="1.5000" /> 
<path d="M267.4400 165.5930
L267.4400 161.1930
" />
<path d="M269.7400 161.1930
L267.4400 161.1930
" />
<path d="M269.7400 161.1930
L269.7400 165.5930
" />
<path d="M269.7400 165.5930
L267.4400 165.5930
" />
<path d="M76.2460 67.6330
L85.2460 67.6330
" />
<path d="M76.2460 71.1330
L76.2460 67.6330
" />
<path d="M85.2460 67.6330
L85.2460 71.1330
" />
<path d="M85.2460 71.1330
L76.2460 71.1330
" />
<path d="M92.5960 64.6330
L101.5960 64.6330
" />
<path d="M92.5960 68.1330
L92.5960 64.6330
" />
<path d="M101.5960 64.6330
L101.5960 68.1330
" />
<path d="M101.5960 68.1330
L92.5960 68.1330
" />
<path d="M88.2960 73.5030
L88.2960 77.3430
" />
<path d="M88.2960 77.3430
L91.6960 77.3430
" />
<path d="M91.6960 73.5030
L88.2960 73.5030
" />
<path d="M91.6960 77.3430
L91.6960 73.5030
" />
<circle cx="230.5900" cy="73.3930" r="1.2500" /> 
<path d="M278.9600 56.2630
L280.8600 56.2630
" />
<path d="M278.9600 59.9630
L278.9600 56.2630
" />
<path d="M280.8600 56.2630
L280.8600 59.9630
" />
<path d="M280.8600 59.9630
L278.9600 59.9630
" />
<path d="M74.7960 90.7000
L74.7960 101.3000
" />
<path d="M74.7960 101.3000
L86.7960 101.3000
" />
<path d="M86.7960 90.7000
L74.7960 90.7000
" />
<path d="M86.7960 101.3000
L86.7960 90.7000
" />
<path d="M54.4400 150.8430
L54.4400 58.7680
" />
<path d="M250.1800 32.0980
L245.7350 36.5430
" />
<path d="M70.9500 152.7480
L72.2200 154.0180
" />
<path d="M205.0950 51.1480
L199.3800 56.8630
" />
<path d="M278.5900 155.3930
L278.5900 101.3930
" />
<path d="M56.3450 152.7480
L70.9500 152.7480
" />
<path d="M56.3450 56.8630
L199.3800 56.8630
" />
<path d="M278.5900 101.3930
L279.5900 100.3930
" />
<path d="M301.5900 157.3930
L300.5900 156.3930
" />
<path d="M279.5900 156.3930
L278.5900 155.3930
" />
<path d="M228.5900 36.5430
L226.0500 39.0830
" />
</g>
<g style="fill:none; 
stroke:#000000; stroke-width:0.1000; stroke-opacity:1; 
stroke-linecap:round; stroke-linejoin:round;">
<circle cx="245.6900" cy="128.5930" r="13.0000" /> 
</g>
<g style="fill:none; 
stroke:#000000; stroke-width:0.0500; stroke-opacity:1; 
stroke-linecap:round; stroke-linejoin:round;">
<path d="M299.5900 -0.6070
L301.5900 1.3930
" />
<path d="M95.7150 161.6380
L100.1600 166.0830
" />
<path d="M54.4400 150.8430
L56.3450 152.7480
" />
<path d="M299.5900 169.3930
L207.3810 169.3215
" />
<path d="M252.7200 32.0980
L250.1800 32.0980
" />
<path d="M72.2200 154.0180
L72.2200 155.2880
" />
<path d="M254.6650 30.0100
L252.7200 32.0980
" />
<path d="M300.5900 100.3930
L301.5900 99.3930
" />
<path d="M299.5900 -0.6070
L271.1650 -0.6070
" />
<path d="M203.4440 166.0830
L100.1600 166.0830
" />
<path d="M301.5900 99.3930
L301.5900 1.3930
" />
<path d="M78.5700 161.6380
L95.7150 161.6380
" />
<path d="M72.2200 155.2880
L78.5700 161.6380
" />
<path d="M223.5100 49.8780
L222.2400 51.1480
" />
<path d="M268.8650 1.4930
L268.8650 13.8100
" />
<path d="M268.8650 13.8100
L266.8650 15.8100
" />
<path d="M271.1650 -0.6070
L268.8650 1.4930
" />
<path d="M245.7350 36.5430
L228.5900 36.5430
" />
<path d="M256.2650 15.8100
L266.8650 15.8100
" />
<path d="M279.5900 100.3930
L300.5900 100.3930
" />
<path d="M56.3450 56.8630
L54.4400 58.7680
" />
<path d="M299.5900 169.3930
L301.5900 167.3930
" />
<path d="M256.2650 15.8100
L254.6650 17.4100
" />
<path d="M254.6650 17.4100
L254.6650 30.0100
" />
<path d="M203.4440 166.0830
L207.3810 169.3215
" />
<path d="M222.2400 51.1480
L205.0950 51.1480
" />
<path d="M223.5100 44.1630
L223.5100 49.8780
" />
<path d="M300.5900 156.3930
L279.5900 156.3930
" />
<path d="M226.0500 39.0830
L226.0500 41.6230
" />
<path d="M226.0500 41.6230
L223.5100 44.1630
" />
<path d="M301.5900 167.3930
L301.5900 157.3930
" />
</g> 
</svg>
