<?xml version="1.0" standalone="no"?>
 <!DOCTYPE svg PUBLIC "-//W3C//DTD SVG 1.1//EN" 
 "http://www.w3.org/Graphics/SVG/1.1/DTD/svg11.dtd"> 
<svg
  xmlns:svg="http://www.w3.org/2000/svg"
  xmlns="http://www.w3.org/2000/svg"
  xmlns:xlink="http://www.w3.org/1999/xlink"
  version="1.1"
  width="297.0022mm" height="210.0072mm" viewBox="0.0000 0.0000 297.0022 210.0072">
<title>SVG Image created as OpenMowerMainboard-F_CrtYd.svg date 2024/07/23 19:13:21 </title>
  <desc>Image generated by PCBNEW </desc>
<g style="fill:#000000; fill-opacity:1.0000;stroke:#000000; stroke-opacity:1.0000;
stroke-linecap:round; stroke-linejoin:round;"
 transform="translate(0 0) scale(1 1)">
</g>
<g style="fill:none; 
stroke:#000000; stroke-width:0.1500; stroke-opacity:1; 
stroke-linecap:round; stroke-linejoin:round;">
<path d="M177.0022 166.0072
L285.0022 166.0072
L285.0022 198.0072
L177.0022 198.0072
L177.0022 166.0072
" />
</g>
<g style="fill:none; 
stroke:#000000; stroke-width:0.1500; stroke-opacity:1; 
stroke-linecap:round; stroke-linejoin:round;">
<path d="M10.0000 10.0000
L287.0022 10.0000
L287.0022 200.0072
L10.0000 200.0072
L10.0000 10.0000
" />
</g>
<g style="fill:none; 
stroke:#000000; stroke-width:0.1500; stroke-opacity:1; 
stroke-linecap:round; stroke-linejoin:round;">
<path d="M12.0000 12.0000
L285.0022 12.0000
L285.0022 198.0072
L12.0000 198.0072
L12.0000 12.0000
" />
</g>
<g style="fill:none; 
stroke:#000000; stroke-width:0.1500; stroke-opacity:1; 
stroke-linecap:round; stroke-linejoin:round;">
<path d="M60.0000 12.0000
L60.0000 10.0000
" />
</g>
<g style="fill:none; 
stroke:#000000; stroke-width:0.1500; stroke-opacity:1; 
stroke-linecap:round; stroke-linejoin:round;">
<path d="M110.0000 12.0000
L110.0000 10.0000
" />
</g>
<g style="fill:none; 
stroke:#000000; stroke-width:0.1500; stroke-opacity:1; 
stroke-linecap:round; stroke-linejoin:round;">
<path d="M160.0000 12.0000
L160.0000 10.0000
" />
</g>
<g style="fill:none; 
stroke:#000000; stroke-width:0.1500; stroke-opacity:1; 
stroke-linecap:round; stroke-linejoin:round;">
<path d="M210.0000 12.0000
L210.0000 10.0000
" />
</g>
<g style="fill:none; 
stroke:#000000; stroke-width:0.1500; stroke-opacity:1; 
stroke-linecap:round; stroke-linejoin:round;">
<path d="M260.0000 12.0000
L260.0000 10.0000
" />
</g>
<g style="fill:none; 
stroke:#000000; stroke-width:0.1500; stroke-opacity:1; 
stroke-linecap:round; stroke-linejoin:round;">
<text x="35.0000" y="11.6500"
textLength="1.4281" font-size="1.7333" lengthAdjust="spacingAndGlyphs"
text-anchor="start" opacity="0">1</text>
<g class="stroked-text"><desc>1</desc>
<path d="M36.0892 11.5936
L35.3463 11.5936
" />
<path d="M35.7177 11.5936
L35.7177 10.2936
" />
<path d="M35.7177 10.2936
L35.5939 10.4793
" />
<path d="M35.5939 10.4793
L35.4701 10.6031
" />
<path d="M35.4701 10.6031
L35.3463 10.6650
" />
</g></g>
<g style="fill:none; 
stroke:#000000; stroke-width:0.1500; stroke-opacity:1; 
stroke-linecap:round; stroke-linejoin:round;">
<text x="85.0000" y="11.6500"
textLength="1.4281" font-size="1.7333" lengthAdjust="spacingAndGlyphs"
text-anchor="start" opacity="0">2</text>
<g class="stroked-text"><desc>2</desc>
<path d="M85.3463 10.4174
L85.4082 10.3555
" />
<path d="M85.4082 10.3555
L85.5320 10.2936
" />
<path d="M85.5320 10.2936
L85.8415 10.2936
" />
<path d="M85.8415 10.2936
L85.9654 10.3555
" />
<path d="M85.9654 10.3555
L86.0273 10.4174
" />
<path d="M86.0273 10.4174
L86.0892 10.5412
" />
<path d="M86.0892 10.5412
L86.0892 10.6650
" />
<path d="M86.0892 10.6650
L86.0273 10.8507
" />
<path d="M86.0273 10.8507
L85.2844 11.5936
" />
<path d="M85.2844 11.5936
L86.0892 11.5936
" />
</g></g>
<g style="fill:none; 
stroke:#000000; stroke-width:0.1500; stroke-opacity:1; 
stroke-linecap:round; stroke-linejoin:round;">
<text x="135.0000" y="11.6500"
textLength="1.4281" font-size="1.7333" lengthAdjust="spacingAndGlyphs"
text-anchor="start" opacity="0">3</text>
<g class="stroked-text"><desc>3</desc>
<path d="M135.2844 10.2936
L136.0892 10.2936
" />
<path d="M136.0892 10.2936
L135.6558 10.7888
" />
<path d="M135.6558 10.7888
L135.8415 10.7888
" />
<path d="M135.8415 10.7888
L135.9654 10.8507
" />
<path d="M135.9654 10.8507
L136.0273 10.9127
" />
<path d="M136.0273 10.9127
L136.0892 11.0365
" />
<path d="M136.0892 11.0365
L136.0892 11.3460
" />
<path d="M136.0892 11.3460
L136.0273 11.4698
" />
<path d="M136.0273 11.4698
L135.9654 11.5317
" />
<path d="M135.9654 11.5317
L135.8415 11.5936
" />
<path d="M135.8415 11.5936
L135.4701 11.5936
" />
<path d="M135.4701 11.5936
L135.3463 11.5317
" />
<path d="M135.3463 11.5317
L135.2844 11.4698
" />
</g></g>
<g style="fill:none; 
stroke:#000000; stroke-width:0.1500; stroke-opacity:1; 
stroke-linecap:round; stroke-linejoin:round;">
<text x="185.0000" y="11.6500"
textLength="1.4281" font-size="1.7333" lengthAdjust="spacingAndGlyphs"
text-anchor="start" opacity="0">4</text>
<g class="stroked-text"><desc>4</desc>
<path d="M185.9654 10.7269
L185.9654 11.5936
" />
<path d="M185.6558 10.2317
L185.3463 11.1603
" />
<path d="M185.3463 11.1603
L186.1511 11.1603
" />
</g></g>
<g style="fill:none; 
stroke:#000000; stroke-width:0.1500; stroke-opacity:1; 
stroke-linecap:round; stroke-linejoin:round;">
<text x="235.0000" y="11.6500"
textLength="1.4281" font-size="1.7333" lengthAdjust="spacingAndGlyphs"
text-anchor="start" opacity="0">5</text>
<g class="stroked-text"><desc>5</desc>
<path d="M236.0273 10.2936
L235.4082 10.2936
" />
<path d="M235.4082 10.2936
L235.3463 10.9127
" />
<path d="M235.3463 10.9127
L235.4082 10.8507
" />
<path d="M235.4082 10.8507
L235.5320 10.7888
" />
<path d="M235.5320 10.7888
L235.8415 10.7888
" />
<path d="M235.8415 10.7888
L235.9654 10.8507
" />
<path d="M235.9654 10.8507
L236.0273 10.9127
" />
<path d="M236.0273 10.9127
L236.0892 11.0365
" />
<path d="M236.0892 11.0365
L236.0892 11.3460
" />
<path d="M236.0892 11.3460
L236.0273 11.4698
" />
<path d="M236.0273 11.4698
L235.9654 11.5317
" />
<path d="M235.9654 11.5317
L235.8415 11.5936
" />
<path d="M235.8415 11.5936
L235.5320 11.5936
" />
<path d="M235.5320 11.5936
L235.4082 11.5317
" />
<path d="M235.4082 11.5317
L235.3463 11.4698
" />
</g></g>
<g style="fill:none; 
stroke:#000000; stroke-width:0.1500; stroke-opacity:1; 
stroke-linecap:round; stroke-linejoin:round;">
<text x="285.0000" y="11.6500"
textLength="1.4281" font-size="1.7333" lengthAdjust="spacingAndGlyphs"
text-anchor="start" opacity="0">6</text>
<g class="stroked-text"><desc>6</desc>
<path d="M285.9654 10.2936
L285.7177 10.2936
" />
<path d="M285.7177 10.2936
L285.5939 10.3555
" />
<path d="M285.5939 10.3555
L285.5320 10.4174
" />
<path d="M285.5320 10.4174
L285.4082 10.6031
" />
<path d="M285.4082 10.6031
L285.3463 10.8507
" />
<path d="M285.3463 10.8507
L285.3463 11.3460
" />
<path d="M285.3463 11.3460
L285.4082 11.4698
" />
<path d="M285.4082 11.4698
L285.4701 11.5317
" />
<path d="M285.4701 11.5317
L285.5939 11.5936
" />
<path d="M285.5939 11.5936
L285.8415 11.5936
" />
<path d="M285.8415 11.5936
L285.9654 11.5317
" />
<path d="M285.9654 11.5317
L286.0273 11.4698
" />
<path d="M286.0273 11.4698
L286.0892 11.3460
" />
<path d="M286.0892 11.3460
L286.0892 11.0365
" />
<path d="M286.0892 11.0365
L286.0273 10.9127
" />
<path d="M286.0273 10.9127
L285.9654 10.8507
" />
<path d="M285.9654 10.8507
L285.8415 10.7888
" />
<path d="M285.8415 10.7888
L285.5939 10.7888
" />
<path d="M285.5939 10.7888
L285.4701 10.8507
" />
<path d="M285.4701 10.8507
L285.4082 10.9127
" />
<path d="M285.4082 10.9127
L285.3463 11.0365
" />
</g></g>
<g style="fill:none; 
stroke:#000000; stroke-width:0.1500; stroke-opacity:1; 
stroke-linecap:round; stroke-linejoin:round;">
<path d="M60.0000 198.0072
L60.0000 200.0072
" />
</g>
<g style="fill:none; 
stroke:#000000; stroke-width:0.1500; stroke-opacity:1; 
stroke-linecap:round; stroke-linejoin:round;">
<path d="M110.0000 198.0072
L110.0000 200.0072
" />
</g>
<g style="fill:none; 
stroke:#000000; stroke-width:0.1500; stroke-opacity:1; 
stroke-linecap:round; stroke-linejoin:round;">
<path d="M160.0000 198.0072
L160.0000 200.0072
" />
</g>
<g style="fill:none; 
stroke:#000000; stroke-width:0.1500; stroke-opacity:1; 
stroke-linecap:round; stroke-linejoin:round;">
<path d="M210.0000 198.0072
L210.0000 200.0072
" />
</g>
<g style="fill:none; 
stroke:#000000; stroke-width:0.1500; stroke-opacity:1; 
stroke-linecap:round; stroke-linejoin:round;">
<path d="M260.0000 198.0072
L260.0000 200.0072
" />
</g>
<g style="fill:none; 
stroke:#000000; stroke-width:0.1500; stroke-opacity:1; 
stroke-linecap:round; stroke-linejoin:round;">
<text x="35.0000" y="199.6572"
textLength="1.4281" font-size="1.7333" lengthAdjust="spacingAndGlyphs"
text-anchor="start" opacity="0">1</text>
<g class="stroked-text"><desc>1</desc>
<path d="M36.0892 199.6008
L35.3463 199.6008
" />
<path d="M35.7177 199.6008
L35.7177 198.3008
" />
<path d="M35.7177 198.3008
L35.5939 198.4865
" />
<path d="M35.5939 198.4865
L35.4701 198.6103
" />
<path d="M35.4701 198.6103
L35.3463 198.6722
" />
</g></g>
<g style="fill:none; 
stroke:#000000; stroke-width:0.1500; stroke-opacity:1; 
stroke-linecap:round; stroke-linejoin:round;">
<text x="85.0000" y="199.6572"
textLength="1.4281" font-size="1.7333" lengthAdjust="spacingAndGlyphs"
text-anchor="start" opacity="0">2</text>
<g class="stroked-text"><desc>2</desc>
<path d="M85.3463 198.4246
L85.4082 198.3627
" />
<path d="M85.4082 198.3627
L85.5320 198.3008
" />
<path d="M85.5320 198.3008
L85.8415 198.3008
" />
<path d="M85.8415 198.3008
L85.9654 198.3627
" />
<path d="M85.9654 198.3627
L86.0273 198.4246
" />
<path d="M86.0273 198.4246
L86.0892 198.5484
" />
<path d="M86.0892 198.5484
L86.0892 198.6722
" />
<path d="M86.0892 198.6722
L86.0273 198.8579
" />
<path d="M86.0273 198.8579
L85.2844 199.6008
" />
<path d="M85.2844 199.6008
L86.0892 199.6008
" />
</g></g>
<g style="fill:none; 
stroke:#000000; stroke-width:0.1500; stroke-opacity:1; 
stroke-linecap:round; stroke-linejoin:round;">
<text x="135.0000" y="199.6572"
textLength="1.4281" font-size="1.7333" lengthAdjust="spacingAndGlyphs"
text-anchor="start" opacity="0">3</text>
<g class="stroked-text"><desc>3</desc>
<path d="M135.2844 198.3008
L136.0892 198.3008
" />
<path d="M136.0892 198.3008
L135.6558 198.7960
" />
<path d="M135.6558 198.7960
L135.8415 198.7960
" />
<path d="M135.8415 198.7960
L135.9654 198.8579
" />
<path d="M135.9654 198.8579
L136.0273 198.9199
" />
<path d="M136.0273 198.9199
L136.0892 199.0437
" />
<path d="M136.0892 199.0437
L136.0892 199.3532
" />
<path d="M136.0892 199.3532
L136.0273 199.4770
" />
<path d="M136.0273 199.4770
L135.9654 199.5389
" />
<path d="M135.9654 199.5389
L135.8415 199.6008
" />
<path d="M135.8415 199.6008
L135.4701 199.6008
" />
<path d="M135.4701 199.6008
L135.3463 199.5389
" />
<path d="M135.3463 199.5389
L135.2844 199.4770
" />
</g></g>
<g style="fill:none; 
stroke:#000000; stroke-width:0.1500; stroke-opacity:1; 
stroke-linecap:round; stroke-linejoin:round;">
<text x="185.0000" y="199.6572"
textLength="1.4281" font-size="1.7333" lengthAdjust="spacingAndGlyphs"
text-anchor="start" opacity="0">4</text>
<g class="stroked-text"><desc>4</desc>
<path d="M185.9654 198.7341
L185.9654 199.6008
" />
<path d="M185.6558 198.2389
L185.3463 199.1675
" />
<path d="M185.3463 199.1675
L186.1511 199.1675
" />
</g></g>
<g style="fill:none; 
stroke:#000000; stroke-width:0.1500; stroke-opacity:1; 
stroke-linecap:round; stroke-linejoin:round;">
<text x="235.0000" y="199.6572"
textLength="1.4281" font-size="1.7333" lengthAdjust="spacingAndGlyphs"
text-anchor="start" opacity="0">5</text>
<g class="stroked-text"><desc>5</desc>
<path d="M236.0273 198.3008
L235.4082 198.3008
" />
<path d="M235.4082 198.3008
L235.3463 198.9199
" />
<path d="M235.3463 198.9199
L235.4082 198.8579
" />
<path d="M235.4082 198.8579
L235.5320 198.7960
" />
<path d="M235.5320 198.7960
L235.8415 198.7960
" />
<path d="M235.8415 198.7960
L235.9654 198.8579
" />
<path d="M235.9654 198.8579
L236.0273 198.9199
" />
<path d="M236.0273 198.9199
L236.0892 199.0437
" />
<path d="M236.0892 199.0437
L236.0892 199.3532
" />
<path d="M236.0892 199.3532
L236.0273 199.4770
" />
<path d="M236.0273 199.4770
L235.9654 199.5389
" />
<path d="M235.9654 199.5389
L235.8415 199.6008
" />
<path d="M235.8415 199.6008
L235.5320 199.6008
" />
<path d="M235.5320 199.6008
L235.4082 199.5389
" />
<path d="M235.4082 199.5389
L235.3463 199.4770
" />
</g></g>
<g style="fill:none; 
stroke:#000000; stroke-width:0.1500; stroke-opacity:1; 
stroke-linecap:round; stroke-linejoin:round;">
<text x="285.0000" y="199.6572"
textLength="1.4281" font-size="1.7333" lengthAdjust="spacingAndGlyphs"
text-anchor="start" opacity="0">6</text>
<g class="stroked-text"><desc>6</desc>
<path d="M285.9654 198.3008
L285.7177 198.3008
" />
<path d="M285.7177 198.3008
L285.5939 198.3627
" />
<path d="M285.5939 198.3627
L285.5320 198.4246
" />
<path d="M285.5320 198.4246
L285.4082 198.6103
" />
<path d="M285.4082 198.6103
L285.3463 198.8579
" />
<path d="M285.3463 198.8579
L285.3463 199.3532
" />
<path d="M285.3463 199.3532
L285.4082 199.4770
" />
<path d="M285.4082 199.4770
L285.4701 199.5389
" />
<path d="M285.4701 199.5389
L285.5939 199.6008
" />
<path d="M285.5939 199.6008
L285.8415 199.6008
" />
<path d="M285.8415 199.6008
L285.9654 199.5389
" />
<path d="M285.9654 199.5389
L286.0273 199.4770
" />
<path d="M286.0273 199.4770
L286.0892 199.3532
" />
<path d="M286.0892 199.3532
L286.0892 199.0437
" />
<path d="M286.0892 199.0437
L286.0273 198.9199
" />
<path d="M286.0273 198.9199
L285.9654 198.8579
" />
<path d="M285.9654 198.8579
L285.8415 198.7960
" />
<path d="M285.8415 198.7960
L285.5939 198.7960
" />
<path d="M285.5939 198.7960
L285.4701 198.8579
" />
<path d="M285.4701 198.8579
L285.4082 198.9199
" />
<path d="M285.4082 198.9199
L285.3463 199.0437
" />
</g></g>
<g style="fill:none; 
stroke:#000000; stroke-width:0.1500; stroke-opacity:1; 
stroke-linecap:round; stroke-linejoin:round;">
<path d="M10.0000 60.0000
L12.0000 60.0000
" />
</g>
<g style="fill:none; 
stroke:#000000; stroke-width:0.1500; stroke-opacity:1; 
stroke-linecap:round; stroke-linejoin:round;">
<path d="M10.0000 110.0000
L12.0000 110.0000
" />
</g>
<g style="fill:none; 
stroke:#000000; stroke-width:0.1500; stroke-opacity:1; 
stroke-linecap:round; stroke-linejoin:round;">
<path d="M10.0000 160.0000
L12.0000 160.0000
" />
</g>
<g style="fill:none; 
stroke:#000000; stroke-width:0.1500; stroke-opacity:1; 
stroke-linecap:round; stroke-linejoin:round;">
<text x="11.0000" y="35.6500"
textLength="1.3043" font-size="1.7333" lengthAdjust="spacingAndGlyphs"
text-anchor="middle" opacity="0">A</text>
<g class="stroked-text"><desc>A</desc>
<path d="M10.6905 35.2222
L11.3095 35.2222
" />
<path d="M10.5667 35.5936
L11.0000 34.2936
" />
<path d="M11.0000 34.2936
L11.4333 35.5936
" />
</g></g>
<g style="fill:none; 
stroke:#000000; stroke-width:0.1500; stroke-opacity:1; 
stroke-linecap:round; stroke-linejoin:round;">
<text x="11.0000" y="85.6500"
textLength="1.4900" font-size="1.7333" lengthAdjust="spacingAndGlyphs"
text-anchor="middle" opacity="0">B</text>
<g class="stroked-text"><desc>B</desc>
<path d="M11.0929 84.9127
L11.2786 84.9746
" />
<path d="M11.2786 84.9746
L11.3405 85.0365
" />
<path d="M11.3405 85.0365
L11.4024 85.1603
" />
<path d="M11.4024 85.1603
L11.4024 85.3460
" />
<path d="M11.4024 85.3460
L11.3405 85.4698
" />
<path d="M11.3405 85.4698
L11.2786 85.5317
" />
<path d="M11.2786 85.5317
L11.1548 85.5936
" />
<path d="M11.1548 85.5936
L10.6595 85.5936
" />
<path d="M10.6595 85.5936
L10.6595 84.2936
" />
<path d="M10.6595 84.2936
L11.0929 84.2936
" />
<path d="M11.0929 84.2936
L11.2167 84.3555
" />
<path d="M11.2167 84.3555
L11.2786 84.4174
" />
<path d="M11.2786 84.4174
L11.3405 84.5412
" />
<path d="M11.3405 84.5412
L11.3405 84.6650
" />
<path d="M11.3405 84.6650
L11.2786 84.7888
" />
<path d="M11.2786 84.7888
L11.2167 84.8507
" />
<path d="M11.2167 84.8507
L11.0929 84.9127
" />
<path d="M11.0929 84.9127
L10.6595 84.9127
" />
</g></g>
<g style="fill:none; 
stroke:#000000; stroke-width:0.1500; stroke-opacity:1; 
stroke-linecap:round; stroke-linejoin:round;">
<text x="11.0000" y="135.6500"
textLength="1.4900" font-size="1.7333" lengthAdjust="spacingAndGlyphs"
text-anchor="middle" opacity="0">C</text>
<g class="stroked-text"><desc>C</desc>
<path d="M11.4024 135.4698
L11.3405 135.5317
" />
<path d="M11.3405 135.5317
L11.1548 135.5936
" />
<path d="M11.1548 135.5936
L11.0310 135.5936
" />
<path d="M11.0310 135.5936
L10.8452 135.5317
" />
<path d="M10.8452 135.5317
L10.7214 135.4079
" />
<path d="M10.7214 135.4079
L10.6595 135.2841
" />
<path d="M10.6595 135.2841
L10.5976 135.0365
" />
<path d="M10.5976 135.0365
L10.5976 134.8507
" />
<path d="M10.5976 134.8507
L10.6595 134.6031
" />
<path d="M10.6595 134.6031
L10.7214 134.4793
" />
<path d="M10.7214 134.4793
L10.8452 134.3555
" />
<path d="M10.8452 134.3555
L11.0310 134.2936
" />
<path d="M11.0310 134.2936
L11.1548 134.2936
" />
<path d="M11.1548 134.2936
L11.3405 134.3555
" />
<path d="M11.3405 134.3555
L11.4024 134.4174
" />
</g></g>
<g style="fill:none; 
stroke:#000000; stroke-width:0.1500; stroke-opacity:1; 
stroke-linecap:round; stroke-linejoin:round;">
<text x="11.0000" y="185.6500"
textLength="1.4900" font-size="1.7333" lengthAdjust="spacingAndGlyphs"
text-anchor="middle" opacity="0">D</text>
<g class="stroked-text"><desc>D</desc>
<path d="M10.6595 185.5936
L10.6595 184.2936
" />
<path d="M10.6595 184.2936
L10.9690 184.2936
" />
<path d="M10.9690 184.2936
L11.1548 184.3555
" />
<path d="M11.1548 184.3555
L11.2786 184.4793
" />
<path d="M11.2786 184.4793
L11.3405 184.6031
" />
<path d="M11.3405 184.6031
L11.4024 184.8507
" />
<path d="M11.4024 184.8507
L11.4024 185.0365
" />
<path d="M11.4024 185.0365
L11.3405 185.2841
" />
<path d="M11.3405 185.2841
L11.2786 185.4079
" />
<path d="M11.2786 185.4079
L11.1548 185.5317
" />
<path d="M11.1548 185.5317
L10.9690 185.5936
" />
<path d="M10.9690 185.5936
L10.6595 185.5936
" />
</g></g>
<g style="fill:none; 
stroke:#000000; stroke-width:0.1500; stroke-opacity:1; 
stroke-linecap:round; stroke-linejoin:round;">
<path d="M287.0022 60.0000
L285.0022 60.0000
" />
</g>
<g style="fill:none; 
stroke:#000000; stroke-width:0.1500; stroke-opacity:1; 
stroke-linecap:round; stroke-linejoin:round;">
<path d="M287.0022 110.0000
L285.0022 110.0000
" />
</g>
<g style="fill:none; 
stroke:#000000; stroke-width:0.1500; stroke-opacity:1; 
stroke-linecap:round; stroke-linejoin:round;">
<path d="M287.0022 160.0000
L285.0022 160.0000
" />
</g>
<g style="fill:none; 
stroke:#000000; stroke-width:0.1500; stroke-opacity:1; 
stroke-linecap:round; stroke-linejoin:round;">
<text x="286.0022" y="35.6500"
textLength="1.3043" font-size="1.7333" lengthAdjust="spacingAndGlyphs"
text-anchor="middle" opacity="0">A</text>
<g class="stroked-text"><desc>A</desc>
<path d="M285.6927 35.2222
L286.3117 35.2222
" />
<path d="M285.5689 35.5936
L286.0022 34.2936
" />
<path d="M286.0022 34.2936
L286.4355 35.5936
" />
</g></g>
<g style="fill:none; 
stroke:#000000; stroke-width:0.1500; stroke-opacity:1; 
stroke-linecap:round; stroke-linejoin:round;">
<text x="286.0022" y="85.6500"
textLength="1.4900" font-size="1.7333" lengthAdjust="spacingAndGlyphs"
text-anchor="middle" opacity="0">B</text>
<g class="stroked-text"><desc>B</desc>
<path d="M286.0951 84.9127
L286.2808 84.9746
" />
<path d="M286.2808 84.9746
L286.3427 85.0365
" />
<path d="M286.3427 85.0365
L286.4046 85.1603
" />
<path d="M286.4046 85.1603
L286.4046 85.3460
" />
<path d="M286.4046 85.3460
L286.3427 85.4698
" />
<path d="M286.3427 85.4698
L286.2808 85.5317
" />
<path d="M286.2808 85.5317
L286.1570 85.5936
" />
<path d="M286.1570 85.5936
L285.6617 85.5936
" />
<path d="M285.6617 85.5936
L285.6617 84.2936
" />
<path d="M285.6617 84.2936
L286.0951 84.2936
" />
<path d="M286.0951 84.2936
L286.2189 84.3555
" />
<path d="M286.2189 84.3555
L286.2808 84.4174
" />
<path d="M286.2808 84.4174
L286.3427 84.5412
" />
<path d="M286.3427 84.5412
L286.3427 84.6650
" />
<path d="M286.3427 84.6650
L286.2808 84.7888
" />
<path d="M286.2808 84.7888
L286.2189 84.8507
" />
<path d="M286.2189 84.8507
L286.0951 84.9127
" />
<path d="M286.0951 84.9127
L285.6617 84.9127
" />
</g></g>
<g style="fill:none; 
stroke:#000000; stroke-width:0.1500; stroke-opacity:1; 
stroke-linecap:round; stroke-linejoin:round;">
<text x="286.0022" y="135.6500"
textLength="1.4900" font-size="1.7333" lengthAdjust="spacingAndGlyphs"
text-anchor="middle" opacity="0">C</text>
<g class="stroked-text"><desc>C</desc>
<path d="M286.4046 135.4698
L286.3427 135.5317
" />
<path d="M286.3427 135.5317
L286.1570 135.5936
" />
<path d="M286.1570 135.5936
L286.0332 135.5936
" />
<path d="M286.0332 135.5936
L285.8474 135.5317
" />
<path d="M285.8474 135.5317
L285.7236 135.4079
" />
<path d="M285.7236 135.4079
L285.6617 135.2841
" />
<path d="M285.6617 135.2841
L285.5998 135.0365
" />
<path d="M285.5998 135.0365
L285.5998 134.8507
" />
<path d="M285.5998 134.8507
L285.6617 134.6031
" />
<path d="M285.6617 134.6031
L285.7236 134.4793
" />
<path d="M285.7236 134.4793
L285.8474 134.3555
" />
<path d="M285.8474 134.3555
L286.0332 134.2936
" />
<path d="M286.0332 134.2936
L286.1570 134.2936
" />
<path d="M286.1570 134.2936
L286.3427 134.3555
" />
<path d="M286.3427 134.3555
L286.4046 134.4174
" />
</g></g>
<g style="fill:none; 
stroke:#000000; stroke-width:0.1500; stroke-opacity:1; 
stroke-linecap:round; stroke-linejoin:round;">
<text x="286.0022" y="185.6500"
textLength="1.4900" font-size="1.7333" lengthAdjust="spacingAndGlyphs"
text-anchor="middle" opacity="0">D</text>
<g class="stroked-text"><desc>D</desc>
<path d="M285.6617 185.5936
L285.6617 184.2936
" />
<path d="M285.6617 184.2936
L285.9712 184.2936
" />
<path d="M285.9712 184.2936
L286.1570 184.3555
" />
<path d="M286.1570 184.3555
L286.2808 184.4793
" />
<path d="M286.2808 184.4793
L286.3427 184.6031
" />
<path d="M286.3427 184.6031
L286.4046 184.8507
" />
<path d="M286.4046 184.8507
L286.4046 185.0365
" />
<path d="M286.4046 185.0365
L286.3427 185.2841
" />
<path d="M286.3427 185.2841
L286.2808 185.4079
" />
<path d="M286.2808 185.4079
L286.1570 185.5317
" />
<path d="M286.1570 185.5317
L285.9712 185.5936
" />
<path d="M285.9712 185.5936
L285.6617 185.5936
" />
</g></g>
<g style="fill:none; 
stroke:#000000; stroke-width:0.1500; stroke-opacity:1; 
stroke-linecap:round; stroke-linejoin:round;">
<text x="200.0022" y="193.8572"
textLength="7.0071" font-size="2.0000" lengthAdjust="spacingAndGlyphs"
text-anchor="start" opacity="0">Date: </text>
<g class="stroked-text"><desc>Date: </desc>
<path d="M200.4580 193.7933
L200.4580 192.2933
" />
<path d="M200.4580 192.2933
L200.8152 192.2933
" />
<path d="M200.8152 192.2933
L201.0295 192.3648
" />
<path d="M201.0295 192.3648
L201.1723 192.5076
" />
<path d="M201.1723 192.5076
L201.2437 192.6505
" />
<path d="M201.2437 192.6505
L201.3152 192.9362
" />
<path d="M201.3152 192.9362
L201.3152 193.1505
" />
<path d="M201.3152 193.1505
L201.2437 193.4362
" />
<path d="M201.2437 193.4362
L201.1723 193.5790
" />
<path d="M201.1723 193.5790
L201.0295 193.7219
" />
<path d="M201.0295 193.7219
L200.8152 193.7933
" />
<path d="M200.8152 193.7933
L200.4580 193.7933
" />
<path d="M202.6009 193.7933
L202.6009 193.0076
" />
<path d="M202.6009 193.0076
L202.5295 192.8648
" />
<path d="M202.5295 192.8648
L202.3866 192.7933
" />
<path d="M202.3866 192.7933
L202.1009 192.7933
" />
<path d="M202.1009 192.7933
L201.9580 192.8648
" />
<path d="M202.6009 193.7219
L202.4580 193.7933
" />
<path d="M202.4580 193.7933
L202.1009 193.7933
" />
<path d="M202.1009 193.7933
L201.9580 193.7219
" />
<path d="M201.9580 193.7219
L201.8866 193.5790
" />
<path d="M201.8866 193.5790
L201.8866 193.4362
" />
<path d="M201.8866 193.4362
L201.9580 193.2933
" />
<path d="M201.9580 193.2933
L202.1009 193.2219
" />
<path d="M202.1009 193.2219
L202.4580 193.2219
" />
<path d="M202.4580 193.2219
L202.6009 193.1505
" />
<path d="M203.1009 192.7933
L203.6723 192.7933
" />
<path d="M203.3152 192.2933
L203.3152 193.5790
" />
<path d="M203.3152 193.5790
L203.3866 193.7219
" />
<path d="M203.3866 193.7219
L203.5295 193.7933
" />
<path d="M203.5295 193.7933
L203.6723 193.7933
" />
<path d="M204.7437 193.7219
L204.6009 193.7933
" />
<path d="M204.6009 193.7933
L204.3152 193.7933
" />
<path d="M204.3152 193.7933
L204.1723 193.7219
" />
<path d="M204.1723 193.7219
L204.1009 193.5790
" />
<path d="M204.1009 193.5790
L204.1009 193.0076
" />
<path d="M204.1009 193.0076
L204.1723 192.8648
" />
<path d="M204.1723 192.8648
L204.3152 192.7933
" />
<path d="M204.3152 192.7933
L204.6009 192.7933
" />
<path d="M204.6009 192.7933
L204.7437 192.8648
" />
<path d="M204.7437 192.8648
L204.8152 193.0076
" />
<path d="M204.8152 193.0076
L204.8152 193.1505
" />
<path d="M204.8152 193.1505
L204.1009 193.2933
" />
<path d="M205.4580 193.6505
L205.5295 193.7219
" />
<path d="M205.5295 193.7219
L205.4580 193.7933
" />
<path d="M205.4580 193.7933
L205.3866 193.7219
" />
<path d="M205.3866 193.7219
L205.4580 193.6505
" />
<path d="M205.4580 193.6505
L205.4580 193.7933
" />
<path d="M205.4580 192.8648
L205.5295 192.9362
" />
<path d="M205.5295 192.9362
L205.4580 193.0076
" />
<path d="M205.4580 193.0076
L205.3866 192.9362
" />
<path d="M205.3866 192.9362
L205.4580 192.8648
" />
<path d="M205.4580 192.8648
L205.4580 193.0076
" />
</g></g>
<g style="fill:none; 
stroke:#000000; stroke-width:0.1500; stroke-opacity:1; 
stroke-linecap:round; stroke-linejoin:round;">
<path d="M177.0022 194.5072
L285.0022 194.5072
" />
</g>
<g style="fill:none; 
stroke:#000000; stroke-width:0.1500; stroke-opacity:1; 
stroke-linecap:round; stroke-linejoin:round;">
<text x="178.0022" y="196.6572"
textLength="20.6500" font-size="2.0000" lengthAdjust="spacingAndGlyphs"
text-anchor="start" opacity="0">${KICAD_VERSION}</text>
<g class="stroked-text"><desc>${KICAD_VERSION}</desc>
<path d="M178.3866 196.5219
L178.6009 196.5933
" />
<path d="M178.6009 196.5933
L178.9580 196.5933
" />
<path d="M178.9580 196.5933
L179.1009 196.5219
" />
<path d="M179.1009 196.5219
L179.1723 196.4505
" />
<path d="M179.1723 196.4505
L179.2437 196.3076
" />
<path d="M179.2437 196.3076
L179.2437 196.1648
" />
<path d="M179.2437 196.1648
L179.1723 196.0219
" />
<path d="M179.1723 196.0219
L179.1009 195.9505
" />
<path d="M179.1009 195.9505
L178.9580 195.8790
" />
<path d="M178.9580 195.8790
L178.6723 195.8076
" />
<path d="M178.6723 195.8076
L178.5295 195.7362
" />
<path d="M178.5295 195.7362
L178.4580 195.6648
" />
<path d="M178.4580 195.6648
L178.3866 195.5219
" />
<path d="M178.3866 195.5219
L178.3866 195.3790
" />
<path d="M178.3866 195.3790
L178.4580 195.2362
" />
<path d="M178.4580 195.2362
L178.5295 195.1648
" />
<path d="M178.5295 195.1648
L178.6723 195.0933
" />
<path d="M178.6723 195.0933
L179.0295 195.0933
" />
<path d="M179.0295 195.0933
L179.2437 195.1648
" />
<path d="M178.8152 194.8790
L178.8152 196.8076
" />
<path d="M180.3152 197.1648
L180.2437 197.1648
" />
<path d="M180.2437 197.1648
L180.1009 197.0933
" />
<path d="M180.1009 197.0933
L180.0295 196.9505
" />
<path d="M180.0295 196.9505
L180.0295 196.2362
" />
<path d="M180.0295 196.2362
L179.9580 196.0933
" />
<path d="M179.9580 196.0933
L179.8152 196.0219
" />
<path d="M179.8152 196.0219
L179.9580 195.9505
" />
<path d="M179.9580 195.9505
L180.0295 195.8076
" />
<path d="M180.0295 195.8076
L180.0295 195.0933
" />
<path d="M180.0295 195.0933
L180.1009 194.9505
" />
<path d="M180.1009 194.9505
L180.2437 194.8790
" />
<path d="M180.2437 194.8790
L180.3152 194.8790
" />
<path d="M180.8866 196.5933
L180.8866 195.0933
" />
<path d="M181.7437 196.5933
L181.1009 195.7362
" />
<path d="M181.7437 195.0933
L180.8866 195.9505
" />
<path d="M182.3866 196.5933
L182.3866 195.0933
" />
<path d="M183.9580 196.4505
L183.8866 196.5219
" />
<path d="M183.8866 196.5219
L183.6723 196.5933
" />
<path d="M183.6723 196.5933
L183.5295 196.5933
" />
<path d="M183.5295 196.5933
L183.3152 196.5219
" />
<path d="M183.3152 196.5219
L183.1723 196.3790
" />
<path d="M183.1723 196.3790
L183.1009 196.2362
" />
<path d="M183.1009 196.2362
L183.0295 195.9505
" />
<path d="M183.0295 195.9505
L183.0295 195.7362
" />
<path d="M183.0295 195.7362
L183.1009 195.4505
" />
<path d="M183.1009 195.4505
L183.1723 195.3076
" />
<path d="M183.1723 195.3076
L183.3152 195.1648
" />
<path d="M183.3152 195.1648
L183.5295 195.0933
" />
<path d="M183.5295 195.0933
L183.6723 195.0933
" />
<path d="M183.6723 195.0933
L183.8866 195.1648
" />
<path d="M183.8866 195.1648
L183.9580 195.2362
" />
<path d="M184.5295 196.1648
L185.2437 196.1648
" />
<path d="M184.3866 196.5933
L184.8866 195.0933
" />
<path d="M184.8866 195.0933
L185.3866 196.5933
" />
<path d="M185.8866 196.5933
L185.8866 195.0933
" />
<path d="M185.8866 195.0933
L186.2437 195.0933
" />
<path d="M186.2437 195.0933
L186.4580 195.1648
" />
<path d="M186.4580 195.1648
L186.6009 195.3076
" />
<path d="M186.6009 195.3076
L186.6723 195.4505
" />
<path d="M186.6723 195.4505
L186.7437 195.7362
" />
<path d="M186.7437 195.7362
L186.7437 195.9505
" />
<path d="M186.7437 195.9505
L186.6723 196.2362
" />
<path d="M186.6723 196.2362
L186.6009 196.3790
" />
<path d="M186.6009 196.3790
L186.4580 196.5219
" />
<path d="M186.4580 196.5219
L186.2437 196.5933
" />
<path d="M186.2437 196.5933
L185.8866 196.5933
" />
<path d="M187.0295 196.7362
L188.1723 196.7362
" />
<path d="M188.3152 195.0933
L188.8152 196.5933
" />
<path d="M188.8152 196.5933
L189.3152 195.0933
" />
<path d="M189.8152 195.8076
L190.3152 195.8076
" />
<path d="M190.5295 196.5933
L189.8152 196.5933
" />
<path d="M189.8152 196.5933
L189.8152 195.0933
" />
<path d="M189.8152 195.0933
L190.5295 195.0933
" />
<path d="M192.0295 196.5933
L191.5295 195.8790
" />
<path d="M191.1723 196.5933
L191.1723 195.0933
" />
<path d="M191.1723 195.0933
L191.7437 195.0933
" />
<path d="M191.7437 195.0933
L191.8866 195.1648
" />
<path d="M191.8866 195.1648
L191.9580 195.2362
" />
<path d="M191.9580 195.2362
L192.0295 195.3790
" />
<path d="M192.0295 195.3790
L192.0295 195.5933
" />
<path d="M192.0295 195.5933
L191.9580 195.7362
" />
<path d="M191.9580 195.7362
L191.8866 195.8076
" />
<path d="M191.8866 195.8076
L191.7437 195.8790
" />
<path d="M191.7437 195.8790
L191.1723 195.8790
" />
<path d="M192.6009 196.5219
L192.8152 196.5933
" />
<path d="M192.8152 196.5933
L193.1723 196.5933
" />
<path d="M193.1723 196.5933
L193.3152 196.5219
" />
<path d="M193.3152 196.5219
L193.3866 196.4505
" />
<path d="M193.3866 196.4505
L193.4580 196.3076
" />
<path d="M193.4580 196.3076
L193.4580 196.1648
" />
<path d="M193.4580 196.1648
L193.3866 196.0219
" />
<path d="M193.3866 196.0219
L193.3152 195.9505
" />
<path d="M193.3152 195.9505
L193.1723 195.8790
" />
<path d="M193.1723 195.8790
L192.8866 195.8076
" />
<path d="M192.8866 195.8076
L192.7437 195.7362
" />
<path d="M192.7437 195.7362
L192.6723 195.6648
" />
<path d="M192.6723 195.6648
L192.6009 195.5219
" />
<path d="M192.6009 195.5219
L192.6009 195.3790
" />
<path d="M192.6009 195.3790
L192.6723 195.2362
" />
<path d="M192.6723 195.2362
L192.7437 195.1648
" />
<path d="M192.7437 195.1648
L192.8866 195.0933
" />
<path d="M192.8866 195.0933
L193.2437 195.0933
" />
<path d="M193.2437 195.0933
L193.4580 195.1648
" />
<path d="M194.1009 196.5933
L194.1009 195.0933
" />
<path d="M195.1009 195.0933
L195.3866 195.0933
" />
<path d="M195.3866 195.0933
L195.5295 195.1648
" />
<path d="M195.5295 195.1648
L195.6723 195.3076
" />
<path d="M195.6723 195.3076
L195.7437 195.5933
" />
<path d="M195.7437 195.5933
L195.7437 196.0933
" />
<path d="M195.7437 196.0933
L195.6723 196.3790
" />
<path d="M195.6723 196.3790
L195.5295 196.5219
" />
<path d="M195.5295 196.5219
L195.3866 196.5933
" />
<path d="M195.3866 196.5933
L195.1009 196.5933
" />
<path d="M195.1009 196.5933
L194.9580 196.5219
" />
<path d="M194.9580 196.5219
L194.8152 196.3790
" />
<path d="M194.8152 196.3790
L194.7437 196.0933
" />
<path d="M194.7437 196.0933
L194.7437 195.5933
" />
<path d="M194.7437 195.5933
L194.8152 195.3076
" />
<path d="M194.8152 195.3076
L194.9580 195.1648
" />
<path d="M194.9580 195.1648
L195.1009 195.0933
" />
<path d="M196.3866 196.5933
L196.3866 195.0933
" />
<path d="M196.3866 195.0933
L197.2437 196.5933
" />
<path d="M197.2437 196.5933
L197.2437 195.0933
" />
<path d="M197.8152 197.1648
L197.8866 197.1648
" />
<path d="M197.8866 197.1648
L198.0295 197.0933
" />
<path d="M198.0295 197.0933
L198.1009 196.9505
" />
<path d="M198.1009 196.9505
L198.1009 196.2362
" />
<path d="M198.1009 196.2362
L198.1723 196.0933
" />
<path d="M198.1723 196.0933
L198.3152 196.0219
" />
<path d="M198.3152 196.0219
L198.1723 195.9505
" />
<path d="M198.1723 195.9505
L198.1009 195.8076
" />
<path d="M198.1009 195.8076
L198.1009 195.0933
" />
<path d="M198.1009 195.0933
L198.0295 194.9505
" />
<path d="M198.0295 194.9505
L197.8866 194.8790
" />
<path d="M197.8866 194.8790
L197.8152 194.8790
" />
</g></g>
<g style="fill:none; 
stroke:#000000; stroke-width:0.1500; stroke-opacity:1; 
stroke-linecap:round; stroke-linejoin:round;">
<path d="M177.0022 191.5072
L285.0022 191.5072
" />
</g>
<g style="fill:none; 
stroke:#000000; stroke-width:0.3000; stroke-opacity:1; 
stroke-linecap:round; stroke-linejoin:round;">
<text x="263.0022" y="193.8572"
textLength="6.3857" font-size="2.0000" lengthAdjust="spacingAndGlyphs"
text-anchor="start" opacity="0">Rev: </text>
<g class="stroked-text"><desc>Rev: </desc>
<path d="M264.4139 193.7855
L263.9139 193.0712
" />
<path d="M263.5567 193.7855
L263.5567 192.2855
" />
<path d="M263.5567 192.2855
L264.1281 192.2855
" />
<path d="M264.1281 192.2855
L264.2710 192.3570
" />
<path d="M264.2710 192.3570
L264.3424 192.4284
" />
<path d="M264.3424 192.4284
L264.4139 192.5712
" />
<path d="M264.4139 192.5712
L264.4139 192.7855
" />
<path d="M264.4139 192.7855
L264.3424 192.9284
" />
<path d="M264.3424 192.9284
L264.2710 192.9998
" />
<path d="M264.2710 192.9998
L264.1281 193.0712
" />
<path d="M264.1281 193.0712
L263.5567 193.0712
" />
<path d="M265.6281 193.7141
L265.4853 193.7855
" />
<path d="M265.4853 193.7855
L265.1996 193.7855
" />
<path d="M265.1996 193.7855
L265.0567 193.7141
" />
<path d="M265.0567 193.7141
L264.9853 193.5712
" />
<path d="M264.9853 193.5712
L264.9853 192.9998
" />
<path d="M264.9853 192.9998
L265.0567 192.8570
" />
<path d="M265.0567 192.8570
L265.1996 192.7855
" />
<path d="M265.1996 192.7855
L265.4853 192.7855
" />
<path d="M265.4853 192.7855
L265.6281 192.8570
" />
<path d="M265.6281 192.8570
L265.6996 192.9998
" />
<path d="M265.6996 192.9998
L265.6996 193.1427
" />
<path d="M265.6996 193.1427
L264.9853 193.2855
" />
<path d="M266.1996 192.7855
L266.5567 193.7855
" />
<path d="M266.5567 193.7855
L266.9139 192.7855
" />
<path d="M267.4853 193.6427
L267.5567 193.7141
" />
<path d="M267.5567 193.7141
L267.4853 193.7855
" />
<path d="M267.4853 193.7855
L267.4139 193.7141
" />
<path d="M267.4139 193.7141
L267.4853 193.6427
" />
<path d="M267.4853 193.6427
L267.4853 193.7855
" />
<path d="M267.4853 192.8570
L267.5567 192.9284
" />
<path d="M267.5567 192.9284
L267.4853 192.9998
" />
<path d="M267.4853 192.9998
L267.4139 192.9284
" />
<path d="M267.4139 192.9284
L267.4853 192.8570
" />
<path d="M267.4853 192.8570
L267.4853 192.9998
" />
</g></g>
<g style="fill:none; 
stroke:#000000; stroke-width:0.1500; stroke-opacity:1; 
stroke-linecap:round; stroke-linejoin:round;">
<text x="178.0022" y="193.8572"
textLength="9.3643" font-size="2.0000" lengthAdjust="spacingAndGlyphs"
text-anchor="start" opacity="0">Size: A4</text>
<g class="stroked-text"><desc>Size: A4</desc>
<path d="M178.3866 193.7219
L178.6009 193.7933
" />
<path d="M178.6009 193.7933
L178.9580 193.7933
" />
<path d="M178.9580 193.7933
L179.1009 193.7219
" />
<path d="M179.1009 193.7219
L179.1723 193.6505
" />
<path d="M179.1723 193.6505
L179.2437 193.5076
" />
<path d="M179.2437 193.5076
L179.2437 193.3648
" />
<path d="M179.2437 193.3648
L179.1723 193.2219
" />
<path d="M179.1723 193.2219
L179.1009 193.1505
" />
<path d="M179.1009 193.1505
L178.9580 193.0790
" />
<path d="M178.9580 193.0790
L178.6723 193.0076
" />
<path d="M178.6723 193.0076
L178.5295 192.9362
" />
<path d="M178.5295 192.9362
L178.4580 192.8648
" />
<path d="M178.4580 192.8648
L178.3866 192.7219
" />
<path d="M178.3866 192.7219
L178.3866 192.5790
" />
<path d="M178.3866 192.5790
L178.4580 192.4362
" />
<path d="M178.4580 192.4362
L178.5295 192.3648
" />
<path d="M178.5295 192.3648
L178.6723 192.2933
" />
<path d="M178.6723 192.2933
L179.0295 192.2933
" />
<path d="M179.0295 192.2933
L179.2437 192.3648
" />
<path d="M179.8866 193.7933
L179.8866 192.7933
" />
<path d="M179.8866 192.2933
L179.8152 192.3648
" />
<path d="M179.8152 192.3648
L179.8866 192.4362
" />
<path d="M179.8866 192.4362
L179.9580 192.3648
" />
<path d="M179.9580 192.3648
L179.8866 192.2933
" />
<path d="M179.8866 192.2933
L179.8866 192.4362
" />
<path d="M180.4580 192.7933
L181.2437 192.7933
" />
<path d="M181.2437 192.7933
L180.4580 193.7933
" />
<path d="M180.4580 193.7933
L181.2437 193.7933
" />
<path d="M182.3866 193.7219
L182.2437 193.7933
" />
<path d="M182.2437 193.7933
L181.9580 193.7933
" />
<path d="M181.9580 193.7933
L181.8152 193.7219
" />
<path d="M181.8152 193.7219
L181.7437 193.5790
" />
<path d="M181.7437 193.5790
L181.7437 193.0076
" />
<path d="M181.7437 193.0076
L181.8152 192.8648
" />
<path d="M181.8152 192.8648
L181.9580 192.7933
" />
<path d="M181.9580 192.7933
L182.2437 192.7933
" />
<path d="M182.2437 192.7933
L182.3866 192.8648
" />
<path d="M182.3866 192.8648
L182.4580 193.0076
" />
<path d="M182.4580 193.0076
L182.4580 193.1505
" />
<path d="M182.4580 193.1505
L181.7437 193.2933
" />
<path d="M183.1009 193.6505
L183.1723 193.7219
" />
<path d="M183.1723 193.7219
L183.1009 193.7933
" />
<path d="M183.1009 193.7933
L183.0295 193.7219
" />
<path d="M183.0295 193.7219
L183.1009 193.6505
" />
<path d="M183.1009 193.6505
L183.1009 193.7933
" />
<path d="M183.1009 192.8648
L183.1723 192.9362
" />
<path d="M183.1723 192.9362
L183.1009 193.0076
" />
<path d="M183.1009 193.0076
L183.0295 192.9362
" />
<path d="M183.0295 192.9362
L183.1009 192.8648
" />
<path d="M183.1009 192.8648
L183.1009 193.0076
" />
<path d="M184.8866 193.3648
L185.6009 193.3648
" />
<path d="M184.7437 193.7933
L185.2437 192.2933
" />
<path d="M185.2437 192.2933
L185.7437 193.7933
" />
<path d="M186.8866 192.7933
L186.8866 193.7933
" />
<path d="M186.5295 192.2219
L186.1723 193.2933
" />
<path d="M186.1723 193.2933
L187.1009 193.2933
" />
</g></g>
<g style="fill:none; 
stroke:#000000; stroke-width:0.1500; stroke-opacity:1; 
stroke-linecap:round; stroke-linejoin:round;">
<text x="263.0022" y="196.6572"
textLength="8.5071" font-size="2.0000" lengthAdjust="spacingAndGlyphs"
text-anchor="start" opacity="0">Id: 1/1</text>
<g class="stroked-text"><desc>Id: 1/1</desc>
<path d="M263.4580 196.5933
L263.4580 195.0933
" />
<path d="M264.8152 196.5933
L264.8152 195.0933
" />
<path d="M264.8152 196.5219
L264.6723 196.5933
" />
<path d="M264.6723 196.5933
L264.3866 196.5933
" />
<path d="M264.3866 196.5933
L264.2437 196.5219
" />
<path d="M264.2437 196.5219
L264.1723 196.4505
" />
<path d="M264.1723 196.4505
L264.1009 196.3076
" />
<path d="M264.1009 196.3076
L264.1009 195.8790
" />
<path d="M264.1009 195.8790
L264.1723 195.7362
" />
<path d="M264.1723 195.7362
L264.2437 195.6648
" />
<path d="M264.2437 195.6648
L264.3866 195.5933
" />
<path d="M264.3866 195.5933
L264.6723 195.5933
" />
<path d="M264.6723 195.5933
L264.8152 195.6648
" />
<path d="M265.5295 196.4505
L265.6009 196.5219
" />
<path d="M265.6009 196.5219
L265.5295 196.5933
" />
<path d="M265.5295 196.5933
L265.4580 196.5219
" />
<path d="M265.4580 196.5219
L265.5295 196.4505
" />
<path d="M265.5295 196.4505
L265.5295 196.5933
" />
<path d="M265.5295 195.6648
L265.6009 195.7362
" />
<path d="M265.6009 195.7362
L265.5295 195.8076
" />
<path d="M265.5295 195.8076
L265.4580 195.7362
" />
<path d="M265.4580 195.7362
L265.5295 195.6648
" />
<path d="M265.5295 195.6648
L265.5295 195.8076
" />
<path d="M268.1723 196.5933
L267.3152 196.5933
" />
<path d="M267.7437 196.5933
L267.7437 195.0933
" />
<path d="M267.7437 195.0933
L267.6009 195.3076
" />
<path d="M267.6009 195.3076
L267.4580 195.4505
" />
<path d="M267.4580 195.4505
L267.3152 195.5219
" />
<path d="M269.8866 195.0219
L268.6009 196.9505
" />
<path d="M271.1723 196.5933
L270.3152 196.5933
" />
<path d="M270.7437 196.5933
L270.7437 195.0933
" />
<path d="M270.7437 195.0933
L270.6009 195.3076
" />
<path d="M270.6009 195.3076
L270.4580 195.4505
" />
<path d="M270.4580 195.4505
L270.3152 195.5219
" />
</g></g>
<g style="fill:none; 
stroke:#000000; stroke-width:0.1500; stroke-opacity:1; 
stroke-linecap:round; stroke-linejoin:round;">
<path d="M177.0022 187.5072
L285.0022 187.5072
" />
</g>
<g style="fill:none; 
stroke:#000000; stroke-width:0.4000; stroke-opacity:1; 
stroke-linecap:round; stroke-linejoin:round;">
<text x="178.0022" y="190.3072"
textLength="9.6571" font-size="2.6667" lengthAdjust="spacingAndGlyphs"
text-anchor="start" opacity="0">Title: </text>
<g class="stroked-text"><desc>Title: </desc>
<path d="M178.6939 188.2116
L179.8368 188.2116
" />
<path d="M179.0154 190.2116
L179.2654 188.2116
" />
<path d="M180.2535 190.2116
L180.4201 188.8783
" />
<path d="M180.5035 188.2116
L180.3963 188.3069
" />
<path d="M180.3963 188.3069
L180.4796 188.4021
" />
<path d="M180.4796 188.4021
L180.5868 188.3069
" />
<path d="M180.5868 188.3069
L180.5035 188.2116
" />
<path d="M180.5035 188.2116
L180.4796 188.4021
" />
<path d="M181.0868 188.8783
L181.8487 188.8783
" />
<path d="M181.4558 188.2116
L181.2415 189.9259
" />
<path d="M181.2415 189.9259
L181.3130 190.1164
" />
<path d="M181.3130 190.1164
L181.4915 190.2116
" />
<path d="M181.4915 190.2116
L181.6820 190.2116
" />
<path d="M182.6344 190.2116
L182.4558 190.1164
" />
<path d="M182.4558 190.1164
L182.3844 189.9259
" />
<path d="M182.3844 189.9259
L182.5987 188.2116
" />
<path d="M184.1701 190.1164
L183.9677 190.2116
" />
<path d="M183.9677 190.2116
L183.5868 190.2116
" />
<path d="M183.5868 190.2116
L183.4082 190.1164
" />
<path d="M183.4082 190.1164
L183.3368 189.9259
" />
<path d="M183.3368 189.9259
L183.4320 189.1640
" />
<path d="M183.4320 189.1640
L183.5511 188.9735
" />
<path d="M183.5511 188.9735
L183.7535 188.8783
" />
<path d="M183.7535 188.8783
L184.1344 188.8783
" />
<path d="M184.1344 188.8783
L184.3130 188.9735
" />
<path d="M184.3130 188.9735
L184.3844 189.1640
" />
<path d="M184.3844 189.1640
L184.3606 189.3545
" />
<path d="M184.3606 189.3545
L183.3844 189.5450
" />
<path d="M185.1344 190.0212
L185.2177 190.1164
" />
<path d="M185.2177 190.1164
L185.1106 190.2116
" />
<path d="M185.1106 190.2116
L185.0273 190.1164
" />
<path d="M185.0273 190.1164
L185.1344 190.0212
" />
<path d="M185.1344 190.0212
L185.1106 190.2116
" />
<path d="M185.2654 188.9735
L185.3487 189.0688
" />
<path d="M185.3487 189.0688
L185.2415 189.1640
" />
<path d="M185.2415 189.1640
L185.1582 189.0688
" />
<path d="M185.1582 189.0688
L185.2654 188.9735
" />
<path d="M185.2654 188.9735
L185.2415 189.1640
" />
</g></g>
<g style="fill:none; 
stroke:#000000; stroke-width:0.1500; stroke-opacity:1; 
stroke-linecap:round; stroke-linejoin:round;">
<text x="178.0022" y="186.4572"
textLength="41.7929" font-size="2.0000" lengthAdjust="spacingAndGlyphs"
text-anchor="start" opacity="0">File: OpenMowerMainboard.kicad_pcb</text>
<g class="stroked-text"><desc>File: OpenMowerMainboard.kicad_pcb</desc>
<path d="M178.9580 185.6076
L178.4580 185.6076
" />
<path d="M178.4580 186.3933
L178.4580 184.8933
" />
<path d="M178.4580 184.8933
L179.1723 184.8933
" />
<path d="M179.7437 186.3933
L179.7437 185.3933
" />
<path d="M179.7437 184.8933
L179.6723 184.9648
" />
<path d="M179.6723 184.9648
L179.7437 185.0362
" />
<path d="M179.7437 185.0362
L179.8152 184.9648
" />
<path d="M179.8152 184.9648
L179.7437 184.8933
" />
<path d="M179.7437 184.8933
L179.7437 185.0362
" />
<path d="M180.6723 186.3933
L180.5295 186.3219
" />
<path d="M180.5295 186.3219
L180.4580 186.1790
" />
<path d="M180.4580 186.1790
L180.4580 184.8933
" />
<path d="M181.8152 186.3219
L181.6723 186.3933
" />
<path d="M181.6723 186.3933
L181.3866 186.3933
" />
<path d="M181.3866 186.3933
L181.2437 186.3219
" />
<path d="M181.2437 186.3219
L181.1723 186.1790
" />
<path d="M181.1723 186.1790
L181.1723 185.6076
" />
<path d="M181.1723 185.6076
L181.2437 185.4648
" />
<path d="M181.2437 185.4648
L181.3866 185.3933
" />
<path d="M181.3866 185.3933
L181.6723 185.3933
" />
<path d="M181.6723 185.3933
L181.8152 185.4648
" />
<path d="M181.8152 185.4648
L181.8866 185.6076
" />
<path d="M181.8866 185.6076
L181.8866 185.7505
" />
<path d="M181.8866 185.7505
L181.1723 185.8933
" />
<path d="M182.5295 186.2505
L182.6009 186.3219
" />
<path d="M182.6009 186.3219
L182.5295 186.3933
" />
<path d="M182.5295 186.3933
L182.4580 186.3219
" />
<path d="M182.4580 186.3219
L182.5295 186.2505
" />
<path d="M182.5295 186.2505
L182.5295 186.3933
" />
<path d="M182.5295 185.4648
L182.6009 185.5362
" />
<path d="M182.6009 185.5362
L182.5295 185.6076
" />
<path d="M182.5295 185.6076
L182.4580 185.5362
" />
<path d="M182.4580 185.5362
L182.5295 185.4648
" />
<path d="M182.5295 185.4648
L182.5295 185.6076
" />
<path d="M184.6723 184.8933
L184.9580 184.8933
" />
<path d="M184.9580 184.8933
L185.1009 184.9648
" />
<path d="M185.1009 184.9648
L185.2437 185.1076
" />
<path d="M185.2437 185.1076
L185.3152 185.3933
" />
<path d="M185.3152 185.3933
L185.3152 185.8933
" />
<path d="M185.3152 185.8933
L185.2437 186.1790
" />
<path d="M185.2437 186.1790
L185.1009 186.3219
" />
<path d="M185.1009 186.3219
L184.9580 186.3933
" />
<path d="M184.9580 186.3933
L184.6723 186.3933
" />
<path d="M184.6723 186.3933
L184.5295 186.3219
" />
<path d="M184.5295 186.3219
L184.3866 186.1790
" />
<path d="M184.3866 186.1790
L184.3152 185.8933
" />
<path d="M184.3152 185.8933
L184.3152 185.3933
" />
<path d="M184.3152 185.3933
L184.3866 185.1076
" />
<path d="M184.3866 185.1076
L184.5295 184.9648
" />
<path d="M184.5295 184.9648
L184.6723 184.8933
" />
<path d="M185.9580 185.3933
L185.9580 186.8933
" />
<path d="M185.9580 185.4648
L186.1009 185.3933
" />
<path d="M186.1009 185.3933
L186.3866 185.3933
" />
<path d="M186.3866 185.3933
L186.5295 185.4648
" />
<path d="M186.5295 185.4648
L186.6009 185.5362
" />
<path d="M186.6009 185.5362
L186.6723 185.6790
" />
<path d="M186.6723 185.6790
L186.6723 186.1076
" />
<path d="M186.6723 186.1076
L186.6009 186.2505
" />
<path d="M186.6009 186.2505
L186.5295 186.3219
" />
<path d="M186.5295 186.3219
L186.3866 186.3933
" />
<path d="M186.3866 186.3933
L186.1009 186.3933
" />
<path d="M186.1009 186.3933
L185.9580 186.3219
" />
<path d="M187.8866 186.3219
L187.7437 186.3933
" />
<path d="M187.7437 186.3933
L187.4580 186.3933
" />
<path d="M187.4580 186.3933
L187.3152 186.3219
" />
<path d="M187.3152 186.3219
L187.2437 186.1790
" />
<path d="M187.2437 186.1790
L187.2437 185.6076
" />
<path d="M187.2437 185.6076
L187.3152 185.4648
" />
<path d="M187.3152 185.4648
L187.4580 185.3933
" />
<path d="M187.4580 185.3933
L187.7437 185.3933
" />
<path d="M187.7437 185.3933
L187.8866 185.4648
" />
<path d="M187.8866 185.4648
L187.9580 185.6076
" />
<path d="M187.9580 185.6076
L187.9580 185.7505
" />
<path d="M187.9580 185.7505
L187.2437 185.8933
" />
<path d="M188.6009 185.3933
L188.6009 186.3933
" />
<path d="M188.6009 185.5362
L188.6723 185.4648
" />
<path d="M188.6723 185.4648
L188.8152 185.3933
" />
<path d="M188.8152 185.3933
L189.0295 185.3933
" />
<path d="M189.0295 185.3933
L189.1723 185.4648
" />
<path d="M189.1723 185.4648
L189.2437 185.6076
" />
<path d="M189.2437 185.6076
L189.2437 186.3933
" />
<path d="M189.9580 186.3933
L189.9580 184.8933
" />
<path d="M189.9580 184.8933
L190.4580 185.9648
" />
<path d="M190.4580 185.9648
L190.9580 184.8933
" />
<path d="M190.9580 184.8933
L190.9580 186.3933
" />
<path d="M191.8866 186.3933
L191.7437 186.3219
" />
<path d="M191.7437 186.3219
L191.6723 186.2505
" />
<path d="M191.6723 186.2505
L191.6009 186.1076
" />
<path d="M191.6009 186.1076
L191.6009 185.6790
" />
<path d="M191.6009 185.6790
L191.6723 185.5362
" />
<path d="M191.6723 185.5362
L191.7437 185.4648
" />
<path d="M191.7437 185.4648
L191.8866 185.3933
" />
<path d="M191.8866 185.3933
L192.1009 185.3933
" />
<path d="M192.1009 185.3933
L192.2437 185.4648
" />
<path d="M192.2437 185.4648
L192.3152 185.5362
" />
<path d="M192.3152 185.5362
L192.3866 185.6790
" />
<path d="M192.3866 185.6790
L192.3866 186.1076
" />
<path d="M192.3866 186.1076
L192.3152 186.2505
" />
<path d="M192.3152 186.2505
L192.2437 186.3219
" />
<path d="M192.2437 186.3219
L192.1009 186.3933
" />
<path d="M192.1009 186.3933
L191.8866 186.3933
" />
<path d="M192.8866 185.3933
L193.1723 186.3933
" />
<path d="M193.1723 186.3933
L193.4580 185.6790
" />
<path d="M193.4580 185.6790
L193.7437 186.3933
" />
<path d="M193.7437 186.3933
L194.0295 185.3933
" />
<path d="M195.1723 186.3219
L195.0295 186.3933
" />
<path d="M195.0295 186.3933
L194.7437 186.3933
" />
<path d="M194.7437 186.3933
L194.6009 186.3219
" />
<path d="M194.6009 186.3219
L194.5295 186.1790
" />
<path d="M194.5295 186.1790
L194.5295 185.6076
" />
<path d="M194.5295 185.6076
L194.6009 185.4648
" />
<path d="M194.6009 185.4648
L194.7437 185.3933
" />
<path d="M194.7437 185.3933
L195.0295 185.3933
" />
<path d="M195.0295 185.3933
L195.1723 185.4648
" />
<path d="M195.1723 185.4648
L195.2437 185.6076
" />
<path d="M195.2437 185.6076
L195.2437 185.7505
" />
<path d="M195.2437 185.7505
L194.5295 185.8933
" />
<path d="M195.8866 186.3933
L195.8866 185.3933
" />
<path d="M195.8866 185.6790
L195.9580 185.5362
" />
<path d="M195.9580 185.5362
L196.0295 185.4648
" />
<path d="M196.0295 185.4648
L196.1723 185.3933
" />
<path d="M196.1723 185.3933
L196.3152 185.3933
" />
<path d="M196.8152 186.3933
L196.8152 184.8933
" />
<path d="M196.8152 184.8933
L197.3152 185.9648
" />
<path d="M197.3152 185.9648
L197.8152 184.8933
" />
<path d="M197.8152 184.8933
L197.8152 186.3933
" />
<path d="M199.1723 186.3933
L199.1723 185.6076
" />
<path d="M199.1723 185.6076
L199.1009 185.4648
" />
<path d="M199.1009 185.4648
L198.9580 185.3933
" />
<path d="M198.9580 185.3933
L198.6723 185.3933
" />
<path d="M198.6723 185.3933
L198.5295 185.4648
" />
<path d="M199.1723 186.3219
L199.0295 186.3933
" />
<path d="M199.0295 186.3933
L198.6723 186.3933
" />
<path d="M198.6723 186.3933
L198.5295 186.3219
" />
<path d="M198.5295 186.3219
L198.4580 186.1790
" />
<path d="M198.4580 186.1790
L198.4580 186.0362
" />
<path d="M198.4580 186.0362
L198.5295 185.8933
" />
<path d="M198.5295 185.8933
L198.6723 185.8219
" />
<path d="M198.6723 185.8219
L199.0295 185.8219
" />
<path d="M199.0295 185.8219
L199.1723 185.7505
" />
<path d="M199.8866 186.3933
L199.8866 185.3933
" />
<path d="M199.8866 184.8933
L199.8152 184.9648
" />
<path d="M199.8152 184.9648
L199.8866 185.0362
" />
<path d="M199.8866 185.0362
L199.9580 184.9648
" />
<path d="M199.9580 184.9648
L199.8866 184.8933
" />
<path d="M199.8866 184.8933
L199.8866 185.0362
" />
<path d="M200.6009 185.3933
L200.6009 186.3933
" />
<path d="M200.6009 185.5362
L200.6723 185.4648
" />
<path d="M200.6723 185.4648
L200.8152 185.3933
" />
<path d="M200.8152 185.3933
L201.0295 185.3933
" />
<path d="M201.0295 185.3933
L201.1723 185.4648
" />
<path d="M201.1723 185.4648
L201.2437 185.6076
" />
<path d="M201.2437 185.6076
L201.2437 186.3933
" />
<path d="M201.9580 186.3933
L201.9580 184.8933
" />
<path d="M201.9580 185.4648
L202.1009 185.3933
" />
<path d="M202.1009 185.3933
L202.3866 185.3933
" />
<path d="M202.3866 185.3933
L202.5295 185.4648
" />
<path d="M202.5295 185.4648
L202.6009 185.5362
" />
<path d="M202.6009 185.5362
L202.6723 185.6790
" />
<path d="M202.6723 185.6790
L202.6723 186.1076
" />
<path d="M202.6723 186.1076
L202.6009 186.2505
" />
<path d="M202.6009 186.2505
L202.5295 186.3219
" />
<path d="M202.5295 186.3219
L202.3866 186.3933
" />
<path d="M202.3866 186.3933
L202.1009 186.3933
" />
<path d="M202.1009 186.3933
L201.9580 186.3219
" />
<path d="M203.5295 186.3933
L203.3866 186.3219
" />
<path d="M203.3866 186.3219
L203.3152 186.2505
" />
<path d="M203.3152 186.2505
L203.2437 186.1076
" />
<path d="M203.2437 186.1076
L203.2437 185.6790
" />
<path d="M203.2437 185.6790
L203.3152 185.5362
" />
<path d="M203.3152 185.5362
L203.3866 185.4648
" />
<path d="M203.3866 185.4648
L203.5295 185.3933
" />
<path d="M203.5295 185.3933
L203.7437 185.3933
" />
<path d="M203.7437 185.3933
L203.8866 185.4648
" />
<path d="M203.8866 185.4648
L203.9580 185.5362
" />
<path d="M203.9580 185.5362
L204.0295 185.6790
" />
<path d="M204.0295 185.6790
L204.0295 186.1076
" />
<path d="M204.0295 186.1076
L203.9580 186.2505
" />
<path d="M203.9580 186.2505
L203.8866 186.3219
" />
<path d="M203.8866 186.3219
L203.7437 186.3933
" />
<path d="M203.7437 186.3933
L203.5295 186.3933
" />
<path d="M205.3152 186.3933
L205.3152 185.6076
" />
<path d="M205.3152 185.6076
L205.2437 185.4648
" />
<path d="M205.2437 185.4648
L205.1009 185.3933
" />
<path d="M205.1009 185.3933
L204.8152 185.3933
" />
<path d="M204.8152 185.3933
L204.6723 185.4648
" />
<path d="M205.3152 186.3219
L205.1723 186.3933
" />
<path d="M205.1723 186.3933
L204.8152 186.3933
" />
<path d="M204.8152 186.3933
L204.6723 186.3219
" />
<path d="M204.6723 186.3219
L204.6009 186.1790
" />
<path d="M204.6009 186.1790
L204.6009 186.0362
" />
<path d="M204.6009 186.0362
L204.6723 185.8933
" />
<path d="M204.6723 185.8933
L204.8152 185.8219
" />
<path d="M204.8152 185.8219
L205.1723 185.8219
" />
<path d="M205.1723 185.8219
L205.3152 185.7505
" />
<path d="M206.0295 186.3933
L206.0295 185.3933
" />
<path d="M206.0295 185.6790
L206.1009 185.5362
" />
<path d="M206.1009 185.5362
L206.1723 185.4648
" />
<path d="M206.1723 185.4648
L206.3152 185.3933
" />
<path d="M206.3152 185.3933
L206.4580 185.3933
" />
<path d="M207.6009 186.3933
L207.6009 184.8933
" />
<path d="M207.6009 186.3219
L207.4580 186.3933
" />
<path d="M207.4580 186.3933
L207.1723 186.3933
" />
<path d="M207.1723 186.3933
L207.0295 186.3219
" />
<path d="M207.0295 186.3219
L206.9580 186.2505
" />
<path d="M206.9580 186.2505
L206.8866 186.1076
" />
<path d="M206.8866 186.1076
L206.8866 185.6790
" />
<path d="M206.8866 185.6790
L206.9580 185.5362
" />
<path d="M206.9580 185.5362
L207.0295 185.4648
" />
<path d="M207.0295 185.4648
L207.1723 185.3933
" />
<path d="M207.1723 185.3933
L207.4580 185.3933
" />
<path d="M207.4580 185.3933
L207.6009 185.4648
" />
<path d="M208.3152 186.2505
L208.3866 186.3219
" />
<path d="M208.3866 186.3219
L208.3152 186.3933
" />
<path d="M208.3152 186.3933
L208.2437 186.3219
" />
<path d="M208.2437 186.3219
L208.3152 186.2505
" />
<path d="M208.3152 186.2505
L208.3152 186.3933
" />
<path d="M209.0295 186.3933
L209.0295 184.8933
" />
<path d="M209.1723 185.8219
L209.6009 186.3933
" />
<path d="M209.6009 185.3933
L209.0295 185.9648
" />
<path d="M210.2437 186.3933
L210.2437 185.3933
" />
<path d="M210.2437 184.8933
L210.1723 184.9648
" />
<path d="M210.1723 184.9648
L210.2437 185.0362
" />
<path d="M210.2437 185.0362
L210.3152 184.9648
" />
<path d="M210.3152 184.9648
L210.2437 184.8933
" />
<path d="M210.2437 184.8933
L210.2437 185.0362
" />
<path d="M211.6009 186.3219
L211.4580 186.3933
" />
<path d="M211.4580 186.3933
L211.1723 186.3933
" />
<path d="M211.1723 186.3933
L211.0295 186.3219
" />
<path d="M211.0295 186.3219
L210.9580 186.2505
" />
<path d="M210.9580 186.2505
L210.8866 186.1076
" />
<path d="M210.8866 186.1076
L210.8866 185.6790
" />
<path d="M210.8866 185.6790
L210.9580 185.5362
" />
<path d="M210.9580 185.5362
L211.0295 185.4648
" />
<path d="M211.0295 185.4648
L211.1723 185.3933
" />
<path d="M211.1723 185.3933
L211.4580 185.3933
" />
<path d="M211.4580 185.3933
L211.6009 185.4648
" />
<path d="M212.8866 186.3933
L212.8866 185.6076
" />
<path d="M212.8866 185.6076
L212.8152 185.4648
" />
<path d="M212.8152 185.4648
L212.6723 185.3933
" />
<path d="M212.6723 185.3933
L212.3866 185.3933
" />
<path d="M212.3866 185.3933
L212.2437 185.4648
" />
<path d="M212.8866 186.3219
L212.7437 186.3933
" />
<path d="M212.7437 186.3933
L212.3866 186.3933
" />
<path d="M212.3866 186.3933
L212.2437 186.3219
" />
<path d="M212.2437 186.3219
L212.1723 186.1790
" />
<path d="M212.1723 186.1790
L212.1723 186.0362
" />
<path d="M212.1723 186.0362
L212.2437 185.8933
" />
<path d="M212.2437 185.8933
L212.3866 185.8219
" />
<path d="M212.3866 185.8219
L212.7437 185.8219
" />
<path d="M212.7437 185.8219
L212.8866 185.7505
" />
<path d="M214.2437 186.3933
L214.2437 184.8933
" />
<path d="M214.2437 186.3219
L214.1009 186.3933
" />
<path d="M214.1009 186.3933
L213.8152 186.3933
" />
<path d="M213.8152 186.3933
L213.6723 186.3219
" />
<path d="M213.6723 186.3219
L213.6009 186.2505
" />
<path d="M213.6009 186.2505
L213.5295 186.1076
" />
<path d="M213.5295 186.1076
L213.5295 185.6790
" />
<path d="M213.5295 185.6790
L213.6009 185.5362
" />
<path d="M213.6009 185.5362
L213.6723 185.4648
" />
<path d="M213.6723 185.4648
L213.8152 185.3933
" />
<path d="M213.8152 185.3933
L214.1009 185.3933
" />
<path d="M214.1009 185.3933
L214.2437 185.4648
" />
<path d="M214.6009 186.5362
L215.7437 186.5362
" />
<path d="M216.1009 185.3933
L216.1009 186.8933
" />
<path d="M216.1009 185.4648
L216.2437 185.3933
" />
<path d="M216.2437 185.3933
L216.5295 185.3933
" />
<path d="M216.5295 185.3933
L216.6723 185.4648
" />
<path d="M216.6723 185.4648
L216.7437 185.5362
" />
<path d="M216.7437 185.5362
L216.8152 185.6790
" />
<path d="M216.8152 185.6790
L216.8152 186.1076
" />
<path d="M216.8152 186.1076
L216.7437 186.2505
" />
<path d="M216.7437 186.2505
L216.6723 186.3219
" />
<path d="M216.6723 186.3219
L216.5295 186.3933
" />
<path d="M216.5295 186.3933
L216.2437 186.3933
" />
<path d="M216.2437 186.3933
L216.1009 186.3219
" />
<path d="M218.1009 186.3219
L217.9580 186.3933
" />
<path d="M217.9580 186.3933
L217.6723 186.3933
" />
<path d="M217.6723 186.3933
L217.5295 186.3219
" />
<path d="M217.5295 186.3219
L217.4580 186.2505
" />
<path d="M217.4580 186.2505
L217.3866 186.1076
" />
<path d="M217.3866 186.1076
L217.3866 185.6790
" />
<path d="M217.3866 185.6790
L217.4580 185.5362
" />
<path d="M217.4580 185.5362
L217.5295 185.4648
" />
<path d="M217.5295 185.4648
L217.6723 185.3933
" />
<path d="M217.6723 185.3933
L217.9580 185.3933
" />
<path d="M217.9580 185.3933
L218.1009 185.4648
" />
<path d="M218.7437 186.3933
L218.7437 184.8933
" />
<path d="M218.7437 185.4648
L218.8866 185.3933
" />
<path d="M218.8866 185.3933
L219.1723 185.3933
" />
<path d="M219.1723 185.3933
L219.3152 185.4648
" />
<path d="M219.3152 185.4648
L219.3866 185.5362
" />
<path d="M219.3866 185.5362
L219.4580 185.6790
" />
<path d="M219.4580 185.6790
L219.4580 186.1076
" />
<path d="M219.4580 186.1076
L219.3866 186.2505
" />
<path d="M219.3866 186.2505
L219.3152 186.3219
" />
<path d="M219.3152 186.3219
L219.1723 186.3933
" />
<path d="M219.1723 186.3933
L218.8866 186.3933
" />
<path d="M218.8866 186.3933
L218.7437 186.3219
" />
</g></g>
<g style="fill:none; 
stroke:#000000; stroke-width:0.1500; stroke-opacity:1; 
stroke-linecap:round; stroke-linejoin:round;">
<path d="M177.0022 181.5072
L285.0022 181.5072
" />
</g>
<g style="fill:none; 
stroke:#000000; stroke-width:0.1500; stroke-opacity:1; 
stroke-linecap:round; stroke-linejoin:round;">
<text x="178.0022" y="183.7572"
textLength="8.2214" font-size="2.0000" lengthAdjust="spacingAndGlyphs"
text-anchor="start" opacity="0">Sheet: </text>
<g class="stroked-text"><desc>Sheet: </desc>
<path d="M178.3866 183.6219
L178.6009 183.6933
" />
<path d="M178.6009 183.6933
L178.9580 183.6933
" />
<path d="M178.9580 183.6933
L179.1009 183.6219
" />
<path d="M179.1009 183.6219
L179.1723 183.5505
" />
<path d="M179.1723 183.5505
L179.2437 183.4076
" />
<path d="M179.2437 183.4076
L179.2437 183.2648
" />
<path d="M179.2437 183.2648
L179.1723 183.1219
" />
<path d="M179.1723 183.1219
L179.1009 183.0505
" />
<path d="M179.1009 183.0505
L178.9580 182.9790
" />
<path d="M178.9580 182.9790
L178.6723 182.9076
" />
<path d="M178.6723 182.9076
L178.5295 182.8362
" />
<path d="M178.5295 182.8362
L178.4580 182.7648
" />
<path d="M178.4580 182.7648
L178.3866 182.6219
" />
<path d="M178.3866 182.6219
L178.3866 182.4790
" />
<path d="M178.3866 182.4790
L178.4580 182.3362
" />
<path d="M178.4580 182.3362
L178.5295 182.2648
" />
<path d="M178.5295 182.2648
L178.6723 182.1933
" />
<path d="M178.6723 182.1933
L179.0295 182.1933
" />
<path d="M179.0295 182.1933
L179.2437 182.2648
" />
<path d="M179.8866 183.6933
L179.8866 182.1933
" />
<path d="M180.5295 183.6933
L180.5295 182.9076
" />
<path d="M180.5295 182.9076
L180.4580 182.7648
" />
<path d="M180.4580 182.7648
L180.3152 182.6933
" />
<path d="M180.3152 182.6933
L180.1009 182.6933
" />
<path d="M180.1009 182.6933
L179.9580 182.7648
" />
<path d="M179.9580 182.7648
L179.8866 182.8362
" />
<path d="M181.8152 183.6219
L181.6723 183.6933
" />
<path d="M181.6723 183.6933
L181.3866 183.6933
" />
<path d="M181.3866 183.6933
L181.2437 183.6219
" />
<path d="M181.2437 183.6219
L181.1723 183.4790
" />
<path d="M181.1723 183.4790
L181.1723 182.9076
" />
<path d="M181.1723 182.9076
L181.2437 182.7648
" />
<path d="M181.2437 182.7648
L181.3866 182.6933
" />
<path d="M181.3866 182.6933
L181.6723 182.6933
" />
<path d="M181.6723 182.6933
L181.8152 182.7648
" />
<path d="M181.8152 182.7648
L181.8866 182.9076
" />
<path d="M181.8866 182.9076
L181.8866 183.0505
" />
<path d="M181.8866 183.0505
L181.1723 183.1933
" />
<path d="M183.1009 183.6219
L182.9580 183.6933
" />
<path d="M182.9580 183.6933
L182.6723 183.6933
" />
<path d="M182.6723 183.6933
L182.5295 183.6219
" />
<path d="M182.5295 183.6219
L182.4580 183.4790
" />
<path d="M182.4580 183.4790
L182.4580 182.9076
" />
<path d="M182.4580 182.9076
L182.5295 182.7648
" />
<path d="M182.5295 182.7648
L182.6723 182.6933
" />
<path d="M182.6723 182.6933
L182.9580 182.6933
" />
<path d="M182.9580 182.6933
L183.1009 182.7648
" />
<path d="M183.1009 182.7648
L183.1723 182.9076
" />
<path d="M183.1723 182.9076
L183.1723 183.0505
" />
<path d="M183.1723 183.0505
L182.4580 183.1933
" />
<path d="M183.6009 182.6933
L184.1723 182.6933
" />
<path d="M183.8152 182.1933
L183.8152 183.4790
" />
<path d="M183.8152 183.4790
L183.8866 183.6219
" />
<path d="M183.8866 183.6219
L184.0295 183.6933
" />
<path d="M184.0295 183.6933
L184.1723 183.6933
" />
<path d="M184.6723 183.5505
L184.7437 183.6219
" />
<path d="M184.7437 183.6219
L184.6723 183.6933
" />
<path d="M184.6723 183.6933
L184.6009 183.6219
" />
<path d="M184.6009 183.6219
L184.6723 183.5505
" />
<path d="M184.6723 183.5505
L184.6723 183.6933
" />
<path d="M184.6723 182.7648
L184.7437 182.8362
" />
<path d="M184.7437 182.8362
L184.6723 182.9076
" />
<path d="M184.6723 182.9076
L184.6009 182.8362
" />
<path d="M184.6009 182.8362
L184.6723 182.7648
" />
<path d="M184.6723 182.7648
L184.6723 182.9076
" />
</g></g>
<g style="fill:none; 
stroke:#000000; stroke-width:0.3000; stroke-opacity:1; 
stroke-linecap:round; stroke-linejoin:round;">
<text x="178.0022" y="180.7572"
textLength="0.9000" font-size="2.0000" lengthAdjust="spacingAndGlyphs"
text-anchor="start" opacity="0"></text>
<g class="stroked-text"><desc></desc>
</g></g>
<g style="fill:none; 
stroke:#000000; stroke-width:0.1500; stroke-opacity:1; 
stroke-linecap:round; stroke-linejoin:round;">
<text x="178.0022" y="177.7572"
textLength="0.4500" font-size="2.0000" lengthAdjust="spacingAndGlyphs"
text-anchor="start" opacity="0"></text>
<g class="stroked-text"><desc></desc>
</g></g>
<g style="fill:none; 
stroke:#000000; stroke-width:0.1500; stroke-opacity:1; 
stroke-linecap:round; stroke-linejoin:round;">
<text x="178.0022" y="174.7572"
textLength="0.4500" font-size="2.0000" lengthAdjust="spacingAndGlyphs"
text-anchor="start" opacity="0"></text>
<g class="stroked-text"><desc></desc>
</g></g>
<g style="fill:none; 
stroke:#000000; stroke-width:0.1500; stroke-opacity:1; 
stroke-linecap:round; stroke-linejoin:round;">
<text x="178.0022" y="171.7572"
textLength="0.4500" font-size="2.0000" lengthAdjust="spacingAndGlyphs"
text-anchor="start" opacity="0"></text>
<g class="stroked-text"><desc></desc>
</g></g>
<g style="fill:none; 
stroke:#000000; stroke-width:0.1500; stroke-opacity:1; 
stroke-linecap:round; stroke-linejoin:round;">
<text x="178.0022" y="168.7572"
textLength="0.4500" font-size="2.0000" lengthAdjust="spacingAndGlyphs"
text-anchor="start" opacity="0"></text>
<g class="stroked-text"><desc></desc>
</g></g>
<g style="fill:none; 
stroke:#000000; stroke-width:0.1500; stroke-opacity:1; 
stroke-linecap:round; stroke-linejoin:round;">
<path d="M197.0022 191.5072
L197.0022 194.5072
" />
</g>
<g style="fill:none; 
stroke:#000000; stroke-width:0.1500; stroke-opacity:1; 
stroke-linecap:round; stroke-linejoin:round;">
<path d="M261.0022 191.5072
L261.0022 198.0072
" />
</g>
<g style="fill:none; 
stroke:#000000; stroke-width:0.0500; stroke-opacity:1; 
stroke-linecap:round; stroke-linejoin:round;">
<path d="M57.5810 111.3230
L57.5810 159.7230
" />
<path d="M57.5810 159.7230
L69.5810 159.7230
" />
<path d="M69.5810 111.3230
L57.5810 111.3230
" />
<path d="M69.5810 159.7230
L69.5810 111.3230
" />
<path d="M57.5810 90.9730
L57.5810 109.9730
" />
<path d="M57.5810 109.9730
L69.5810 109.9730
" />
<path d="M69.5810 90.9730
L57.5810 90.9730
" />
<path d="M69.5810 109.9730
L69.5810 90.9730
" />
<path d="M45.4350 122.8090
L45.4350 134.8090
" />
<path d="M45.4350 134.8090
L51.8350 134.8090
" />
<path d="M51.8350 122.8090
L45.4350 122.8090
" />
<path d="M51.8350 134.8090
L51.8350 122.8090
" />
<path d="M268.3750 21.6680
L268.3750 28.4180
" />
<path d="M268.3750 28.4180
L279.2750 28.4180
" />
<path d="M279.2750 21.6680
L268.3750 21.6680
" />
<path d="M279.2750 28.4180
L279.2750 21.6680
" />
<path d="M268.3750 29.6355
L268.3750 36.3855
" />
<path d="M268.3750 36.3855
L279.2750 36.3855
" />
<path d="M279.2750 29.6355
L268.3750 29.6355
" />
<path d="M279.2750 36.3855
L279.2750 29.6355
" />
<path d="M263.7500 5.7330
L263.7500 12.4830
" />
<path d="M263.7500 12.4830
L277.1500 12.4830
" />
<path d="M277.1500 5.7330
L263.7500 5.7330
" />
<path d="M277.1500 12.4830
L277.1500 5.7330
" />
<path d="M263.7500 13.7005
L263.7500 20.4505
" />
<path d="M263.7500 20.4505
L277.1500 20.4505
" />
<path d="M277.1500 13.7005
L263.7500 13.7005
" />
<path d="M277.1500 20.4505
L277.1500 13.7005
" />
<path d="M251.1250 21.6680
L251.1250 28.4180
" />
<path d="M251.1250 28.4180
L264.5250 28.4180
" />
<path d="M264.5250 21.6680
L251.1250 21.6680
" />
<path d="M264.5250 28.4180
L264.5250 21.6680
" />
<path d="M251.1250 29.6355
L251.1250 36.3855
" />
<path d="M251.1250 36.3855
L264.5250 36.3855
" />
<path d="M264.5250 29.6355
L251.1250 29.6355
" />
<path d="M264.5250 36.3855
L264.5250 29.6355
" />
<path d="M251.1250 37.6030
L251.1250 44.3530
" />
<path d="M251.1250 44.3530
L264.5250 44.3530
" />
<path d="M264.5250 37.6030
L251.1250 37.6030
" />
<path d="M264.5250 44.3530
L264.5250 37.6030
" />
<path d="M279.1210 13.7005
L279.1210 20.4505
" />
<path d="M279.1210 20.4505
L290.0210 20.4505
" />
<path d="M290.0210 13.7005
L279.1210 13.7005
" />
<path d="M290.0210 20.4505
L290.0210 13.7005
" />
<path d="M47.9760 141.1270
L47.9760 154.0270
" />
<path d="M47.9760 154.0270
L53.4760 154.0270
" />
<path d="M53.4760 141.1270
L47.9760 141.1270
" />
<path d="M53.4760 154.0270
L53.4760 141.1270
" />
<path d="M279.1210 5.7330
L279.1210 12.4830
" />
<path d="M279.1210 12.4830
L290.0210 12.4830
" />
<path d="M290.0210 5.7330
L279.1210 5.7330
" />
<path d="M290.0210 12.4830
L290.0210 5.7330
" />
<path d="M75.4050 64.6230
L84.4050 64.6230
" />
<path d="M75.4050 68.1230
L75.4050 64.6230
" />
<path d="M84.4050 64.6230
L84.4050 68.1230
" />
<path d="M84.4050 68.1230
L75.4050 68.1230
" />
<circle cx="57.4950" cy="77.5630" r="1.2500" /> 
<path d="M222.6250 56.9330
L228.4250 56.9330
" />
<path d="M222.6250 64.2330
L222.6250 56.9330
" />
<path d="M222.6250 64.2330
L228.4250 64.2330
" />
<path d="M228.4250 64.2330
L228.4250 56.9330
" />
<path d="M252.3750 165.7330
L254.2750 165.7330
" />
<path d="M252.3750 169.4330
L252.3750 165.7330
" />
<path d="M254.2750 165.7330
L254.2750 169.4330
" />
<path d="M254.2750 169.4330
L252.3750 169.4330
" />
<path d="M187.0010 132.8430
L189.9610 132.8430
" />
<path d="M187.0010 134.3030
L187.0010 132.8430
" />
<path d="M189.9610 132.8430
L189.9610 134.3030
" />
<path d="M189.9610 134.3030
L187.0010 134.3030
" />
<path d="M255.4050 165.8830
L255.4050 169.2830
" />
<path d="M255.4050 169.2830
L259.2450 169.2830
" />
<path d="M259.2450 165.8830
L255.4050 165.8830
" />
<path d="M259.2450 169.2830
L259.2450 165.8830
" />
<path d="M246.2750 39.4330
L249.9750 39.4330
" />
<path d="M246.2750 41.3330
L246.2750 39.4330
" />
<path d="M249.9750 39.4330
L249.9750 41.3330
" />
<path d="M249.9750 41.3330
L246.2750 41.3330
" />
<path d="M76.7810 77.7030
L78.6810 77.7030
" />
<path d="M76.7810 81.4030
L76.7810 77.7030
" />
<path d="M78.6810 77.7030
L78.6810 81.4030
" />
<path d="M78.6810 81.4030
L76.7810 81.4030
" />
<circle cx="224.3250" cy="105.5830" r="1.2500" /> 
<path d="M202.4450 163.4030
L206.2050 163.4030
" />
<path d="M202.4450 165.3630
L202.4450 163.4030
" />
<path d="M206.2050 163.4030
L206.2050 165.3630
" />
<path d="M206.2050 165.3630
L202.4450 165.3630
" />
<circle cx="137.1934" cy="110.5380" r="5.2500" /> 
<path d="M198.8610 82.8230
L202.2210 82.8230
" />
<path d="M198.8610 84.7230
L198.8610 82.8230
" />
<path d="M202.2210 82.8230
L202.2210 84.7230
" />
<path d="M202.2210 84.7230
L198.8610 84.7230
" />
<path d="M183.5830 102.5998
L187.2830 102.5998
" />
<path d="M183.5830 104.4998
L183.5830 102.5998
" />
<path d="M187.2830 102.5998
L187.2830 104.4998
" />
<path d="M187.2830 104.4998
L183.5830 104.4998
" />
<path d="M202.4450 167.1530
L202.4450 170.5530
" />
<path d="M202.4450 170.5530
L206.5450 170.5530
" />
<path d="M206.5450 167.1530
L202.4450 167.1530
" />
<path d="M206.5450 170.5530
L206.5450 167.1530
" />
<path d="M177.5810 148.6230
L177.5810 158.4730
" />
<path d="M178.7310 147.4730
L177.5810 148.6230
" />
<path d="M181.5810 146.3230
L181.5810 147.4730
" />
<path d="M181.5810 147.4730
L178.7310 147.4730
" />
<path d="M181.5810 158.4730
L177.5810 158.4730
" />
<path d="M181.5810 159.6230
L181.5810 158.4730
" />
<path d="M184.5810 146.3230
L181.5810 146.3230
" />
<path d="M184.5810 147.4730
L184.5810 146.3230
" />
<path d="M184.5810 158.4730
L184.5810 159.6230
" />
<path d="M184.5810 159.6230
L181.5810 159.6230
" />
<path d="M187.4310 147.4730
L184.5810 147.4730
" />
<path d="M187.4310 147.4730
L188.5810 148.6230
" />
<path d="M188.5810 148.6230
L188.5810 158.4730
" />
<path d="M188.5810 158.4730
L184.5810 158.4730
" />
<path d="M44.9850 92.4900
L44.9850 66.1400
" />
<path d="M44.9850 92.4900
L52.2850 92.4900
" />
<path d="M52.2850 66.1400
L44.9850 66.1400
" />
<path d="M52.2850 66.1400
L52.2850 92.4900
" />
<path d="M242.0750 39.4330
L245.7750 39.4330
" />
<path d="M242.0750 41.3330
L242.0750 39.4330
" />
<path d="M245.7750 39.4330
L245.7750 41.3330
" />
<path d="M245.7750 41.3330
L242.0750 41.3330
" />
<path d="M173.1010 107.2930
L176.0610 107.2930
" />
<path d="M173.1010 108.7530
L173.1010 107.2930
" />
<path d="M176.0610 107.2930
L176.0610 108.7530
" />
<path d="M176.0610 108.7530
L173.1010 108.7530
" />
<path d="M289.6950 60.4530
L291.5950 60.4530
" />
<path d="M289.6950 64.1530
L289.6950 60.4530
" />
<path d="M291.5950 60.4530
L291.5950 64.1530
" />
<path d="M291.5950 64.1530
L289.6950 64.1530
" />
<path d="M185.8748 71.8708
L185.8748 74.3708
" />
<path d="M185.8748 71.8708
L190.4748 71.8708
" />
<path d="M190.4748 74.3708
L185.8748 74.3708
" />
<path d="M190.4748 74.3708
L190.4748 71.8708
" />
<path d="M246.2750 41.6330
L249.9750 41.6330
" />
<path d="M246.2750 43.5330
L246.2750 41.6330
" />
<path d="M249.9750 41.6330
L249.9750 43.5330
" />
<path d="M249.9750 43.5330
L246.2750 43.5330
" />
<path d="M209.2600 61.6880
L211.1600 61.6880
" />
<path d="M209.2600 65.3880
L209.2600 61.6880
" />
<path d="M211.1600 61.6880
L211.1600 65.3880
" />
<path d="M211.1600 65.3880
L209.2600 65.3880
" />
<path d="M226.3250 90.2330
L226.3250 92.5330
" />
<path d="M226.3250 90.2330
L230.7250 90.2330
" />
<path d="M230.7250 90.2330
L230.7250 92.5330
" />
<path d="M230.7250 92.5330
L226.3250 92.5330
" />
<circle cx="137.1934" cy="159.3450" r="5.2500" /> 
<path d="M196.3642 89.7308
L196.3642 116.1808
" />
<path d="M196.3642 116.1808
L199.9642 116.1808
" />
<path d="M199.9642 89.7308
L196.3642 89.7308
" />
<path d="M199.9642 116.1808
L199.9642 89.7308
" />
<path d="M261.6917 62.2330
L265.3917 62.2330
" />
<path d="M261.6917 64.1330
L261.6917 62.2330
" />
<path d="M265.3917 62.2330
L265.3917 64.1330
" />
<path d="M265.3917 64.1330
L261.6917 64.1330
" />
<circle cx="276.3250" cy="166.5830" r="1.2500" /> 
<path d="M286.6950 60.4530
L288.5950 60.4530
" />
<path d="M286.6950 64.1530
L286.6950 60.4530
" />
<path d="M288.5950 60.4530
L288.5950 64.1530
" />
<path d="M288.5950 64.1530
L286.6950 64.1530
" />
<path d="M166.1810 148.6230
L166.1810 158.4730
" />
<path d="M167.3310 147.4730
L166.1810 148.6230
" />
<path d="M170.1810 146.3230
L170.1810 147.4730
" />
<path d="M170.1810 147.4730
L167.3310 147.4730
" />
<path d="M170.1810 158.4730
L166.1810 158.4730
" />
<path d="M170.1810 159.6230
L170.1810 158.4730
" />
<path d="M173.1810 146.3230
L170.1810 146.3230
" />
<path d="M173.1810 147.4730
L173.1810 146.3230
" />
<path d="M173.1810 158.4730
L173.1810 159.6230
" />
<path d="M173.1810 159.6230
L170.1810 159.6230
" />
<path d="M176.0310 147.4730
L173.1810 147.4730
" />
<path d="M176.0310 147.4730
L177.1810 148.6230
" />
<path d="M177.1810 148.6230
L177.1810 158.4730
" />
<path d="M177.1810 158.4730
L173.1810 158.4730
" />
<path d="M183.6010 132.8430
L186.5610 132.8430
" />
<path d="M183.6010 134.3030
L183.6010 132.8430
" />
<path d="M186.5610 132.8430
L186.5610 134.3030
" />
<path d="M186.5610 134.3030
L183.6010 134.3030
" />
<circle cx="171.0000" cy="88.8000" r="1.2500" /> 
<path d="M187.5330 106.3598
L187.5330 108.8598
" />
<path d="M187.5330 106.3598
L192.1330 106.3598
" />
<path d="M192.1330 108.8598
L187.5330 108.8598
" />
<path d="M192.1330 108.8598
L192.1330 106.3598
" />
<path d="M181.9810 130.0230
L186.5810 130.0230
" />
<path d="M181.9810 132.3230
L181.9810 130.0230
" />
<path d="M186.5810 130.0230
L186.5810 132.3230
" />
<path d="M186.5810 132.3230
L181.9810 132.3230
" />
<path d="M90.5810 110.7980
L95.0810 110.7980
" />
<path d="M90.5810 118.0980
L90.5810 110.7980
" />
<path d="M95.0810 110.7980
L95.0810 118.0980
" />
<path d="M95.0810 118.0980
L90.5810 118.0980
" />
<path d="M180.0810 135.5230
L180.0810 142.4230
" />
<path d="M180.0810 142.4230
L188.8810 142.4230
" />
<path d="M188.8810 135.5230
L180.0810 135.5230
" />
<path d="M188.8810 142.4230
L188.8810 135.5230
" />
<path d="M110.7310 114.1230
L114.2310 114.1230
" />
<path d="M110.7310 121.1230
L110.7310 114.1230
" />
<path d="M114.2310 114.1230
L114.2310 121.1230
" />
<path d="M114.2310 121.1230
L110.7310 121.1230
" />
<path d="M91.0810 155.4280
L95.5810 155.4280
" />
<path d="M91.0810 162.7280
L91.0810 155.4280
" />
<path d="M95.5810 155.4280
L95.5810 162.7280
" />
<path d="M95.5810 162.7280
L91.0810 162.7280
" />
<path d="M97.0810 116.8730
L101.5810 116.8730
" />
<path d="M97.0810 124.1730
L97.0810 116.8730
" />
<path d="M101.5810 116.8730
L101.5810 124.1730
" />
<path d="M101.5810 124.1730
L97.0810 124.1730
" />
<path d="M167.4310 129.6230
L169.3310 129.6230
" />
<path d="M167.4310 133.3230
L167.4310 129.6230
" />
<path d="M169.3310 129.6230
L169.3310 133.3230
" />
<path d="M169.3310 133.3230
L167.4310 133.3230
" />
<path d="M211.8000 61.6880
L213.7000 61.6880
" />
<path d="M211.8000 65.3880
L211.8000 61.6880
" />
<path d="M213.7000 61.6880
L213.7000 65.3880
" />
<path d="M213.7000 65.3880
L211.8000 65.3880
" />
<path d="M226.3250 87.6330
L230.7250 87.6330
" />
<path d="M226.3250 89.9330
L226.3250 87.6330
" />
<path d="M230.7250 89.9330
L226.3250 89.9330
" />
<path d="M230.7250 89.9330
L230.7250 87.6330
" />
<path d="M280.6950 60.4530
L282.5950 60.4530
" />
<path d="M280.6950 64.1530
L280.6950 60.4530
" />
<path d="M282.5950 60.4530
L282.5950 64.1530
" />
<path d="M282.5950 64.1530
L280.6950 64.1530
" />
<path d="M167.4310 125.4230
L169.3310 125.4230
" />
<path d="M167.4310 129.1230
L167.4310 125.4230
" />
<path d="M169.3310 125.4230
L169.3310 129.1230
" />
<path d="M169.3310 129.1230
L167.4310 129.1230
" />
<path d="M44.9850 120.5650
L44.9850 94.2150
" />
<path d="M44.9850 120.5650
L52.2850 120.5650
" />
<path d="M52.2850 94.2150
L44.9850 94.2150
" />
<path d="M52.2850 94.2150
L52.2850 120.5650
" />
<circle cx="137.1934" cy="143.0760" r="5.2500" /> 
<path d="M230.0250 57.0330
L235.8250 57.0330
" />
<path d="M230.0250 64.3330
L230.0250 57.0330
" />
<path d="M230.0250 64.3330
L235.8250 64.3330
" />
<path d="M235.8250 64.3330
L235.8250 57.0330
" />
<path d="M110.6810 83.3230
L114.1810 83.3230
" />
<path d="M110.6810 90.3230
L110.6810 83.3230
" />
<path d="M114.1810 83.3230
L114.1810 90.3230
" />
<path d="M114.1810 90.3230
L110.6810 90.3230
" />
<path d="M274.6650 53.4230
L276.6250 53.4230
" />
<path d="M274.6650 57.1830
L274.6650 53.4230
" />
<path d="M276.6250 53.4230
L276.6250 57.1830
" />
<path d="M276.6250 57.1830
L274.6650 57.1830
" />
<circle cx="192.2810" cy="84.5730" r="1.2500" /> 
<circle cx="190.4810" cy="80.5730" r="1.2500" /> 
<path d="M266.0750 57.2630
L266.0750 61.1030
" />
<path d="M266.0750 61.1030
L269.4750 61.1030
" />
<path d="M269.4750 57.2630
L266.0750 57.2630
" />
<path d="M269.4750 61.1030
L269.4750 57.2630
" />
<path d="M40.2310 139.6230
L40.2310 155.5230
" />
<path d="M40.2310 155.5230
L46.9810 155.5230
" />
<path d="M46.9810 139.6230
L40.2310 139.6230
" />
<path d="M46.9810 155.5230
L46.9810 139.6230
" />
<circle cx="107.4810" cy="127.6730" r="1.2500" /> 
<path d="M226.0750 76.1330
L226.0750 78.6330
" />
<path d="M226.0750 76.1330
L229.3750 76.1330
" />
<path d="M229.3750 78.6330
L226.0750 78.6330
" />
<path d="M229.3750 78.6330
L229.3750 76.1330
" />
<path d="M274.6950 60.4530
L276.5950 60.4530
" />
<path d="M274.6950 64.1530
L274.6950 60.4530
" />
<path d="M276.5950 60.4530
L276.5950 64.1530
" />
<path d="M276.5950 64.1530
L274.6950 64.1530
" />
<path d="M252.0750 104.6630
L255.7750 104.6630
" />
<path d="M252.0750 106.5630
L252.0750 104.6630
" />
<path d="M255.7750 104.6630
L255.7750 106.5630
" />
<path d="M255.7750 106.5630
L252.0750 106.5630
" />
<path d="M257.4583 62.2330
L261.1583 62.2330
" />
<path d="M257.4583 64.1330
L257.4583 62.2330
" />
<path d="M261.1583 62.2330
L261.1583 64.1330
" />
<path d="M261.1583 64.1330
L257.4583 64.1330
" />
<path d="M257.4583 54.4330
L261.1583 54.4330
" />
<path d="M257.4583 56.3330
L257.4583 54.4330
" />
<path d="M261.1583 54.4330
L261.1583 56.3330
" />
<path d="M261.1583 56.3330
L257.4583 56.3330
" />
<circle cx="137.1934" cy="126.8070" r="5.2500" /> 
<path d="M265.9250 62.2330
L269.6250 62.2330
" />
<path d="M265.9250 64.1330
L265.9250 62.2330
" />
<path d="M269.6250 62.2330
L269.6250 64.1330
" />
<path d="M269.6250 64.1330
L265.9250 64.1330
" />
<path d="M186.9810 127.2230
L191.5810 127.2230
" />
<path d="M186.9810 129.5230
L186.9810 127.2230
" />
<path d="M191.5810 127.2230
L191.5810 129.5230
" />
<path d="M191.5810 129.5230
L186.9810 129.5230
" />
<path d="M90.5810 78.2980
L95.0810 78.2980
" />
<path d="M90.5810 85.5980
L90.5810 78.2980
" />
<path d="M95.0810 78.2980
L95.0810 85.5980
" />
<path d="M95.0810 85.5980
L90.5810 85.5980
" />
<path d="M214.0050 164.5930
L217.6050 164.5930
" />
<path d="M214.0050 169.3930
L214.0050 164.5930
" />
<path d="M217.6050 164.5930
L217.6050 169.3930
" />
<path d="M217.6050 169.3930
L214.0050 169.3930
" />
<path d="M194.0710 82.8230
L197.7710 82.8230
" />
<path d="M194.0710 84.7230
L194.0710 82.8230
" />
<path d="M197.7710 82.8230
L197.7710 84.7230
" />
<path d="M197.7710 84.7230
L194.0710 84.7230
" />
<path d="M242.0750 41.6330
L245.7750 41.6330
" />
<path d="M242.0750 43.5330
L242.0750 41.6330
" />
<path d="M245.7750 41.6330
L245.7750 43.5330
" />
<path d="M245.7750 43.5330
L242.0750 43.5330
" />
<path d="M283.6950 60.4530
L285.5950 60.4530
" />
<path d="M283.6950 64.1530
L283.6950 60.4530
" />
<path d="M285.5950 60.4530
L285.5950 64.1530
" />
<path d="M285.5950 64.1530
L283.6950 64.1530
" />
<circle cx="137.1934" cy="94.2690" r="5.2500" /> 
<path d="M261.6917 54.4330
L265.3917 54.4330
" />
<path d="M261.6917 56.3330
L261.6917 54.4330
" />
<path d="M265.3917 54.4330
L265.3917 56.3330
" />
<path d="M265.3917 56.3330
L261.6917 56.3330
" />
<path d="M175.1810 130.9230
L179.7810 130.9230
" />
<path d="M175.1810 133.2230
L175.1810 130.9230
" />
<path d="M179.7810 130.9230
L179.7810 133.2230
" />
<path d="M179.7810 133.2230
L175.1810 133.2230
" />
<path d="M181.9810 127.2230
L186.5810 127.2230
" />
<path d="M181.9810 129.5230
L181.9810 127.2230
" />
<path d="M186.5810 127.2230
L186.5810 129.5230
" />
<path d="M186.5810 129.5230
L181.9810 129.5230
" />
<path d="M281.6950 37.6030
L281.6950 44.3530
" />
<path d="M281.6950 44.3530
L290.0950 44.3530
" />
<path d="M290.0950 37.6030
L281.6950 37.6030
" />
<path d="M290.0950 44.3530
L290.0950 37.6030
" />
<path d="M166.1810 113.2730
L170.1810 113.2730
" />
<path d="M166.1810 123.1230
L166.1810 113.2730
" />
<path d="M167.3310 124.2730
L166.1810 123.1230
" />
<path d="M167.3310 124.2730
L170.1810 124.2730
" />
<path d="M170.1810 112.1230
L173.1810 112.1230
" />
<path d="M170.1810 113.2730
L170.1810 112.1230
" />
<path d="M170.1810 124.2730
L170.1810 125.4230
" />
<path d="M170.1810 125.4230
L173.1810 125.4230
" />
<path d="M173.1810 112.1230
L173.1810 113.2730
" />
<path d="M173.1810 113.2730
L177.1810 113.2730
" />
<path d="M173.1810 124.2730
L176.0310 124.2730
" />
<path d="M173.1810 125.4230
L173.1810 124.2730
" />
<path d="M176.0310 124.2730
L177.1810 123.1230
" />
<path d="M177.1810 123.1230
L177.1810 113.2730
" />
<path d="M169.8810 130.8230
L169.8810 133.3230
" />
<path d="M169.8810 130.8230
L174.4810 130.8230
" />
<path d="M174.4810 133.3230
L169.8810 133.3230
" />
<path d="M174.4810 133.3230
L174.4810 130.8230
" />
<path d="M171.6010 133.8430
L174.5610 133.8430
" />
<path d="M171.6010 135.3030
L171.6010 133.8430
" />
<path d="M174.5610 133.8430
L174.5610 135.3030
" />
<path d="M174.5610 135.3030
L171.6010 135.3030
" />
<path d="M74.5810 77.7530
L76.4810 77.7530
" />
<path d="M74.5810 81.4530
L74.5810 77.7530
" />
<path d="M76.4810 77.7530
L76.4810 81.4530
" />
<path d="M76.4810 81.4530
L74.5810 81.4530
" />
<path d="M249.3750 165.7330
L251.2750 165.7330
" />
<path d="M249.3750 169.4330
L249.3750 165.7330
" />
<path d="M251.2750 165.7330
L251.2750 169.4330
" />
<path d="M251.2750 169.4330
L249.3750 169.4330
" />
<path d="M237.9750 54.6080
L251.0750 54.6080
" />
<path d="M237.9750 64.1580
L237.9750 54.6080
" />
<path d="M251.0750 54.6080
L251.0750 64.1580
" />
<path d="M251.0750 64.1580
L237.9750 64.1580
" />
<path d="M226.4000 83.0330
L230.6500 83.0330
" />
<path d="M226.4000 86.5330
L226.4000 83.0330
" />
<path d="M230.6500 83.0330
L230.6500 86.5330
" />
<path d="M230.6500 86.5330
L226.4000 86.5330
" />
<path d="M269.6250 37.6030
L269.6250 44.3530
" />
<path d="M269.6250 44.3530
L278.0250 44.3530
" />
<path d="M278.0250 37.6030
L269.6250 37.6030
" />
<path d="M278.0250 44.3530
L278.0250 37.6030
" />
<path d="M173.4510 142.3930
L174.9110 142.3930
" />
<path d="M173.4510 145.3530
L173.4510 142.3930
" />
<path d="M174.9110 142.3930
L174.9110 145.3530
" />
<path d="M174.9110 145.3530
L173.4510 145.3530
" />
<path d="M253.3750 57.2630
L253.3750 61.1030
" />
<path d="M253.3750 61.1030
L256.7750 61.1030
" />
<path d="M256.7750 57.2630
L253.3750 57.2630
" />
<path d="M256.7750 61.1030
L256.7750 57.2630
" />
<path d="M90.5810 90.4280
L95.0810 90.4280
" />
<path d="M90.5810 97.7280
L90.5810 90.4280
" />
<path d="M95.0810 90.4280
L95.0810 97.7280
" />
<path d="M95.0810 97.7280
L90.5810 97.7280
" />
<circle cx="172.8110" cy="162.0180" r="1.2500" /> 
<path d="M183.5830 106.6638
L187.2830 106.6638
" />
<path d="M183.5830 108.5638
L183.5830 106.6638
" />
<path d="M187.2830 106.6638
L187.2830 108.5638
" />
<path d="M187.2830 108.5638
L183.5830 108.5638
" />
<path d="M265.9250 54.4330
L269.6250 54.4330
" />
<path d="M265.9250 56.3330
L265.9250 54.4330
" />
<path d="M269.6250 54.4330
L269.6250 56.3330
" />
<path d="M269.6250 56.3330
L265.9250 56.3330
" />
<path d="M283.3450 22.9855
L283.3450 36.3855
" />
<path d="M283.3450 36.3855
L290.0950 36.3855
" />
<path d="M290.0950 22.9855
L283.3450 22.9855
" />
<path d="M290.0950 36.3855
L290.0950 22.9855
" />
<path d="M91.0810 143.2980
L95.5810 143.2980
" />
<path d="M91.0810 150.5980
L91.0810 143.2980
" />
<path d="M95.5810 143.2980
L95.5810 150.5980
" />
<path d="M95.5810 150.5980
L91.0810 150.5980
" />
<path d="M261.8417 57.2630
L261.8417 61.1030
" />
<path d="M261.8417 61.1030
L265.2417 61.1030
" />
<path d="M265.2417 57.2630
L261.8417 57.2630
" />
<path d="M265.2417 61.1030
L265.2417 57.2630
" />
<circle cx="107.4810" cy="157.2230" r="1.2500" /> 
<path style="fill:none; 
stroke:#000000; stroke-width:0.0500; stroke-opacity:1; 
stroke-linecap:round; stroke-linejoin:round;fill:none"
d="M 229.8810,168.4065
228.1030,168.4065
228.1030,169.6765
224.5470,169.6765
224.5470,168.4065
222.7690,168.4065
222.7690,165.1045
229.8810,165.1045
Z" /> 
<path d="M175.1810 133.5930
L178.5810 133.5930
" />
<path d="M175.1810 135.5530
L175.1810 133.5930
" />
<path d="M178.5810 133.5930
L178.5810 135.5530
" />
<path d="M178.5810 135.5530
L175.1810 135.5530
" />
<circle cx="72.4810" cy="113.1230" r="1.2500" /> 
<path d="M97.0810 84.3730
L101.5810 84.3730
" />
<path d="M97.0810 91.6730
L97.0810 84.3730
" />
<path d="M101.5810 84.3730
L101.5810 91.6730
" />
<path d="M101.5810 91.6730
L97.0810 91.6730
" />
<path d="M110.7310 147.2730
L114.2310 147.2730
" />
<path d="M110.7310 154.2730
L110.7310 147.2730
" />
<path d="M114.2310 147.2730
L114.2310 154.2730
" />
<path d="M114.2310 154.2730
L110.7310 154.2730
" />
<path d="M97.0810 149.3730
L101.5810 149.3730
" />
<path d="M97.0810 156.6730
L97.0810 149.3730
" />
<path d="M101.5810 149.3730
L101.5810 156.6730
" />
<path d="M101.5810 156.6730
L97.0810 156.6730
" />
<path d="M63.2110 82.3230
L63.2110 89.3230
" />
<path d="M63.2110 89.3230
L74.3110 89.3230
" />
<path d="M74.3110 82.3230
L63.2110 82.3230
" />
<path d="M74.3110 89.3230
L74.3110 82.3230
" />
<path d="M167.4310 135.0230
L169.3310 135.0230
" />
<path d="M167.4310 138.7230
L167.4310 135.0230
" />
<path d="M169.3310 135.0230
L169.3310 138.7230
" />
<path d="M169.3310 138.7230
L167.4310 138.7230
" />
<path d="M206.9600 163.4880
L206.9600 170.3880
" />
<path d="M206.9600 170.3880
L212.4600 170.3880
" />
<path d="M212.4600 163.4880
L206.9600 163.4880
" />
<path d="M212.4600 170.3880
L212.4600 163.4880
" />
<circle cx="223.9250" cy="89.9830" r="1.5000" /> 
<path style="fill:none; 
stroke:#000000; stroke-width:0.0500; stroke-opacity:1; 
stroke-linecap:round; stroke-linejoin:round;fill:none"
d="M 293.2115,75.6251
294.7815,75.6251
294.7815,84.6651
293.2115,84.6651
293.2115,91.6851
240.9115,91.6851
240.9115,68.6051
293.2115,68.6051
Z" /> 
<path d="M192.2110 116.8730
L193.1510 116.8730
" />
<path d="M192.2110 119.0730
L192.2110 116.8730
" />
<path d="M193.1510 116.8730
L193.1510 119.0730
" />
<path d="M193.1510 119.0730
L192.2110 119.0730
" />
<path d="M195.5300 73.1180
L216.8800 73.1180
" />
<path d="M195.5300 76.6680
L195.5300 73.1180
" />
<path d="M216.8800 73.1180
L216.8800 76.6680
" />
<path d="M216.8800 76.6680
L195.5300 76.6680
" />
<path d="M253.2250 62.2330
L256.9250 62.2330
" />
<path d="M253.2250 64.1330
L253.2250 62.2330
" />
<path d="M256.9250 62.2330
L256.9250 64.1330
" />
<path d="M256.9250 64.1330
L253.2250 64.1330
" />
<circle cx="270.3250" cy="48.5830" r="1.2500" /> 
<path d="M68.8810 77.6930
L70.7810 77.6930
" />
<path d="M68.8810 81.3930
L68.8810 77.6930
" />
<path d="M70.7810 77.6930
L70.7810 81.3930
" />
<path d="M70.7810 81.3930
L68.8810 81.3930
" />
<path d="M195.5300 67.5360
L216.8800 67.5360
" />
<path d="M195.5300 71.0860
L195.5300 67.5360
" />
<path d="M216.8800 67.5360
L216.8800 71.0860
" />
<path d="M216.8800 71.0860
L195.5300 71.0860
" />
<path d="M232.8750 69.3330
L232.8750 71.8330
" />
<path d="M232.8750 69.3330
L236.1750 69.3330
" />
<path d="M236.1750 71.8330
L232.8750 71.8330
" />
<path d="M236.1750 71.8330
L236.1750 69.3330
" />
<path d="M173.1010 104.5430
L176.0610 104.5430
" />
<path d="M173.1010 106.0030
L173.1010 104.5430
" />
<path d="M176.0610 104.5430
L176.0610 106.0030
" />
<path d="M176.0610 106.0030
L173.1010 106.0030
" />
<path d="M58.9810 75.6230
L67.9810 75.6230
" />
<path d="M58.9810 79.1230
L58.9810 75.6230
" />
<path d="M67.9810 75.6230
L67.9810 79.1230
" />
<path d="M67.9810 79.1230
L58.9810 79.1230
" />
<circle cx="193.0810" cy="138.7730" r="1.2500" /> 
<path d="M245.6750 169.8330
L245.6750 166.5330
" />
<path d="M245.6750 169.8330
L248.1750 169.8330
" />
<path d="M248.1750 166.5330
L245.6750 166.5330
" />
<path d="M248.1750 166.5330
L248.1750 169.8330
" />
<path d="M222.0450 84.8030
L225.8050 84.8030
" />
<path d="M222.0450 86.7630
L222.0450 84.8030
" />
<path d="M225.8050 84.8030
L225.8050 86.7630
" />
<path d="M225.8050 86.7630
L222.0450 86.7630
" />
</g>
<g style="fill:none; 
stroke:#000000; stroke-width:0.1000; stroke-opacity:1; 
stroke-linecap:round; stroke-linejoin:round;">
<path d="M172.3060 135.9230
L178.6560 135.9230
" />
<path d="M172.3060 142.0230
L172.3060 135.9230
" />
<path d="M178.6560 135.9230
L178.6560 142.0230
" />
<path d="M178.6560 142.0230
L172.3060 142.0230
" />
</g>
<g style="fill:none; 
stroke:#000000; stroke-width:0.0500; stroke-opacity:1; 
stroke-linecap:round; stroke-linejoin:round;">
<circle cx="281.4000" cy="24.4000" r="1.2500" /> 
<path d="M91.0810 122.9280
L95.5810 122.9280
" />
<path d="M91.0810 130.2280
L91.0810 122.9280
" />
<path d="M95.5810 122.9280
L95.5810 130.2280
" />
<path d="M95.5810 130.2280
L91.0810 130.2280
" />
<circle cx="290.6450" cy="53.3030" r="1.5000" /> 
<path d="M186.9810 130.0230
L191.5810 130.0230
" />
<path d="M186.9810 132.3230
L186.9810 130.0230
" />
<path d="M191.5810 130.0230
L191.5810 132.3230
" />
<path d="M191.5810 132.3230
L186.9810 132.3230
" />
<path d="M231.3250 165.0330
L231.3250 171.1830
" />
<path d="M231.3250 171.1830
L242.5250 171.1830
" />
<path d="M242.5250 165.0330
L231.3250 165.0330
" />
<path d="M242.5250 171.1830
L242.5250 165.0330
" />
<circle cx="264.3250" cy="127.5830" r="1.2500" /> 
<path d="M175.2810 144.7230
L179.8810 144.7230
" />
<path d="M175.2810 147.0230
L175.2810 144.7230
" />
<path d="M179.8810 144.7230
L179.8810 147.0230
" />
<path d="M179.8810 147.0230
L175.2810 147.0230
" />
<path d="M57.6610 80.8730
L61.5010 80.8730
" />
<path d="M57.6610 88.8730
L57.6610 80.8730
" />
<path d="M61.5010 80.8730
L61.5010 88.8730
" />
<path d="M61.5010 88.8730
L57.6610 88.8730
" />
<circle cx="275.3250" cy="95.5830" r="1.2500" /> 
<path d="M187.5330 102.2958
L187.5330 104.7958
" />
<path d="M187.5330 102.2958
L192.1330 102.2958
" />
<path d="M192.1330 104.7958
L187.5330 104.7958
" />
<path d="M192.1330 104.7958
L192.1330 102.2958
" />
<path d="M166.9885 144.4730
L166.9885 139.8730
" />
<path d="M166.9885 144.4730
L169.4885 144.4730
" />
<path d="M169.4885 139.8730
L166.9885 139.8730
" />
<path d="M169.4885 139.8730
L169.4885 144.4730
" />
<path d="M179.1342 87.0690
L193.6342 87.0690
" />
<path d="M179.1342 101.4690
L179.1342 87.0690
" />
<path d="M193.6342 87.0690
L193.6342 101.4690
" />
<path d="M193.6342 101.4690
L179.1342 101.4690
" />
<path d="M242.8750 169.8330
L242.8750 166.5330
" />
<path d="M242.8750 169.8330
L245.3750 169.8330
" />
<path d="M245.3750 166.5330
L242.8750 166.5330
" />
<path d="M245.3750 166.5330
L245.3750 169.8330
" />
<path d="M278.0650 51.6030
L278.0650 59.0030
" />
<path d="M278.0650 59.0030
L287.2250 59.0030
" />
<path d="M287.2250 51.6030
L278.0650 51.6030
" />
<path d="M287.2250 59.0030
L287.2250 51.6030
" />
<path d="M277.6950 60.4530
L279.5950 60.4530
" />
<path d="M277.6950 64.1530
L277.6950 60.4530
" />
<path d="M279.5950 60.4530
L279.5950 64.1530
" />
<path d="M279.5950 64.1530
L277.6950 64.1530
" />
<path d="M175.2810 142.3930
L178.6810 142.3930
" />
<path d="M175.2810 144.3530
L175.2810 142.3930
" />
<path d="M178.6810 142.3930
L178.6810 144.3530
" />
<path d="M178.6810 144.3530
L175.2810 144.3530
" />
<path d="M257.6083 57.2630
L257.6083 61.1030
" />
<path d="M257.6083 61.1030
L261.0083 61.1030
" />
<path d="M261.0083 57.2630
L257.6083 57.2630
" />
<path d="M261.0083 61.1030
L261.0083 57.2630
" />
<path d="M252.0750 107.6130
L255.7750 107.6130
" />
<path d="M252.0750 109.5130
L252.0750 107.6130
" />
<path d="M255.7750 107.6130
L255.7750 109.5130
" />
<path d="M255.7750 109.5130
L252.0750 109.5130
" />
<path d="M253.2250 54.4330
L256.9250 54.4330
" />
<path d="M253.2250 56.3330
L253.2250 54.4330
" />
<path d="M256.9250 54.4330
L256.9250 56.3330
" />
<path d="M256.9250 56.3330
L253.2250 56.3330
" />
<circle cx="290.6450" cy="57.3030" r="1.5000" /> 
<path d="M260.1750 169.7830
L260.1750 165.3830
" />
<path d="M262.4750 165.3830
L260.1750 165.3830
" />
<path d="M262.4750 165.3830
L262.4750 169.7830
" />
<path d="M262.4750 169.7830
L260.1750 169.7830
" />
<path d="M58.9810 71.8230
L67.9810 71.8230
" />
<path d="M58.9810 75.3230
L58.9810 71.8230
" />
<path d="M67.9810 71.8230
L67.9810 75.3230
" />
<path d="M67.9810 75.3230
L58.9810 75.3230
" />
<path d="M75.3310 68.8230
L84.3310 68.8230
" />
<path d="M75.3310 72.3230
L75.3310 68.8230
" />
<path d="M84.3310 68.8230
L84.3310 72.3230
" />
<path d="M84.3310 72.3230
L75.3310 72.3230
" />
<path d="M71.0310 77.6930
L71.0310 81.5330
" />
<path d="M71.0310 81.5330
L74.4310 81.5330
" />
<path d="M74.4310 77.6930
L71.0310 77.6930
" />
<path d="M74.4310 81.5330
L74.4310 77.6930
" />
<circle cx="223.3250" cy="77.5830" r="1.2500" /> 
<path d="M271.6950 60.4530
L273.5950 60.4530
" />
<path d="M271.6950 64.1530
L271.6950 60.4530
" />
<path d="M273.5950 60.4530
L273.5950 64.1530
" />
<path d="M273.5950 64.1530
L271.6950 64.1530
" />
<path d="M37.1750 155.0330
L37.1750 62.9580
" />
<path d="M242.9150 36.2880
L238.4700 40.7330
" />
<path d="M53.6850 156.9380
L54.9550 158.2080
" />
<path d="M197.8300 55.3380
L192.1150 61.0530
" />
<path d="M271.3250 159.5830
L271.3250 105.5830
" />
<path d="M39.0800 156.9380
L53.6850 156.9380
" />
<path d="M39.0800 61.0530
L192.1150 61.0530
" />
<path d="M271.3250 105.5830
L272.3250 104.5830
" />
<path d="M294.3250 161.5830
L293.3250 160.5830
" />
<path d="M272.3250 160.5830
L271.3250 159.5830
" />
<path d="M221.3250 40.7330
L218.7850 43.2730
" />
</g>
<g style="fill:none; 
stroke:#000000; stroke-width:0.1000; stroke-opacity:1; 
stroke-linecap:round; stroke-linejoin:round;">
<circle cx="238.4250" cy="132.7830" r="13.0000" /> 
</g>
<g style="fill:none; 
stroke:#000000; stroke-width:0.0500; stroke-opacity:1; 
stroke-linecap:round; stroke-linejoin:round;">
<path d="M292.3250 3.5830
L294.3250 5.5830
" />
<path d="M78.4500 165.8280
L82.8950 170.2730
" />
<path d="M37.1750 155.0330
L39.0800 156.9380
" />
<path d="M292.3250 173.5830
L200.1160 173.5115
" />
<path d="M245.4550 36.2880
L242.9150 36.2880
" />
<path d="M54.9550 158.2080
L54.9550 159.4780
" />
<path d="M247.4000 34.2000
L245.4550 36.2880
" />
<path d="M293.3250 104.5830
L294.3250 103.5830
" />
<path d="M292.3250 3.5830
L263.9000 3.5830
" />
<path d="M196.1790 170.2730
L82.8950 170.2730
" />
<path d="M294.3250 103.5830
L294.3250 5.5830
" />
<path d="M61.3050 165.8280
L78.4500 165.8280
" />
<path d="M54.9550 159.4780
L61.3050 165.8280
" />
<path d="M216.2450 54.0680
L214.9750 55.3380
" />
<path d="M261.6000 5.6830
L261.6000 18.0000
" />
<path d="M261.6000 18.0000
L259.6000 20.0000
" />
<path d="M263.9000 3.5830
L261.6000 5.6830
" />
<path d="M238.4700 40.7330
L221.3250 40.7330
" />
<path d="M249.0000 20.0000
L259.6000 20.0000
" />
<path d="M272.3250 104.5830
L293.3250 104.5830
" />
<path d="M39.0800 61.0530
L37.1750 62.9580
" />
<path d="M292.3250 173.5830
L294.3250 171.5830
" />
<path d="M249.0000 20.0000
L247.4000 21.6000
" />
<path d="M247.4000 21.6000
L247.4000 34.2000
" />
<path d="M196.1790 170.2730
L200.1160 173.5115
" />
<path d="M214.9750 55.3380
L197.8300 55.3380
" />
<path d="M216.2450 48.3530
L216.2450 54.0680
" />
<path d="M293.3250 160.5830
L272.3250 160.5830
" />
<path d="M218.7850 43.2730
L218.7850 45.8130
" />
<path d="M218.7850 45.8130
L216.2450 48.3530
" />
<path d="M294.3250 171.5830
L294.3250 161.5830
" />
</g> 
</svg>
