<?xml version="1.0" standalone="no"?>
 <!DOCTYPE svg PUBLIC "-//W3C//DTD SVG 1.1//EN" 
 "http://www.w3.org/Graphics/SVG/1.1/DTD/svg11.dtd"> 
<svg
  xmlns:svg="http://www.w3.org/2000/svg"
  xmlns="http://www.w3.org/2000/svg"
  xmlns:xlink="http://www.w3.org/1999/xlink"
  version="1.1"
  width="297.0022mm" height="210.0072mm" viewBox="0.0000 0.0000 297.0022 210.0072">
<title>SVG Image created as OpenMowerMainboard-RobotConnectors-LevelShifter8.svg date 2024/07/23 19:13:43 </title>
  <desc>Image generated by Eeschema-SVG </desc>
<g style="fill:#000000; fill-opacity:1.0000;stroke:#000000; stroke-opacity:1.0000;
stroke-linecap:round; stroke-linejoin:round;"
 transform="translate(0 0) scale(1 1)">
</g>
<g style="fill:none; 
stroke:#000000; stroke-width:0.1524; stroke-opacity:1; 
stroke-linecap:round; stroke-linejoin:round;">
<path d="M177.0022 166.0072
L285.0022 166.0072
L285.0022 198.0072
L177.0022 198.0072
L177.0022 166.0072
" />
<path d="M10.0000 10.0000
L287.0022 10.0000
L287.0022 200.0072
L10.0000 200.0072
L10.0000 10.0000
" />
<path d="M12.0000 12.0000
L285.0022 12.0000
L285.0022 198.0072
L12.0000 198.0072
L12.0000 12.0000
" />
<path d="M60.0000 12.0000
L60.0000 10.0000
" />
<path d="M110.0000 12.0000
L110.0000 10.0000
" />
<path d="M160.0000 12.0000
L160.0000 10.0000
" />
<path d="M210.0000 12.0000
L210.0000 10.0000
" />
<path d="M260.0000 12.0000
L260.0000 10.0000
" />
<text x="35.0000" y="11.6500"
textLength="1.4353" font-size="1.7333" lengthAdjust="spacingAndGlyphs"
text-anchor="start" opacity="0">1</text>
<g class="stroked-text"><desc>1</desc>
<path d="M36.0906 11.5935
L35.3478 11.5935
" />
<path d="M35.7192 11.5935
L35.7192 10.2935
" />
<path d="M35.7192 10.2935
L35.5954 10.4792
" />
<path d="M35.5954 10.4792
L35.4716 10.6030
" />
<path d="M35.4716 10.6030
L35.3478 10.6649
" />
</g><text x="85.0000" y="11.6500"
textLength="1.4353" font-size="1.7333" lengthAdjust="spacingAndGlyphs"
text-anchor="start" opacity="0">2</text>
<g class="stroked-text"><desc>2</desc>
<path d="M85.3478 10.4173
L85.4097 10.3554
" />
<path d="M85.4097 10.3554
L85.5335 10.2935
" />
<path d="M85.5335 10.2935
L85.8430 10.2935
" />
<path d="M85.8430 10.2935
L85.9668 10.3554
" />
<path d="M85.9668 10.3554
L86.0287 10.4173
" />
<path d="M86.0287 10.4173
L86.0906 10.5411
" />
<path d="M86.0906 10.5411
L86.0906 10.6649
" />
<path d="M86.0906 10.6649
L86.0287 10.8506
" />
<path d="M86.0287 10.8506
L85.2859 11.5935
" />
<path d="M85.2859 11.5935
L86.0906 11.5935
" />
</g><text x="135.0000" y="11.6500"
textLength="1.4353" font-size="1.7333" lengthAdjust="spacingAndGlyphs"
text-anchor="start" opacity="0">3</text>
<g class="stroked-text"><desc>3</desc>
<path d="M135.2859 10.2935
L136.0906 10.2935
" />
<path d="M136.0906 10.2935
L135.6573 10.7887
" />
<path d="M135.6573 10.7887
L135.8430 10.7887
" />
<path d="M135.8430 10.7887
L135.9668 10.8506
" />
<path d="M135.9668 10.8506
L136.0287 10.9125
" />
<path d="M136.0287 10.9125
L136.0906 11.0363
" />
<path d="M136.0906 11.0363
L136.0906 11.3458
" />
<path d="M136.0906 11.3458
L136.0287 11.4696
" />
<path d="M136.0287 11.4696
L135.9668 11.5316
" />
<path d="M135.9668 11.5316
L135.8430 11.5935
" />
<path d="M135.8430 11.5935
L135.4716 11.5935
" />
<path d="M135.4716 11.5935
L135.3478 11.5316
" />
<path d="M135.3478 11.5316
L135.2859 11.4696
" />
</g><text x="185.0000" y="11.6500"
textLength="1.4353" font-size="1.7333" lengthAdjust="spacingAndGlyphs"
text-anchor="start" opacity="0">4</text>
<g class="stroked-text"><desc>4</desc>
<path d="M185.9668 10.7268
L185.9668 11.5935
" />
<path d="M185.6573 10.2316
L185.3478 11.1601
" />
<path d="M185.3478 11.1601
L186.1525 11.1601
" />
</g><text x="235.0000" y="11.6500"
textLength="1.4353" font-size="1.7333" lengthAdjust="spacingAndGlyphs"
text-anchor="start" opacity="0">5</text>
<g class="stroked-text"><desc>5</desc>
<path d="M236.0287 10.2935
L235.4097 10.2935
" />
<path d="M235.4097 10.2935
L235.3478 10.9125
" />
<path d="M235.3478 10.9125
L235.4097 10.8506
" />
<path d="M235.4097 10.8506
L235.5335 10.7887
" />
<path d="M235.5335 10.7887
L235.8430 10.7887
" />
<path d="M235.8430 10.7887
L235.9668 10.8506
" />
<path d="M235.9668 10.8506
L236.0287 10.9125
" />
<path d="M236.0287 10.9125
L236.0906 11.0363
" />
<path d="M236.0906 11.0363
L236.0906 11.3458
" />
<path d="M236.0906 11.3458
L236.0287 11.4696
" />
<path d="M236.0287 11.4696
L235.9668 11.5316
" />
<path d="M235.9668 11.5316
L235.8430 11.5935
" />
<path d="M235.8430 11.5935
L235.5335 11.5935
" />
<path d="M235.5335 11.5935
L235.4097 11.5316
" />
<path d="M235.4097 11.5316
L235.3478 11.4696
" />
</g><text x="285.0000" y="11.6500"
textLength="1.4353" font-size="1.7333" lengthAdjust="spacingAndGlyphs"
text-anchor="start" opacity="0">6</text>
<g class="stroked-text"><desc>6</desc>
<path d="M285.9668 10.2935
L285.7192 10.2935
" />
<path d="M285.7192 10.2935
L285.5954 10.3554
" />
<path d="M285.5954 10.3554
L285.5335 10.4173
" />
<path d="M285.5335 10.4173
L285.4097 10.6030
" />
<path d="M285.4097 10.6030
L285.3478 10.8506
" />
<path d="M285.3478 10.8506
L285.3478 11.3458
" />
<path d="M285.3478 11.3458
L285.4097 11.4696
" />
<path d="M285.4097 11.4696
L285.4716 11.5316
" />
<path d="M285.4716 11.5316
L285.5954 11.5935
" />
<path d="M285.5954 11.5935
L285.8430 11.5935
" />
<path d="M285.8430 11.5935
L285.9668 11.5316
" />
<path d="M285.9668 11.5316
L286.0287 11.4696
" />
<path d="M286.0287 11.4696
L286.0906 11.3458
" />
<path d="M286.0906 11.3458
L286.0906 11.0363
" />
<path d="M286.0906 11.0363
L286.0287 10.9125
" />
<path d="M286.0287 10.9125
L285.9668 10.8506
" />
<path d="M285.9668 10.8506
L285.8430 10.7887
" />
<path d="M285.8430 10.7887
L285.5954 10.7887
" />
<path d="M285.5954 10.7887
L285.4716 10.8506
" />
<path d="M285.4716 10.8506
L285.4097 10.9125
" />
<path d="M285.4097 10.9125
L285.3478 11.0363
" />
</g><path d="M60.0000 198.0072
L60.0000 200.0072
" />
<path d="M110.0000 198.0072
L110.0000 200.0072
" />
<path d="M160.0000 198.0072
L160.0000 200.0072
" />
<path d="M210.0000 198.0072
L210.0000 200.0072
" />
<path d="M260.0000 198.0072
L260.0000 200.0072
" />
<text x="35.0000" y="199.6572"
textLength="1.4353" font-size="1.7333" lengthAdjust="spacingAndGlyphs"
text-anchor="start" opacity="0">1</text>
<g class="stroked-text"><desc>1</desc>
<path d="M36.0906 199.6007
L35.3478 199.6007
" />
<path d="M35.7192 199.6007
L35.7192 198.3007
" />
<path d="M35.7192 198.3007
L35.5954 198.4864
" />
<path d="M35.5954 198.4864
L35.4716 198.6102
" />
<path d="M35.4716 198.6102
L35.3478 198.6721
" />
</g><text x="85.0000" y="199.6572"
textLength="1.4353" font-size="1.7333" lengthAdjust="spacingAndGlyphs"
text-anchor="start" opacity="0">2</text>
<g class="stroked-text"><desc>2</desc>
<path d="M85.3478 198.4245
L85.4097 198.3626
" />
<path d="M85.4097 198.3626
L85.5335 198.3007
" />
<path d="M85.5335 198.3007
L85.8430 198.3007
" />
<path d="M85.8430 198.3007
L85.9668 198.3626
" />
<path d="M85.9668 198.3626
L86.0287 198.4245
" />
<path d="M86.0287 198.4245
L86.0906 198.5483
" />
<path d="M86.0906 198.5483
L86.0906 198.6721
" />
<path d="M86.0906 198.6721
L86.0287 198.8578
" />
<path d="M86.0287 198.8578
L85.2859 199.6007
" />
<path d="M85.2859 199.6007
L86.0906 199.6007
" />
</g><text x="135.0000" y="199.6572"
textLength="1.4353" font-size="1.7333" lengthAdjust="spacingAndGlyphs"
text-anchor="start" opacity="0">3</text>
<g class="stroked-text"><desc>3</desc>
<path d="M135.2859 198.3007
L136.0906 198.3007
" />
<path d="M136.0906 198.3007
L135.6573 198.7959
" />
<path d="M135.6573 198.7959
L135.8430 198.7959
" />
<path d="M135.8430 198.7959
L135.9668 198.8578
" />
<path d="M135.9668 198.8578
L136.0287 198.9197
" />
<path d="M136.0287 198.9197
L136.0906 199.0435
" />
<path d="M136.0906 199.0435
L136.0906 199.3530
" />
<path d="M136.0906 199.3530
L136.0287 199.4768
" />
<path d="M136.0287 199.4768
L135.9668 199.5388
" />
<path d="M135.9668 199.5388
L135.8430 199.6007
" />
<path d="M135.8430 199.6007
L135.4716 199.6007
" />
<path d="M135.4716 199.6007
L135.3478 199.5388
" />
<path d="M135.3478 199.5388
L135.2859 199.4768
" />
</g><text x="185.0000" y="199.6572"
textLength="1.4353" font-size="1.7333" lengthAdjust="spacingAndGlyphs"
text-anchor="start" opacity="0">4</text>
<g class="stroked-text"><desc>4</desc>
<path d="M185.9668 198.7340
L185.9668 199.6007
" />
<path d="M185.6573 198.2388
L185.3478 199.1673
" />
<path d="M185.3478 199.1673
L186.1525 199.1673
" />
</g><text x="235.0000" y="199.6572"
textLength="1.4353" font-size="1.7333" lengthAdjust="spacingAndGlyphs"
text-anchor="start" opacity="0">5</text>
<g class="stroked-text"><desc>5</desc>
<path d="M236.0287 198.3007
L235.4097 198.3007
" />
<path d="M235.4097 198.3007
L235.3478 198.9197
" />
<path d="M235.3478 198.9197
L235.4097 198.8578
" />
<path d="M235.4097 198.8578
L235.5335 198.7959
" />
<path d="M235.5335 198.7959
L235.8430 198.7959
" />
<path d="M235.8430 198.7959
L235.9668 198.8578
" />
<path d="M235.9668 198.8578
L236.0287 198.9197
" />
<path d="M236.0287 198.9197
L236.0906 199.0435
" />
<path d="M236.0906 199.0435
L236.0906 199.3530
" />
<path d="M236.0906 199.3530
L236.0287 199.4768
" />
<path d="M236.0287 199.4768
L235.9668 199.5388
" />
<path d="M235.9668 199.5388
L235.8430 199.6007
" />
<path d="M235.8430 199.6007
L235.5335 199.6007
" />
<path d="M235.5335 199.6007
L235.4097 199.5388
" />
<path d="M235.4097 199.5388
L235.3478 199.4768
" />
</g><text x="285.0000" y="199.6572"
textLength="1.4353" font-size="1.7333" lengthAdjust="spacingAndGlyphs"
text-anchor="start" opacity="0">6</text>
<g class="stroked-text"><desc>6</desc>
<path d="M285.9668 198.3007
L285.7192 198.3007
" />
<path d="M285.7192 198.3007
L285.5954 198.3626
" />
<path d="M285.5954 198.3626
L285.5335 198.4245
" />
<path d="M285.5335 198.4245
L285.4097 198.6102
" />
<path d="M285.4097 198.6102
L285.3478 198.8578
" />
<path d="M285.3478 198.8578
L285.3478 199.3530
" />
<path d="M285.3478 199.3530
L285.4097 199.4768
" />
<path d="M285.4097 199.4768
L285.4716 199.5388
" />
<path d="M285.4716 199.5388
L285.5954 199.6007
" />
<path d="M285.5954 199.6007
L285.8430 199.6007
" />
<path d="M285.8430 199.6007
L285.9668 199.5388
" />
<path d="M285.9668 199.5388
L286.0287 199.4768
" />
<path d="M286.0287 199.4768
L286.0906 199.3530
" />
<path d="M286.0906 199.3530
L286.0906 199.0435
" />
<path d="M286.0906 199.0435
L286.0287 198.9197
" />
<path d="M286.0287 198.9197
L285.9668 198.8578
" />
<path d="M285.9668 198.8578
L285.8430 198.7959
" />
<path d="M285.8430 198.7959
L285.5954 198.7959
" />
<path d="M285.5954 198.7959
L285.4716 198.8578
" />
<path d="M285.4716 198.8578
L285.4097 198.9197
" />
<path d="M285.4097 198.9197
L285.3478 199.0435
" />
</g><path d="M10.0000 60.0000
L12.0000 60.0000
" />
<path d="M10.0000 110.0000
L12.0000 110.0000
" />
<path d="M10.0000 160.0000
L12.0000 160.0000
" />
<text x="11.0000" y="35.6500"
textLength="1.3115" font-size="1.7333" lengthAdjust="spacingAndGlyphs"
text-anchor="middle" opacity="0">A</text>
<g class="stroked-text"><desc>A</desc>
<path d="M10.6905 35.2220
L11.3095 35.2220
" />
<path d="M10.5667 35.5935
L11.0000 34.2935
" />
<path d="M11.0000 34.2935
L11.4333 35.5935
" />
</g><text x="11.0000" y="85.6500"
textLength="1.4972" font-size="1.7333" lengthAdjust="spacingAndGlyphs"
text-anchor="middle" opacity="0">B</text>
<g class="stroked-text"><desc>B</desc>
<path d="M11.0928 84.9125
L11.2785 84.9744
" />
<path d="M11.2785 84.9744
L11.3404 85.0363
" />
<path d="M11.3404 85.0363
L11.4023 85.1601
" />
<path d="M11.4023 85.1601
L11.4023 85.3458
" />
<path d="M11.4023 85.3458
L11.3404 85.4696
" />
<path d="M11.3404 85.4696
L11.2785 85.5316
" />
<path d="M11.2785 85.5316
L11.1547 85.5935
" />
<path d="M11.1547 85.5935
L10.6595 85.5935
" />
<path d="M10.6595 85.5935
L10.6595 84.2935
" />
<path d="M10.6595 84.2935
L11.0928 84.2935
" />
<path d="M11.0928 84.2935
L11.2166 84.3554
" />
<path d="M11.2166 84.3554
L11.2785 84.4173
" />
<path d="M11.2785 84.4173
L11.3404 84.5411
" />
<path d="M11.3404 84.5411
L11.3404 84.6649
" />
<path d="M11.3404 84.6649
L11.2785 84.7887
" />
<path d="M11.2785 84.7887
L11.2166 84.8506
" />
<path d="M11.2166 84.8506
L11.0928 84.9125
" />
<path d="M11.0928 84.9125
L10.6595 84.9125
" />
</g><text x="11.0000" y="135.6500"
textLength="1.4972" font-size="1.7333" lengthAdjust="spacingAndGlyphs"
text-anchor="middle" opacity="0">C</text>
<g class="stroked-text"><desc>C</desc>
<path d="M11.4023 135.4696
L11.3404 135.5316
" />
<path d="M11.3404 135.5316
L11.1547 135.5935
" />
<path d="M11.1547 135.5935
L11.0309 135.5935
" />
<path d="M11.0309 135.5935
L10.8452 135.5316
" />
<path d="M10.8452 135.5316
L10.7214 135.4077
" />
<path d="M10.7214 135.4077
L10.6595 135.2839
" />
<path d="M10.6595 135.2839
L10.5976 135.0363
" />
<path d="M10.5976 135.0363
L10.5976 134.8506
" />
<path d="M10.5976 134.8506
L10.6595 134.6030
" />
<path d="M10.6595 134.6030
L10.7214 134.4792
" />
<path d="M10.7214 134.4792
L10.8452 134.3554
" />
<path d="M10.8452 134.3554
L11.0309 134.2935
" />
<path d="M11.0309 134.2935
L11.1547 134.2935
" />
<path d="M11.1547 134.2935
L11.3404 134.3554
" />
<path d="M11.3404 134.3554
L11.4023 134.4173
" />
</g><text x="11.0000" y="185.6500"
textLength="1.4972" font-size="1.7333" lengthAdjust="spacingAndGlyphs"
text-anchor="middle" opacity="0">D</text>
<g class="stroked-text"><desc>D</desc>
<path d="M10.6595 185.5935
L10.6595 184.2935
" />
<path d="M10.6595 184.2935
L10.9690 184.2935
" />
<path d="M10.9690 184.2935
L11.1547 184.3554
" />
<path d="M11.1547 184.3554
L11.2785 184.4792
" />
<path d="M11.2785 184.4792
L11.3404 184.6030
" />
<path d="M11.3404 184.6030
L11.4023 184.8506
" />
<path d="M11.4023 184.8506
L11.4023 185.0363
" />
<path d="M11.4023 185.0363
L11.3404 185.2839
" />
<path d="M11.3404 185.2839
L11.2785 185.4077
" />
<path d="M11.2785 185.4077
L11.1547 185.5316
" />
<path d="M11.1547 185.5316
L10.9690 185.5935
" />
<path d="M10.9690 185.5935
L10.6595 185.5935
" />
</g><path d="M287.0022 60.0000
L285.0022 60.0000
" />
<path d="M287.0022 110.0000
L285.0022 110.0000
" />
<path d="M287.0022 160.0000
L285.0022 160.0000
" />
<text x="286.0022" y="35.6500"
textLength="1.3115" font-size="1.7333" lengthAdjust="spacingAndGlyphs"
text-anchor="middle" opacity="0">A</text>
<g class="stroked-text"><desc>A</desc>
<path d="M285.6927 35.2220
L286.3117 35.2220
" />
<path d="M285.5689 35.5935
L286.0022 34.2935
" />
<path d="M286.0022 34.2935
L286.4355 35.5935
" />
</g><text x="286.0022" y="85.6500"
textLength="1.4972" font-size="1.7333" lengthAdjust="spacingAndGlyphs"
text-anchor="middle" opacity="0">B</text>
<g class="stroked-text"><desc>B</desc>
<path d="M286.0950 84.9125
L286.2807 84.9744
" />
<path d="M286.2807 84.9744
L286.3426 85.0363
" />
<path d="M286.3426 85.0363
L286.4045 85.1601
" />
<path d="M286.4045 85.1601
L286.4045 85.3458
" />
<path d="M286.4045 85.3458
L286.3426 85.4696
" />
<path d="M286.3426 85.4696
L286.2807 85.5316
" />
<path d="M286.2807 85.5316
L286.1569 85.5935
" />
<path d="M286.1569 85.5935
L285.6617 85.5935
" />
<path d="M285.6617 85.5935
L285.6617 84.2935
" />
<path d="M285.6617 84.2935
L286.0950 84.2935
" />
<path d="M286.0950 84.2935
L286.2188 84.3554
" />
<path d="M286.2188 84.3554
L286.2807 84.4173
" />
<path d="M286.2807 84.4173
L286.3426 84.5411
" />
<path d="M286.3426 84.5411
L286.3426 84.6649
" />
<path d="M286.3426 84.6649
L286.2807 84.7887
" />
<path d="M286.2807 84.7887
L286.2188 84.8506
" />
<path d="M286.2188 84.8506
L286.0950 84.9125
" />
<path d="M286.0950 84.9125
L285.6617 84.9125
" />
</g><text x="286.0022" y="135.6500"
textLength="1.4972" font-size="1.7333" lengthAdjust="spacingAndGlyphs"
text-anchor="middle" opacity="0">C</text>
<g class="stroked-text"><desc>C</desc>
<path d="M286.4045 135.4696
L286.3426 135.5316
" />
<path d="M286.3426 135.5316
L286.1569 135.5935
" />
<path d="M286.1569 135.5935
L286.0331 135.5935
" />
<path d="M286.0331 135.5935
L285.8474 135.5316
" />
<path d="M285.8474 135.5316
L285.7236 135.4077
" />
<path d="M285.7236 135.4077
L285.6617 135.2839
" />
<path d="M285.6617 135.2839
L285.5998 135.0363
" />
<path d="M285.5998 135.0363
L285.5998 134.8506
" />
<path d="M285.5998 134.8506
L285.6617 134.6030
" />
<path d="M285.6617 134.6030
L285.7236 134.4792
" />
<path d="M285.7236 134.4792
L285.8474 134.3554
" />
<path d="M285.8474 134.3554
L286.0331 134.2935
" />
<path d="M286.0331 134.2935
L286.1569 134.2935
" />
<path d="M286.1569 134.2935
L286.3426 134.3554
" />
<path d="M286.3426 134.3554
L286.4045 134.4173
" />
</g><text x="286.0022" y="185.6500"
textLength="1.4972" font-size="1.7333" lengthAdjust="spacingAndGlyphs"
text-anchor="middle" opacity="0">D</text>
<g class="stroked-text"><desc>D</desc>
<path d="M285.6617 185.5935
L285.6617 184.2935
" />
<path d="M285.6617 184.2935
L285.9712 184.2935
" />
<path d="M285.9712 184.2935
L286.1569 184.3554
" />
<path d="M286.1569 184.3554
L286.2807 184.4792
" />
<path d="M286.2807 184.4792
L286.3426 184.6030
" />
<path d="M286.3426 184.6030
L286.4045 184.8506
" />
<path d="M286.4045 184.8506
L286.4045 185.0363
" />
<path d="M286.4045 185.0363
L286.3426 185.2839
" />
<path d="M286.3426 185.2839
L286.2807 185.4077
" />
<path d="M286.2807 185.4077
L286.1569 185.5316
" />
<path d="M286.1569 185.5316
L285.9712 185.5935
" />
<path d="M285.9712 185.5935
L285.6617 185.5935
" />
</g><text x="200.0022" y="193.8572"
textLength="7.0143" font-size="2.0000" lengthAdjust="spacingAndGlyphs"
text-anchor="start" opacity="0">Date: </text>
<g class="stroked-text"><desc>Date: </desc>
<path d="M200.4595 193.7931
L200.4595 192.2931
" />
<path d="M200.4595 192.2931
L200.8166 192.2931
" />
<path d="M200.8166 192.2931
L201.0309 192.3645
" />
<path d="M201.0309 192.3645
L201.1738 192.5074
" />
<path d="M201.1738 192.5074
L201.2452 192.6502
" />
<path d="M201.2452 192.6502
L201.3166 192.9359
" />
<path d="M201.3166 192.9359
L201.3166 193.1502
" />
<path d="M201.3166 193.1502
L201.2452 193.4359
" />
<path d="M201.2452 193.4359
L201.1738 193.5788
" />
<path d="M201.1738 193.5788
L201.0309 193.7217
" />
<path d="M201.0309 193.7217
L200.8166 193.7931
" />
<path d="M200.8166 193.7931
L200.4595 193.7931
" />
<path d="M202.6024 193.7931
L202.6024 193.0074
" />
<path d="M202.6024 193.0074
L202.5309 192.8645
" />
<path d="M202.5309 192.8645
L202.3881 192.7931
" />
<path d="M202.3881 192.7931
L202.1024 192.7931
" />
<path d="M202.1024 192.7931
L201.9595 192.8645
" />
<path d="M202.6024 193.7217
L202.4595 193.7931
" />
<path d="M202.4595 193.7931
L202.1024 193.7931
" />
<path d="M202.1024 193.7931
L201.9595 193.7217
" />
<path d="M201.9595 193.7217
L201.8881 193.5788
" />
<path d="M201.8881 193.5788
L201.8881 193.4359
" />
<path d="M201.8881 193.4359
L201.9595 193.2931
" />
<path d="M201.9595 193.2931
L202.1024 193.2217
" />
<path d="M202.1024 193.2217
L202.4595 193.2217
" />
<path d="M202.4595 193.2217
L202.6024 193.1502
" />
<path d="M203.1023 192.7931
L203.6737 192.7931
" />
<path d="M203.3166 192.2931
L203.3166 193.5788
" />
<path d="M203.3166 193.5788
L203.3880 193.7217
" />
<path d="M203.3880 193.7217
L203.5309 193.7931
" />
<path d="M203.5309 193.7931
L203.6737 193.7931
" />
<path d="M204.7451 193.7217
L204.6023 193.7931
" />
<path d="M204.6023 193.7931
L204.3166 193.7931
" />
<path d="M204.3166 193.7931
L204.1737 193.7217
" />
<path d="M204.1737 193.7217
L204.1023 193.5788
" />
<path d="M204.1023 193.5788
L204.1023 193.0074
" />
<path d="M204.1023 193.0074
L204.1737 192.8645
" />
<path d="M204.1737 192.8645
L204.3166 192.7931
" />
<path d="M204.3166 192.7931
L204.6023 192.7931
" />
<path d="M204.6023 192.7931
L204.7451 192.8645
" />
<path d="M204.7451 192.8645
L204.8166 193.0074
" />
<path d="M204.8166 193.0074
L204.8166 193.1502
" />
<path d="M204.8166 193.1502
L204.1023 193.2931
" />
<path d="M205.4594 193.6502
L205.5308 193.7217
" />
<path d="M205.5308 193.7217
L205.4594 193.7931
" />
<path d="M205.4594 193.7931
L205.3880 193.7217
" />
<path d="M205.3880 193.7217
L205.4594 193.6502
" />
<path d="M205.4594 193.6502
L205.4594 193.7931
" />
<path d="M205.4594 192.8645
L205.5308 192.9359
" />
<path d="M205.5308 192.9359
L205.4594 193.0074
" />
<path d="M205.4594 193.0074
L205.3880 192.9359
" />
<path d="M205.3880 192.9359
L205.4594 192.8645
" />
<path d="M205.4594 192.8645
L205.4594 193.0074
" />
</g><path d="M177.0022 194.5072
L285.0022 194.5072
" />
<text x="178.0022" y="196.6572"
textLength="20.8716" font-size="2.0000" lengthAdjust="spacingAndGlyphs"
text-anchor="start" opacity="0">KiCad E.D.A. 8.0.3</text>
<g class="stroked-text"><desc>KiCad E.D.A. 8.0.3</desc>
<path d="M178.4595 196.5931
L178.4595 195.0931
" />
<path d="M179.3166 196.5931
L178.6738 195.7359
" />
<path d="M179.3166 195.0931
L178.4595 195.9502
" />
<path d="M179.9595 196.5931
L179.9595 195.5931
" />
<path d="M179.9595 195.0931
L179.8881 195.1645
" />
<path d="M179.8881 195.1645
L179.9595 195.2359
" />
<path d="M179.9595 195.2359
L180.0309 195.1645
" />
<path d="M180.0309 195.1645
L179.9595 195.0931
" />
<path d="M179.9595 195.0931
L179.9595 195.2359
" />
<path d="M181.5309 196.4502
L181.4595 196.5217
" />
<path d="M181.4595 196.5217
L181.2452 196.5931
" />
<path d="M181.2452 196.5931
L181.1024 196.5931
" />
<path d="M181.1024 196.5931
L180.8881 196.5217
" />
<path d="M180.8881 196.5217
L180.7452 196.3788
" />
<path d="M180.7452 196.3788
L180.6738 196.2359
" />
<path d="M180.6738 196.2359
L180.6024 195.9502
" />
<path d="M180.6024 195.9502
L180.6024 195.7359
" />
<path d="M180.6024 195.7359
L180.6738 195.4502
" />
<path d="M180.6738 195.4502
L180.7452 195.3074
" />
<path d="M180.7452 195.3074
L180.8881 195.1645
" />
<path d="M180.8881 195.1645
L181.1024 195.0931
" />
<path d="M181.1024 195.0931
L181.2452 195.0931
" />
<path d="M181.2452 195.0931
L181.4595 195.1645
" />
<path d="M181.4595 195.1645
L181.5309 195.2359
" />
<path d="M182.8167 196.5931
L182.8167 195.8074
" />
<path d="M182.8167 195.8074
L182.7452 195.6645
" />
<path d="M182.7452 195.6645
L182.6024 195.5931
" />
<path d="M182.6024 195.5931
L182.3167 195.5931
" />
<path d="M182.3167 195.5931
L182.1738 195.6645
" />
<path d="M182.8167 196.5217
L182.6738 196.5931
" />
<path d="M182.6738 196.5931
L182.3167 196.5931
" />
<path d="M182.3167 196.5931
L182.1738 196.5217
" />
<path d="M182.1738 196.5217
L182.1024 196.3788
" />
<path d="M182.1024 196.3788
L182.1024 196.2359
" />
<path d="M182.1024 196.2359
L182.1738 196.0931
" />
<path d="M182.1738 196.0931
L182.3167 196.0217
" />
<path d="M182.3167 196.0217
L182.6738 196.0217
" />
<path d="M182.6738 196.0217
L182.8167 195.9502
" />
<path d="M184.1738 196.5931
L184.1738 195.0931
" />
<path d="M184.1738 196.5217
L184.0309 196.5931
" />
<path d="M184.0309 196.5931
L183.7452 196.5931
" />
<path d="M183.7452 196.5931
L183.6023 196.5217
" />
<path d="M183.6023 196.5217
L183.5309 196.4502
" />
<path d="M183.5309 196.4502
L183.4595 196.3074
" />
<path d="M183.4595 196.3074
L183.4595 195.8788
" />
<path d="M183.4595 195.8788
L183.5309 195.7359
" />
<path d="M183.5309 195.7359
L183.6023 195.6645
" />
<path d="M183.6023 195.6645
L183.7452 195.5931
" />
<path d="M183.7452 195.5931
L184.0309 195.5931
" />
<path d="M184.0309 195.5931
L184.1738 195.6645
" />
<path d="M186.0309 195.8074
L186.5309 195.8074
" />
<path d="M186.7452 196.5931
L186.0309 196.5931
" />
<path d="M186.0309 196.5931
L186.0309 195.0931
" />
<path d="M186.0309 195.0931
L186.7452 195.0931
" />
<path d="M187.3880 196.4502
L187.4594 196.5217
" />
<path d="M187.4594 196.5217
L187.3880 196.5931
" />
<path d="M187.3880 196.5931
L187.3166 196.5217
" />
<path d="M187.3166 196.5217
L187.3880 196.4502
" />
<path d="M187.3880 196.4502
L187.3880 196.5931
" />
<path d="M188.1023 196.5931
L188.1023 195.0931
" />
<path d="M188.1023 195.0931
L188.4594 195.0931
" />
<path d="M188.4594 195.0931
L188.6737 195.1645
" />
<path d="M188.6737 195.1645
L188.8166 195.3074
" />
<path d="M188.8166 195.3074
L188.8880 195.4502
" />
<path d="M188.8880 195.4502
L188.9594 195.7359
" />
<path d="M188.9594 195.7359
L188.9594 195.9502
" />
<path d="M188.9594 195.9502
L188.8880 196.2359
" />
<path d="M188.8880 196.2359
L188.8166 196.3788
" />
<path d="M188.8166 196.3788
L188.6737 196.5217
" />
<path d="M188.6737 196.5217
L188.4594 196.5931
" />
<path d="M188.4594 196.5931
L188.1023 196.5931
" />
<path d="M189.6023 196.4502
L189.6737 196.5217
" />
<path d="M189.6737 196.5217
L189.6023 196.5931
" />
<path d="M189.6023 196.5931
L189.5309 196.5217
" />
<path d="M189.5309 196.5217
L189.6023 196.4502
" />
<path d="M189.6023 196.4502
L189.6023 196.5931
" />
<path d="M190.2452 196.1645
L190.9595 196.1645
" />
<path d="M190.1023 196.5931
L190.6023 195.0931
" />
<path d="M190.6023 195.0931
L191.1023 196.5931
" />
<path d="M191.6023 196.4502
L191.6737 196.5217
" />
<path d="M191.6737 196.5217
L191.6023 196.5931
" />
<path d="M191.6023 196.5931
L191.5309 196.5217
" />
<path d="M191.5309 196.5217
L191.6023 196.4502
" />
<path d="M191.6023 196.4502
L191.6023 196.5931
" />
<path d="M193.6738 195.7359
L193.5309 195.6645
" />
<path d="M193.5309 195.6645
L193.4595 195.5931
" />
<path d="M193.4595 195.5931
L193.3881 195.4502
" />
<path d="M193.3881 195.4502
L193.3881 195.3788
" />
<path d="M193.3881 195.3788
L193.4595 195.2359
" />
<path d="M193.4595 195.2359
L193.5309 195.1645
" />
<path d="M193.5309 195.1645
L193.6738 195.0931
" />
<path d="M193.6738 195.0931
L193.9595 195.0931
" />
<path d="M193.9595 195.0931
L194.1024 195.1645
" />
<path d="M194.1024 195.1645
L194.1738 195.2359
" />
<path d="M194.1738 195.2359
L194.2452 195.3788
" />
<path d="M194.2452 195.3788
L194.2452 195.4502
" />
<path d="M194.2452 195.4502
L194.1738 195.5931
" />
<path d="M194.1738 195.5931
L194.1024 195.6645
" />
<path d="M194.1024 195.6645
L193.9595 195.7359
" />
<path d="M193.9595 195.7359
L193.6738 195.7359
" />
<path d="M193.6738 195.7359
L193.5309 195.8074
" />
<path d="M193.5309 195.8074
L193.4595 195.8788
" />
<path d="M193.4595 195.8788
L193.3881 196.0217
" />
<path d="M193.3881 196.0217
L193.3881 196.3074
" />
<path d="M193.3881 196.3074
L193.4595 196.4502
" />
<path d="M193.4595 196.4502
L193.5309 196.5217
" />
<path d="M193.5309 196.5217
L193.6738 196.5931
" />
<path d="M193.6738 196.5931
L193.9595 196.5931
" />
<path d="M193.9595 196.5931
L194.1024 196.5217
" />
<path d="M194.1024 196.5217
L194.1738 196.4502
" />
<path d="M194.1738 196.4502
L194.2452 196.3074
" />
<path d="M194.2452 196.3074
L194.2452 196.0217
" />
<path d="M194.2452 196.0217
L194.1738 195.8788
" />
<path d="M194.1738 195.8788
L194.1024 195.8074
" />
<path d="M194.1024 195.8074
L193.9595 195.7359
" />
<path d="M194.8881 196.4502
L194.9595 196.5217
" />
<path d="M194.9595 196.5217
L194.8881 196.5931
" />
<path d="M194.8881 196.5931
L194.8167 196.5217
" />
<path d="M194.8167 196.5217
L194.8881 196.4502
" />
<path d="M194.8881 196.4502
L194.8881 196.5931
" />
<path d="M195.8881 195.0931
L196.0310 195.0931
" />
<path d="M196.0310 195.0931
L196.1738 195.1645
" />
<path d="M196.1738 195.1645
L196.2453 195.2359
" />
<path d="M196.2453 195.2359
L196.3167 195.3788
" />
<path d="M196.3167 195.3788
L196.3881 195.6645
" />
<path d="M196.3881 195.6645
L196.3881 196.0217
" />
<path d="M196.3881 196.0217
L196.3167 196.3074
" />
<path d="M196.3167 196.3074
L196.2453 196.4502
" />
<path d="M196.2453 196.4502
L196.1738 196.5217
" />
<path d="M196.1738 196.5217
L196.0310 196.5931
" />
<path d="M196.0310 196.5931
L195.8881 196.5931
" />
<path d="M195.8881 196.5931
L195.7453 196.5217
" />
<path d="M195.7453 196.5217
L195.6738 196.4502
" />
<path d="M195.6738 196.4502
L195.6024 196.3074
" />
<path d="M195.6024 196.3074
L195.5310 196.0217
" />
<path d="M195.5310 196.0217
L195.5310 195.6645
" />
<path d="M195.5310 195.6645
L195.6024 195.3788
" />
<path d="M195.6024 195.3788
L195.6738 195.2359
" />
<path d="M195.6738 195.2359
L195.7453 195.1645
" />
<path d="M195.7453 195.1645
L195.8881 195.0931
" />
<path d="M197.0310 196.4502
L197.1024 196.5217
" />
<path d="M197.1024 196.5217
L197.0310 196.5931
" />
<path d="M197.0310 196.5931
L196.9596 196.5217
" />
<path d="M196.9596 196.5217
L197.0310 196.4502
" />
<path d="M197.0310 196.4502
L197.0310 196.5931
" />
<path d="M197.6024 195.0931
L198.5310 195.0931
" />
<path d="M198.5310 195.0931
L198.0310 195.6645
" />
<path d="M198.0310 195.6645
L198.2453 195.6645
" />
<path d="M198.2453 195.6645
L198.3882 195.7359
" />
<path d="M198.3882 195.7359
L198.4596 195.8074
" />
<path d="M198.4596 195.8074
L198.5310 195.9502
" />
<path d="M198.5310 195.9502
L198.5310 196.3074
" />
<path d="M198.5310 196.3074
L198.4596 196.4502
" />
<path d="M198.4596 196.4502
L198.3882 196.5217
" />
<path d="M198.3882 196.5217
L198.2453 196.5931
" />
<path d="M198.2453 196.5931
L197.8167 196.5931
" />
<path d="M197.8167 196.5931
L197.6739 196.5217
" />
<path d="M197.6739 196.5217
L197.6024 196.4502
" />
</g><path d="M177.0022 191.5072
L285.0022 191.5072
" />
</g>
<g style="fill:none; 
stroke:#000000; stroke-width:0.3000; stroke-opacity:1; 
stroke-linecap:round; stroke-linejoin:round;">
<text x="263.0022" y="193.8572"
textLength="6.3858" font-size="2.0000" lengthAdjust="spacingAndGlyphs"
text-anchor="start" opacity="0">Rev: </text>
<g class="stroked-text"><desc>Rev: </desc>
<path d="M264.4137 193.7855
L263.9137 193.0712
" />
<path d="M263.5566 193.7855
L263.5566 192.2855
" />
<path d="M263.5566 192.2855
L264.1280 192.2855
" />
<path d="M264.1280 192.2855
L264.2709 192.3569
" />
<path d="M264.2709 192.3569
L264.3423 192.4283
" />
<path d="M264.3423 192.4283
L264.4137 192.5712
" />
<path d="M264.4137 192.5712
L264.4137 192.7855
" />
<path d="M264.4137 192.7855
L264.3423 192.9283
" />
<path d="M264.3423 192.9283
L264.2709 192.9998
" />
<path d="M264.2709 192.9998
L264.1280 193.0712
" />
<path d="M264.1280 193.0712
L263.5566 193.0712
" />
<path d="M265.6280 193.7141
L265.4852 193.7855
" />
<path d="M265.4852 193.7855
L265.1995 193.7855
" />
<path d="M265.1995 193.7855
L265.0566 193.7141
" />
<path d="M265.0566 193.7141
L264.9852 193.5712
" />
<path d="M264.9852 193.5712
L264.9852 192.9998
" />
<path d="M264.9852 192.9998
L265.0566 192.8569
" />
<path d="M265.0566 192.8569
L265.1995 192.7855
" />
<path d="M265.1995 192.7855
L265.4852 192.7855
" />
<path d="M265.4852 192.7855
L265.6280 192.8569
" />
<path d="M265.6280 192.8569
L265.6995 192.9998
" />
<path d="M265.6995 192.9998
L265.6995 193.1426
" />
<path d="M265.6995 193.1426
L264.9852 193.2855
" />
<path d="M266.1994 192.7855
L266.5566 193.7855
" />
<path d="M266.5566 193.7855
L266.9137 192.7855
" />
<path d="M267.4852 193.6426
L267.5566 193.7141
" />
<path d="M267.5566 193.7141
L267.4852 193.7855
" />
<path d="M267.4852 193.7855
L267.4138 193.7141
" />
<path d="M267.4138 193.7141
L267.4852 193.6426
" />
<path d="M267.4852 193.6426
L267.4852 193.7855
" />
<path d="M267.4852 192.8569
L267.5566 192.9283
" />
<path d="M267.5566 192.9283
L267.4852 192.9998
" />
<path d="M267.4852 192.9998
L267.4138 192.9283
" />
<path d="M267.4138 192.9283
L267.4852 192.8569
" />
<path d="M267.4852 192.8569
L267.4852 192.9998
" />
</g></g>
<g style="fill:none; 
stroke:#000000; stroke-width:0.1524; stroke-opacity:1; 
stroke-linecap:round; stroke-linejoin:round;">
<text x="178.0022" y="193.8572"
textLength="9.3716" font-size="2.0000" lengthAdjust="spacingAndGlyphs"
text-anchor="start" opacity="0">Size: A4</text>
<g class="stroked-text"><desc>Size: A4</desc>
<path d="M178.3881 193.7217
L178.6024 193.7931
" />
<path d="M178.6024 193.7931
L178.9595 193.7931
" />
<path d="M178.9595 193.7931
L179.1024 193.7217
" />
<path d="M179.1024 193.7217
L179.1738 193.6502
" />
<path d="M179.1738 193.6502
L179.2452 193.5074
" />
<path d="M179.2452 193.5074
L179.2452 193.3645
" />
<path d="M179.2452 193.3645
L179.1738 193.2217
" />
<path d="M179.1738 193.2217
L179.1024 193.1502
" />
<path d="M179.1024 193.1502
L178.9595 193.0788
" />
<path d="M178.9595 193.0788
L178.6738 193.0074
" />
<path d="M178.6738 193.0074
L178.5309 192.9359
" />
<path d="M178.5309 192.9359
L178.4595 192.8645
" />
<path d="M178.4595 192.8645
L178.3881 192.7217
" />
<path d="M178.3881 192.7217
L178.3881 192.5788
" />
<path d="M178.3881 192.5788
L178.4595 192.4359
" />
<path d="M178.4595 192.4359
L178.5309 192.3645
" />
<path d="M178.5309 192.3645
L178.6738 192.2931
" />
<path d="M178.6738 192.2931
L179.0309 192.2931
" />
<path d="M179.0309 192.2931
L179.2452 192.3645
" />
<path d="M179.8881 193.7931
L179.8881 192.7931
" />
<path d="M179.8881 192.2931
L179.8167 192.3645
" />
<path d="M179.8167 192.3645
L179.8881 192.4359
" />
<path d="M179.8881 192.4359
L179.9595 192.3645
" />
<path d="M179.9595 192.3645
L179.8881 192.2931
" />
<path d="M179.8881 192.2931
L179.8881 192.4359
" />
<path d="M180.4595 192.7931
L181.2453 192.7931
" />
<path d="M181.2453 192.7931
L180.4595 193.7931
" />
<path d="M180.4595 193.7931
L181.2453 193.7931
" />
<path d="M182.3881 193.7217
L182.2453 193.7931
" />
<path d="M182.2453 193.7931
L181.9596 193.7931
" />
<path d="M181.9596 193.7931
L181.8167 193.7217
" />
<path d="M181.8167 193.7217
L181.7453 193.5788
" />
<path d="M181.7453 193.5788
L181.7453 193.0074
" />
<path d="M181.7453 193.0074
L181.8167 192.8645
" />
<path d="M181.8167 192.8645
L181.9596 192.7931
" />
<path d="M181.9596 192.7931
L182.2453 192.7931
" />
<path d="M182.2453 192.7931
L182.3881 192.8645
" />
<path d="M182.3881 192.8645
L182.4596 193.0074
" />
<path d="M182.4596 193.0074
L182.4596 193.1502
" />
<path d="M182.4596 193.1502
L181.7453 193.2931
" />
<path d="M183.1024 193.6502
L183.1738 193.7217
" />
<path d="M183.1738 193.7217
L183.1024 193.7931
" />
<path d="M183.1024 193.7931
L183.0310 193.7217
" />
<path d="M183.0310 193.7217
L183.1024 193.6502
" />
<path d="M183.1024 193.6502
L183.1024 193.7931
" />
<path d="M183.1024 192.8645
L183.1738 192.9359
" />
<path d="M183.1738 192.9359
L183.1024 193.0074
" />
<path d="M183.1024 193.0074
L183.0310 192.9359
" />
<path d="M183.0310 192.9359
L183.1024 192.8645
" />
<path d="M183.1024 192.8645
L183.1024 193.0074
" />
<path d="M184.8882 193.3645
L185.6025 193.3645
" />
<path d="M184.7453 193.7931
L185.2453 192.2931
" />
<path d="M185.2453 192.2931
L185.7453 193.7931
" />
<path d="M186.8882 192.7931
L186.8882 193.7931
" />
<path d="M186.5310 192.2217
L186.1739 193.2931
" />
<path d="M186.1739 193.2931
L187.1024 193.2931
" />
</g><text x="263.0022" y="196.6572"
textLength="11.3716" font-size="2.0000" lengthAdjust="spacingAndGlyphs"
text-anchor="start" opacity="0">Id: 20/15</text>
<g class="stroked-text"><desc>Id: 20/15</desc>
<path d="M263.4595 196.5931
L263.4595 195.0931
" />
<path d="M264.8167 196.5931
L264.8167 195.0931
" />
<path d="M264.8167 196.5217
L264.6738 196.5931
" />
<path d="M264.6738 196.5931
L264.3881 196.5931
" />
<path d="M264.3881 196.5931
L264.2452 196.5217
" />
<path d="M264.2452 196.5217
L264.1738 196.4502
" />
<path d="M264.1738 196.4502
L264.1024 196.3074
" />
<path d="M264.1024 196.3074
L264.1024 195.8788
" />
<path d="M264.1024 195.8788
L264.1738 195.7359
" />
<path d="M264.1738 195.7359
L264.2452 195.6645
" />
<path d="M264.2452 195.6645
L264.3881 195.5931
" />
<path d="M264.3881 195.5931
L264.6738 195.5931
" />
<path d="M264.6738 195.5931
L264.8167 195.6645
" />
<path d="M265.5309 196.4502
L265.6023 196.5217
" />
<path d="M265.6023 196.5217
L265.5309 196.5931
" />
<path d="M265.5309 196.5931
L265.4595 196.5217
" />
<path d="M265.4595 196.5217
L265.5309 196.4502
" />
<path d="M265.5309 196.4502
L265.5309 196.5931
" />
<path d="M265.5309 195.6645
L265.6023 195.7359
" />
<path d="M265.6023 195.7359
L265.5309 195.8074
" />
<path d="M265.5309 195.8074
L265.4595 195.7359
" />
<path d="M265.4595 195.7359
L265.5309 195.6645
" />
<path d="M265.5309 195.6645
L265.5309 195.8074
" />
<path d="M267.3167 195.2359
L267.3881 195.1645
" />
<path d="M267.3881 195.1645
L267.5310 195.0931
" />
<path d="M267.5310 195.0931
L267.8881 195.0931
" />
<path d="M267.8881 195.0931
L268.0310 195.1645
" />
<path d="M268.0310 195.1645
L268.1024 195.2359
" />
<path d="M268.1024 195.2359
L268.1738 195.3788
" />
<path d="M268.1738 195.3788
L268.1738 195.5217
" />
<path d="M268.1738 195.5217
L268.1024 195.7359
" />
<path d="M268.1024 195.7359
L267.2452 196.5931
" />
<path d="M267.2452 196.5931
L268.1738 196.5931
" />
<path d="M269.1024 195.0931
L269.2453 195.0931
" />
<path d="M269.2453 195.0931
L269.3881 195.1645
" />
<path d="M269.3881 195.1645
L269.4596 195.2359
" />
<path d="M269.4596 195.2359
L269.5310 195.3788
" />
<path d="M269.5310 195.3788
L269.6024 195.6645
" />
<path d="M269.6024 195.6645
L269.6024 196.0217
" />
<path d="M269.6024 196.0217
L269.5310 196.3074
" />
<path d="M269.5310 196.3074
L269.4596 196.4502
" />
<path d="M269.4596 196.4502
L269.3881 196.5217
" />
<path d="M269.3881 196.5217
L269.2453 196.5931
" />
<path d="M269.2453 196.5931
L269.1024 196.5931
" />
<path d="M269.1024 196.5931
L268.9596 196.5217
" />
<path d="M268.9596 196.5217
L268.8881 196.4502
" />
<path d="M268.8881 196.4502
L268.8167 196.3074
" />
<path d="M268.8167 196.3074
L268.7453 196.0217
" />
<path d="M268.7453 196.0217
L268.7453 195.6645
" />
<path d="M268.7453 195.6645
L268.8167 195.3788
" />
<path d="M268.8167 195.3788
L268.8881 195.2359
" />
<path d="M268.8881 195.2359
L268.9596 195.1645
" />
<path d="M268.9596 195.1645
L269.1024 195.0931
" />
<path d="M271.3167 195.0217
L270.0310 196.9502
" />
<path d="M272.6024 196.5931
L271.7453 196.5931
" />
<path d="M272.1738 196.5931
L272.1738 195.0931
" />
<path d="M272.1738 195.0931
L272.0310 195.3074
" />
<path d="M272.0310 195.3074
L271.8881 195.4502
" />
<path d="M271.8881 195.4502
L271.7453 195.5217
" />
<path d="M273.9596 195.0931
L273.2453 195.0931
" />
<path d="M273.2453 195.0931
L273.1739 195.8074
" />
<path d="M273.1739 195.8074
L273.2453 195.7359
" />
<path d="M273.2453 195.7359
L273.3882 195.6645
" />
<path d="M273.3882 195.6645
L273.7453 195.6645
" />
<path d="M273.7453 195.6645
L273.8882 195.7359
" />
<path d="M273.8882 195.7359
L273.9596 195.8074
" />
<path d="M273.9596 195.8074
L274.0310 195.9502
" />
<path d="M274.0310 195.9502
L274.0310 196.3074
" />
<path d="M274.0310 196.3074
L273.9596 196.4502
" />
<path d="M273.9596 196.4502
L273.8882 196.5217
" />
<path d="M273.8882 196.5217
L273.7453 196.5931
" />
<path d="M273.7453 196.5931
L273.3882 196.5931
" />
<path d="M273.3882 196.5931
L273.2453 196.5217
" />
<path d="M273.2453 196.5217
L273.1739 196.4502
" />
</g><path d="M177.0022 187.5072
L285.0022 187.5072
" />
</g>
<g style="fill:none; 
stroke:#000000; stroke-width:0.4000; stroke-opacity:1; 
stroke-linecap:round; stroke-linejoin:round;">
<text x="178.0022" y="190.3072"
textLength="9.6572" font-size="2.6666" lengthAdjust="spacingAndGlyphs"
text-anchor="start" opacity="0">Title: </text>
<g class="stroked-text"><desc>Title: </desc>
<path d="M178.6938 188.2116
L179.8367 188.2116
" />
<path d="M179.0153 190.2116
L179.2653 188.2116
" />
<path d="M180.2533 190.2116
L180.4200 188.8783
" />
<path d="M180.5033 188.2116
L180.3962 188.3068
" />
<path d="M180.3962 188.3068
L180.4795 188.4021
" />
<path d="M180.4795 188.4021
L180.5867 188.3068
" />
<path d="M180.5867 188.3068
L180.5033 188.2116
" />
<path d="M180.5033 188.2116
L180.4795 188.4021
" />
<path d="M181.0867 188.8783
L181.8486 188.8783
" />
<path d="M181.4557 188.2116
L181.2415 189.9259
" />
<path d="M181.2415 189.9259
L181.3129 190.1164
" />
<path d="M181.3129 190.1164
L181.4915 190.2116
" />
<path d="M181.4915 190.2116
L181.6819 190.2116
" />
<path d="M182.6344 190.2116
L182.4558 190.1164
" />
<path d="M182.4558 190.1164
L182.3844 189.9259
" />
<path d="M182.3844 189.9259
L182.5986 188.2116
" />
<path d="M184.1700 190.1164
L183.9677 190.2116
" />
<path d="M183.9677 190.2116
L183.5867 190.2116
" />
<path d="M183.5867 190.2116
L183.4081 190.1164
" />
<path d="M183.4081 190.1164
L183.3367 189.9259
" />
<path d="M183.3367 189.9259
L183.4320 189.1640
" />
<path d="M183.4320 189.1640
L183.5510 188.9735
" />
<path d="M183.5510 188.9735
L183.7534 188.8783
" />
<path d="M183.7534 188.8783
L184.1343 188.8783
" />
<path d="M184.1343 188.8783
L184.3129 188.9735
" />
<path d="M184.3129 188.9735
L184.3843 189.1640
" />
<path d="M184.3843 189.1640
L184.3605 189.3544
" />
<path d="M184.3605 189.3544
L183.3843 189.5449
" />
<path d="M185.1343 190.0211
L185.2177 190.1164
" />
<path d="M185.2177 190.1164
L185.1105 190.2116
" />
<path d="M185.1105 190.2116
L185.0272 190.1164
" />
<path d="M185.0272 190.1164
L185.1343 190.0211
" />
<path d="M185.1343 190.0211
L185.1105 190.2116
" />
<path d="M185.2653 188.9735
L185.3486 189.0687
" />
<path d="M185.3486 189.0687
L185.2415 189.1640
" />
<path d="M185.2415 189.1640
L185.1582 189.0687
" />
<path d="M185.1582 189.0687
L185.2653 188.9735
" />
<path d="M185.2653 188.9735
L185.2415 189.1640
" />
</g></g>
<g style="fill:none; 
stroke:#000000; stroke-width:0.1524; stroke-opacity:1; 
stroke-linecap:round; stroke-linejoin:round;">
<text x="178.0022" y="186.4572"
textLength="34.3000" font-size="2.0000" lengthAdjust="spacingAndGlyphs"
text-anchor="start" opacity="0">File: LEVEL_SHIFTER.kicad_sch</text>
<g class="stroked-text"><desc>File: LEVEL_SHIFTER.kicad_sch</desc>
<path d="M178.9595 185.6074
L178.4595 185.6074
" />
<path d="M178.4595 186.3931
L178.4595 184.8931
" />
<path d="M178.4595 184.8931
L179.1738 184.8931
" />
<path d="M179.7452 186.3931
L179.7452 185.3931
" />
<path d="M179.7452 184.8931
L179.6738 184.9645
" />
<path d="M179.6738 184.9645
L179.7452 185.0359
" />
<path d="M179.7452 185.0359
L179.8166 184.9645
" />
<path d="M179.8166 184.9645
L179.7452 184.8931
" />
<path d="M179.7452 184.8931
L179.7452 185.0359
" />
<path d="M180.6738 186.3931
L180.5309 186.3217
" />
<path d="M180.5309 186.3217
L180.4595 186.1788
" />
<path d="M180.4595 186.1788
L180.4595 184.8931
" />
<path d="M181.8166 186.3217
L181.6738 186.3931
" />
<path d="M181.6738 186.3931
L181.3881 186.3931
" />
<path d="M181.3881 186.3931
L181.2452 186.3217
" />
<path d="M181.2452 186.3217
L181.1738 186.1788
" />
<path d="M181.1738 186.1788
L181.1738 185.6074
" />
<path d="M181.1738 185.6074
L181.2452 185.4645
" />
<path d="M181.2452 185.4645
L181.3881 185.3931
" />
<path d="M181.3881 185.3931
L181.6738 185.3931
" />
<path d="M181.6738 185.3931
L181.8166 185.4645
" />
<path d="M181.8166 185.4645
L181.8881 185.6074
" />
<path d="M181.8881 185.6074
L181.8881 185.7502
" />
<path d="M181.8881 185.7502
L181.1738 185.8931
" />
<path d="M182.5309 186.2502
L182.6023 186.3217
" />
<path d="M182.6023 186.3217
L182.5309 186.3931
" />
<path d="M182.5309 186.3931
L182.4595 186.3217
" />
<path d="M182.4595 186.3217
L182.5309 186.2502
" />
<path d="M182.5309 186.2502
L182.5309 186.3931
" />
<path d="M182.5309 185.4645
L182.6023 185.5359
" />
<path d="M182.6023 185.5359
L182.5309 185.6074
" />
<path d="M182.5309 185.6074
L182.4595 185.5359
" />
<path d="M182.4595 185.5359
L182.5309 185.4645
" />
<path d="M182.5309 185.4645
L182.5309 185.6074
" />
<path d="M185.1024 186.3931
L184.3881 186.3931
" />
<path d="M184.3881 186.3931
L184.3881 184.8931
" />
<path d="M185.6024 185.6074
L186.1024 185.6074
" />
<path d="M186.3167 186.3931
L185.6024 186.3931
" />
<path d="M185.6024 186.3931
L185.6024 184.8931
" />
<path d="M185.6024 184.8931
L186.3167 184.8931
" />
<path d="M186.7452 184.8931
L187.2452 186.3931
" />
<path d="M187.2452 186.3931
L187.7452 184.8931
" />
<path d="M188.2452 185.6074
L188.7452 185.6074
" />
<path d="M188.9595 186.3931
L188.2452 186.3931
" />
<path d="M188.2452 186.3931
L188.2452 184.8931
" />
<path d="M188.2452 184.8931
L188.9595 184.8931
" />
<path d="M190.3166 186.3931
L189.6023 186.3931
" />
<path d="M189.6023 186.3931
L189.6023 184.8931
" />
<path d="M190.4595 186.5359
L191.6023 186.5359
" />
<path d="M191.8881 186.3217
L192.1024 186.3931
" />
<path d="M192.1024 186.3931
L192.4595 186.3931
" />
<path d="M192.4595 186.3931
L192.6024 186.3217
" />
<path d="M192.6024 186.3217
L192.6738 186.2502
" />
<path d="M192.6738 186.2502
L192.7452 186.1074
" />
<path d="M192.7452 186.1074
L192.7452 185.9645
" />
<path d="M192.7452 185.9645
L192.6738 185.8217
" />
<path d="M192.6738 185.8217
L192.6024 185.7502
" />
<path d="M192.6024 185.7502
L192.4595 185.6788
" />
<path d="M192.4595 185.6788
L192.1738 185.6074
" />
<path d="M192.1738 185.6074
L192.0309 185.5359
" />
<path d="M192.0309 185.5359
L191.9595 185.4645
" />
<path d="M191.9595 185.4645
L191.8881 185.3217
" />
<path d="M191.8881 185.3217
L191.8881 185.1788
" />
<path d="M191.8881 185.1788
L191.9595 185.0359
" />
<path d="M191.9595 185.0359
L192.0309 184.9645
" />
<path d="M192.0309 184.9645
L192.1738 184.8931
" />
<path d="M192.1738 184.8931
L192.5309 184.8931
" />
<path d="M192.5309 184.8931
L192.7452 184.9645
" />
<path d="M193.3881 186.3931
L193.3881 184.8931
" />
<path d="M193.3881 185.6074
L194.2452 185.6074
" />
<path d="M194.2452 186.3931
L194.2452 184.8931
" />
<path d="M194.9595 186.3931
L194.9595 184.8931
" />
<path d="M196.1738 185.6074
L195.6738 185.6074
" />
<path d="M195.6738 186.3931
L195.6738 184.8931
" />
<path d="M195.6738 184.8931
L196.3881 184.8931
" />
<path d="M196.7452 184.8931
L197.6024 184.8931
" />
<path d="M197.1738 186.3931
L197.1738 184.8931
" />
<path d="M198.1024 185.6074
L198.6024 185.6074
" />
<path d="M198.8167 186.3931
L198.1024 186.3931
" />
<path d="M198.1024 186.3931
L198.1024 184.8931
" />
<path d="M198.1024 184.8931
L198.8167 184.8931
" />
<path d="M200.3166 186.3931
L199.8166 185.6788
" />
<path d="M199.4595 186.3931
L199.4595 184.8931
" />
<path d="M199.4595 184.8931
L200.0309 184.8931
" />
<path d="M200.0309 184.8931
L200.1738 184.9645
" />
<path d="M200.1738 184.9645
L200.2452 185.0359
" />
<path d="M200.2452 185.0359
L200.3166 185.1788
" />
<path d="M200.3166 185.1788
L200.3166 185.3931
" />
<path d="M200.3166 185.3931
L200.2452 185.5359
" />
<path d="M200.2452 185.5359
L200.1738 185.6074
" />
<path d="M200.1738 185.6074
L200.0309 185.6788
" />
<path d="M200.0309 185.6788
L199.4595 185.6788
" />
<path d="M200.9595 186.2502
L201.0309 186.3217
" />
<path d="M201.0309 186.3217
L200.9595 186.3931
" />
<path d="M200.9595 186.3931
L200.8881 186.3217
" />
<path d="M200.8881 186.3217
L200.9595 186.2502
" />
<path d="M200.9595 186.2502
L200.9595 186.3931
" />
<path d="M201.6738 186.3931
L201.6738 184.8931
" />
<path d="M201.8167 185.8217
L202.2452 186.3931
" />
<path d="M202.2452 185.3931
L201.6738 185.9645
" />
<path d="M202.8881 186.3931
L202.8881 185.3931
" />
<path d="M202.8881 184.8931
L202.8167 184.9645
" />
<path d="M202.8167 184.9645
L202.8881 185.0359
" />
<path d="M202.8881 185.0359
L202.9595 184.9645
" />
<path d="M202.9595 184.9645
L202.8881 184.8931
" />
<path d="M202.8881 184.8931
L202.8881 185.0359
" />
<path d="M204.2453 186.3217
L204.1024 186.3931
" />
<path d="M204.1024 186.3931
L203.8167 186.3931
" />
<path d="M203.8167 186.3931
L203.6738 186.3217
" />
<path d="M203.6738 186.3217
L203.6024 186.2502
" />
<path d="M203.6024 186.2502
L203.5310 186.1074
" />
<path d="M203.5310 186.1074
L203.5310 185.6788
" />
<path d="M203.5310 185.6788
L203.6024 185.5359
" />
<path d="M203.6024 185.5359
L203.6738 185.4645
" />
<path d="M203.6738 185.4645
L203.8167 185.3931
" />
<path d="M203.8167 185.3931
L204.1024 185.3931
" />
<path d="M204.1024 185.3931
L204.2453 185.4645
" />
<path d="M205.5310 186.3931
L205.5310 185.6074
" />
<path d="M205.5310 185.6074
L205.4595 185.4645
" />
<path d="M205.4595 185.4645
L205.3167 185.3931
" />
<path d="M205.3167 185.3931
L205.0310 185.3931
" />
<path d="M205.0310 185.3931
L204.8881 185.4645
" />
<path d="M205.5310 186.3217
L205.3881 186.3931
" />
<path d="M205.3881 186.3931
L205.0310 186.3931
" />
<path d="M205.0310 186.3931
L204.8881 186.3217
" />
<path d="M204.8881 186.3217
L204.8167 186.1788
" />
<path d="M204.8167 186.1788
L204.8167 186.0359
" />
<path d="M204.8167 186.0359
L204.8881 185.8931
" />
<path d="M204.8881 185.8931
L205.0310 185.8217
" />
<path d="M205.0310 185.8217
L205.3881 185.8217
" />
<path d="M205.3881 185.8217
L205.5310 185.7502
" />
<path d="M206.8881 186.3931
L206.8881 184.8931
" />
<path d="M206.8881 186.3217
L206.7452 186.3931
" />
<path d="M206.7452 186.3931
L206.4595 186.3931
" />
<path d="M206.4595 186.3931
L206.3166 186.3217
" />
<path d="M206.3166 186.3217
L206.2452 186.2502
" />
<path d="M206.2452 186.2502
L206.1738 186.1074
" />
<path d="M206.1738 186.1074
L206.1738 185.6788
" />
<path d="M206.1738 185.6788
L206.2452 185.5359
" />
<path d="M206.2452 185.5359
L206.3166 185.4645
" />
<path d="M206.3166 185.4645
L206.4595 185.3931
" />
<path d="M206.4595 185.3931
L206.7452 185.3931
" />
<path d="M206.7452 185.3931
L206.8881 185.4645
" />
<path d="M207.2452 186.5359
L208.3880 186.5359
" />
<path d="M208.6738 186.3217
L208.8166 186.3931
" />
<path d="M208.8166 186.3931
L209.1023 186.3931
" />
<path d="M209.1023 186.3931
L209.2452 186.3217
" />
<path d="M209.2452 186.3217
L209.3166 186.1788
" />
<path d="M209.3166 186.1788
L209.3166 186.1074
" />
<path d="M209.3166 186.1074
L209.2452 185.9645
" />
<path d="M209.2452 185.9645
L209.1023 185.8931
" />
<path d="M209.1023 185.8931
L208.8881 185.8931
" />
<path d="M208.8881 185.8931
L208.7452 185.8217
" />
<path d="M208.7452 185.8217
L208.6738 185.6788
" />
<path d="M208.6738 185.6788
L208.6738 185.6074
" />
<path d="M208.6738 185.6074
L208.7452 185.4645
" />
<path d="M208.7452 185.4645
L208.8881 185.3931
" />
<path d="M208.8881 185.3931
L209.1023 185.3931
" />
<path d="M209.1023 185.3931
L209.2452 185.4645
" />
<path d="M210.6024 186.3217
L210.4595 186.3931
" />
<path d="M210.4595 186.3931
L210.1738 186.3931
" />
<path d="M210.1738 186.3931
L210.0309 186.3217
" />
<path d="M210.0309 186.3217
L209.9595 186.2502
" />
<path d="M209.9595 186.2502
L209.8881 186.1074
" />
<path d="M209.8881 186.1074
L209.8881 185.6788
" />
<path d="M209.8881 185.6788
L209.9595 185.5359
" />
<path d="M209.9595 185.5359
L210.0309 185.4645
" />
<path d="M210.0309 185.4645
L210.1738 185.3931
" />
<path d="M210.1738 185.3931
L210.4595 185.3931
" />
<path d="M210.4595 185.3931
L210.6024 185.4645
" />
<path d="M211.2452 186.3931
L211.2452 184.8931
" />
<path d="M211.8881 186.3931
L211.8881 185.6074
" />
<path d="M211.8881 185.6074
L211.8166 185.4645
" />
<path d="M211.8166 185.4645
L211.6738 185.3931
" />
<path d="M211.6738 185.3931
L211.4595 185.3931
" />
<path d="M211.4595 185.3931
L211.3166 185.4645
" />
<path d="M211.3166 185.4645
L211.2452 185.5359
" />
</g><path d="M177.0022 181.5072
L285.0022 181.5072
" />
<text x="178.0022" y="183.7572"
textLength="46.4424" font-size="2.0000" lengthAdjust="spacingAndGlyphs"
text-anchor="start" opacity="0">Sheet: /RobotConnectors/LevelShifter8/</text>
<g class="stroked-text"><desc>Sheet: /RobotConnectors/LevelShifter8/</desc>
<path d="M178.3881 183.6217
L178.6024 183.6931
" />
<path d="M178.6024 183.6931
L178.9595 183.6931
" />
<path d="M178.9595 183.6931
L179.1024 183.6217
" />
<path d="M179.1024 183.6217
L179.1738 183.5502
" />
<path d="M179.1738 183.5502
L179.2452 183.4074
" />
<path d="M179.2452 183.4074
L179.2452 183.2645
" />
<path d="M179.2452 183.2645
L179.1738 183.1217
" />
<path d="M179.1738 183.1217
L179.1024 183.0502
" />
<path d="M179.1024 183.0502
L178.9595 182.9788
" />
<path d="M178.9595 182.9788
L178.6738 182.9074
" />
<path d="M178.6738 182.9074
L178.5309 182.8359
" />
<path d="M178.5309 182.8359
L178.4595 182.7645
" />
<path d="M178.4595 182.7645
L178.3881 182.6217
" />
<path d="M178.3881 182.6217
L178.3881 182.4788
" />
<path d="M178.3881 182.4788
L178.4595 182.3359
" />
<path d="M178.4595 182.3359
L178.5309 182.2645
" />
<path d="M178.5309 182.2645
L178.6738 182.1931
" />
<path d="M178.6738 182.1931
L179.0309 182.1931
" />
<path d="M179.0309 182.1931
L179.2452 182.2645
" />
<path d="M179.8881 183.6931
L179.8881 182.1931
" />
<path d="M180.5310 183.6931
L180.5310 182.9074
" />
<path d="M180.5310 182.9074
L180.4595 182.7645
" />
<path d="M180.4595 182.7645
L180.3167 182.6931
" />
<path d="M180.3167 182.6931
L180.1024 182.6931
" />
<path d="M180.1024 182.6931
L179.9595 182.7645
" />
<path d="M179.9595 182.7645
L179.8881 182.8359
" />
<path d="M181.8166 183.6217
L181.6738 183.6931
" />
<path d="M181.6738 183.6931
L181.3881 183.6931
" />
<path d="M181.3881 183.6931
L181.2452 183.6217
" />
<path d="M181.2452 183.6217
L181.1738 183.4788
" />
<path d="M181.1738 183.4788
L181.1738 182.9074
" />
<path d="M181.1738 182.9074
L181.2452 182.7645
" />
<path d="M181.2452 182.7645
L181.3881 182.6931
" />
<path d="M181.3881 182.6931
L181.6738 182.6931
" />
<path d="M181.6738 182.6931
L181.8166 182.7645
" />
<path d="M181.8166 182.7645
L181.8881 182.9074
" />
<path d="M181.8881 182.9074
L181.8881 183.0502
" />
<path d="M181.8881 183.0502
L181.1738 183.1931
" />
<path d="M183.1023 183.6217
L182.9595 183.6931
" />
<path d="M182.9595 183.6931
L182.6738 183.6931
" />
<path d="M182.6738 183.6931
L182.5309 183.6217
" />
<path d="M182.5309 183.6217
L182.4595 183.4788
" />
<path d="M182.4595 183.4788
L182.4595 182.9074
" />
<path d="M182.4595 182.9074
L182.5309 182.7645
" />
<path d="M182.5309 182.7645
L182.6738 182.6931
" />
<path d="M182.6738 182.6931
L182.9595 182.6931
" />
<path d="M182.9595 182.6931
L183.1023 182.7645
" />
<path d="M183.1023 182.7645
L183.1738 182.9074
" />
<path d="M183.1738 182.9074
L183.1738 183.0502
" />
<path d="M183.1738 183.0502
L182.4595 183.1931
" />
<path d="M183.6023 182.6931
L184.1737 182.6931
" />
<path d="M183.8166 182.1931
L183.8166 183.4788
" />
<path d="M183.8166 183.4788
L183.8880 183.6217
" />
<path d="M183.8880 183.6217
L184.0309 183.6931
" />
<path d="M184.0309 183.6931
L184.1737 183.6931
" />
<path d="M184.6737 183.5502
L184.7451 183.6217
" />
<path d="M184.7451 183.6217
L184.6737 183.6931
" />
<path d="M184.6737 183.6931
L184.6023 183.6217
" />
<path d="M184.6023 183.6217
L184.6737 183.5502
" />
<path d="M184.6737 183.5502
L184.6737 183.6931
" />
<path d="M184.6737 182.7645
L184.7451 182.8359
" />
<path d="M184.7451 182.8359
L184.6737 182.9074
" />
<path d="M184.6737 182.9074
L184.6023 182.8359
" />
<path d="M184.6023 182.8359
L184.6737 182.7645
" />
<path d="M184.6737 182.7645
L184.6737 182.9074
" />
<path d="M187.6023 182.1217
L186.3166 184.0502
" />
<path d="M188.9594 183.6931
L188.4594 182.9788
" />
<path d="M188.1023 183.6931
L188.1023 182.1931
" />
<path d="M188.1023 182.1931
L188.6737 182.1931
" />
<path d="M188.6737 182.1931
L188.8166 182.2645
" />
<path d="M188.8166 182.2645
L188.8880 182.3359
" />
<path d="M188.8880 182.3359
L188.9594 182.4788
" />
<path d="M188.9594 182.4788
L188.9594 182.6931
" />
<path d="M188.9594 182.6931
L188.8880 182.8359
" />
<path d="M188.8880 182.8359
L188.8166 182.9074
" />
<path d="M188.8166 182.9074
L188.6737 182.9788
" />
<path d="M188.6737 182.9788
L188.1023 182.9788
" />
<path d="M189.8166 183.6931
L189.6737 183.6217
" />
<path d="M189.6737 183.6217
L189.6023 183.5502
" />
<path d="M189.6023 183.5502
L189.5309 183.4074
" />
<path d="M189.5309 183.4074
L189.5309 182.9788
" />
<path d="M189.5309 182.9788
L189.6023 182.8359
" />
<path d="M189.6023 182.8359
L189.6737 182.7645
" />
<path d="M189.6737 182.7645
L189.8166 182.6931
" />
<path d="M189.8166 182.6931
L190.0309 182.6931
" />
<path d="M190.0309 182.6931
L190.1737 182.7645
" />
<path d="M190.1737 182.7645
L190.2452 182.8359
" />
<path d="M190.2452 182.8359
L190.3166 182.9788
" />
<path d="M190.3166 182.9788
L190.3166 183.4074
" />
<path d="M190.3166 183.4074
L190.2452 183.5502
" />
<path d="M190.2452 183.5502
L190.1737 183.6217
" />
<path d="M190.1737 183.6217
L190.0309 183.6931
" />
<path d="M190.0309 183.6931
L189.8166 183.6931
" />
<path d="M190.9594 183.6931
L190.9594 182.1931
" />
<path d="M190.9594 182.7645
L191.1023 182.6931
" />
<path d="M191.1023 182.6931
L191.3880 182.6931
" />
<path d="M191.3880 182.6931
L191.5308 182.7645
" />
<path d="M191.5308 182.7645
L191.6023 182.8359
" />
<path d="M191.6023 182.8359
L191.6737 182.9788
" />
<path d="M191.6737 182.9788
L191.6737 183.4074
" />
<path d="M191.6737 183.4074
L191.6023 183.5502
" />
<path d="M191.6023 183.5502
L191.5308 183.6217
" />
<path d="M191.5308 183.6217
L191.3880 183.6931
" />
<path d="M191.3880 183.6931
L191.1023 183.6931
" />
<path d="M191.1023 183.6931
L190.9594 183.6217
" />
<path d="M192.5308 183.6931
L192.3879 183.6217
" />
<path d="M192.3879 183.6217
L192.3165 183.5502
" />
<path d="M192.3165 183.5502
L192.2451 183.4074
" />
<path d="M192.2451 183.4074
L192.2451 182.9788
" />
<path d="M192.2451 182.9788
L192.3165 182.8359
" />
<path d="M192.3165 182.8359
L192.3879 182.7645
" />
<path d="M192.3879 182.7645
L192.5308 182.6931
" />
<path d="M192.5308 182.6931
L192.7451 182.6931
" />
<path d="M192.7451 182.6931
L192.8879 182.7645
" />
<path d="M192.8879 182.7645
L192.9594 182.8359
" />
<path d="M192.9594 182.8359
L193.0308 182.9788
" />
<path d="M193.0308 182.9788
L193.0308 183.4074
" />
<path d="M193.0308 183.4074
L192.9594 183.5502
" />
<path d="M192.9594 183.5502
L192.8879 183.6217
" />
<path d="M192.8879 183.6217
L192.7451 183.6931
" />
<path d="M192.7451 183.6931
L192.5308 183.6931
" />
<path d="M193.4593 182.6931
L194.0307 182.6931
" />
<path d="M193.6736 182.1931
L193.6736 183.4788
" />
<path d="M193.6736 183.4788
L193.7450 183.6217
" />
<path d="M193.7450 183.6217
L193.8879 183.6931
" />
<path d="M193.8879 183.6931
L194.0307 183.6931
" />
<path d="M195.3878 183.5502
L195.3164 183.6217
" />
<path d="M195.3164 183.6217
L195.1021 183.6931
" />
<path d="M195.1021 183.6931
L194.9593 183.6931
" />
<path d="M194.9593 183.6931
L194.7450 183.6217
" />
<path d="M194.7450 183.6217
L194.6021 183.4788
" />
<path d="M194.6021 183.4788
L194.5307 183.3359
" />
<path d="M194.5307 183.3359
L194.4593 183.0502
" />
<path d="M194.4593 183.0502
L194.4593 182.8359
" />
<path d="M194.4593 182.8359
L194.5307 182.5502
" />
<path d="M194.5307 182.5502
L194.6021 182.4074
" />
<path d="M194.6021 182.4074
L194.7450 182.2645
" />
<path d="M194.7450 182.2645
L194.9593 182.1931
" />
<path d="M194.9593 182.1931
L195.1021 182.1931
" />
<path d="M195.1021 182.1931
L195.3164 182.2645
" />
<path d="M195.3164 182.2645
L195.3878 182.3359
" />
<path d="M196.2450 183.6931
L196.1021 183.6217
" />
<path d="M196.1021 183.6217
L196.0307 183.5502
" />
<path d="M196.0307 183.5502
L195.9593 183.4074
" />
<path d="M195.9593 183.4074
L195.9593 182.9788
" />
<path d="M195.9593 182.9788
L196.0307 182.8359
" />
<path d="M196.0307 182.8359
L196.1021 182.7645
" />
<path d="M196.1021 182.7645
L196.2450 182.6931
" />
<path d="M196.2450 182.6931
L196.4593 182.6931
" />
<path d="M196.4593 182.6931
L196.6021 182.7645
" />
<path d="M196.6021 182.7645
L196.6736 182.8359
" />
<path d="M196.6736 182.8359
L196.7450 182.9788
" />
<path d="M196.7450 182.9788
L196.7450 183.4074
" />
<path d="M196.7450 183.4074
L196.6736 183.5502
" />
<path d="M196.6736 183.5502
L196.6021 183.6217
" />
<path d="M196.6021 183.6217
L196.4593 183.6931
" />
<path d="M196.4593 183.6931
L196.2450 183.6931
" />
<path d="M197.3878 182.6931
L197.3878 183.6931
" />
<path d="M197.3878 182.8359
L197.4592 182.7645
" />
<path d="M197.4592 182.7645
L197.6021 182.6931
" />
<path d="M197.6021 182.6931
L197.8164 182.6931
" />
<path d="M197.8164 182.6931
L197.9592 182.7645
" />
<path d="M197.9592 182.7645
L198.0307 182.9074
" />
<path d="M198.0307 182.9074
L198.0307 183.6931
" />
<path d="M198.7449 182.6931
L198.7449 183.6931
" />
<path d="M198.7449 182.8359
L198.8163 182.7645
" />
<path d="M198.8163 182.7645
L198.9592 182.6931
" />
<path d="M198.9592 182.6931
L199.1735 182.6931
" />
<path d="M199.1735 182.6931
L199.3163 182.7645
" />
<path d="M199.3163 182.7645
L199.3878 182.9074
" />
<path d="M199.3878 182.9074
L199.3878 183.6931
" />
<path d="M200.6734 183.6217
L200.5306 183.6931
" />
<path d="M200.5306 183.6931
L200.2449 183.6931
" />
<path d="M200.2449 183.6931
L200.1020 183.6217
" />
<path d="M200.1020 183.6217
L200.0306 183.4788
" />
<path d="M200.0306 183.4788
L200.0306 182.9074
" />
<path d="M200.0306 182.9074
L200.1020 182.7645
" />
<path d="M200.1020 182.7645
L200.2449 182.6931
" />
<path d="M200.2449 182.6931
L200.5306 182.6931
" />
<path d="M200.5306 182.6931
L200.6734 182.7645
" />
<path d="M200.6734 182.7645
L200.7449 182.9074
" />
<path d="M200.7449 182.9074
L200.7449 183.0502
" />
<path d="M200.7449 183.0502
L200.0306 183.1931
" />
<path d="M202.0306 183.6217
L201.8877 183.6931
" />
<path d="M201.8877 183.6931
L201.6020 183.6931
" />
<path d="M201.6020 183.6931
L201.4591 183.6217
" />
<path d="M201.4591 183.6217
L201.3877 183.5502
" />
<path d="M201.3877 183.5502
L201.3163 183.4074
" />
<path d="M201.3163 183.4074
L201.3163 182.9788
" />
<path d="M201.3163 182.9788
L201.3877 182.8359
" />
<path d="M201.3877 182.8359
L201.4591 182.7645
" />
<path d="M201.4591 182.7645
L201.6020 182.6931
" />
<path d="M201.6020 182.6931
L201.8877 182.6931
" />
<path d="M201.8877 182.6931
L202.0306 182.7645
" />
<path d="M202.4591 182.6931
L203.0305 182.6931
" />
<path d="M202.6734 182.1931
L202.6734 183.4788
" />
<path d="M202.6734 183.4788
L202.7448 183.6217
" />
<path d="M202.7448 183.6217
L202.8877 183.6931
" />
<path d="M202.8877 183.6931
L203.0305 183.6931
" />
<path d="M203.7448 183.6931
L203.6019 183.6217
" />
<path d="M203.6019 183.6217
L203.5305 183.5502
" />
<path d="M203.5305 183.5502
L203.4591 183.4074
" />
<path d="M203.4591 183.4074
L203.4591 182.9788
" />
<path d="M203.4591 182.9788
L203.5305 182.8359
" />
<path d="M203.5305 182.8359
L203.6019 182.7645
" />
<path d="M203.6019 182.7645
L203.7448 182.6931
" />
<path d="M203.7448 182.6931
L203.9591 182.6931
" />
<path d="M203.9591 182.6931
L204.1019 182.7645
" />
<path d="M204.1019 182.7645
L204.1734 182.8359
" />
<path d="M204.1734 182.8359
L204.2448 182.9788
" />
<path d="M204.2448 182.9788
L204.2448 183.4074
" />
<path d="M204.2448 183.4074
L204.1734 183.5502
" />
<path d="M204.1734 183.5502
L204.1019 183.6217
" />
<path d="M204.1019 183.6217
L203.9591 183.6931
" />
<path d="M203.9591 183.6931
L203.7448 183.6931
" />
<path d="M204.8876 183.6931
L204.8876 182.6931
" />
<path d="M204.8876 182.9788
L204.9590 182.8359
" />
<path d="M204.9590 182.8359
L205.0305 182.7645
" />
<path d="M205.0305 182.7645
L205.1733 182.6931
" />
<path d="M205.1733 182.6931
L205.3162 182.6931
" />
<path d="M205.7448 183.6217
L205.8876 183.6931
" />
<path d="M205.8876 183.6931
L206.1733 183.6931
" />
<path d="M206.1733 183.6931
L206.3162 183.6217
" />
<path d="M206.3162 183.6217
L206.3876 183.4788
" />
<path d="M206.3876 183.4788
L206.3876 183.4074
" />
<path d="M206.3876 183.4074
L206.3162 183.2645
" />
<path d="M206.3162 183.2645
L206.1733 183.1931
" />
<path d="M206.1733 183.1931
L205.9591 183.1931
" />
<path d="M205.9591 183.1931
L205.8162 183.1217
" />
<path d="M205.8162 183.1217
L205.7448 182.9788
" />
<path d="M205.7448 182.9788
L205.7448 182.9074
" />
<path d="M205.7448 182.9074
L205.8162 182.7645
" />
<path d="M205.8162 182.7645
L205.9591 182.6931
" />
<path d="M205.9591 182.6931
L206.1733 182.6931
" />
<path d="M206.1733 182.6931
L206.3162 182.7645
" />
<path d="M208.1019 182.1217
L206.8162 184.0502
" />
<path d="M209.3162 183.6931
L208.6019 183.6931
" />
<path d="M208.6019 183.6931
L208.6019 182.1931
" />
<path d="M210.3876 183.6217
L210.2448 183.6931
" />
<path d="M210.2448 183.6931
L209.9591 183.6931
" />
<path d="M209.9591 183.6931
L209.8162 183.6217
" />
<path d="M209.8162 183.6217
L209.7448 183.4788
" />
<path d="M209.7448 183.4788
L209.7448 182.9074
" />
<path d="M209.7448 182.9074
L209.8162 182.7645
" />
<path d="M209.8162 182.7645
L209.9591 182.6931
" />
<path d="M209.9591 182.6931
L210.2448 182.6931
" />
<path d="M210.2448 182.6931
L210.3876 182.7645
" />
<path d="M210.3876 182.7645
L210.4591 182.9074
" />
<path d="M210.4591 182.9074
L210.4591 183.0502
" />
<path d="M210.4591 183.0502
L209.7448 183.1931
" />
<path d="M210.9590 182.6931
L211.3162 183.6931
" />
<path d="M211.3162 183.6931
L211.6733 182.6931
" />
<path d="M212.8162 183.6217
L212.6734 183.6931
" />
<path d="M212.6734 183.6931
L212.3877 183.6931
" />
<path d="M212.3877 183.6931
L212.2448 183.6217
" />
<path d="M212.2448 183.6217
L212.1734 183.4788
" />
<path d="M212.1734 183.4788
L212.1734 182.9074
" />
<path d="M212.1734 182.9074
L212.2448 182.7645
" />
<path d="M212.2448 182.7645
L212.3877 182.6931
" />
<path d="M212.3877 182.6931
L212.6734 182.6931
" />
<path d="M212.6734 182.6931
L212.8162 182.7645
" />
<path d="M212.8162 182.7645
L212.8877 182.9074
" />
<path d="M212.8877 182.9074
L212.8877 183.0502
" />
<path d="M212.8877 183.0502
L212.1734 183.1931
" />
<path d="M213.7448 183.6931
L213.6019 183.6217
" />
<path d="M213.6019 183.6217
L213.5305 183.4788
" />
<path d="M213.5305 183.4788
L213.5305 182.1931
" />
<path d="M214.2448 183.6217
L214.4591 183.6931
" />
<path d="M214.4591 183.6931
L214.8162 183.6931
" />
<path d="M214.8162 183.6931
L214.9591 183.6217
" />
<path d="M214.9591 183.6217
L215.0305 183.5502
" />
<path d="M215.0305 183.5502
L215.1019 183.4074
" />
<path d="M215.1019 183.4074
L215.1019 183.2645
" />
<path d="M215.1019 183.2645
L215.0305 183.1217
" />
<path d="M215.0305 183.1217
L214.9591 183.0502
" />
<path d="M214.9591 183.0502
L214.8162 182.9788
" />
<path d="M214.8162 182.9788
L214.5305 182.9074
" />
<path d="M214.5305 182.9074
L214.3876 182.8359
" />
<path d="M214.3876 182.8359
L214.3162 182.7645
" />
<path d="M214.3162 182.7645
L214.2448 182.6217
" />
<path d="M214.2448 182.6217
L214.2448 182.4788
" />
<path d="M214.2448 182.4788
L214.3162 182.3359
" />
<path d="M214.3162 182.3359
L214.3876 182.2645
" />
<path d="M214.3876 182.2645
L214.5305 182.1931
" />
<path d="M214.5305 182.1931
L214.8876 182.1931
" />
<path d="M214.8876 182.1931
L215.1019 182.2645
" />
<path d="M215.7448 183.6931
L215.7448 182.1931
" />
<path d="M216.3877 183.6931
L216.3877 182.9074
" />
<path d="M216.3877 182.9074
L216.3162 182.7645
" />
<path d="M216.3162 182.7645
L216.1734 182.6931
" />
<path d="M216.1734 182.6931
L215.9591 182.6931
" />
<path d="M215.9591 182.6931
L215.8162 182.7645
" />
<path d="M215.8162 182.7645
L215.7448 182.8359
" />
<path d="M217.1019 183.6931
L217.1019 182.6931
" />
<path d="M217.1019 182.1931
L217.0305 182.2645
" />
<path d="M217.0305 182.2645
L217.1019 182.3359
" />
<path d="M217.1019 182.3359
L217.1733 182.2645
" />
<path d="M217.1733 182.2645
L217.1019 182.1931
" />
<path d="M217.1019 182.1931
L217.1019 182.3359
" />
<path d="M217.6019 182.6931
L218.1733 182.6931
" />
<path d="M217.8162 183.6931
L217.8162 182.4074
" />
<path d="M217.8162 182.4074
L217.8876 182.2645
" />
<path d="M217.8876 182.2645
L218.0305 182.1931
" />
<path d="M218.0305 182.1931
L218.1733 182.1931
" />
<path d="M218.4590 182.6931
L219.0304 182.6931
" />
<path d="M218.6733 182.1931
L218.6733 183.4788
" />
<path d="M218.6733 183.4788
L218.7447 183.6217
" />
<path d="M218.7447 183.6217
L218.8876 183.6931
" />
<path d="M218.8876 183.6931
L219.0304 183.6931
" />
<path d="M220.1018 183.6217
L219.9590 183.6931
" />
<path d="M219.9590 183.6931
L219.6733 183.6931
" />
<path d="M219.6733 183.6931
L219.5304 183.6217
" />
<path d="M219.5304 183.6217
L219.4590 183.4788
" />
<path d="M219.4590 183.4788
L219.4590 182.9074
" />
<path d="M219.4590 182.9074
L219.5304 182.7645
" />
<path d="M219.5304 182.7645
L219.6733 182.6931
" />
<path d="M219.6733 182.6931
L219.9590 182.6931
" />
<path d="M219.9590 182.6931
L220.1018 182.7645
" />
<path d="M220.1018 182.7645
L220.1733 182.9074
" />
<path d="M220.1733 182.9074
L220.1733 183.0502
" />
<path d="M220.1733 183.0502
L219.4590 183.1931
" />
<path d="M220.8161 183.6931
L220.8161 182.6931
" />
<path d="M220.8161 182.9788
L220.8875 182.8359
" />
<path d="M220.8875 182.8359
L220.9590 182.7645
" />
<path d="M220.9590 182.7645
L221.1018 182.6931
" />
<path d="M221.1018 182.6931
L221.2447 182.6931
" />
<path d="M221.9590 182.8359
L221.8161 182.7645
" />
<path d="M221.8161 182.7645
L221.7447 182.6931
" />
<path d="M221.7447 182.6931
L221.6733 182.5502
" />
<path d="M221.6733 182.5502
L221.6733 182.4788
" />
<path d="M221.6733 182.4788
L221.7447 182.3359
" />
<path d="M221.7447 182.3359
L221.8161 182.2645
" />
<path d="M221.8161 182.2645
L221.9590 182.1931
" />
<path d="M221.9590 182.1931
L222.2447 182.1931
" />
<path d="M222.2447 182.1931
L222.3876 182.2645
" />
<path d="M222.3876 182.2645
L222.4590 182.3359
" />
<path d="M222.4590 182.3359
L222.5304 182.4788
" />
<path d="M222.5304 182.4788
L222.5304 182.5502
" />
<path d="M222.5304 182.5502
L222.4590 182.6931
" />
<path d="M222.4590 182.6931
L222.3876 182.7645
" />
<path d="M222.3876 182.7645
L222.2447 182.8359
" />
<path d="M222.2447 182.8359
L221.9590 182.8359
" />
<path d="M221.9590 182.8359
L221.8161 182.9074
" />
<path d="M221.8161 182.9074
L221.7447 182.9788
" />
<path d="M221.7447 182.9788
L221.6733 183.1217
" />
<path d="M221.6733 183.1217
L221.6733 183.4074
" />
<path d="M221.6733 183.4074
L221.7447 183.5502
" />
<path d="M221.7447 183.5502
L221.8161 183.6217
" />
<path d="M221.8161 183.6217
L221.9590 183.6931
" />
<path d="M221.9590 183.6931
L222.2447 183.6931
" />
<path d="M222.2447 183.6931
L222.3876 183.6217
" />
<path d="M222.3876 183.6217
L222.4590 183.5502
" />
<path d="M222.4590 183.5502
L222.5304 183.4074
" />
<path d="M222.5304 183.4074
L222.5304 183.1217
" />
<path d="M222.5304 183.1217
L222.4590 182.9788
" />
<path d="M222.4590 182.9788
L222.3876 182.9074
" />
<path d="M222.3876 182.9074
L222.2447 182.8359
" />
<path d="M224.2447 182.1217
L222.9590 184.0502
" />
</g></g>
<g style="fill:none; 
stroke:#000000; stroke-width:0.3000; stroke-opacity:1; 
stroke-linecap:round; stroke-linejoin:round;">
<text x="178.0022" y="180.7572"
textLength="0.9000" font-size="2.0000" lengthAdjust="spacingAndGlyphs"
text-anchor="start" opacity="0"></text>
<g class="stroked-text"><desc></desc>
</g></g>
<g style="fill:none; 
stroke:#000000; stroke-width:0.1524; stroke-opacity:1; 
stroke-linecap:round; stroke-linejoin:round;">
<text x="178.0022" y="177.7572"
textLength="0.4572" font-size="2.0000" lengthAdjust="spacingAndGlyphs"
text-anchor="start" opacity="0"></text>
<g class="stroked-text"><desc></desc>
</g><text x="178.0022" y="174.7572"
textLength="0.4572" font-size="2.0000" lengthAdjust="spacingAndGlyphs"
text-anchor="start" opacity="0"></text>
<g class="stroked-text"><desc></desc>
</g><text x="178.0022" y="171.7572"
textLength="0.4572" font-size="2.0000" lengthAdjust="spacingAndGlyphs"
text-anchor="start" opacity="0"></text>
<g class="stroked-text"><desc></desc>
</g><text x="178.0022" y="168.7572"
textLength="0.4572" font-size="2.0000" lengthAdjust="spacingAndGlyphs"
text-anchor="start" opacity="0"></text>
<g class="stroked-text"><desc></desc>
</g><path d="M197.0022 191.5072
L197.0022 194.5072
" />
<path d="M261.0022 191.5072
L261.0022 198.0072
" />
<path style="fill:none; 
stroke:#000000; stroke-width:0.1524; stroke-opacity:1; 
stroke-linecap:round; stroke-linejoin:round;fill:none"
d="M 114.3000,76.4540
114.3000,73.6600
" /> 
<path style="fill:none; 
stroke:#000000; stroke-width:0.2540; stroke-opacity:1; 
stroke-linecap:round; stroke-linejoin:round;fill:none"
d="M 116.2050,76.4540
112.3950,76.4540
" /> 
<path style="fill:none; 
stroke:#000000; stroke-width:0.2540; stroke-opacity:1; 
stroke-linecap:round; stroke-linejoin:round;fill:none"
d="M 113.0300,76.9620
112.0140,76.9620
" /> 
<path style="fill:none; 
stroke:#000000; stroke-width:0.2540; stroke-opacity:1; 
stroke-linecap:round; stroke-linejoin:round;fill:none"
d="M 114.8080,76.9620
113.7920,76.9620
" /> 
<path style="fill:none; 
stroke:#000000; stroke-width:0.2540; stroke-opacity:1; 
stroke-linecap:round; stroke-linejoin:round;fill:none"
d="M 116.5860,76.9620
115.5700,76.9620
" /> 
<path style="fill:none; 
stroke:#000000; stroke-width:0.1524; stroke-opacity:1; 
stroke-linecap:round; stroke-linejoin:round;fill:none"
d="M 116.8400,78.7400
116.0780,78.7400
" /> 
<path style="fill:none; 
stroke:#000000; stroke-width:0.1524; stroke-opacity:1; 
stroke-linecap:round; stroke-linejoin:round;fill:none"
d="M 111.7600,78.7400
114.3000,78.7400
114.3000,76.9620
" /> 
<path style="fill:none; 
stroke:#000000; stroke-width:0.1524; stroke-opacity:1; 
stroke-linecap:round; stroke-linejoin:round;fill:none"
d="M 112.5220,76.9620
112.5220,79.5020
116.0780,79.5020
116.0780,76.9620
" /> 
<path style="fill:#000000; fill-opacity:1.0000; 
stroke:#000000; stroke-width:0.1524; stroke-opacity:1; 
stroke-linecap:round; stroke-linejoin:round;fill-rule:evenodd;"
d="M 114.3000,77.2160
114.6810,78.2320
113.9190,78.2320
Z" /> 
<path style="fill:none; 
stroke:#000000; stroke-width:0.1524; stroke-opacity:1; 
stroke-linecap:round; stroke-linejoin:round;fill:none"
d="M 114.8080,78.9940
114.6810,79.1210
114.6810,79.8830
114.5540,80.0100
" /> 
<path style="fill:none; 
stroke:#000000; stroke-width:0.1524; stroke-opacity:1; 
stroke-linecap:round; stroke-linejoin:round;fill:none"
d="M 114.6810,79.5020
114.0460,79.1210
114.0460,79.8830
Z" /> 
</g>
<g style="fill:none; 
stroke:#000000; stroke-width:0.2540; stroke-opacity:1; 
stroke-linecap:round; stroke-linejoin:round;">
<circle cx="114.3000" cy="77.8510" r="2.7940" /> 
</g>
<g style="fill:#000000; fill-opacity:1.0000; 
stroke:#000000; stroke-width:0.1524; stroke-opacity:1; 
stroke-linecap:round; stroke-linejoin:round;">
<circle cx="112.5220" cy="78.7400" r="0.2540" /> 
<circle cx="116.0780" cy="78.7400" r="0.2540" /> 
</g>
<g style="fill:none; 
stroke:#000000; stroke-width:0.1524; stroke-opacity:1; 
stroke-linecap:round; stroke-linejoin:round;">
<path d="M114.3000 73.6600
L114.3000 71.1200
" />
<g transform="rotate(-90.000000 114.0460 72.3900)">
<text x="114.0460" y="72.3900"
textLength="1.4127" font-size="1.6933" lengthAdjust="spacingAndGlyphs"
text-anchor="middle" opacity="0">1</text>
</g>
<g class="stroked-text"><desc>1</desc>
<path d="M113.8825 72.0270
L113.8825 72.7527
" />
<path d="M113.8825 72.3899
L112.6125 72.3899
" />
<path d="M112.6125 72.3899
L112.7940 72.5108
" />
<path d="M112.7940 72.5108
L112.9149 72.6318
" />
<path d="M112.9149 72.6318
L112.9754 72.7527
" />
</g><path d="M111.7600 78.7400
L109.2200 78.7400
" />
<text x="110.4900" y="78.4860"
textLength="1.4127" font-size="1.6933" lengthAdjust="spacingAndGlyphs"
text-anchor="middle" opacity="0">2</text>
<g class="stroked-text"><desc>2</desc>
<path d="M110.1272 77.1735
L110.1876 77.1130
" />
<path d="M110.1876 77.1130
L110.3086 77.0525
" />
<path d="M110.3086 77.0525
L110.6110 77.0525
" />
<path d="M110.6110 77.0525
L110.7319 77.1130
" />
<path d="M110.7319 77.1130
L110.7924 77.1735
" />
<path d="M110.7924 77.1735
L110.8529 77.2944
" />
<path d="M110.8529 77.2944
L110.8529 77.4154
" />
<path d="M110.8529 77.4154
L110.7924 77.5968
" />
<path d="M110.7924 77.5968
L110.0667 78.3225
" />
<path d="M110.0667 78.3225
L110.8529 78.3225
" />
</g><path d="M116.8400 78.7400
L119.3800 78.7400
" />
<text x="118.1100" y="78.4860"
textLength="1.4127" font-size="1.6933" lengthAdjust="spacingAndGlyphs"
text-anchor="middle" opacity="0">3</text>
<g class="stroked-text"><desc>3</desc>
<path d="M117.6867 77.0525
L118.4729 77.0525
" />
<path d="M118.4729 77.0525
L118.0495 77.5363
" />
<path d="M118.0495 77.5363
L118.2310 77.5363
" />
<path d="M118.2310 77.5363
L118.3519 77.5968
" />
<path d="M118.3519 77.5968
L118.4124 77.6573
" />
<path d="M118.4124 77.6573
L118.4729 77.7782
" />
<path d="M118.4729 77.7782
L118.4729 78.0806
" />
<path d="M118.4729 78.0806
L118.4124 78.2016
" />
<path d="M118.4124 78.2016
L118.3519 78.2621
" />
<path d="M118.3519 78.2621
L118.2310 78.3225
" />
<path d="M118.2310 78.3225
L117.8681 78.3225
" />
<path d="M117.8681 78.3225
L117.7472 78.2621
" />
<path d="M117.7472 78.2621
L117.6867 78.2016
" />
</g><text x="114.3000" y="83.1596"
textLength="3.9527" font-size="1.6933" lengthAdjust="spacingAndGlyphs"
text-anchor="middle" opacity="0">Q16</text>
<g class="stroked-text"><desc>Q16</desc>
<path d="M113.5743 83.2251
L113.4533 83.1646
" />
<path d="M113.4533 83.1646
L113.3324 83.0437
" />
<path d="M113.3324 83.0437
L113.1510 82.8622
" />
<path d="M113.1510 82.8622
L113.0300 82.8017
" />
<path d="M113.0300 82.8017
L112.9091 82.8017
" />
<path d="M112.9695 83.1041
L112.8486 83.0437
" />
<path d="M112.8486 83.0437
L112.7276 82.9227
" />
<path d="M112.7276 82.9227
L112.6672 82.6808
" />
<path d="M112.6672 82.6808
L112.6672 82.2575
" />
<path d="M112.6672 82.2575
L112.7276 82.0156
" />
<path d="M112.7276 82.0156
L112.8486 81.8946
" />
<path d="M112.8486 81.8946
L112.9695 81.8341
" />
<path d="M112.9695 81.8341
L113.2114 81.8341
" />
<path d="M113.2114 81.8341
L113.3324 81.8946
" />
<path d="M113.3324 81.8946
L113.4533 82.0156
" />
<path d="M113.4533 82.0156
L113.5138 82.2575
" />
<path d="M113.5138 82.2575
L113.5138 82.6808
" />
<path d="M113.5138 82.6808
L113.4533 82.9227
" />
<path d="M113.4533 82.9227
L113.3324 83.0437
" />
<path d="M113.3324 83.0437
L113.2114 83.1041
" />
<path d="M113.2114 83.1041
L112.9695 83.1041
" />
<path d="M114.7234 83.1041
L113.9977 83.1041
" />
<path d="M114.3605 83.1041
L114.3605 81.8341
" />
<path d="M114.3605 81.8341
L114.2396 82.0156
" />
<path d="M114.2396 82.0156
L114.1186 82.1365
" />
<path d="M114.1186 82.1365
L113.9977 82.1970
" />
<path d="M115.8119 81.8341
L115.5700 81.8341
" />
<path d="M115.5700 81.8341
L115.4491 81.8946
" />
<path d="M115.4491 81.8946
L115.3886 81.9551
" />
<path d="M115.3886 81.9551
L115.2676 82.1365
" />
<path d="M115.2676 82.1365
L115.2072 82.3784
" />
<path d="M115.2072 82.3784
L115.2072 82.8622
" />
<path d="M115.2072 82.8622
L115.2676 82.9832
" />
<path d="M115.2676 82.9832
L115.3281 83.0437
" />
<path d="M115.3281 83.0437
L115.4491 83.1041
" />
<path d="M115.4491 83.1041
L115.6910 83.1041
" />
<path d="M115.6910 83.1041
L115.8119 83.0437
" />
<path d="M115.8119 83.0437
L115.8724 82.9832
" />
<path d="M115.8724 82.9832
L115.9329 82.8622
" />
<path d="M115.9329 82.8622
L115.9329 82.5598
" />
<path d="M115.9329 82.5598
L115.8724 82.4389
" />
<path d="M115.8724 82.4389
L115.8119 82.3784
" />
<path d="M115.8119 82.3784
L115.6910 82.3179
" />
<path d="M115.6910 82.3179
L115.4491 82.3179
" />
<path d="M115.4491 82.3179
L115.3281 82.3784
" />
<path d="M115.3281 82.3784
L115.2676 82.4389
" />
<path d="M115.2676 82.4389
L115.2072 82.5598
" />
</g><text x="114.3000" y="85.4710"
textLength="7.5207" font-size="1.6933" lengthAdjust="spacingAndGlyphs"
text-anchor="middle" opacity="0">BSS138</text>
<g class="stroked-text"><desc>BSS138</desc>
<path d="M111.3670 84.7503
L111.5484 84.8108
" />
<path d="M111.5484 84.8108
L111.6089 84.8712
" />
<path d="M111.6089 84.8712
L111.6693 84.9922
" />
<path d="M111.6693 84.9922
L111.6693 85.1736
" />
<path d="M111.6693 85.1736
L111.6089 85.2946
" />
<path d="M111.6089 85.2946
L111.5484 85.3551
" />
<path d="M111.5484 85.3551
L111.4274 85.4155
" />
<path d="M111.4274 85.4155
L110.9436 85.4155
" />
<path d="M110.9436 85.4155
L110.9436 84.1455
" />
<path d="M110.9436 84.1455
L111.3670 84.1455
" />
<path d="M111.3670 84.1455
L111.4879 84.2060
" />
<path d="M111.4879 84.2060
L111.5484 84.2665
" />
<path d="M111.5484 84.2665
L111.6089 84.3874
" />
<path d="M111.6089 84.3874
L111.6089 84.5084
" />
<path d="M111.6089 84.5084
L111.5484 84.6293
" />
<path d="M111.5484 84.6293
L111.4879 84.6898
" />
<path d="M111.4879 84.6898
L111.3670 84.7503
" />
<path d="M111.3670 84.7503
L110.9436 84.7503
" />
<path d="M112.1532 85.3551
L112.3346 85.4155
" />
<path d="M112.3346 85.4155
L112.6370 85.4155
" />
<path d="M112.6370 85.4155
L112.7579 85.3551
" />
<path d="M112.7579 85.3551
L112.8184 85.2946
" />
<path d="M112.8184 85.2946
L112.8789 85.1736
" />
<path d="M112.8789 85.1736
L112.8789 85.0527
" />
<path d="M112.8789 85.0527
L112.8184 84.9317
" />
<path d="M112.8184 84.9317
L112.7579 84.8712
" />
<path d="M112.7579 84.8712
L112.6370 84.8108
" />
<path d="M112.6370 84.8108
L112.3951 84.7503
" />
<path d="M112.3951 84.7503
L112.2741 84.6898
" />
<path d="M112.2741 84.6898
L112.2136 84.6293
" />
<path d="M112.2136 84.6293
L112.1532 84.5084
" />
<path d="M112.1532 84.5084
L112.1532 84.3874
" />
<path d="M112.1532 84.3874
L112.2136 84.2665
" />
<path d="M112.2136 84.2665
L112.2741 84.2060
" />
<path d="M112.2741 84.2060
L112.3951 84.1455
" />
<path d="M112.3951 84.1455
L112.6974 84.1455
" />
<path d="M112.6974 84.1455
L112.8789 84.2060
" />
<path d="M113.3627 85.3551
L113.5441 85.4155
" />
<path d="M113.5441 85.4155
L113.8465 85.4155
" />
<path d="M113.8465 85.4155
L113.9674 85.3551
" />
<path d="M113.9674 85.3551
L114.0279 85.2946
" />
<path d="M114.0279 85.2946
L114.0884 85.1736
" />
<path d="M114.0884 85.1736
L114.0884 85.0527
" />
<path d="M114.0884 85.0527
L114.0279 84.9317
" />
<path d="M114.0279 84.9317
L113.9674 84.8712
" />
<path d="M113.9674 84.8712
L113.8465 84.8108
" />
<path d="M113.8465 84.8108
L113.6046 84.7503
" />
<path d="M113.6046 84.7503
L113.4836 84.6898
" />
<path d="M113.4836 84.6898
L113.4231 84.6293
" />
<path d="M113.4231 84.6293
L113.3627 84.5084
" />
<path d="M113.3627 84.5084
L113.3627 84.3874
" />
<path d="M113.3627 84.3874
L113.4231 84.2665
" />
<path d="M113.4231 84.2665
L113.4836 84.2060
" />
<path d="M113.4836 84.2060
L113.6046 84.1455
" />
<path d="M113.6046 84.1455
L113.9069 84.1455
" />
<path d="M113.9069 84.1455
L114.0884 84.2060
" />
<path d="M115.2979 85.4155
L114.5722 85.4155
" />
<path d="M114.9350 85.4155
L114.9350 84.1455
" />
<path d="M114.9350 84.1455
L114.8141 84.3270
" />
<path d="M114.8141 84.3270
L114.6931 84.4479
" />
<path d="M114.6931 84.4479
L114.5722 84.5084
" />
<path d="M115.7212 84.1455
L116.5074 84.1455
" />
<path d="M116.5074 84.1455
L116.0840 84.6293
" />
<path d="M116.0840 84.6293
L116.2655 84.6293
" />
<path d="M116.2655 84.6293
L116.3864 84.6898
" />
<path d="M116.3864 84.6898
L116.4469 84.7503
" />
<path d="M116.4469 84.7503
L116.5074 84.8712
" />
<path d="M116.5074 84.8712
L116.5074 85.1736
" />
<path d="M116.5074 85.1736
L116.4469 85.2946
" />
<path d="M116.4469 85.2946
L116.3864 85.3551
" />
<path d="M116.3864 85.3551
L116.2655 85.4155
" />
<path d="M116.2655 85.4155
L115.9026 85.4155
" />
<path d="M115.9026 85.4155
L115.7817 85.3551
" />
<path d="M115.7817 85.3551
L115.7212 85.2946
" />
<path d="M117.2331 84.6898
L117.1121 84.6293
" />
<path d="M117.1121 84.6293
L117.0516 84.5689
" />
<path d="M117.0516 84.5689
L116.9912 84.4479
" />
<path d="M116.9912 84.4479
L116.9912 84.3874
" />
<path d="M116.9912 84.3874
L117.0516 84.2665
" />
<path d="M117.0516 84.2665
L117.1121 84.2060
" />
<path d="M117.1121 84.2060
L117.2331 84.1455
" />
<path d="M117.2331 84.1455
L117.4750 84.1455
" />
<path d="M117.4750 84.1455
L117.5959 84.2060
" />
<path d="M117.5959 84.2060
L117.6564 84.2665
" />
<path d="M117.6564 84.2665
L117.7169 84.3874
" />
<path d="M117.7169 84.3874
L117.7169 84.4479
" />
<path d="M117.7169 84.4479
L117.6564 84.5689
" />
<path d="M117.6564 84.5689
L117.5959 84.6293
" />
<path d="M117.5959 84.6293
L117.4750 84.6898
" />
<path d="M117.4750 84.6898
L117.2331 84.6898
" />
<path d="M117.2331 84.6898
L117.1121 84.7503
" />
<path d="M117.1121 84.7503
L117.0516 84.8108
" />
<path d="M117.0516 84.8108
L116.9912 84.9317
" />
<path d="M116.9912 84.9317
L116.9912 85.1736
" />
<path d="M116.9912 85.1736
L117.0516 85.2946
" />
<path d="M117.0516 85.2946
L117.1121 85.3551
" />
<path d="M117.1121 85.3551
L117.2331 85.4155
" />
<path d="M117.2331 85.4155
L117.4750 85.4155
" />
<path d="M117.4750 85.4155
L117.5959 85.3551
" />
<path d="M117.5959 85.3551
L117.6564 85.2946
" />
<path d="M117.6564 85.2946
L117.7169 85.1736
" />
<path d="M117.7169 85.1736
L117.7169 84.9317
" />
<path d="M117.7169 84.9317
L117.6564 84.8108
" />
<path d="M117.6564 84.8108
L117.5959 84.7503
" />
<path d="M117.5959 84.7503
L117.4750 84.6898
" />
</g></g>
<g style="fill:none; 
stroke:#000000; stroke-width:0.2540; stroke-opacity:1; 
stroke-linecap:round; stroke-linejoin:round;">
<rect x="101.854000" y="67.310000" width="2.032000" height="5.080000" rx="0.000000" />
</g>
<g style="fill:none; 
stroke:#000000; stroke-width:0.1524; stroke-opacity:1; 
stroke-linecap:round; stroke-linejoin:round;">
<path d="M102.8700 67.3100
L102.8700 66.0400
" />
<path d="M102.8700 72.3900
L102.8700 73.6600
" />
<text x="106.6037" y="69.3166"
textLength="3.8922" font-size="1.6933" lengthAdjust="spacingAndGlyphs"
text-anchor="middle" opacity="0">R19</text>
<g class="stroked-text"><desc>R19</desc>
<path d="M105.7872 69.2611
L105.3639 68.6564
" />
<path d="M105.0615 69.2611
L105.0615 67.9911
" />
<path d="M105.0615 67.9911
L105.5453 67.9911
" />
<path d="M105.5453 67.9911
L105.6663 68.0516
" />
<path d="M105.6663 68.0516
L105.7268 68.1121
" />
<path d="M105.7268 68.1121
L105.7872 68.2330
" />
<path d="M105.7872 68.2330
L105.7872 68.4145
" />
<path d="M105.7872 68.4145
L105.7268 68.5354
" />
<path d="M105.7268 68.5354
L105.6663 68.5959
" />
<path d="M105.6663 68.5959
L105.5453 68.6564
" />
<path d="M105.5453 68.6564
L105.0615 68.6564
" />
<path d="M106.9968 69.2611
L106.2711 69.2611
" />
<path d="M106.6339 69.2611
L106.6339 67.9911
" />
<path d="M106.6339 67.9911
L106.5130 68.1726
" />
<path d="M106.5130 68.1726
L106.3920 68.2935
" />
<path d="M106.3920 68.2935
L106.2711 68.3540
" />
<path d="M107.6015 69.2611
L107.8434 69.2611
" />
<path d="M107.8434 69.2611
L107.9644 69.2007
" />
<path d="M107.9644 69.2007
L108.0248 69.1402
" />
<path d="M108.0248 69.1402
L108.1458 68.9587
" />
<path d="M108.1458 68.9587
L108.2063 68.7168
" />
<path d="M108.2063 68.7168
L108.2063 68.2330
" />
<path d="M108.2063 68.2330
L108.1458 68.1121
" />
<path d="M108.1458 68.1121
L108.0853 68.0516
" />
<path d="M108.0853 68.0516
L107.9644 67.9911
" />
<path d="M107.9644 67.9911
L107.7225 67.9911
" />
<path d="M107.7225 67.9911
L107.6015 68.0516
" />
<path d="M107.6015 68.0516
L107.5410 68.1121
" />
<path d="M107.5410 68.1121
L107.4806 68.2330
" />
<path d="M107.4806 68.2330
L107.4806 68.5354
" />
<path d="M107.4806 68.5354
L107.5410 68.6564
" />
<path d="M107.5410 68.6564
L107.6015 68.7168
" />
<path d="M107.6015 68.7168
L107.7225 68.7773
" />
<path d="M107.7225 68.7773
L107.9644 68.7773
" />
<path d="M107.9644 68.7773
L108.0853 68.7168
" />
<path d="M108.0853 68.7168
L108.1458 68.6564
" />
<path d="M108.1458 68.6564
L108.2063 68.5354
" />
</g><text x="105.8780" y="71.6280"
textLength="2.4408" font-size="1.6933" lengthAdjust="spacingAndGlyphs"
text-anchor="middle" opacity="0">1k</text>
<g class="stroked-text"><desc>1k</desc>
<path d="M105.7268 71.5725
L105.0011 71.5725
" />
<path d="M105.3639 71.5725
L105.3639 70.3025
" />
<path d="M105.3639 70.3025
L105.2430 70.4840
" />
<path d="M105.2430 70.4840
L105.1220 70.6049
" />
<path d="M105.1220 70.6049
L105.0011 70.6654
" />
<path d="M106.2710 71.5725
L106.2710 70.3025
" />
<path d="M106.3920 71.0887
L106.7548 71.5725
" />
<path d="M106.7548 70.7259
L106.2710 71.2097
" />
</g></g>
<g style="fill:none; 
stroke:#000000; stroke-width:0.2540; stroke-opacity:1; 
stroke-linecap:round; stroke-linejoin:round;">
<rect x="119.634000" y="67.310000" width="2.032000" height="5.080000" rx="0.000000" />
</g>
<g style="fill:none; 
stroke:#000000; stroke-width:0.1524; stroke-opacity:1; 
stroke-linecap:round; stroke-linejoin:round;">
<path d="M120.6500 67.3100
L120.6500 66.0400
" />
<path d="M120.6500 72.3900
L120.6500 73.6600
" />
<text x="124.3837" y="69.3166"
textLength="3.8922" font-size="1.6933" lengthAdjust="spacingAndGlyphs"
text-anchor="middle" opacity="0">R20</text>
<g class="stroked-text"><desc>R20</desc>
<path d="M123.5672 69.2611
L123.1439 68.6564
" />
<path d="M122.8415 69.2611
L122.8415 67.9911
" />
<path d="M122.8415 67.9911
L123.3253 67.9911
" />
<path d="M123.3253 67.9911
L123.4463 68.0516
" />
<path d="M123.4463 68.0516
L123.5068 68.1121
" />
<path d="M123.5068 68.1121
L123.5672 68.2330
" />
<path d="M123.5672 68.2330
L123.5672 68.4145
" />
<path d="M123.5672 68.4145
L123.5068 68.5354
" />
<path d="M123.5068 68.5354
L123.4463 68.5959
" />
<path d="M123.4463 68.5959
L123.3253 68.6564
" />
<path d="M123.3253 68.6564
L122.8415 68.6564
" />
<path d="M124.0511 68.1121
L124.1115 68.0516
" />
<path d="M124.1115 68.0516
L124.2325 67.9911
" />
<path d="M124.2325 67.9911
L124.5349 67.9911
" />
<path d="M124.5349 67.9911
L124.6558 68.0516
" />
<path d="M124.6558 68.0516
L124.7163 68.1121
" />
<path d="M124.7163 68.1121
L124.7768 68.2330
" />
<path d="M124.7768 68.2330
L124.7768 68.3540
" />
<path d="M124.7768 68.3540
L124.7163 68.5354
" />
<path d="M124.7163 68.5354
L123.9906 69.2611
" />
<path d="M123.9906 69.2611
L124.7768 69.2611
" />
<path d="M125.5629 67.9911
L125.6839 67.9911
" />
<path d="M125.6839 67.9911
L125.8048 68.0516
" />
<path d="M125.8048 68.0516
L125.8653 68.1121
" />
<path d="M125.8653 68.1121
L125.9258 68.2330
" />
<path d="M125.9258 68.2330
L125.9863 68.4749
" />
<path d="M125.9863 68.4749
L125.9863 68.7773
" />
<path d="M125.9863 68.7773
L125.9258 69.0192
" />
<path d="M125.9258 69.0192
L125.8653 69.1402
" />
<path d="M125.8653 69.1402
L125.8048 69.2007
" />
<path d="M125.8048 69.2007
L125.6839 69.2611
" />
<path d="M125.6839 69.2611
L125.5629 69.2611
" />
<path d="M125.5629 69.2611
L125.4420 69.2007
" />
<path d="M125.4420 69.2007
L125.3815 69.1402
" />
<path d="M125.3815 69.1402
L125.3210 69.0192
" />
<path d="M125.3210 69.0192
L125.2606 68.7773
" />
<path d="M125.2606 68.7773
L125.2606 68.4749
" />
<path d="M125.2606 68.4749
L125.3210 68.2330
" />
<path d="M125.3210 68.2330
L125.3815 68.1121
" />
<path d="M125.3815 68.1121
L125.4420 68.0516
" />
<path d="M125.4420 68.0516
L125.5629 67.9911
" />
</g><text x="123.6580" y="71.6280"
textLength="2.4408" font-size="1.6933" lengthAdjust="spacingAndGlyphs"
text-anchor="middle" opacity="0">1k</text>
<g class="stroked-text"><desc>1k</desc>
<path d="M123.5068 71.5725
L122.7811 71.5725
" />
<path d="M123.1439 71.5725
L123.1439 70.3025
" />
<path d="M123.1439 70.3025
L123.0230 70.4840
" />
<path d="M123.0230 70.4840
L122.9020 70.6049
" />
<path d="M122.9020 70.6049
L122.7811 70.6654
" />
<path d="M124.0510 71.5725
L124.0510 70.3025
" />
<path d="M124.1720 71.0887
L124.5348 71.5725
" />
<path d="M124.5348 70.7259
L124.0510 71.2097
" />
</g></g>
<g style="fill:none; 
stroke:#000000; stroke-width:0.1524; stroke-opacity:1; 
stroke-linecap:round; stroke-linejoin:round;">
<text x="88.7984" y="79.3750"
textLength="9.8190" font-size="1.6933" lengthAdjust="spacingAndGlyphs"
text-anchor="end" opacity="0">SIGNAL_LV</text>
<g class="stroked-text"><desc>SIGNAL_LV</desc>
<path d="M79.3243 79.2591
L79.5057 79.3195
" />
<path d="M79.5057 79.3195
L79.8081 79.3195
" />
<path d="M79.8081 79.3195
L79.9290 79.2591
" />
<path d="M79.9290 79.2591
L79.9895 79.1986
" />
<path d="M79.9895 79.1986
L80.0500 79.0776
" />
<path d="M80.0500 79.0776
L80.0500 78.9567
" />
<path d="M80.0500 78.9567
L79.9895 78.8357
" />
<path d="M79.9895 78.8357
L79.9290 78.7752
" />
<path d="M79.9290 78.7752
L79.8081 78.7148
" />
<path d="M79.8081 78.7148
L79.5662 78.6543
" />
<path d="M79.5662 78.6543
L79.4452 78.5938
" />
<path d="M79.4452 78.5938
L79.3847 78.5333
" />
<path d="M79.3847 78.5333
L79.3243 78.4124
" />
<path d="M79.3243 78.4124
L79.3243 78.2914
" />
<path d="M79.3243 78.2914
L79.3847 78.1705
" />
<path d="M79.3847 78.1705
L79.4452 78.1100
" />
<path d="M79.4452 78.1100
L79.5662 78.0495
" />
<path d="M79.5662 78.0495
L79.8685 78.0495
" />
<path d="M79.8685 78.0495
L80.0500 78.1100
" />
<path d="M80.5942 79.3195
L80.5942 78.0495
" />
<path d="M81.8643 78.1100
L81.7433 78.0495
" />
<path d="M81.7433 78.0495
L81.5619 78.0495
" />
<path d="M81.5619 78.0495
L81.3805 78.1100
" />
<path d="M81.3805 78.1100
L81.2595 78.2310
" />
<path d="M81.2595 78.2310
L81.1990 78.3519
" />
<path d="M81.1990 78.3519
L81.1386 78.5938
" />
<path d="M81.1386 78.5938
L81.1386 78.7752
" />
<path d="M81.1386 78.7752
L81.1990 79.0171
" />
<path d="M81.1990 79.0171
L81.2595 79.1381
" />
<path d="M81.2595 79.1381
L81.3805 79.2591
" />
<path d="M81.3805 79.2591
L81.5619 79.3195
" />
<path d="M81.5619 79.3195
L81.6828 79.3195
" />
<path d="M81.6828 79.3195
L81.8643 79.2591
" />
<path d="M81.8643 79.2591
L81.9247 79.1986
" />
<path d="M81.9247 79.1986
L81.9247 78.7752
" />
<path d="M81.9247 78.7752
L81.6828 78.7752
" />
<path d="M82.4690 79.3195
L82.4690 78.0495
" />
<path d="M82.4690 78.0495
L83.1947 79.3195
" />
<path d="M83.1947 79.3195
L83.1947 78.0495
" />
<path d="M83.7391 78.9567
L84.3438 78.9567
" />
<path d="M83.6181 79.3195
L84.0414 78.0495
" />
<path d="M84.0414 78.0495
L84.4648 79.3195
" />
<path d="M85.4929 79.3195
L84.8881 79.3195
" />
<path d="M84.8881 79.3195
L84.8881 78.0495
" />
<path d="M85.6139 79.4405
L86.5815 79.4405
" />
<path d="M87.4886 79.3195
L86.8838 79.3195
" />
<path d="M86.8838 79.3195
L86.8838 78.0495
" />
<path d="M87.7305 78.0495
L88.1538 79.3195
" />
<path d="M88.1538 79.3195
L88.5772 78.0495
" />
</g><path style="fill:none; 
stroke:#000000; stroke-width:0.1524; stroke-opacity:1; 
stroke-linecap:round; stroke-linejoin:round;fill:none"
d="M 90.1700,78.7400
89.5350,78.1050
88.9000,78.1050
88.9000,79.3750
89.5350,79.3750
Z" /> 
</g>
<g style="fill:none; 
stroke:#000000; stroke-width:0.1524; stroke-opacity:1; 
stroke-linecap:round; stroke-linejoin:round;">
<text x="119.2784" y="55.2450"
textLength="2.6223" font-size="1.6933" lengthAdjust="spacingAndGlyphs"
text-anchor="end" opacity="0">HV</text>
<g class="stroked-text"><desc>HV</desc>
<path d="M117.0614 55.1895
L117.0614 53.9195
" />
<path d="M117.0614 54.5243
L117.7871 54.5243
" />
<path d="M117.7871 55.1895
L117.7871 53.9195
" />
<path d="M118.2105 53.9195
L118.6338 55.1895
" />
<path d="M118.6338 55.1895
L119.0572 53.9195
" />
</g><path style="fill:none; 
stroke:#000000; stroke-width:0.1524; stroke-opacity:1; 
stroke-linecap:round; stroke-linejoin:round;fill:none"
d="M 120.6500,54.6100
120.0150,53.9750
119.3800,53.9750
119.3800,55.2450
120.0150,55.2450
Z" /> 
</g>
<g style="fill:none; 
stroke:#000000; stroke-width:0.1524; stroke-opacity:1; 
stroke-linecap:round; stroke-linejoin:round;">
<text x="106.5784" y="55.2450"
textLength="2.3199" font-size="1.6933" lengthAdjust="spacingAndGlyphs"
text-anchor="end" opacity="0">LV</text>
<g class="stroked-text"><desc>LV</desc>
<path d="M105.2686 55.1895
L104.6638 55.1895
" />
<path d="M104.6638 55.1895
L104.6638 53.9195
" />
<path d="M105.5105 53.9195
L105.9338 55.1895
" />
<path d="M105.9338 55.1895
L106.3572 53.9195
" />
</g><path style="fill:none; 
stroke:#000000; stroke-width:0.1524; stroke-opacity:1; 
stroke-linecap:round; stroke-linejoin:round;fill:none"
d="M 107.9500,54.6100
107.3150,53.9750
106.6800,53.9750
106.6800,55.2450
107.3150,55.2450
Z" /> 
</g>
<g style="fill:none; 
stroke:#000000; stroke-width:0.1524; stroke-opacity:1; 
stroke-linecap:round; stroke-linejoin:round;">
<text x="133.4516" y="79.3750"
textLength="10.1214" font-size="1.6933" lengthAdjust="spacingAndGlyphs"
text-anchor="start" opacity="0">SIGNAL_HV</text>
<g class="stroked-text"><desc>SIGNAL_HV</desc>
<path d="M133.7937 79.2591
L133.9751 79.3195
" />
<path d="M133.9751 79.3195
L134.2775 79.3195
" />
<path d="M134.2775 79.3195
L134.3984 79.2591
" />
<path d="M134.3984 79.2591
L134.4589 79.1986
" />
<path d="M134.4589 79.1986
L134.5194 79.0776
" />
<path d="M134.5194 79.0776
L134.5194 78.9567
" />
<path d="M134.5194 78.9567
L134.4589 78.8357
" />
<path d="M134.4589 78.8357
L134.3984 78.7752
" />
<path d="M134.3984 78.7752
L134.2775 78.7148
" />
<path d="M134.2775 78.7148
L134.0356 78.6543
" />
<path d="M134.0356 78.6543
L133.9146 78.5938
" />
<path d="M133.9146 78.5938
L133.8541 78.5333
" />
<path d="M133.8541 78.5333
L133.7937 78.4124
" />
<path d="M133.7937 78.4124
L133.7937 78.2914
" />
<path d="M133.7937 78.2914
L133.8541 78.1705
" />
<path d="M133.8541 78.1705
L133.9146 78.1100
" />
<path d="M133.9146 78.1100
L134.0356 78.0495
" />
<path d="M134.0356 78.0495
L134.3379 78.0495
" />
<path d="M134.3379 78.0495
L134.5194 78.1100
" />
<path d="M135.0636 79.3195
L135.0636 78.0495
" />
<path d="M136.3337 78.1100
L136.2127 78.0495
" />
<path d="M136.2127 78.0495
L136.0313 78.0495
" />
<path d="M136.0313 78.0495
L135.8499 78.1100
" />
<path d="M135.8499 78.1100
L135.7289 78.2310
" />
<path d="M135.7289 78.2310
L135.6684 78.3519
" />
<path d="M135.6684 78.3519
L135.6080 78.5938
" />
<path d="M135.6080 78.5938
L135.6080 78.7752
" />
<path d="M135.6080 78.7752
L135.6684 79.0171
" />
<path d="M135.6684 79.0171
L135.7289 79.1381
" />
<path d="M135.7289 79.1381
L135.8499 79.2591
" />
<path d="M135.8499 79.2591
L136.0313 79.3195
" />
<path d="M136.0313 79.3195
L136.1522 79.3195
" />
<path d="M136.1522 79.3195
L136.3337 79.2591
" />
<path d="M136.3337 79.2591
L136.3941 79.1986
" />
<path d="M136.3941 79.1986
L136.3941 78.7752
" />
<path d="M136.3941 78.7752
L136.1522 78.7752
" />
<path d="M136.9384 79.3195
L136.9384 78.0495
" />
<path d="M136.9384 78.0495
L137.6641 79.3195
" />
<path d="M137.6641 79.3195
L137.6641 78.0495
" />
<path d="M138.2085 78.9567
L138.8132 78.9567
" />
<path d="M138.0875 79.3195
L138.5108 78.0495
" />
<path d="M138.5108 78.0495
L138.9342 79.3195
" />
<path d="M139.9623 79.3195
L139.3575 79.3195
" />
<path d="M139.3575 79.3195
L139.3575 78.0495
" />
<path d="M140.0833 79.4405
L141.0509 79.4405
" />
<path d="M141.3532 79.3195
L141.3532 78.0495
" />
<path d="M141.3532 78.6543
L142.0789 78.6543
" />
<path d="M142.0789 79.3195
L142.0789 78.0495
" />
<path d="M142.5023 78.0495
L142.9256 79.3195
" />
<path d="M142.9256 79.3195
L143.3490 78.0495
" />
</g><path style="fill:none; 
stroke:#000000; stroke-width:0.1524; stroke-opacity:1; 
stroke-linecap:round; stroke-linejoin:round;fill:none"
d="M 132.0800,78.7400
132.7150,79.3750
133.3500,79.3750
133.3500,78.1050
132.7150,78.1050
Z" /> 
<path d="M90.1700 78.7400
L102.8700 78.7400
" />
<path d="M102.8700 78.7400
L109.2200 78.7400
" />
<path d="M102.8700 73.6600
L102.8700 78.7400
" />
<path d="M119.3800 78.7400
L120.6500 78.7400
" />
<path d="M107.9500 59.6900
L102.8700 59.6900
" />
<path d="M102.8700 66.0400
L102.8700 59.6900
" />
<path d="M107.9500 59.6900
L107.9500 54.6100
" />
<path d="M120.6500 78.7400
L120.6500 73.6600
" />
<path d="M120.6500 66.0400
L120.6500 54.6100
" />
<path d="M114.3000 71.1200
L114.3000 59.6900
" />
<path d="M114.3000 59.6900
L107.9500 59.6900
" />
<path d="M120.6500 78.7400
L132.0800 78.7400
" />
</g>
<g style="fill:#000000; fill-opacity:1.0000; 
stroke:#000000; stroke-width:0.1524; stroke-opacity:1; 
stroke-linecap:round; stroke-linejoin:round;">
<circle cx="120.6500" cy="78.7400" r="0.4572" /> 
<circle cx="102.8700" cy="78.7400" r="0.4572" /> 
<circle cx="107.9500" cy="59.6900" r="0.4572" /> 
</g> 
</svg>
