<?xml version="1.0" standalone="no"?>
 <!DOCTYPE svg PUBLIC "-//W3C//DTD SVG 1.1//EN" 
 "http://www.w3.org/Graphics/SVG/1.1/DTD/svg11.dtd"> 
<svg
  xmlns:svg="http://www.w3.org/2000/svg"
  xmlns="http://www.w3.org/2000/svg"
  xmlns:xlink="http://www.w3.org/1999/xlink"
  version="1.1"
  width="297.0022mm" height="210.0072mm" viewBox="0.0000 0.0000 297.0022 210.0072">
<title>SVG Image created as OpenMowerMainboard-F_CrtYd.svg date 2024/07/23 19:13:23 </title>
  <desc>Image generated by PCBNEW </desc>
<g style="fill:#000000; fill-opacity:1.0000;stroke:#000000; stroke-opacity:1.0000;
stroke-linecap:round; stroke-linejoin:round;"
 transform="translate(0 0) scale(1 1)">
</g>
<g style="fill:none; 
stroke:#000000; stroke-width:0.1500; stroke-opacity:1; 
stroke-linecap:round; stroke-linejoin:round;">
<path d="M177.0022 166.0072
L285.0022 166.0072
L285.0022 198.0072
L177.0022 198.0072
L177.0022 166.0072
" />
</g>
<g style="fill:none; 
stroke:#000000; stroke-width:0.1500; stroke-opacity:1; 
stroke-linecap:round; stroke-linejoin:round;">
<path d="M10.0000 10.0000
L287.0022 10.0000
L287.0022 200.0072
L10.0000 200.0072
L10.0000 10.0000
" />
</g>
<g style="fill:none; 
stroke:#000000; stroke-width:0.1500; stroke-opacity:1; 
stroke-linecap:round; stroke-linejoin:round;">
<path d="M12.0000 12.0000
L285.0022 12.0000
L285.0022 198.0072
L12.0000 198.0072
L12.0000 12.0000
" />
</g>
<g style="fill:none; 
stroke:#000000; stroke-width:0.1500; stroke-opacity:1; 
stroke-linecap:round; stroke-linejoin:round;">
<path d="M60.0000 12.0000
L60.0000 10.0000
" />
</g>
<g style="fill:none; 
stroke:#000000; stroke-width:0.1500; stroke-opacity:1; 
stroke-linecap:round; stroke-linejoin:round;">
<path d="M110.0000 12.0000
L110.0000 10.0000
" />
</g>
<g style="fill:none; 
stroke:#000000; stroke-width:0.1500; stroke-opacity:1; 
stroke-linecap:round; stroke-linejoin:round;">
<path d="M160.0000 12.0000
L160.0000 10.0000
" />
</g>
<g style="fill:none; 
stroke:#000000; stroke-width:0.1500; stroke-opacity:1; 
stroke-linecap:round; stroke-linejoin:round;">
<path d="M210.0000 12.0000
L210.0000 10.0000
" />
</g>
<g style="fill:none; 
stroke:#000000; stroke-width:0.1500; stroke-opacity:1; 
stroke-linecap:round; stroke-linejoin:round;">
<path d="M260.0000 12.0000
L260.0000 10.0000
" />
</g>
<g style="fill:none; 
stroke:#000000; stroke-width:0.1500; stroke-opacity:1; 
stroke-linecap:round; stroke-linejoin:round;">
<text x="35.0000" y="11.6500"
textLength="1.4281" font-size="1.7333" lengthAdjust="spacingAndGlyphs"
text-anchor="start" opacity="0">1</text>
<g class="stroked-text"><desc>1</desc>
<path d="M36.0892 11.5936
L35.3463 11.5936
" />
<path d="M35.7177 11.5936
L35.7177 10.2936
" />
<path d="M35.7177 10.2936
L35.5939 10.4793
" />
<path d="M35.5939 10.4793
L35.4701 10.6031
" />
<path d="M35.4701 10.6031
L35.3463 10.6650
" />
</g></g>
<g style="fill:none; 
stroke:#000000; stroke-width:0.1500; stroke-opacity:1; 
stroke-linecap:round; stroke-linejoin:round;">
<text x="85.0000" y="11.6500"
textLength="1.4281" font-size="1.7333" lengthAdjust="spacingAndGlyphs"
text-anchor="start" opacity="0">2</text>
<g class="stroked-text"><desc>2</desc>
<path d="M85.3463 10.4174
L85.4082 10.3555
" />
<path d="M85.4082 10.3555
L85.5320 10.2936
" />
<path d="M85.5320 10.2936
L85.8415 10.2936
" />
<path d="M85.8415 10.2936
L85.9654 10.3555
" />
<path d="M85.9654 10.3555
L86.0273 10.4174
" />
<path d="M86.0273 10.4174
L86.0892 10.5412
" />
<path d="M86.0892 10.5412
L86.0892 10.6650
" />
<path d="M86.0892 10.6650
L86.0273 10.8507
" />
<path d="M86.0273 10.8507
L85.2844 11.5936
" />
<path d="M85.2844 11.5936
L86.0892 11.5936
" />
</g></g>
<g style="fill:none; 
stroke:#000000; stroke-width:0.1500; stroke-opacity:1; 
stroke-linecap:round; stroke-linejoin:round;">
<text x="135.0000" y="11.6500"
textLength="1.4281" font-size="1.7333" lengthAdjust="spacingAndGlyphs"
text-anchor="start" opacity="0">3</text>
<g class="stroked-text"><desc>3</desc>
<path d="M135.2844 10.2936
L136.0892 10.2936
" />
<path d="M136.0892 10.2936
L135.6558 10.7888
" />
<path d="M135.6558 10.7888
L135.8415 10.7888
" />
<path d="M135.8415 10.7888
L135.9654 10.8507
" />
<path d="M135.9654 10.8507
L136.0273 10.9127
" />
<path d="M136.0273 10.9127
L136.0892 11.0365
" />
<path d="M136.0892 11.0365
L136.0892 11.3460
" />
<path d="M136.0892 11.3460
L136.0273 11.4698
" />
<path d="M136.0273 11.4698
L135.9654 11.5317
" />
<path d="M135.9654 11.5317
L135.8415 11.5936
" />
<path d="M135.8415 11.5936
L135.4701 11.5936
" />
<path d="M135.4701 11.5936
L135.3463 11.5317
" />
<path d="M135.3463 11.5317
L135.2844 11.4698
" />
</g></g>
<g style="fill:none; 
stroke:#000000; stroke-width:0.1500; stroke-opacity:1; 
stroke-linecap:round; stroke-linejoin:round;">
<text x="185.0000" y="11.6500"
textLength="1.4281" font-size="1.7333" lengthAdjust="spacingAndGlyphs"
text-anchor="start" opacity="0">4</text>
<g class="stroked-text"><desc>4</desc>
<path d="M185.9654 10.7269
L185.9654 11.5936
" />
<path d="M185.6558 10.2317
L185.3463 11.1603
" />
<path d="M185.3463 11.1603
L186.1511 11.1603
" />
</g></g>
<g style="fill:none; 
stroke:#000000; stroke-width:0.1500; stroke-opacity:1; 
stroke-linecap:round; stroke-linejoin:round;">
<text x="235.0000" y="11.6500"
textLength="1.4281" font-size="1.7333" lengthAdjust="spacingAndGlyphs"
text-anchor="start" opacity="0">5</text>
<g class="stroked-text"><desc>5</desc>
<path d="M236.0273 10.2936
L235.4082 10.2936
" />
<path d="M235.4082 10.2936
L235.3463 10.9127
" />
<path d="M235.3463 10.9127
L235.4082 10.8507
" />
<path d="M235.4082 10.8507
L235.5320 10.7888
" />
<path d="M235.5320 10.7888
L235.8415 10.7888
" />
<path d="M235.8415 10.7888
L235.9654 10.8507
" />
<path d="M235.9654 10.8507
L236.0273 10.9127
" />
<path d="M236.0273 10.9127
L236.0892 11.0365
" />
<path d="M236.0892 11.0365
L236.0892 11.3460
" />
<path d="M236.0892 11.3460
L236.0273 11.4698
" />
<path d="M236.0273 11.4698
L235.9654 11.5317
" />
<path d="M235.9654 11.5317
L235.8415 11.5936
" />
<path d="M235.8415 11.5936
L235.5320 11.5936
" />
<path d="M235.5320 11.5936
L235.4082 11.5317
" />
<path d="M235.4082 11.5317
L235.3463 11.4698
" />
</g></g>
<g style="fill:none; 
stroke:#000000; stroke-width:0.1500; stroke-opacity:1; 
stroke-linecap:round; stroke-linejoin:round;">
<text x="285.0000" y="11.6500"
textLength="1.4281" font-size="1.7333" lengthAdjust="spacingAndGlyphs"
text-anchor="start" opacity="0">6</text>
<g class="stroked-text"><desc>6</desc>
<path d="M285.9654 10.2936
L285.7177 10.2936
" />
<path d="M285.7177 10.2936
L285.5939 10.3555
" />
<path d="M285.5939 10.3555
L285.5320 10.4174
" />
<path d="M285.5320 10.4174
L285.4082 10.6031
" />
<path d="M285.4082 10.6031
L285.3463 10.8507
" />
<path d="M285.3463 10.8507
L285.3463 11.3460
" />
<path d="M285.3463 11.3460
L285.4082 11.4698
" />
<path d="M285.4082 11.4698
L285.4701 11.5317
" />
<path d="M285.4701 11.5317
L285.5939 11.5936
" />
<path d="M285.5939 11.5936
L285.8415 11.5936
" />
<path d="M285.8415 11.5936
L285.9654 11.5317
" />
<path d="M285.9654 11.5317
L286.0273 11.4698
" />
<path d="M286.0273 11.4698
L286.0892 11.3460
" />
<path d="M286.0892 11.3460
L286.0892 11.0365
" />
<path d="M286.0892 11.0365
L286.0273 10.9127
" />
<path d="M286.0273 10.9127
L285.9654 10.8507
" />
<path d="M285.9654 10.8507
L285.8415 10.7888
" />
<path d="M285.8415 10.7888
L285.5939 10.7888
" />
<path d="M285.5939 10.7888
L285.4701 10.8507
" />
<path d="M285.4701 10.8507
L285.4082 10.9127
" />
<path d="M285.4082 10.9127
L285.3463 11.0365
" />
</g></g>
<g style="fill:none; 
stroke:#000000; stroke-width:0.1500; stroke-opacity:1; 
stroke-linecap:round; stroke-linejoin:round;">
<path d="M60.0000 198.0072
L60.0000 200.0072
" />
</g>
<g style="fill:none; 
stroke:#000000; stroke-width:0.1500; stroke-opacity:1; 
stroke-linecap:round; stroke-linejoin:round;">
<path d="M110.0000 198.0072
L110.0000 200.0072
" />
</g>
<g style="fill:none; 
stroke:#000000; stroke-width:0.1500; stroke-opacity:1; 
stroke-linecap:round; stroke-linejoin:round;">
<path d="M160.0000 198.0072
L160.0000 200.0072
" />
</g>
<g style="fill:none; 
stroke:#000000; stroke-width:0.1500; stroke-opacity:1; 
stroke-linecap:round; stroke-linejoin:round;">
<path d="M210.0000 198.0072
L210.0000 200.0072
" />
</g>
<g style="fill:none; 
stroke:#000000; stroke-width:0.1500; stroke-opacity:1; 
stroke-linecap:round; stroke-linejoin:round;">
<path d="M260.0000 198.0072
L260.0000 200.0072
" />
</g>
<g style="fill:none; 
stroke:#000000; stroke-width:0.1500; stroke-opacity:1; 
stroke-linecap:round; stroke-linejoin:round;">
<text x="35.0000" y="199.6572"
textLength="1.4281" font-size="1.7333" lengthAdjust="spacingAndGlyphs"
text-anchor="start" opacity="0">1</text>
<g class="stroked-text"><desc>1</desc>
<path d="M36.0892 199.6008
L35.3463 199.6008
" />
<path d="M35.7177 199.6008
L35.7177 198.3008
" />
<path d="M35.7177 198.3008
L35.5939 198.4865
" />
<path d="M35.5939 198.4865
L35.4701 198.6103
" />
<path d="M35.4701 198.6103
L35.3463 198.6722
" />
</g></g>
<g style="fill:none; 
stroke:#000000; stroke-width:0.1500; stroke-opacity:1; 
stroke-linecap:round; stroke-linejoin:round;">
<text x="85.0000" y="199.6572"
textLength="1.4281" font-size="1.7333" lengthAdjust="spacingAndGlyphs"
text-anchor="start" opacity="0">2</text>
<g class="stroked-text"><desc>2</desc>
<path d="M85.3463 198.4246
L85.4082 198.3627
" />
<path d="M85.4082 198.3627
L85.5320 198.3008
" />
<path d="M85.5320 198.3008
L85.8415 198.3008
" />
<path d="M85.8415 198.3008
L85.9654 198.3627
" />
<path d="M85.9654 198.3627
L86.0273 198.4246
" />
<path d="M86.0273 198.4246
L86.0892 198.5484
" />
<path d="M86.0892 198.5484
L86.0892 198.6722
" />
<path d="M86.0892 198.6722
L86.0273 198.8579
" />
<path d="M86.0273 198.8579
L85.2844 199.6008
" />
<path d="M85.2844 199.6008
L86.0892 199.6008
" />
</g></g>
<g style="fill:none; 
stroke:#000000; stroke-width:0.1500; stroke-opacity:1; 
stroke-linecap:round; stroke-linejoin:round;">
<text x="135.0000" y="199.6572"
textLength="1.4281" font-size="1.7333" lengthAdjust="spacingAndGlyphs"
text-anchor="start" opacity="0">3</text>
<g class="stroked-text"><desc>3</desc>
<path d="M135.2844 198.3008
L136.0892 198.3008
" />
<path d="M136.0892 198.3008
L135.6558 198.7960
" />
<path d="M135.6558 198.7960
L135.8415 198.7960
" />
<path d="M135.8415 198.7960
L135.9654 198.8579
" />
<path d="M135.9654 198.8579
L136.0273 198.9199
" />
<path d="M136.0273 198.9199
L136.0892 199.0437
" />
<path d="M136.0892 199.0437
L136.0892 199.3532
" />
<path d="M136.0892 199.3532
L136.0273 199.4770
" />
<path d="M136.0273 199.4770
L135.9654 199.5389
" />
<path d="M135.9654 199.5389
L135.8415 199.6008
" />
<path d="M135.8415 199.6008
L135.4701 199.6008
" />
<path d="M135.4701 199.6008
L135.3463 199.5389
" />
<path d="M135.3463 199.5389
L135.2844 199.4770
" />
</g></g>
<g style="fill:none; 
stroke:#000000; stroke-width:0.1500; stroke-opacity:1; 
stroke-linecap:round; stroke-linejoin:round;">
<text x="185.0000" y="199.6572"
textLength="1.4281" font-size="1.7333" lengthAdjust="spacingAndGlyphs"
text-anchor="start" opacity="0">4</text>
<g class="stroked-text"><desc>4</desc>
<path d="M185.9654 198.7341
L185.9654 199.6008
" />
<path d="M185.6558 198.2389
L185.3463 199.1675
" />
<path d="M185.3463 199.1675
L186.1511 199.1675
" />
</g></g>
<g style="fill:none; 
stroke:#000000; stroke-width:0.1500; stroke-opacity:1; 
stroke-linecap:round; stroke-linejoin:round;">
<text x="235.0000" y="199.6572"
textLength="1.4281" font-size="1.7333" lengthAdjust="spacingAndGlyphs"
text-anchor="start" opacity="0">5</text>
<g class="stroked-text"><desc>5</desc>
<path d="M236.0273 198.3008
L235.4082 198.3008
" />
<path d="M235.4082 198.3008
L235.3463 198.9199
" />
<path d="M235.3463 198.9199
L235.4082 198.8579
" />
<path d="M235.4082 198.8579
L235.5320 198.7960
" />
<path d="M235.5320 198.7960
L235.8415 198.7960
" />
<path d="M235.8415 198.7960
L235.9654 198.8579
" />
<path d="M235.9654 198.8579
L236.0273 198.9199
" />
<path d="M236.0273 198.9199
L236.0892 199.0437
" />
<path d="M236.0892 199.0437
L236.0892 199.3532
" />
<path d="M236.0892 199.3532
L236.0273 199.4770
" />
<path d="M236.0273 199.4770
L235.9654 199.5389
" />
<path d="M235.9654 199.5389
L235.8415 199.6008
" />
<path d="M235.8415 199.6008
L235.5320 199.6008
" />
<path d="M235.5320 199.6008
L235.4082 199.5389
" />
<path d="M235.4082 199.5389
L235.3463 199.4770
" />
</g></g>
<g style="fill:none; 
stroke:#000000; stroke-width:0.1500; stroke-opacity:1; 
stroke-linecap:round; stroke-linejoin:round;">
<text x="285.0000" y="199.6572"
textLength="1.4281" font-size="1.7333" lengthAdjust="spacingAndGlyphs"
text-anchor="start" opacity="0">6</text>
<g class="stroked-text"><desc>6</desc>
<path d="M285.9654 198.3008
L285.7177 198.3008
" />
<path d="M285.7177 198.3008
L285.5939 198.3627
" />
<path d="M285.5939 198.3627
L285.5320 198.4246
" />
<path d="M285.5320 198.4246
L285.4082 198.6103
" />
<path d="M285.4082 198.6103
L285.3463 198.8579
" />
<path d="M285.3463 198.8579
L285.3463 199.3532
" />
<path d="M285.3463 199.3532
L285.4082 199.4770
" />
<path d="M285.4082 199.4770
L285.4701 199.5389
" />
<path d="M285.4701 199.5389
L285.5939 199.6008
" />
<path d="M285.5939 199.6008
L285.8415 199.6008
" />
<path d="M285.8415 199.6008
L285.9654 199.5389
" />
<path d="M285.9654 199.5389
L286.0273 199.4770
" />
<path d="M286.0273 199.4770
L286.0892 199.3532
" />
<path d="M286.0892 199.3532
L286.0892 199.0437
" />
<path d="M286.0892 199.0437
L286.0273 198.9199
" />
<path d="M286.0273 198.9199
L285.9654 198.8579
" />
<path d="M285.9654 198.8579
L285.8415 198.7960
" />
<path d="M285.8415 198.7960
L285.5939 198.7960
" />
<path d="M285.5939 198.7960
L285.4701 198.8579
" />
<path d="M285.4701 198.8579
L285.4082 198.9199
" />
<path d="M285.4082 198.9199
L285.3463 199.0437
" />
</g></g>
<g style="fill:none; 
stroke:#000000; stroke-width:0.1500; stroke-opacity:1; 
stroke-linecap:round; stroke-linejoin:round;">
<path d="M10.0000 60.0000
L12.0000 60.0000
" />
</g>
<g style="fill:none; 
stroke:#000000; stroke-width:0.1500; stroke-opacity:1; 
stroke-linecap:round; stroke-linejoin:round;">
<path d="M10.0000 110.0000
L12.0000 110.0000
" />
</g>
<g style="fill:none; 
stroke:#000000; stroke-width:0.1500; stroke-opacity:1; 
stroke-linecap:round; stroke-linejoin:round;">
<path d="M10.0000 160.0000
L12.0000 160.0000
" />
</g>
<g style="fill:none; 
stroke:#000000; stroke-width:0.1500; stroke-opacity:1; 
stroke-linecap:round; stroke-linejoin:round;">
<text x="11.0000" y="35.6500"
textLength="1.3043" font-size="1.7333" lengthAdjust="spacingAndGlyphs"
text-anchor="middle" opacity="0">A</text>
<g class="stroked-text"><desc>A</desc>
<path d="M10.6905 35.2222
L11.3095 35.2222
" />
<path d="M10.5667 35.5936
L11.0000 34.2936
" />
<path d="M11.0000 34.2936
L11.4333 35.5936
" />
</g></g>
<g style="fill:none; 
stroke:#000000; stroke-width:0.1500; stroke-opacity:1; 
stroke-linecap:round; stroke-linejoin:round;">
<text x="11.0000" y="85.6500"
textLength="1.4900" font-size="1.7333" lengthAdjust="spacingAndGlyphs"
text-anchor="middle" opacity="0">B</text>
<g class="stroked-text"><desc>B</desc>
<path d="M11.0929 84.9127
L11.2786 84.9746
" />
<path d="M11.2786 84.9746
L11.3405 85.0365
" />
<path d="M11.3405 85.0365
L11.4024 85.1603
" />
<path d="M11.4024 85.1603
L11.4024 85.3460
" />
<path d="M11.4024 85.3460
L11.3405 85.4698
" />
<path d="M11.3405 85.4698
L11.2786 85.5317
" />
<path d="M11.2786 85.5317
L11.1548 85.5936
" />
<path d="M11.1548 85.5936
L10.6595 85.5936
" />
<path d="M10.6595 85.5936
L10.6595 84.2936
" />
<path d="M10.6595 84.2936
L11.0929 84.2936
" />
<path d="M11.0929 84.2936
L11.2167 84.3555
" />
<path d="M11.2167 84.3555
L11.2786 84.4174
" />
<path d="M11.2786 84.4174
L11.3405 84.5412
" />
<path d="M11.3405 84.5412
L11.3405 84.6650
" />
<path d="M11.3405 84.6650
L11.2786 84.7888
" />
<path d="M11.2786 84.7888
L11.2167 84.8507
" />
<path d="M11.2167 84.8507
L11.0929 84.9127
" />
<path d="M11.0929 84.9127
L10.6595 84.9127
" />
</g></g>
<g style="fill:none; 
stroke:#000000; stroke-width:0.1500; stroke-opacity:1; 
stroke-linecap:round; stroke-linejoin:round;">
<text x="11.0000" y="135.6500"
textLength="1.4900" font-size="1.7333" lengthAdjust="spacingAndGlyphs"
text-anchor="middle" opacity="0">C</text>
<g class="stroked-text"><desc>C</desc>
<path d="M11.4024 135.4698
L11.3405 135.5317
" />
<path d="M11.3405 135.5317
L11.1548 135.5936
" />
<path d="M11.1548 135.5936
L11.0310 135.5936
" />
<path d="M11.0310 135.5936
L10.8452 135.5317
" />
<path d="M10.8452 135.5317
L10.7214 135.4079
" />
<path d="M10.7214 135.4079
L10.6595 135.2841
" />
<path d="M10.6595 135.2841
L10.5976 135.0365
" />
<path d="M10.5976 135.0365
L10.5976 134.8507
" />
<path d="M10.5976 134.8507
L10.6595 134.6031
" />
<path d="M10.6595 134.6031
L10.7214 134.4793
" />
<path d="M10.7214 134.4793
L10.8452 134.3555
" />
<path d="M10.8452 134.3555
L11.0310 134.2936
" />
<path d="M11.0310 134.2936
L11.1548 134.2936
" />
<path d="M11.1548 134.2936
L11.3405 134.3555
" />
<path d="M11.3405 134.3555
L11.4024 134.4174
" />
</g></g>
<g style="fill:none; 
stroke:#000000; stroke-width:0.1500; stroke-opacity:1; 
stroke-linecap:round; stroke-linejoin:round;">
<text x="11.0000" y="185.6500"
textLength="1.4900" font-size="1.7333" lengthAdjust="spacingAndGlyphs"
text-anchor="middle" opacity="0">D</text>
<g class="stroked-text"><desc>D</desc>
<path d="M10.6595 185.5936
L10.6595 184.2936
" />
<path d="M10.6595 184.2936
L10.9690 184.2936
" />
<path d="M10.9690 184.2936
L11.1548 184.3555
" />
<path d="M11.1548 184.3555
L11.2786 184.4793
" />
<path d="M11.2786 184.4793
L11.3405 184.6031
" />
<path d="M11.3405 184.6031
L11.4024 184.8507
" />
<path d="M11.4024 184.8507
L11.4024 185.0365
" />
<path d="M11.4024 185.0365
L11.3405 185.2841
" />
<path d="M11.3405 185.2841
L11.2786 185.4079
" />
<path d="M11.2786 185.4079
L11.1548 185.5317
" />
<path d="M11.1548 185.5317
L10.9690 185.5936
" />
<path d="M10.9690 185.5936
L10.6595 185.5936
" />
</g></g>
<g style="fill:none; 
stroke:#000000; stroke-width:0.1500; stroke-opacity:1; 
stroke-linecap:round; stroke-linejoin:round;">
<path d="M287.0022 60.0000
L285.0022 60.0000
" />
</g>
<g style="fill:none; 
stroke:#000000; stroke-width:0.1500; stroke-opacity:1; 
stroke-linecap:round; stroke-linejoin:round;">
<path d="M287.0022 110.0000
L285.0022 110.0000
" />
</g>
<g style="fill:none; 
stroke:#000000; stroke-width:0.1500; stroke-opacity:1; 
stroke-linecap:round; stroke-linejoin:round;">
<path d="M287.0022 160.0000
L285.0022 160.0000
" />
</g>
<g style="fill:none; 
stroke:#000000; stroke-width:0.1500; stroke-opacity:1; 
stroke-linecap:round; stroke-linejoin:round;">
<text x="286.0022" y="35.6500"
textLength="1.3043" font-size="1.7333" lengthAdjust="spacingAndGlyphs"
text-anchor="middle" opacity="0">A</text>
<g class="stroked-text"><desc>A</desc>
<path d="M285.6927 35.2222
L286.3117 35.2222
" />
<path d="M285.5689 35.5936
L286.0022 34.2936
" />
<path d="M286.0022 34.2936
L286.4355 35.5936
" />
</g></g>
<g style="fill:none; 
stroke:#000000; stroke-width:0.1500; stroke-opacity:1; 
stroke-linecap:round; stroke-linejoin:round;">
<text x="286.0022" y="85.6500"
textLength="1.4900" font-size="1.7333" lengthAdjust="spacingAndGlyphs"
text-anchor="middle" opacity="0">B</text>
<g class="stroked-text"><desc>B</desc>
<path d="M286.0951 84.9127
L286.2808 84.9746
" />
<path d="M286.2808 84.9746
L286.3427 85.0365
" />
<path d="M286.3427 85.0365
L286.4046 85.1603
" />
<path d="M286.4046 85.1603
L286.4046 85.3460
" />
<path d="M286.4046 85.3460
L286.3427 85.4698
" />
<path d="M286.3427 85.4698
L286.2808 85.5317
" />
<path d="M286.2808 85.5317
L286.1570 85.5936
" />
<path d="M286.1570 85.5936
L285.6617 85.5936
" />
<path d="M285.6617 85.5936
L285.6617 84.2936
" />
<path d="M285.6617 84.2936
L286.0951 84.2936
" />
<path d="M286.0951 84.2936
L286.2189 84.3555
" />
<path d="M286.2189 84.3555
L286.2808 84.4174
" />
<path d="M286.2808 84.4174
L286.3427 84.5412
" />
<path d="M286.3427 84.5412
L286.3427 84.6650
" />
<path d="M286.3427 84.6650
L286.2808 84.7888
" />
<path d="M286.2808 84.7888
L286.2189 84.8507
" />
<path d="M286.2189 84.8507
L286.0951 84.9127
" />
<path d="M286.0951 84.9127
L285.6617 84.9127
" />
</g></g>
<g style="fill:none; 
stroke:#000000; stroke-width:0.1500; stroke-opacity:1; 
stroke-linecap:round; stroke-linejoin:round;">
<text x="286.0022" y="135.6500"
textLength="1.4900" font-size="1.7333" lengthAdjust="spacingAndGlyphs"
text-anchor="middle" opacity="0">C</text>
<g class="stroked-text"><desc>C</desc>
<path d="M286.4046 135.4698
L286.3427 135.5317
" />
<path d="M286.3427 135.5317
L286.1570 135.5936
" />
<path d="M286.1570 135.5936
L286.0332 135.5936
" />
<path d="M286.0332 135.5936
L285.8474 135.5317
" />
<path d="M285.8474 135.5317
L285.7236 135.4079
" />
<path d="M285.7236 135.4079
L285.6617 135.2841
" />
<path d="M285.6617 135.2841
L285.5998 135.0365
" />
<path d="M285.5998 135.0365
L285.5998 134.8507
" />
<path d="M285.5998 134.8507
L285.6617 134.6031
" />
<path d="M285.6617 134.6031
L285.7236 134.4793
" />
<path d="M285.7236 134.4793
L285.8474 134.3555
" />
<path d="M285.8474 134.3555
L286.0332 134.2936
" />
<path d="M286.0332 134.2936
L286.1570 134.2936
" />
<path d="M286.1570 134.2936
L286.3427 134.3555
" />
<path d="M286.3427 134.3555
L286.4046 134.4174
" />
</g></g>
<g style="fill:none; 
stroke:#000000; stroke-width:0.1500; stroke-opacity:1; 
stroke-linecap:round; stroke-linejoin:round;">
<text x="286.0022" y="185.6500"
textLength="1.4900" font-size="1.7333" lengthAdjust="spacingAndGlyphs"
text-anchor="middle" opacity="0">D</text>
<g class="stroked-text"><desc>D</desc>
<path d="M285.6617 185.5936
L285.6617 184.2936
" />
<path d="M285.6617 184.2936
L285.9712 184.2936
" />
<path d="M285.9712 184.2936
L286.1570 184.3555
" />
<path d="M286.1570 184.3555
L286.2808 184.4793
" />
<path d="M286.2808 184.4793
L286.3427 184.6031
" />
<path d="M286.3427 184.6031
L286.4046 184.8507
" />
<path d="M286.4046 184.8507
L286.4046 185.0365
" />
<path d="M286.4046 185.0365
L286.3427 185.2841
" />
<path d="M286.3427 185.2841
L286.2808 185.4079
" />
<path d="M286.2808 185.4079
L286.1570 185.5317
" />
<path d="M286.1570 185.5317
L285.9712 185.5936
" />
<path d="M285.9712 185.5936
L285.6617 185.5936
" />
</g></g>
<g style="fill:none; 
stroke:#000000; stroke-width:0.1500; stroke-opacity:1; 
stroke-linecap:round; stroke-linejoin:round;">
<text x="200.0022" y="193.8572"
textLength="7.0071" font-size="2.0000" lengthAdjust="spacingAndGlyphs"
text-anchor="start" opacity="0">Date: </text>
<g class="stroked-text"><desc>Date: </desc>
<path d="M200.4580 193.7933
L200.4580 192.2933
" />
<path d="M200.4580 192.2933
L200.8152 192.2933
" />
<path d="M200.8152 192.2933
L201.0295 192.3648
" />
<path d="M201.0295 192.3648
L201.1723 192.5076
" />
<path d="M201.1723 192.5076
L201.2437 192.6505
" />
<path d="M201.2437 192.6505
L201.3152 192.9362
" />
<path d="M201.3152 192.9362
L201.3152 193.1505
" />
<path d="M201.3152 193.1505
L201.2437 193.4362
" />
<path d="M201.2437 193.4362
L201.1723 193.5790
" />
<path d="M201.1723 193.5790
L201.0295 193.7219
" />
<path d="M201.0295 193.7219
L200.8152 193.7933
" />
<path d="M200.8152 193.7933
L200.4580 193.7933
" />
<path d="M202.6009 193.7933
L202.6009 193.0076
" />
<path d="M202.6009 193.0076
L202.5295 192.8648
" />
<path d="M202.5295 192.8648
L202.3866 192.7933
" />
<path d="M202.3866 192.7933
L202.1009 192.7933
" />
<path d="M202.1009 192.7933
L201.9580 192.8648
" />
<path d="M202.6009 193.7219
L202.4580 193.7933
" />
<path d="M202.4580 193.7933
L202.1009 193.7933
" />
<path d="M202.1009 193.7933
L201.9580 193.7219
" />
<path d="M201.9580 193.7219
L201.8866 193.5790
" />
<path d="M201.8866 193.5790
L201.8866 193.4362
" />
<path d="M201.8866 193.4362
L201.9580 193.2933
" />
<path d="M201.9580 193.2933
L202.1009 193.2219
" />
<path d="M202.1009 193.2219
L202.4580 193.2219
" />
<path d="M202.4580 193.2219
L202.6009 193.1505
" />
<path d="M203.1009 192.7933
L203.6723 192.7933
" />
<path d="M203.3152 192.2933
L203.3152 193.5790
" />
<path d="M203.3152 193.5790
L203.3866 193.7219
" />
<path d="M203.3866 193.7219
L203.5295 193.7933
" />
<path d="M203.5295 193.7933
L203.6723 193.7933
" />
<path d="M204.7437 193.7219
L204.6009 193.7933
" />
<path d="M204.6009 193.7933
L204.3152 193.7933
" />
<path d="M204.3152 193.7933
L204.1723 193.7219
" />
<path d="M204.1723 193.7219
L204.1009 193.5790
" />
<path d="M204.1009 193.5790
L204.1009 193.0076
" />
<path d="M204.1009 193.0076
L204.1723 192.8648
" />
<path d="M204.1723 192.8648
L204.3152 192.7933
" />
<path d="M204.3152 192.7933
L204.6009 192.7933
" />
<path d="M204.6009 192.7933
L204.7437 192.8648
" />
<path d="M204.7437 192.8648
L204.8152 193.0076
" />
<path d="M204.8152 193.0076
L204.8152 193.1505
" />
<path d="M204.8152 193.1505
L204.1009 193.2933
" />
<path d="M205.4580 193.6505
L205.5295 193.7219
" />
<path d="M205.5295 193.7219
L205.4580 193.7933
" />
<path d="M205.4580 193.7933
L205.3866 193.7219
" />
<path d="M205.3866 193.7219
L205.4580 193.6505
" />
<path d="M205.4580 193.6505
L205.4580 193.7933
" />
<path d="M205.4580 192.8648
L205.5295 192.9362
" />
<path d="M205.5295 192.9362
L205.4580 193.0076
" />
<path d="M205.4580 193.0076
L205.3866 192.9362
" />
<path d="M205.3866 192.9362
L205.4580 192.8648
" />
<path d="M205.4580 192.8648
L205.4580 193.0076
" />
</g></g>
<g style="fill:none; 
stroke:#000000; stroke-width:0.1500; stroke-opacity:1; 
stroke-linecap:round; stroke-linejoin:round;">
<path d="M177.0022 194.5072
L285.0022 194.5072
" />
</g>
<g style="fill:none; 
stroke:#000000; stroke-width:0.1500; stroke-opacity:1; 
stroke-linecap:round; stroke-linejoin:round;">
<text x="178.0022" y="196.6572"
textLength="20.6500" font-size="2.0000" lengthAdjust="spacingAndGlyphs"
text-anchor="start" opacity="0">${KICAD_VERSION}</text>
<g class="stroked-text"><desc>${KICAD_VERSION}</desc>
<path d="M178.3866 196.5219
L178.6009 196.5933
" />
<path d="M178.6009 196.5933
L178.9580 196.5933
" />
<path d="M178.9580 196.5933
L179.1009 196.5219
" />
<path d="M179.1009 196.5219
L179.1723 196.4505
" />
<path d="M179.1723 196.4505
L179.2437 196.3076
" />
<path d="M179.2437 196.3076
L179.2437 196.1648
" />
<path d="M179.2437 196.1648
L179.1723 196.0219
" />
<path d="M179.1723 196.0219
L179.1009 195.9505
" />
<path d="M179.1009 195.9505
L178.9580 195.8790
" />
<path d="M178.9580 195.8790
L178.6723 195.8076
" />
<path d="M178.6723 195.8076
L178.5295 195.7362
" />
<path d="M178.5295 195.7362
L178.4580 195.6648
" />
<path d="M178.4580 195.6648
L178.3866 195.5219
" />
<path d="M178.3866 195.5219
L178.3866 195.3790
" />
<path d="M178.3866 195.3790
L178.4580 195.2362
" />
<path d="M178.4580 195.2362
L178.5295 195.1648
" />
<path d="M178.5295 195.1648
L178.6723 195.0933
" />
<path d="M178.6723 195.0933
L179.0295 195.0933
" />
<path d="M179.0295 195.0933
L179.2437 195.1648
" />
<path d="M178.8152 194.8790
L178.8152 196.8076
" />
<path d="M180.3152 197.1648
L180.2437 197.1648
" />
<path d="M180.2437 197.1648
L180.1009 197.0933
" />
<path d="M180.1009 197.0933
L180.0295 196.9505
" />
<path d="M180.0295 196.9505
L180.0295 196.2362
" />
<path d="M180.0295 196.2362
L179.9580 196.0933
" />
<path d="M179.9580 196.0933
L179.8152 196.0219
" />
<path d="M179.8152 196.0219
L179.9580 195.9505
" />
<path d="M179.9580 195.9505
L180.0295 195.8076
" />
<path d="M180.0295 195.8076
L180.0295 195.0933
" />
<path d="M180.0295 195.0933
L180.1009 194.9505
" />
<path d="M180.1009 194.9505
L180.2437 194.8790
" />
<path d="M180.2437 194.8790
L180.3152 194.8790
" />
<path d="M180.8866 196.5933
L180.8866 195.0933
" />
<path d="M181.7437 196.5933
L181.1009 195.7362
" />
<path d="M181.7437 195.0933
L180.8866 195.9505
" />
<path d="M182.3866 196.5933
L182.3866 195.0933
" />
<path d="M183.9580 196.4505
L183.8866 196.5219
" />
<path d="M183.8866 196.5219
L183.6723 196.5933
" />
<path d="M183.6723 196.5933
L183.5295 196.5933
" />
<path d="M183.5295 196.5933
L183.3152 196.5219
" />
<path d="M183.3152 196.5219
L183.1723 196.3790
" />
<path d="M183.1723 196.3790
L183.1009 196.2362
" />
<path d="M183.1009 196.2362
L183.0295 195.9505
" />
<path d="M183.0295 195.9505
L183.0295 195.7362
" />
<path d="M183.0295 195.7362
L183.1009 195.4505
" />
<path d="M183.1009 195.4505
L183.1723 195.3076
" />
<path d="M183.1723 195.3076
L183.3152 195.1648
" />
<path d="M183.3152 195.1648
L183.5295 195.0933
" />
<path d="M183.5295 195.0933
L183.6723 195.0933
" />
<path d="M183.6723 195.0933
L183.8866 195.1648
" />
<path d="M183.8866 195.1648
L183.9580 195.2362
" />
<path d="M184.5295 196.1648
L185.2437 196.1648
" />
<path d="M184.3866 196.5933
L184.8866 195.0933
" />
<path d="M184.8866 195.0933
L185.3866 196.5933
" />
<path d="M185.8866 196.5933
L185.8866 195.0933
" />
<path d="M185.8866 195.0933
L186.2437 195.0933
" />
<path d="M186.2437 195.0933
L186.4580 195.1648
" />
<path d="M186.4580 195.1648
L186.6009 195.3076
" />
<path d="M186.6009 195.3076
L186.6723 195.4505
" />
<path d="M186.6723 195.4505
L186.7437 195.7362
" />
<path d="M186.7437 195.7362
L186.7437 195.9505
" />
<path d="M186.7437 195.9505
L186.6723 196.2362
" />
<path d="M186.6723 196.2362
L186.6009 196.3790
" />
<path d="M186.6009 196.3790
L186.4580 196.5219
" />
<path d="M186.4580 196.5219
L186.2437 196.5933
" />
<path d="M186.2437 196.5933
L185.8866 196.5933
" />
<path d="M187.0295 196.7362
L188.1723 196.7362
" />
<path d="M188.3152 195.0933
L188.8152 196.5933
" />
<path d="M188.8152 196.5933
L189.3152 195.0933
" />
<path d="M189.8152 195.8076
L190.3152 195.8076
" />
<path d="M190.5295 196.5933
L189.8152 196.5933
" />
<path d="M189.8152 196.5933
L189.8152 195.0933
" />
<path d="M189.8152 195.0933
L190.5295 195.0933
" />
<path d="M192.0295 196.5933
L191.5295 195.8790
" />
<path d="M191.1723 196.5933
L191.1723 195.0933
" />
<path d="M191.1723 195.0933
L191.7437 195.0933
" />
<path d="M191.7437 195.0933
L191.8866 195.1648
" />
<path d="M191.8866 195.1648
L191.9580 195.2362
" />
<path d="M191.9580 195.2362
L192.0295 195.3790
" />
<path d="M192.0295 195.3790
L192.0295 195.5933
" />
<path d="M192.0295 195.5933
L191.9580 195.7362
" />
<path d="M191.9580 195.7362
L191.8866 195.8076
" />
<path d="M191.8866 195.8076
L191.7437 195.8790
" />
<path d="M191.7437 195.8790
L191.1723 195.8790
" />
<path d="M192.6009 196.5219
L192.8152 196.5933
" />
<path d="M192.8152 196.5933
L193.1723 196.5933
" />
<path d="M193.1723 196.5933
L193.3152 196.5219
" />
<path d="M193.3152 196.5219
L193.3866 196.4505
" />
<path d="M193.3866 196.4505
L193.4580 196.3076
" />
<path d="M193.4580 196.3076
L193.4580 196.1648
" />
<path d="M193.4580 196.1648
L193.3866 196.0219
" />
<path d="M193.3866 196.0219
L193.3152 195.9505
" />
<path d="M193.3152 195.9505
L193.1723 195.8790
" />
<path d="M193.1723 195.8790
L192.8866 195.8076
" />
<path d="M192.8866 195.8076
L192.7437 195.7362
" />
<path d="M192.7437 195.7362
L192.6723 195.6648
" />
<path d="M192.6723 195.6648
L192.6009 195.5219
" />
<path d="M192.6009 195.5219
L192.6009 195.3790
" />
<path d="M192.6009 195.3790
L192.6723 195.2362
" />
<path d="M192.6723 195.2362
L192.7437 195.1648
" />
<path d="M192.7437 195.1648
L192.8866 195.0933
" />
<path d="M192.8866 195.0933
L193.2437 195.0933
" />
<path d="M193.2437 195.0933
L193.4580 195.1648
" />
<path d="M194.1009 196.5933
L194.1009 195.0933
" />
<path d="M195.1009 195.0933
L195.3866 195.0933
" />
<path d="M195.3866 195.0933
L195.5295 195.1648
" />
<path d="M195.5295 195.1648
L195.6723 195.3076
" />
<path d="M195.6723 195.3076
L195.7437 195.5933
" />
<path d="M195.7437 195.5933
L195.7437 196.0933
" />
<path d="M195.7437 196.0933
L195.6723 196.3790
" />
<path d="M195.6723 196.3790
L195.5295 196.5219
" />
<path d="M195.5295 196.5219
L195.3866 196.5933
" />
<path d="M195.3866 196.5933
L195.1009 196.5933
" />
<path d="M195.1009 196.5933
L194.9580 196.5219
" />
<path d="M194.9580 196.5219
L194.8152 196.3790
" />
<path d="M194.8152 196.3790
L194.7437 196.0933
" />
<path d="M194.7437 196.0933
L194.7437 195.5933
" />
<path d="M194.7437 195.5933
L194.8152 195.3076
" />
<path d="M194.8152 195.3076
L194.9580 195.1648
" />
<path d="M194.9580 195.1648
L195.1009 195.0933
" />
<path d="M196.3866 196.5933
L196.3866 195.0933
" />
<path d="M196.3866 195.0933
L197.2437 196.5933
" />
<path d="M197.2437 196.5933
L197.2437 195.0933
" />
<path d="M197.8152 197.1648
L197.8866 197.1648
" />
<path d="M197.8866 197.1648
L198.0295 197.0933
" />
<path d="M198.0295 197.0933
L198.1009 196.9505
" />
<path d="M198.1009 196.9505
L198.1009 196.2362
" />
<path d="M198.1009 196.2362
L198.1723 196.0933
" />
<path d="M198.1723 196.0933
L198.3152 196.0219
" />
<path d="M198.3152 196.0219
L198.1723 195.9505
" />
<path d="M198.1723 195.9505
L198.1009 195.8076
" />
<path d="M198.1009 195.8076
L198.1009 195.0933
" />
<path d="M198.1009 195.0933
L198.0295 194.9505
" />
<path d="M198.0295 194.9505
L197.8866 194.8790
" />
<path d="M197.8866 194.8790
L197.8152 194.8790
" />
</g></g>
<g style="fill:none; 
stroke:#000000; stroke-width:0.1500; stroke-opacity:1; 
stroke-linecap:round; stroke-linejoin:round;">
<path d="M177.0022 191.5072
L285.0022 191.5072
" />
</g>
<g style="fill:none; 
stroke:#000000; stroke-width:0.3000; stroke-opacity:1; 
stroke-linecap:round; stroke-linejoin:round;">
<text x="263.0022" y="193.8572"
textLength="6.3857" font-size="2.0000" lengthAdjust="spacingAndGlyphs"
text-anchor="start" opacity="0">Rev: </text>
<g class="stroked-text"><desc>Rev: </desc>
<path d="M264.4139 193.7855
L263.9139 193.0712
" />
<path d="M263.5567 193.7855
L263.5567 192.2855
" />
<path d="M263.5567 192.2855
L264.1281 192.2855
" />
<path d="M264.1281 192.2855
L264.2710 192.3570
" />
<path d="M264.2710 192.3570
L264.3424 192.4284
" />
<path d="M264.3424 192.4284
L264.4139 192.5712
" />
<path d="M264.4139 192.5712
L264.4139 192.7855
" />
<path d="M264.4139 192.7855
L264.3424 192.9284
" />
<path d="M264.3424 192.9284
L264.2710 192.9998
" />
<path d="M264.2710 192.9998
L264.1281 193.0712
" />
<path d="M264.1281 193.0712
L263.5567 193.0712
" />
<path d="M265.6281 193.7141
L265.4853 193.7855
" />
<path d="M265.4853 193.7855
L265.1996 193.7855
" />
<path d="M265.1996 193.7855
L265.0567 193.7141
" />
<path d="M265.0567 193.7141
L264.9853 193.5712
" />
<path d="M264.9853 193.5712
L264.9853 192.9998
" />
<path d="M264.9853 192.9998
L265.0567 192.8570
" />
<path d="M265.0567 192.8570
L265.1996 192.7855
" />
<path d="M265.1996 192.7855
L265.4853 192.7855
" />
<path d="M265.4853 192.7855
L265.6281 192.8570
" />
<path d="M265.6281 192.8570
L265.6996 192.9998
" />
<path d="M265.6996 192.9998
L265.6996 193.1427
" />
<path d="M265.6996 193.1427
L264.9853 193.2855
" />
<path d="M266.1996 192.7855
L266.5567 193.7855
" />
<path d="M266.5567 193.7855
L266.9139 192.7855
" />
<path d="M267.4853 193.6427
L267.5567 193.7141
" />
<path d="M267.5567 193.7141
L267.4853 193.7855
" />
<path d="M267.4853 193.7855
L267.4139 193.7141
" />
<path d="M267.4139 193.7141
L267.4853 193.6427
" />
<path d="M267.4853 193.6427
L267.4853 193.7855
" />
<path d="M267.4853 192.8570
L267.5567 192.9284
" />
<path d="M267.5567 192.9284
L267.4853 192.9998
" />
<path d="M267.4853 192.9998
L267.4139 192.9284
" />
<path d="M267.4139 192.9284
L267.4853 192.8570
" />
<path d="M267.4853 192.8570
L267.4853 192.9998
" />
</g></g>
<g style="fill:none; 
stroke:#000000; stroke-width:0.1500; stroke-opacity:1; 
stroke-linecap:round; stroke-linejoin:round;">
<text x="178.0022" y="193.8572"
textLength="9.3643" font-size="2.0000" lengthAdjust="spacingAndGlyphs"
text-anchor="start" opacity="0">Size: A4</text>
<g class="stroked-text"><desc>Size: A4</desc>
<path d="M178.3866 193.7219
L178.6009 193.7933
" />
<path d="M178.6009 193.7933
L178.9580 193.7933
" />
<path d="M178.9580 193.7933
L179.1009 193.7219
" />
<path d="M179.1009 193.7219
L179.1723 193.6505
" />
<path d="M179.1723 193.6505
L179.2437 193.5076
" />
<path d="M179.2437 193.5076
L179.2437 193.3648
" />
<path d="M179.2437 193.3648
L179.1723 193.2219
" />
<path d="M179.1723 193.2219
L179.1009 193.1505
" />
<path d="M179.1009 193.1505
L178.9580 193.0790
" />
<path d="M178.9580 193.0790
L178.6723 193.0076
" />
<path d="M178.6723 193.0076
L178.5295 192.9362
" />
<path d="M178.5295 192.9362
L178.4580 192.8648
" />
<path d="M178.4580 192.8648
L178.3866 192.7219
" />
<path d="M178.3866 192.7219
L178.3866 192.5790
" />
<path d="M178.3866 192.5790
L178.4580 192.4362
" />
<path d="M178.4580 192.4362
L178.5295 192.3648
" />
<path d="M178.5295 192.3648
L178.6723 192.2933
" />
<path d="M178.6723 192.2933
L179.0295 192.2933
" />
<path d="M179.0295 192.2933
L179.2437 192.3648
" />
<path d="M179.8866 193.7933
L179.8866 192.7933
" />
<path d="M179.8866 192.2933
L179.8152 192.3648
" />
<path d="M179.8152 192.3648
L179.8866 192.4362
" />
<path d="M179.8866 192.4362
L179.9580 192.3648
" />
<path d="M179.9580 192.3648
L179.8866 192.2933
" />
<path d="M179.8866 192.2933
L179.8866 192.4362
" />
<path d="M180.4580 192.7933
L181.2437 192.7933
" />
<path d="M181.2437 192.7933
L180.4580 193.7933
" />
<path d="M180.4580 193.7933
L181.2437 193.7933
" />
<path d="M182.3866 193.7219
L182.2437 193.7933
" />
<path d="M182.2437 193.7933
L181.9580 193.7933
" />
<path d="M181.9580 193.7933
L181.8152 193.7219
" />
<path d="M181.8152 193.7219
L181.7437 193.5790
" />
<path d="M181.7437 193.5790
L181.7437 193.0076
" />
<path d="M181.7437 193.0076
L181.8152 192.8648
" />
<path d="M181.8152 192.8648
L181.9580 192.7933
" />
<path d="M181.9580 192.7933
L182.2437 192.7933
" />
<path d="M182.2437 192.7933
L182.3866 192.8648
" />
<path d="M182.3866 192.8648
L182.4580 193.0076
" />
<path d="M182.4580 193.0076
L182.4580 193.1505
" />
<path d="M182.4580 193.1505
L181.7437 193.2933
" />
<path d="M183.1009 193.6505
L183.1723 193.7219
" />
<path d="M183.1723 193.7219
L183.1009 193.7933
" />
<path d="M183.1009 193.7933
L183.0295 193.7219
" />
<path d="M183.0295 193.7219
L183.1009 193.6505
" />
<path d="M183.1009 193.6505
L183.1009 193.7933
" />
<path d="M183.1009 192.8648
L183.1723 192.9362
" />
<path d="M183.1723 192.9362
L183.1009 193.0076
" />
<path d="M183.1009 193.0076
L183.0295 192.9362
" />
<path d="M183.0295 192.9362
L183.1009 192.8648
" />
<path d="M183.1009 192.8648
L183.1009 193.0076
" />
<path d="M184.8866 193.3648
L185.6009 193.3648
" />
<path d="M184.7437 193.7933
L185.2437 192.2933
" />
<path d="M185.2437 192.2933
L185.7437 193.7933
" />
<path d="M186.8866 192.7933
L186.8866 193.7933
" />
<path d="M186.5295 192.2219
L186.1723 193.2933
" />
<path d="M186.1723 193.2933
L187.1009 193.2933
" />
</g></g>
<g style="fill:none; 
stroke:#000000; stroke-width:0.1500; stroke-opacity:1; 
stroke-linecap:round; stroke-linejoin:round;">
<text x="263.0022" y="196.6572"
textLength="8.5071" font-size="2.0000" lengthAdjust="spacingAndGlyphs"
text-anchor="start" opacity="0">Id: 1/1</text>
<g class="stroked-text"><desc>Id: 1/1</desc>
<path d="M263.4580 196.5933
L263.4580 195.0933
" />
<path d="M264.8152 196.5933
L264.8152 195.0933
" />
<path d="M264.8152 196.5219
L264.6723 196.5933
" />
<path d="M264.6723 196.5933
L264.3866 196.5933
" />
<path d="M264.3866 196.5933
L264.2437 196.5219
" />
<path d="M264.2437 196.5219
L264.1723 196.4505
" />
<path d="M264.1723 196.4505
L264.1009 196.3076
" />
<path d="M264.1009 196.3076
L264.1009 195.8790
" />
<path d="M264.1009 195.8790
L264.1723 195.7362
" />
<path d="M264.1723 195.7362
L264.2437 195.6648
" />
<path d="M264.2437 195.6648
L264.3866 195.5933
" />
<path d="M264.3866 195.5933
L264.6723 195.5933
" />
<path d="M264.6723 195.5933
L264.8152 195.6648
" />
<path d="M265.5295 196.4505
L265.6009 196.5219
" />
<path d="M265.6009 196.5219
L265.5295 196.5933
" />
<path d="M265.5295 196.5933
L265.4580 196.5219
" />
<path d="M265.4580 196.5219
L265.5295 196.4505
" />
<path d="M265.5295 196.4505
L265.5295 196.5933
" />
<path d="M265.5295 195.6648
L265.6009 195.7362
" />
<path d="M265.6009 195.7362
L265.5295 195.8076
" />
<path d="M265.5295 195.8076
L265.4580 195.7362
" />
<path d="M265.4580 195.7362
L265.5295 195.6648
" />
<path d="M265.5295 195.6648
L265.5295 195.8076
" />
<path d="M268.1723 196.5933
L267.3152 196.5933
" />
<path d="M267.7437 196.5933
L267.7437 195.0933
" />
<path d="M267.7437 195.0933
L267.6009 195.3076
" />
<path d="M267.6009 195.3076
L267.4580 195.4505
" />
<path d="M267.4580 195.4505
L267.3152 195.5219
" />
<path d="M269.8866 195.0219
L268.6009 196.9505
" />
<path d="M271.1723 196.5933
L270.3152 196.5933
" />
<path d="M270.7437 196.5933
L270.7437 195.0933
" />
<path d="M270.7437 195.0933
L270.6009 195.3076
" />
<path d="M270.6009 195.3076
L270.4580 195.4505
" />
<path d="M270.4580 195.4505
L270.3152 195.5219
" />
</g></g>
<g style="fill:none; 
stroke:#000000; stroke-width:0.1500; stroke-opacity:1; 
stroke-linecap:round; stroke-linejoin:round;">
<path d="M177.0022 187.5072
L285.0022 187.5072
" />
</g>
<g style="fill:none; 
stroke:#000000; stroke-width:0.4000; stroke-opacity:1; 
stroke-linecap:round; stroke-linejoin:round;">
<text x="178.0022" y="190.3072"
textLength="9.6571" font-size="2.6667" lengthAdjust="spacingAndGlyphs"
text-anchor="start" opacity="0">Title: </text>
<g class="stroked-text"><desc>Title: </desc>
<path d="M178.6939 188.2116
L179.8368 188.2116
" />
<path d="M179.0154 190.2116
L179.2654 188.2116
" />
<path d="M180.2535 190.2116
L180.4201 188.8783
" />
<path d="M180.5035 188.2116
L180.3963 188.3069
" />
<path d="M180.3963 188.3069
L180.4796 188.4021
" />
<path d="M180.4796 188.4021
L180.5868 188.3069
" />
<path d="M180.5868 188.3069
L180.5035 188.2116
" />
<path d="M180.5035 188.2116
L180.4796 188.4021
" />
<path d="M181.0868 188.8783
L181.8487 188.8783
" />
<path d="M181.4558 188.2116
L181.2415 189.9259
" />
<path d="M181.2415 189.9259
L181.3130 190.1164
" />
<path d="M181.3130 190.1164
L181.4915 190.2116
" />
<path d="M181.4915 190.2116
L181.6820 190.2116
" />
<path d="M182.6344 190.2116
L182.4558 190.1164
" />
<path d="M182.4558 190.1164
L182.3844 189.9259
" />
<path d="M182.3844 189.9259
L182.5987 188.2116
" />
<path d="M184.1701 190.1164
L183.9677 190.2116
" />
<path d="M183.9677 190.2116
L183.5868 190.2116
" />
<path d="M183.5868 190.2116
L183.4082 190.1164
" />
<path d="M183.4082 190.1164
L183.3368 189.9259
" />
<path d="M183.3368 189.9259
L183.4320 189.1640
" />
<path d="M183.4320 189.1640
L183.5511 188.9735
" />
<path d="M183.5511 188.9735
L183.7535 188.8783
" />
<path d="M183.7535 188.8783
L184.1344 188.8783
" />
<path d="M184.1344 188.8783
L184.3130 188.9735
" />
<path d="M184.3130 188.9735
L184.3844 189.1640
" />
<path d="M184.3844 189.1640
L184.3606 189.3545
" />
<path d="M184.3606 189.3545
L183.3844 189.5450
" />
<path d="M185.1344 190.0212
L185.2177 190.1164
" />
<path d="M185.2177 190.1164
L185.1106 190.2116
" />
<path d="M185.1106 190.2116
L185.0273 190.1164
" />
<path d="M185.0273 190.1164
L185.1344 190.0212
" />
<path d="M185.1344 190.0212
L185.1106 190.2116
" />
<path d="M185.2654 188.9735
L185.3487 189.0688
" />
<path d="M185.3487 189.0688
L185.2415 189.1640
" />
<path d="M185.2415 189.1640
L185.1582 189.0688
" />
<path d="M185.1582 189.0688
L185.2654 188.9735
" />
<path d="M185.2654 188.9735
L185.2415 189.1640
" />
</g></g>
<g style="fill:none; 
stroke:#000000; stroke-width:0.1500; stroke-opacity:1; 
stroke-linecap:round; stroke-linejoin:round;">
<text x="178.0022" y="186.4572"
textLength="41.7929" font-size="2.0000" lengthAdjust="spacingAndGlyphs"
text-anchor="start" opacity="0">File: OpenMowerMainboard.kicad_pcb</text>
<g class="stroked-text"><desc>File: OpenMowerMainboard.kicad_pcb</desc>
<path d="M178.9580 185.6076
L178.4580 185.6076
" />
<path d="M178.4580 186.3933
L178.4580 184.8933
" />
<path d="M178.4580 184.8933
L179.1723 184.8933
" />
<path d="M179.7437 186.3933
L179.7437 185.3933
" />
<path d="M179.7437 184.8933
L179.6723 184.9648
" />
<path d="M179.6723 184.9648
L179.7437 185.0362
" />
<path d="M179.7437 185.0362
L179.8152 184.9648
" />
<path d="M179.8152 184.9648
L179.7437 184.8933
" />
<path d="M179.7437 184.8933
L179.7437 185.0362
" />
<path d="M180.6723 186.3933
L180.5295 186.3219
" />
<path d="M180.5295 186.3219
L180.4580 186.1790
" />
<path d="M180.4580 186.1790
L180.4580 184.8933
" />
<path d="M181.8152 186.3219
L181.6723 186.3933
" />
<path d="M181.6723 186.3933
L181.3866 186.3933
" />
<path d="M181.3866 186.3933
L181.2437 186.3219
" />
<path d="M181.2437 186.3219
L181.1723 186.1790
" />
<path d="M181.1723 186.1790
L181.1723 185.6076
" />
<path d="M181.1723 185.6076
L181.2437 185.4648
" />
<path d="M181.2437 185.4648
L181.3866 185.3933
" />
<path d="M181.3866 185.3933
L181.6723 185.3933
" />
<path d="M181.6723 185.3933
L181.8152 185.4648
" />
<path d="M181.8152 185.4648
L181.8866 185.6076
" />
<path d="M181.8866 185.6076
L181.8866 185.7505
" />
<path d="M181.8866 185.7505
L181.1723 185.8933
" />
<path d="M182.5295 186.2505
L182.6009 186.3219
" />
<path d="M182.6009 186.3219
L182.5295 186.3933
" />
<path d="M182.5295 186.3933
L182.4580 186.3219
" />
<path d="M182.4580 186.3219
L182.5295 186.2505
" />
<path d="M182.5295 186.2505
L182.5295 186.3933
" />
<path d="M182.5295 185.4648
L182.6009 185.5362
" />
<path d="M182.6009 185.5362
L182.5295 185.6076
" />
<path d="M182.5295 185.6076
L182.4580 185.5362
" />
<path d="M182.4580 185.5362
L182.5295 185.4648
" />
<path d="M182.5295 185.4648
L182.5295 185.6076
" />
<path d="M184.6723 184.8933
L184.9580 184.8933
" />
<path d="M184.9580 184.8933
L185.1009 184.9648
" />
<path d="M185.1009 184.9648
L185.2437 185.1076
" />
<path d="M185.2437 185.1076
L185.3152 185.3933
" />
<path d="M185.3152 185.3933
L185.3152 185.8933
" />
<path d="M185.3152 185.8933
L185.2437 186.1790
" />
<path d="M185.2437 186.1790
L185.1009 186.3219
" />
<path d="M185.1009 186.3219
L184.9580 186.3933
" />
<path d="M184.9580 186.3933
L184.6723 186.3933
" />
<path d="M184.6723 186.3933
L184.5295 186.3219
" />
<path d="M184.5295 186.3219
L184.3866 186.1790
" />
<path d="M184.3866 186.1790
L184.3152 185.8933
" />
<path d="M184.3152 185.8933
L184.3152 185.3933
" />
<path d="M184.3152 185.3933
L184.3866 185.1076
" />
<path d="M184.3866 185.1076
L184.5295 184.9648
" />
<path d="M184.5295 184.9648
L184.6723 184.8933
" />
<path d="M185.9580 185.3933
L185.9580 186.8933
" />
<path d="M185.9580 185.4648
L186.1009 185.3933
" />
<path d="M186.1009 185.3933
L186.3866 185.3933
" />
<path d="M186.3866 185.3933
L186.5295 185.4648
" />
<path d="M186.5295 185.4648
L186.6009 185.5362
" />
<path d="M186.6009 185.5362
L186.6723 185.6790
" />
<path d="M186.6723 185.6790
L186.6723 186.1076
" />
<path d="M186.6723 186.1076
L186.6009 186.2505
" />
<path d="M186.6009 186.2505
L186.5295 186.3219
" />
<path d="M186.5295 186.3219
L186.3866 186.3933
" />
<path d="M186.3866 186.3933
L186.1009 186.3933
" />
<path d="M186.1009 186.3933
L185.9580 186.3219
" />
<path d="M187.8866 186.3219
L187.7437 186.3933
" />
<path d="M187.7437 186.3933
L187.4580 186.3933
" />
<path d="M187.4580 186.3933
L187.3152 186.3219
" />
<path d="M187.3152 186.3219
L187.2437 186.1790
" />
<path d="M187.2437 186.1790
L187.2437 185.6076
" />
<path d="M187.2437 185.6076
L187.3152 185.4648
" />
<path d="M187.3152 185.4648
L187.4580 185.3933
" />
<path d="M187.4580 185.3933
L187.7437 185.3933
" />
<path d="M187.7437 185.3933
L187.8866 185.4648
" />
<path d="M187.8866 185.4648
L187.9580 185.6076
" />
<path d="M187.9580 185.6076
L187.9580 185.7505
" />
<path d="M187.9580 185.7505
L187.2437 185.8933
" />
<path d="M188.6009 185.3933
L188.6009 186.3933
" />
<path d="M188.6009 185.5362
L188.6723 185.4648
" />
<path d="M188.6723 185.4648
L188.8152 185.3933
" />
<path d="M188.8152 185.3933
L189.0295 185.3933
" />
<path d="M189.0295 185.3933
L189.1723 185.4648
" />
<path d="M189.1723 185.4648
L189.2437 185.6076
" />
<path d="M189.2437 185.6076
L189.2437 186.3933
" />
<path d="M189.9580 186.3933
L189.9580 184.8933
" />
<path d="M189.9580 184.8933
L190.4580 185.9648
" />
<path d="M190.4580 185.9648
L190.9580 184.8933
" />
<path d="M190.9580 184.8933
L190.9580 186.3933
" />
<path d="M191.8866 186.3933
L191.7437 186.3219
" />
<path d="M191.7437 186.3219
L191.6723 186.2505
" />
<path d="M191.6723 186.2505
L191.6009 186.1076
" />
<path d="M191.6009 186.1076
L191.6009 185.6790
" />
<path d="M191.6009 185.6790
L191.6723 185.5362
" />
<path d="M191.6723 185.5362
L191.7437 185.4648
" />
<path d="M191.7437 185.4648
L191.8866 185.3933
" />
<path d="M191.8866 185.3933
L192.1009 185.3933
" />
<path d="M192.1009 185.3933
L192.2437 185.4648
" />
<path d="M192.2437 185.4648
L192.3152 185.5362
" />
<path d="M192.3152 185.5362
L192.3866 185.6790
" />
<path d="M192.3866 185.6790
L192.3866 186.1076
" />
<path d="M192.3866 186.1076
L192.3152 186.2505
" />
<path d="M192.3152 186.2505
L192.2437 186.3219
" />
<path d="M192.2437 186.3219
L192.1009 186.3933
" />
<path d="M192.1009 186.3933
L191.8866 186.3933
" />
<path d="M192.8866 185.3933
L193.1723 186.3933
" />
<path d="M193.1723 186.3933
L193.4580 185.6790
" />
<path d="M193.4580 185.6790
L193.7437 186.3933
" />
<path d="M193.7437 186.3933
L194.0295 185.3933
" />
<path d="M195.1723 186.3219
L195.0295 186.3933
" />
<path d="M195.0295 186.3933
L194.7437 186.3933
" />
<path d="M194.7437 186.3933
L194.6009 186.3219
" />
<path d="M194.6009 186.3219
L194.5295 186.1790
" />
<path d="M194.5295 186.1790
L194.5295 185.6076
" />
<path d="M194.5295 185.6076
L194.6009 185.4648
" />
<path d="M194.6009 185.4648
L194.7437 185.3933
" />
<path d="M194.7437 185.3933
L195.0295 185.3933
" />
<path d="M195.0295 185.3933
L195.1723 185.4648
" />
<path d="M195.1723 185.4648
L195.2437 185.6076
" />
<path d="M195.2437 185.6076
L195.2437 185.7505
" />
<path d="M195.2437 185.7505
L194.5295 185.8933
" />
<path d="M195.8866 186.3933
L195.8866 185.3933
" />
<path d="M195.8866 185.6790
L195.9580 185.5362
" />
<path d="M195.9580 185.5362
L196.0295 185.4648
" />
<path d="M196.0295 185.4648
L196.1723 185.3933
" />
<path d="M196.1723 185.3933
L196.3152 185.3933
" />
<path d="M196.8152 186.3933
L196.8152 184.8933
" />
<path d="M196.8152 184.8933
L197.3152 185.9648
" />
<path d="M197.3152 185.9648
L197.8152 184.8933
" />
<path d="M197.8152 184.8933
L197.8152 186.3933
" />
<path d="M199.1723 186.3933
L199.1723 185.6076
" />
<path d="M199.1723 185.6076
L199.1009 185.4648
" />
<path d="M199.1009 185.4648
L198.9580 185.3933
" />
<path d="M198.9580 185.3933
L198.6723 185.3933
" />
<path d="M198.6723 185.3933
L198.5295 185.4648
" />
<path d="M199.1723 186.3219
L199.0295 186.3933
" />
<path d="M199.0295 186.3933
L198.6723 186.3933
" />
<path d="M198.6723 186.3933
L198.5295 186.3219
" />
<path d="M198.5295 186.3219
L198.4580 186.1790
" />
<path d="M198.4580 186.1790
L198.4580 186.0362
" />
<path d="M198.4580 186.0362
L198.5295 185.8933
" />
<path d="M198.5295 185.8933
L198.6723 185.8219
" />
<path d="M198.6723 185.8219
L199.0295 185.8219
" />
<path d="M199.0295 185.8219
L199.1723 185.7505
" />
<path d="M199.8866 186.3933
L199.8866 185.3933
" />
<path d="M199.8866 184.8933
L199.8152 184.9648
" />
<path d="M199.8152 184.9648
L199.8866 185.0362
" />
<path d="M199.8866 185.0362
L199.9580 184.9648
" />
<path d="M199.9580 184.9648
L199.8866 184.8933
" />
<path d="M199.8866 184.8933
L199.8866 185.0362
" />
<path d="M200.6009 185.3933
L200.6009 186.3933
" />
<path d="M200.6009 185.5362
L200.6723 185.4648
" />
<path d="M200.6723 185.4648
L200.8152 185.3933
" />
<path d="M200.8152 185.3933
L201.0295 185.3933
" />
<path d="M201.0295 185.3933
L201.1723 185.4648
" />
<path d="M201.1723 185.4648
L201.2437 185.6076
" />
<path d="M201.2437 185.6076
L201.2437 186.3933
" />
<path d="M201.9580 186.3933
L201.9580 184.8933
" />
<path d="M201.9580 185.4648
L202.1009 185.3933
" />
<path d="M202.1009 185.3933
L202.3866 185.3933
" />
<path d="M202.3866 185.3933
L202.5295 185.4648
" />
<path d="M202.5295 185.4648
L202.6009 185.5362
" />
<path d="M202.6009 185.5362
L202.6723 185.6790
" />
<path d="M202.6723 185.6790
L202.6723 186.1076
" />
<path d="M202.6723 186.1076
L202.6009 186.2505
" />
<path d="M202.6009 186.2505
L202.5295 186.3219
" />
<path d="M202.5295 186.3219
L202.3866 186.3933
" />
<path d="M202.3866 186.3933
L202.1009 186.3933
" />
<path d="M202.1009 186.3933
L201.9580 186.3219
" />
<path d="M203.5295 186.3933
L203.3866 186.3219
" />
<path d="M203.3866 186.3219
L203.3152 186.2505
" />
<path d="M203.3152 186.2505
L203.2437 186.1076
" />
<path d="M203.2437 186.1076
L203.2437 185.6790
" />
<path d="M203.2437 185.6790
L203.3152 185.5362
" />
<path d="M203.3152 185.5362
L203.3866 185.4648
" />
<path d="M203.3866 185.4648
L203.5295 185.3933
" />
<path d="M203.5295 185.3933
L203.7437 185.3933
" />
<path d="M203.7437 185.3933
L203.8866 185.4648
" />
<path d="M203.8866 185.4648
L203.9580 185.5362
" />
<path d="M203.9580 185.5362
L204.0295 185.6790
" />
<path d="M204.0295 185.6790
L204.0295 186.1076
" />
<path d="M204.0295 186.1076
L203.9580 186.2505
" />
<path d="M203.9580 186.2505
L203.8866 186.3219
" />
<path d="M203.8866 186.3219
L203.7437 186.3933
" />
<path d="M203.7437 186.3933
L203.5295 186.3933
" />
<path d="M205.3152 186.3933
L205.3152 185.6076
" />
<path d="M205.3152 185.6076
L205.2437 185.4648
" />
<path d="M205.2437 185.4648
L205.1009 185.3933
" />
<path d="M205.1009 185.3933
L204.8152 185.3933
" />
<path d="M204.8152 185.3933
L204.6723 185.4648
" />
<path d="M205.3152 186.3219
L205.1723 186.3933
" />
<path d="M205.1723 186.3933
L204.8152 186.3933
" />
<path d="M204.8152 186.3933
L204.6723 186.3219
" />
<path d="M204.6723 186.3219
L204.6009 186.1790
" />
<path d="M204.6009 186.1790
L204.6009 186.0362
" />
<path d="M204.6009 186.0362
L204.6723 185.8933
" />
<path d="M204.6723 185.8933
L204.8152 185.8219
" />
<path d="M204.8152 185.8219
L205.1723 185.8219
" />
<path d="M205.1723 185.8219
L205.3152 185.7505
" />
<path d="M206.0295 186.3933
L206.0295 185.3933
" />
<path d="M206.0295 185.6790
L206.1009 185.5362
" />
<path d="M206.1009 185.5362
L206.1723 185.4648
" />
<path d="M206.1723 185.4648
L206.3152 185.3933
" />
<path d="M206.3152 185.3933
L206.4580 185.3933
" />
<path d="M207.6009 186.3933
L207.6009 184.8933
" />
<path d="M207.6009 186.3219
L207.4580 186.3933
" />
<path d="M207.4580 186.3933
L207.1723 186.3933
" />
<path d="M207.1723 186.3933
L207.0295 186.3219
" />
<path d="M207.0295 186.3219
L206.9580 186.2505
" />
<path d="M206.9580 186.2505
L206.8866 186.1076
" />
<path d="M206.8866 186.1076
L206.8866 185.6790
" />
<path d="M206.8866 185.6790
L206.9580 185.5362
" />
<path d="M206.9580 185.5362
L207.0295 185.4648
" />
<path d="M207.0295 185.4648
L207.1723 185.3933
" />
<path d="M207.1723 185.3933
L207.4580 185.3933
" />
<path d="M207.4580 185.3933
L207.6009 185.4648
" />
<path d="M208.3152 186.2505
L208.3866 186.3219
" />
<path d="M208.3866 186.3219
L208.3152 186.3933
" />
<path d="M208.3152 186.3933
L208.2437 186.3219
" />
<path d="M208.2437 186.3219
L208.3152 186.2505
" />
<path d="M208.3152 186.2505
L208.3152 186.3933
" />
<path d="M209.0295 186.3933
L209.0295 184.8933
" />
<path d="M209.1723 185.8219
L209.6009 186.3933
" />
<path d="M209.6009 185.3933
L209.0295 185.9648
" />
<path d="M210.2437 186.3933
L210.2437 185.3933
" />
<path d="M210.2437 184.8933
L210.1723 184.9648
" />
<path d="M210.1723 184.9648
L210.2437 185.0362
" />
<path d="M210.2437 185.0362
L210.3152 184.9648
" />
<path d="M210.3152 184.9648
L210.2437 184.8933
" />
<path d="M210.2437 184.8933
L210.2437 185.0362
" />
<path d="M211.6009 186.3219
L211.4580 186.3933
" />
<path d="M211.4580 186.3933
L211.1723 186.3933
" />
<path d="M211.1723 186.3933
L211.0295 186.3219
" />
<path d="M211.0295 186.3219
L210.9580 186.2505
" />
<path d="M210.9580 186.2505
L210.8866 186.1076
" />
<path d="M210.8866 186.1076
L210.8866 185.6790
" />
<path d="M210.8866 185.6790
L210.9580 185.5362
" />
<path d="M210.9580 185.5362
L211.0295 185.4648
" />
<path d="M211.0295 185.4648
L211.1723 185.3933
" />
<path d="M211.1723 185.3933
L211.4580 185.3933
" />
<path d="M211.4580 185.3933
L211.6009 185.4648
" />
<path d="M212.8866 186.3933
L212.8866 185.6076
" />
<path d="M212.8866 185.6076
L212.8152 185.4648
" />
<path d="M212.8152 185.4648
L212.6723 185.3933
" />
<path d="M212.6723 185.3933
L212.3866 185.3933
" />
<path d="M212.3866 185.3933
L212.2437 185.4648
" />
<path d="M212.8866 186.3219
L212.7437 186.3933
" />
<path d="M212.7437 186.3933
L212.3866 186.3933
" />
<path d="M212.3866 186.3933
L212.2437 186.3219
" />
<path d="M212.2437 186.3219
L212.1723 186.1790
" />
<path d="M212.1723 186.1790
L212.1723 186.0362
" />
<path d="M212.1723 186.0362
L212.2437 185.8933
" />
<path d="M212.2437 185.8933
L212.3866 185.8219
" />
<path d="M212.3866 185.8219
L212.7437 185.8219
" />
<path d="M212.7437 185.8219
L212.8866 185.7505
" />
<path d="M214.2437 186.3933
L214.2437 184.8933
" />
<path d="M214.2437 186.3219
L214.1009 186.3933
" />
<path d="M214.1009 186.3933
L213.8152 186.3933
" />
<path d="M213.8152 186.3933
L213.6723 186.3219
" />
<path d="M213.6723 186.3219
L213.6009 186.2505
" />
<path d="M213.6009 186.2505
L213.5295 186.1076
" />
<path d="M213.5295 186.1076
L213.5295 185.6790
" />
<path d="M213.5295 185.6790
L213.6009 185.5362
" />
<path d="M213.6009 185.5362
L213.6723 185.4648
" />
<path d="M213.6723 185.4648
L213.8152 185.3933
" />
<path d="M213.8152 185.3933
L214.1009 185.3933
" />
<path d="M214.1009 185.3933
L214.2437 185.4648
" />
<path d="M214.6009 186.5362
L215.7437 186.5362
" />
<path d="M216.1009 185.3933
L216.1009 186.8933
" />
<path d="M216.1009 185.4648
L216.2437 185.3933
" />
<path d="M216.2437 185.3933
L216.5295 185.3933
" />
<path d="M216.5295 185.3933
L216.6723 185.4648
" />
<path d="M216.6723 185.4648
L216.7437 185.5362
" />
<path d="M216.7437 185.5362
L216.8152 185.6790
" />
<path d="M216.8152 185.6790
L216.8152 186.1076
" />
<path d="M216.8152 186.1076
L216.7437 186.2505
" />
<path d="M216.7437 186.2505
L216.6723 186.3219
" />
<path d="M216.6723 186.3219
L216.5295 186.3933
" />
<path d="M216.5295 186.3933
L216.2437 186.3933
" />
<path d="M216.2437 186.3933
L216.1009 186.3219
" />
<path d="M218.1009 186.3219
L217.9580 186.3933
" />
<path d="M217.9580 186.3933
L217.6723 186.3933
" />
<path d="M217.6723 186.3933
L217.5295 186.3219
" />
<path d="M217.5295 186.3219
L217.4580 186.2505
" />
<path d="M217.4580 186.2505
L217.3866 186.1076
" />
<path d="M217.3866 186.1076
L217.3866 185.6790
" />
<path d="M217.3866 185.6790
L217.4580 185.5362
" />
<path d="M217.4580 185.5362
L217.5295 185.4648
" />
<path d="M217.5295 185.4648
L217.6723 185.3933
" />
<path d="M217.6723 185.3933
L217.9580 185.3933
" />
<path d="M217.9580 185.3933
L218.1009 185.4648
" />
<path d="M218.7437 186.3933
L218.7437 184.8933
" />
<path d="M218.7437 185.4648
L218.8866 185.3933
" />
<path d="M218.8866 185.3933
L219.1723 185.3933
" />
<path d="M219.1723 185.3933
L219.3152 185.4648
" />
<path d="M219.3152 185.4648
L219.3866 185.5362
" />
<path d="M219.3866 185.5362
L219.4580 185.6790
" />
<path d="M219.4580 185.6790
L219.4580 186.1076
" />
<path d="M219.4580 186.1076
L219.3866 186.2505
" />
<path d="M219.3866 186.2505
L219.3152 186.3219
" />
<path d="M219.3152 186.3219
L219.1723 186.3933
" />
<path d="M219.1723 186.3933
L218.8866 186.3933
" />
<path d="M218.8866 186.3933
L218.7437 186.3219
" />
</g></g>
<g style="fill:none; 
stroke:#000000; stroke-width:0.1500; stroke-opacity:1; 
stroke-linecap:round; stroke-linejoin:round;">
<path d="M177.0022 181.5072
L285.0022 181.5072
" />
</g>
<g style="fill:none; 
stroke:#000000; stroke-width:0.1500; stroke-opacity:1; 
stroke-linecap:round; stroke-linejoin:round;">
<text x="178.0022" y="183.7572"
textLength="8.2214" font-size="2.0000" lengthAdjust="spacingAndGlyphs"
text-anchor="start" opacity="0">Sheet: </text>
<g class="stroked-text"><desc>Sheet: </desc>
<path d="M178.3866 183.6219
L178.6009 183.6933
" />
<path d="M178.6009 183.6933
L178.9580 183.6933
" />
<path d="M178.9580 183.6933
L179.1009 183.6219
" />
<path d="M179.1009 183.6219
L179.1723 183.5505
" />
<path d="M179.1723 183.5505
L179.2437 183.4076
" />
<path d="M179.2437 183.4076
L179.2437 183.2648
" />
<path d="M179.2437 183.2648
L179.1723 183.1219
" />
<path d="M179.1723 183.1219
L179.1009 183.0505
" />
<path d="M179.1009 183.0505
L178.9580 182.9790
" />
<path d="M178.9580 182.9790
L178.6723 182.9076
" />
<path d="M178.6723 182.9076
L178.5295 182.8362
" />
<path d="M178.5295 182.8362
L178.4580 182.7648
" />
<path d="M178.4580 182.7648
L178.3866 182.6219
" />
<path d="M178.3866 182.6219
L178.3866 182.4790
" />
<path d="M178.3866 182.4790
L178.4580 182.3362
" />
<path d="M178.4580 182.3362
L178.5295 182.2648
" />
<path d="M178.5295 182.2648
L178.6723 182.1933
" />
<path d="M178.6723 182.1933
L179.0295 182.1933
" />
<path d="M179.0295 182.1933
L179.2437 182.2648
" />
<path d="M179.8866 183.6933
L179.8866 182.1933
" />
<path d="M180.5295 183.6933
L180.5295 182.9076
" />
<path d="M180.5295 182.9076
L180.4580 182.7648
" />
<path d="M180.4580 182.7648
L180.3152 182.6933
" />
<path d="M180.3152 182.6933
L180.1009 182.6933
" />
<path d="M180.1009 182.6933
L179.9580 182.7648
" />
<path d="M179.9580 182.7648
L179.8866 182.8362
" />
<path d="M181.8152 183.6219
L181.6723 183.6933
" />
<path d="M181.6723 183.6933
L181.3866 183.6933
" />
<path d="M181.3866 183.6933
L181.2437 183.6219
" />
<path d="M181.2437 183.6219
L181.1723 183.4790
" />
<path d="M181.1723 183.4790
L181.1723 182.9076
" />
<path d="M181.1723 182.9076
L181.2437 182.7648
" />
<path d="M181.2437 182.7648
L181.3866 182.6933
" />
<path d="M181.3866 182.6933
L181.6723 182.6933
" />
<path d="M181.6723 182.6933
L181.8152 182.7648
" />
<path d="M181.8152 182.7648
L181.8866 182.9076
" />
<path d="M181.8866 182.9076
L181.8866 183.0505
" />
<path d="M181.8866 183.0505
L181.1723 183.1933
" />
<path d="M183.1009 183.6219
L182.9580 183.6933
" />
<path d="M182.9580 183.6933
L182.6723 183.6933
" />
<path d="M182.6723 183.6933
L182.5295 183.6219
" />
<path d="M182.5295 183.6219
L182.4580 183.4790
" />
<path d="M182.4580 183.4790
L182.4580 182.9076
" />
<path d="M182.4580 182.9076
L182.5295 182.7648
" />
<path d="M182.5295 182.7648
L182.6723 182.6933
" />
<path d="M182.6723 182.6933
L182.9580 182.6933
" />
<path d="M182.9580 182.6933
L183.1009 182.7648
" />
<path d="M183.1009 182.7648
L183.1723 182.9076
" />
<path d="M183.1723 182.9076
L183.1723 183.0505
" />
<path d="M183.1723 183.0505
L182.4580 183.1933
" />
<path d="M183.6009 182.6933
L184.1723 182.6933
" />
<path d="M183.8152 182.1933
L183.8152 183.4790
" />
<path d="M183.8152 183.4790
L183.8866 183.6219
" />
<path d="M183.8866 183.6219
L184.0295 183.6933
" />
<path d="M184.0295 183.6933
L184.1723 183.6933
" />
<path d="M184.6723 183.5505
L184.7437 183.6219
" />
<path d="M184.7437 183.6219
L184.6723 183.6933
" />
<path d="M184.6723 183.6933
L184.6009 183.6219
" />
<path d="M184.6009 183.6219
L184.6723 183.5505
" />
<path d="M184.6723 183.5505
L184.6723 183.6933
" />
<path d="M184.6723 182.7648
L184.7437 182.8362
" />
<path d="M184.7437 182.8362
L184.6723 182.9076
" />
<path d="M184.6723 182.9076
L184.6009 182.8362
" />
<path d="M184.6009 182.8362
L184.6723 182.7648
" />
<path d="M184.6723 182.7648
L184.6723 182.9076
" />
</g></g>
<g style="fill:none; 
stroke:#000000; stroke-width:0.3000; stroke-opacity:1; 
stroke-linecap:round; stroke-linejoin:round;">
<text x="178.0022" y="180.7572"
textLength="0.9000" font-size="2.0000" lengthAdjust="spacingAndGlyphs"
text-anchor="start" opacity="0"></text>
<g class="stroked-text"><desc></desc>
</g></g>
<g style="fill:none; 
stroke:#000000; stroke-width:0.1500; stroke-opacity:1; 
stroke-linecap:round; stroke-linejoin:round;">
<text x="178.0022" y="177.7572"
textLength="0.4500" font-size="2.0000" lengthAdjust="spacingAndGlyphs"
text-anchor="start" opacity="0"></text>
<g class="stroked-text"><desc></desc>
</g></g>
<g style="fill:none; 
stroke:#000000; stroke-width:0.1500; stroke-opacity:1; 
stroke-linecap:round; stroke-linejoin:round;">
<text x="178.0022" y="174.7572"
textLength="0.4500" font-size="2.0000" lengthAdjust="spacingAndGlyphs"
text-anchor="start" opacity="0"></text>
<g class="stroked-text"><desc></desc>
</g></g>
<g style="fill:none; 
stroke:#000000; stroke-width:0.1500; stroke-opacity:1; 
stroke-linecap:round; stroke-linejoin:round;">
<text x="178.0022" y="171.7572"
textLength="0.4500" font-size="2.0000" lengthAdjust="spacingAndGlyphs"
text-anchor="start" opacity="0"></text>
<g class="stroked-text"><desc></desc>
</g></g>
<g style="fill:none; 
stroke:#000000; stroke-width:0.1500; stroke-opacity:1; 
stroke-linecap:round; stroke-linejoin:round;">
<text x="178.0022" y="168.7572"
textLength="0.4500" font-size="2.0000" lengthAdjust="spacingAndGlyphs"
text-anchor="start" opacity="0"></text>
<g class="stroked-text"><desc></desc>
</g></g>
<g style="fill:none; 
stroke:#000000; stroke-width:0.1500; stroke-opacity:1; 
stroke-linecap:round; stroke-linejoin:round;">
<path d="M197.0022 191.5072
L197.0022 194.5072
" />
</g>
<g style="fill:none; 
stroke:#000000; stroke-width:0.1500; stroke-opacity:1; 
stroke-linecap:round; stroke-linejoin:round;">
<path d="M261.0022 191.5072
L261.0022 198.0072
" />
</g>
<g style="fill:none; 
stroke:#000000; stroke-width:0.0500; stroke-opacity:1; 
stroke-linecap:round; stroke-linejoin:round;">
<path d="M57.4900 111.3570
L57.4900 159.7570
" />
<path d="M57.4900 159.7570
L69.4900 159.7570
" />
<path d="M69.4900 111.3570
L57.4900 111.3570
" />
<path d="M69.4900 159.7570
L69.4900 111.3570
" />
<path d="M57.4900 91.0070
L57.4900 110.0070
" />
<path d="M57.4900 110.0070
L69.4900 110.0070
" />
<path d="M69.4900 91.0070
L57.4900 91.0070
" />
<path d="M69.4900 110.0070
L69.4900 91.0070
" />
<path d="M45.3440 122.8430
L45.3440 134.8430
" />
<path d="M45.3440 134.8430
L51.7440 134.8430
" />
<path d="M51.7440 122.8430
L45.3440 122.8430
" />
<path d="M51.7440 134.8430
L51.7440 122.8430
" />
<path d="M268.2840 21.7020
L268.2840 28.4520
" />
<path d="M268.2840 28.4520
L279.1840 28.4520
" />
<path d="M279.1840 21.7020
L268.2840 21.7020
" />
<path d="M279.1840 28.4520
L279.1840 21.7020
" />
<path d="M268.2840 29.6695
L268.2840 36.4195
" />
<path d="M268.2840 36.4195
L279.1840 36.4195
" />
<path d="M279.1840 29.6695
L268.2840 29.6695
" />
<path d="M279.1840 36.4195
L279.1840 29.6695
" />
<path d="M251.0340 5.7670
L251.0340 12.5170
" />
<path d="M251.0340 12.5170
L264.4340 12.5170
" />
<path d="M264.4340 5.7670
L251.0340 5.7670
" />
<path d="M264.4340 12.5170
L264.4340 5.7670
" />
<path d="M251.0340 13.7345
L251.0340 20.4845
" />
<path d="M251.0340 20.4845
L264.4340 20.4845
" />
<path d="M264.4340 13.7345
L251.0340 13.7345
" />
<path d="M264.4340 20.4845
L264.4340 13.7345
" />
<path d="M251.0340 21.7020
L251.0340 28.4520
" />
<path d="M251.0340 28.4520
L264.4340 28.4520
" />
<path d="M264.4340 21.7020
L251.0340 21.7020
" />
<path d="M264.4340 28.4520
L264.4340 21.7020
" />
<path d="M251.0340 29.6695
L251.0340 36.4195
" />
<path d="M251.0340 36.4195
L264.4340 36.4195
" />
<path d="M264.4340 29.6695
L251.0340 29.6695
" />
<path d="M264.4340 36.4195
L264.4340 29.6695
" />
<path d="M251.0340 37.6370
L251.0340 44.3870
" />
<path d="M251.0340 44.3870
L264.4340 44.3870
" />
<path d="M264.4340 37.6370
L251.0340 37.6370
" />
<path d="M264.4340 44.3870
L264.4340 37.6370
" />
<path d="M268.2840 13.7345
L268.2840 20.4845
" />
<path d="M268.2840 20.4845
L279.1840 20.4845
" />
<path d="M279.1840 13.7345
L268.2840 13.7345
" />
<path d="M279.1840 20.4845
L279.1840 13.7345
" />
<path d="M47.8850 141.1610
L47.8850 154.0610
" />
<path d="M47.8850 154.0610
L53.3850 154.0610
" />
<path d="M53.3850 141.1610
L47.8850 141.1610
" />
<path d="M53.3850 154.0610
L53.3850 141.1610
" />
<path d="M268.2840 5.7670
L268.2840 12.5170
" />
<path d="M268.2840 12.5170
L279.1840 12.5170
" />
<path d="M279.1840 5.7670
L268.2840 5.7670
" />
<path d="M279.1840 12.5170
L279.1840 5.7670
" />
<circle cx="159.6390" cy="94.7420" r="5.2500" /> 
<circle cx="287.7340" cy="13.6170" r="5.2500" /> 
<circle cx="287.7340" cy="166.1170" r="5.2500" /> 
<path d="M75.3140 64.6570
L84.3140 64.6570
" />
<path d="M75.3140 68.1570
L75.3140 64.6570
" />
<path d="M84.3140 64.6570
L84.3140 68.1570
" />
<path d="M84.3140 68.1570
L75.3140 68.1570
" />
<circle cx="57.4040" cy="77.5970" r="1.2500" /> 
<path d="M222.5340 56.9670
L228.3340 56.9670
" />
<path d="M222.5340 64.2670
L222.5340 56.9670
" />
<path d="M222.5340 64.2670
L228.3340 64.2670
" />
<path d="M228.3340 64.2670
L228.3340 56.9670
" />
<path d="M252.2840 165.7670
L254.1840 165.7670
" />
<path d="M252.2840 169.4670
L252.2840 165.7670
" />
<path d="M254.1840 165.7670
L254.1840 169.4670
" />
<path d="M254.1840 169.4670
L252.2840 169.4670
" />
<path d="M186.9100 132.8770
L189.8700 132.8770
" />
<path d="M186.9100 134.3370
L186.9100 132.8770
" />
<path d="M189.8700 132.8770
L189.8700 134.3370
" />
<path d="M189.8700 134.3370
L186.9100 134.3370
" />
<path d="M255.3140 165.9170
L255.3140 169.3170
" />
<path d="M255.3140 169.3170
L259.1540 169.3170
" />
<path d="M259.1540 165.9170
L255.3140 165.9170
" />
<path d="M259.1540 169.3170
L259.1540 165.9170
" />
<path d="M246.1840 39.4670
L249.8840 39.4670
" />
<path d="M246.1840 41.3670
L246.1840 39.4670
" />
<path d="M249.8840 39.4670
L249.8840 41.3670
" />
<path d="M249.8840 41.3670
L246.1840 41.3670
" />
<path d="M76.6900 77.7370
L78.5900 77.7370
" />
<path d="M76.6900 81.4370
L76.6900 77.7370
" />
<path d="M78.5900 77.7370
L78.5900 81.4370
" />
<path d="M78.5900 81.4370
L76.6900 81.4370
" />
<circle cx="224.2340" cy="105.6170" r="1.2500" /> 
<path d="M202.3540 163.4370
L206.1140 163.4370
" />
<path d="M202.3540 165.3970
L202.3540 163.4370
" />
<path d="M206.1140 163.4370
L206.1140 165.3970
" />
<path d="M206.1140 165.3970
L202.3540 165.3970
" />
<circle cx="137.1024" cy="110.5720" r="5.2500" /> 
<path d="M198.7700 82.8570
L202.1300 82.8570
" />
<path d="M198.7700 84.7570
L198.7700 82.8570
" />
<path d="M202.1300 82.8570
L202.1300 84.7570
" />
<path d="M202.1300 84.7570
L198.7700 84.7570
" />
<path d="M183.4920 102.6338
L187.1920 102.6338
" />
<path d="M183.4920 104.5338
L183.4920 102.6338
" />
<path d="M187.1920 102.6338
L187.1920 104.5338
" />
<path d="M187.1920 104.5338
L183.4920 104.5338
" />
<path d="M202.3540 167.1870
L202.3540 170.5870
" />
<path d="M202.3540 170.5870
L206.4540 170.5870
" />
<path d="M206.4540 167.1870
L202.3540 167.1870
" />
<path d="M206.4540 170.5870
L206.4540 167.1870
" />
<path d="M177.4900 148.6570
L177.4900 158.5070
" />
<path d="M178.6400 147.5070
L177.4900 148.6570
" />
<path d="M181.4900 146.3570
L181.4900 147.5070
" />
<path d="M181.4900 147.5070
L178.6400 147.5070
" />
<path d="M181.4900 158.5070
L177.4900 158.5070
" />
<path d="M181.4900 159.6570
L181.4900 158.5070
" />
<path d="M184.4900 146.3570
L181.4900 146.3570
" />
<path d="M184.4900 147.5070
L184.4900 146.3570
" />
<path d="M184.4900 158.5070
L184.4900 159.6570
" />
<path d="M184.4900 159.6570
L181.4900 159.6570
" />
<path d="M187.3400 147.5070
L184.4900 147.5070
" />
<path d="M187.3400 147.5070
L188.4900 148.6570
" />
<path d="M188.4900 148.6570
L188.4900 158.5070
" />
<path d="M188.4900 158.5070
L184.4900 158.5070
" />
<path d="M44.8940 92.5240
L44.8940 66.1740
" />
<path d="M44.8940 92.5240
L52.1940 92.5240
" />
<path d="M52.1940 66.1740
L44.8940 66.1740
" />
<path d="M52.1940 66.1740
L52.1940 92.5240
" />
<path d="M241.9840 39.4670
L245.6840 39.4670
" />
<path d="M241.9840 41.3670
L241.9840 39.4670
" />
<path d="M245.6840 39.4670
L245.6840 41.3670
" />
<path d="M245.6840 41.3670
L241.9840 41.3670
" />
<path d="M173.0100 107.3270
L175.9700 107.3270
" />
<path d="M173.0100 108.7870
L173.0100 107.3270
" />
<path d="M175.9700 107.3270
L175.9700 108.7870
" />
<path d="M175.9700 108.7870
L173.0100 108.7870
" />
<path d="M289.6040 60.4870
L291.5040 60.4870
" />
<path d="M289.6040 64.1870
L289.6040 60.4870
" />
<path d="M291.5040 60.4870
L291.5040 64.1870
" />
<path d="M291.5040 64.1870
L289.6040 64.1870
" />
<path d="M185.7838 71.9048
L185.7838 74.4048
" />
<path d="M185.7838 71.9048
L190.3838 71.9048
" />
<path d="M190.3838 74.4048
L185.7838 74.4048
" />
<path d="M190.3838 74.4048
L190.3838 71.9048
" />
<path d="M246.1840 41.6670
L249.8840 41.6670
" />
<path d="M246.1840 43.5670
L246.1840 41.6670
" />
<path d="M249.8840 41.6670
L249.8840 43.5670
" />
<path d="M249.8840 43.5670
L246.1840 43.5670
" />
<path d="M209.1690 61.7220
L211.0690 61.7220
" />
<path d="M209.1690 65.4220
L209.1690 61.7220
" />
<path d="M211.0690 61.7220
L211.0690 65.4220
" />
<path d="M211.0690 65.4220
L209.1690 65.4220
" />
<path d="M226.2340 90.2670
L226.2340 92.5670
" />
<path d="M226.2340 90.2670
L230.6340 90.2670
" />
<path d="M230.6340 90.2670
L230.6340 92.5670
" />
<path d="M230.6340 92.5670
L226.2340 92.5670
" />
<circle cx="137.1024" cy="159.3790" r="5.2500" /> 
<path d="M196.2732 89.7648
L196.2732 116.2148
" />
<path d="M196.2732 116.2148
L199.8732 116.2148
" />
<path d="M199.8732 89.7648
L196.2732 89.7648
" />
<path d="M199.8732 116.2148
L199.8732 89.7648
" />
<path d="M261.6007 62.2670
L265.3007 62.2670
" />
<path d="M261.6007 64.1670
L261.6007 62.2670
" />
<path d="M265.3007 62.2670
L265.3007 64.1670
" />
<path d="M265.3007 64.1670
L261.6007 64.1670
" />
<circle cx="276.2340" cy="166.6170" r="1.2500" /> 
<path d="M286.6040 60.4870
L288.5040 60.4870
" />
<path d="M286.6040 64.1870
L286.6040 60.4870
" />
<path d="M288.5040 60.4870
L288.5040 64.1870
" />
<path d="M288.5040 64.1870
L286.6040 64.1870
" />
<path d="M166.0900 148.6570
L166.0900 158.5070
" />
<path d="M167.2400 147.5070
L166.0900 148.6570
" />
<path d="M170.0900 146.3570
L170.0900 147.5070
" />
<path d="M170.0900 147.5070
L167.2400 147.5070
" />
<path d="M170.0900 158.5070
L166.0900 158.5070
" />
<path d="M170.0900 159.6570
L170.0900 158.5070
" />
<path d="M173.0900 146.3570
L170.0900 146.3570
" />
<path d="M173.0900 147.5070
L173.0900 146.3570
" />
<path d="M173.0900 158.5070
L173.0900 159.6570
" />
<path d="M173.0900 159.6570
L170.0900 159.6570
" />
<path d="M175.9400 147.5070
L173.0900 147.5070
" />
<path d="M175.9400 147.5070
L177.0900 148.6570
" />
<path d="M177.0900 148.6570
L177.0900 158.5070
" />
<path d="M177.0900 158.5070
L173.0900 158.5070
" />
<path d="M183.5100 132.8770
L186.4700 132.8770
" />
<path d="M183.5100 134.3370
L183.5100 132.8770
" />
<path d="M186.4700 132.8770
L186.4700 134.3370
" />
<path d="M186.4700 134.3370
L183.5100 134.3370
" />
<circle cx="157.1732" cy="112.3922" r="1.2500" /> 
<path d="M187.4420 106.3938
L187.4420 108.8938
" />
<path d="M187.4420 106.3938
L192.0420 106.3938
" />
<path d="M192.0420 108.8938
L187.4420 108.8938
" />
<path d="M192.0420 108.8938
L192.0420 106.3938
" />
<path d="M181.8900 130.0570
L186.4900 130.0570
" />
<path d="M181.8900 132.3570
L181.8900 130.0570
" />
<path d="M186.4900 130.0570
L186.4900 132.3570
" />
<path d="M186.4900 132.3570
L181.8900 132.3570
" />
<path d="M90.4900 110.8320
L94.9900 110.8320
" />
<path d="M90.4900 118.1320
L90.4900 110.8320
" />
<path d="M94.9900 110.8320
L94.9900 118.1320
" />
<path d="M94.9900 118.1320
L90.4900 118.1320
" />
<path d="M179.9900 135.5570
L179.9900 142.4570
" />
<path d="M179.9900 142.4570
L188.7900 142.4570
" />
<path d="M188.7900 135.5570
L179.9900 135.5570
" />
<path d="M188.7900 142.4570
L188.7900 135.5570
" />
<path d="M110.6400 114.1570
L114.1400 114.1570
" />
<path d="M110.6400 121.1570
L110.6400 114.1570
" />
<path d="M114.1400 114.1570
L114.1400 121.1570
" />
<path d="M114.1400 121.1570
L110.6400 121.1570
" />
<path d="M90.9900 155.4620
L95.4900 155.4620
" />
<path d="M90.9900 162.7620
L90.9900 155.4620
" />
<path d="M95.4900 155.4620
L95.4900 162.7620
" />
<path d="M95.4900 162.7620
L90.9900 162.7620
" />
<path d="M96.9900 116.9070
L101.4900 116.9070
" />
<path d="M96.9900 124.2070
L96.9900 116.9070
" />
<path d="M101.4900 116.9070
L101.4900 124.2070
" />
<path d="M101.4900 124.2070
L96.9900 124.2070
" />
<path d="M167.3400 129.6570
L169.2400 129.6570
" />
<path d="M167.3400 133.3570
L167.3400 129.6570
" />
<path d="M169.2400 129.6570
L169.2400 133.3570
" />
<path d="M169.2400 133.3570
L167.3400 133.3570
" />
<path d="M211.7090 61.7220
L213.6090 61.7220
" />
<path d="M211.7090 65.4220
L211.7090 61.7220
" />
<path d="M213.6090 61.7220
L213.6090 65.4220
" />
<path d="M213.6090 65.4220
L211.7090 65.4220
" />
<path d="M226.2340 87.6670
L230.6340 87.6670
" />
<path d="M226.2340 89.9670
L226.2340 87.6670
" />
<path d="M230.6340 89.9670
L226.2340 89.9670
" />
<path d="M230.6340 89.9670
L230.6340 87.6670
" />
<path d="M280.6040 60.4870
L282.5040 60.4870
" />
<path d="M280.6040 64.1870
L280.6040 60.4870
" />
<path d="M282.5040 60.4870
L282.5040 64.1870
" />
<path d="M282.5040 64.1870
L280.6040 64.1870
" />
<path d="M167.3400 125.4570
L169.2400 125.4570
" />
<path d="M167.3400 129.1570
L167.3400 125.4570
" />
<path d="M169.2400 125.4570
L169.2400 129.1570
" />
<path d="M169.2400 129.1570
L167.3400 129.1570
" />
<path d="M44.8940 120.5990
L44.8940 94.2490
" />
<path d="M44.8940 120.5990
L52.1940 120.5990
" />
<path d="M52.1940 94.2490
L44.8940 94.2490
" />
<path d="M52.1940 94.2490
L52.1940 120.5990
" />
<circle cx="137.1024" cy="143.1100" r="5.2500" /> 
<path d="M229.9340 57.0670
L235.7340 57.0670
" />
<path d="M229.9340 64.3670
L229.9340 57.0670
" />
<path d="M229.9340 64.3670
L235.7340 64.3670
" />
<path d="M235.7340 64.3670
L235.7340 57.0670
" />
<path d="M110.5900 83.3570
L114.0900 83.3570
" />
<path d="M110.5900 90.3570
L110.5900 83.3570
" />
<path d="M114.0900 83.3570
L114.0900 90.3570
" />
<path d="M114.0900 90.3570
L110.5900 90.3570
" />
<path d="M274.5740 53.4570
L276.5340 53.4570
" />
<path d="M274.5740 57.2170
L274.5740 53.4570
" />
<path d="M276.5340 53.4570
L276.5340 57.2170
" />
<path d="M276.5340 57.2170
L274.5740 57.2170
" />
<circle cx="192.1900" cy="84.6070" r="1.2500" /> 
<circle cx="190.3900" cy="80.6070" r="1.2500" /> 
<path d="M265.9840 57.2970
L265.9840 61.1370
" />
<path d="M265.9840 61.1370
L269.3840 61.1370
" />
<path d="M269.3840 57.2970
L265.9840 57.2970
" />
<path d="M269.3840 61.1370
L269.3840 57.2970
" />
<path d="M40.1400 139.6570
L40.1400 155.5570
" />
<path d="M40.1400 155.5570
L46.8900 155.5570
" />
<path d="M46.8900 139.6570
L40.1400 139.6570
" />
<path d="M46.8900 155.5570
L46.8900 139.6570
" />
<circle cx="107.3900" cy="127.7070" r="1.2500" /> 
<path d="M225.9840 76.1670
L225.9840 78.6670
" />
<path d="M225.9840 76.1670
L229.2840 76.1670
" />
<path d="M229.2840 78.6670
L225.9840 78.6670
" />
<path d="M229.2840 78.6670
L229.2840 76.1670
" />
<path d="M274.6040 60.4870
L276.5040 60.4870
" />
<path d="M274.6040 64.1870
L274.6040 60.4870
" />
<path d="M276.5040 60.4870
L276.5040 64.1870
" />
<path d="M276.5040 64.1870
L274.6040 64.1870
" />
<path d="M251.9840 104.6970
L255.6840 104.6970
" />
<path d="M251.9840 106.5970
L251.9840 104.6970
" />
<path d="M255.6840 104.6970
L255.6840 106.5970
" />
<path d="M255.6840 106.5970
L251.9840 106.5970
" />
<path d="M257.3673 62.2670
L261.0673 62.2670
" />
<path d="M257.3673 64.1670
L257.3673 62.2670
" />
<path d="M261.0673 62.2670
L261.0673 64.1670
" />
<path d="M261.0673 64.1670
L257.3673 64.1670
" />
<path d="M257.3673 54.4670
L261.0673 54.4670
" />
<path d="M257.3673 56.3670
L257.3673 54.4670
" />
<path d="M261.0673 54.4670
L261.0673 56.3670
" />
<path d="M261.0673 56.3670
L257.3673 56.3670
" />
<circle cx="137.1024" cy="126.8410" r="5.2500" /> 
<path d="M265.8340 62.2670
L269.5340 62.2670
" />
<path d="M265.8340 64.1670
L265.8340 62.2670
" />
<path d="M269.5340 62.2670
L269.5340 64.1670
" />
<path d="M269.5340 64.1670
L265.8340 64.1670
" />
<path d="M186.8900 127.2570
L191.4900 127.2570
" />
<path d="M186.8900 129.5570
L186.8900 127.2570
" />
<path d="M191.4900 127.2570
L191.4900 129.5570
" />
<path d="M191.4900 129.5570
L186.8900 129.5570
" />
<path d="M90.4900 78.3320
L94.9900 78.3320
" />
<path d="M90.4900 85.6320
L90.4900 78.3320
" />
<path d="M94.9900 78.3320
L94.9900 85.6320
" />
<path d="M94.9900 85.6320
L90.4900 85.6320
" />
<path d="M213.9140 164.6270
L217.5140 164.6270
" />
<path d="M213.9140 169.4270
L213.9140 164.6270
" />
<path d="M217.5140 164.6270
L217.5140 169.4270
" />
<path d="M217.5140 169.4270
L213.9140 169.4270
" />
<path d="M193.9800 82.8570
L197.6800 82.8570
" />
<path d="M193.9800 84.7570
L193.9800 82.8570
" />
<path d="M197.6800 82.8570
L197.6800 84.7570
" />
<path d="M197.6800 84.7570
L193.9800 84.7570
" />
<path d="M241.9840 41.6670
L245.6840 41.6670
" />
<path d="M241.9840 43.5670
L241.9840 41.6670
" />
<path d="M245.6840 41.6670
L245.6840 43.5670
" />
<path d="M245.6840 43.5670
L241.9840 43.5670
" />
<path d="M283.6040 60.4870
L285.5040 60.4870
" />
<path d="M283.6040 64.1870
L283.6040 60.4870
" />
<path d="M285.5040 60.4870
L285.5040 64.1870
" />
<path d="M285.5040 64.1870
L283.6040 64.1870
" />
<circle cx="137.1024" cy="94.3030" r="5.2500" /> 
<path d="M261.6007 54.4670
L265.3007 54.4670
" />
<path d="M261.6007 56.3670
L261.6007 54.4670
" />
<path d="M265.3007 54.4670
L265.3007 56.3670
" />
<path d="M265.3007 56.3670
L261.6007 56.3670
" />
<path d="M175.0900 130.9570
L179.6900 130.9570
" />
<path d="M175.0900 133.2570
L175.0900 130.9570
" />
<path d="M179.6900 130.9570
L179.6900 133.2570
" />
<path d="M179.6900 133.2570
L175.0900 133.2570
" />
<path d="M181.8900 127.2570
L186.4900 127.2570
" />
<path d="M181.8900 129.5570
L181.8900 127.2570
" />
<path d="M186.4900 127.2570
L186.4900 129.5570
" />
<path d="M186.4900 129.5570
L181.8900 129.5570
" />
<path d="M281.6040 37.6370
L281.6040 44.3870
" />
<path d="M281.6040 44.3870
L290.0040 44.3870
" />
<path d="M290.0040 37.6370
L281.6040 37.6370
" />
<path d="M290.0040 44.3870
L290.0040 37.6370
" />
<path d="M166.0900 113.3070
L170.0900 113.3070
" />
<path d="M166.0900 123.1570
L166.0900 113.3070
" />
<path d="M167.2400 124.3070
L166.0900 123.1570
" />
<path d="M167.2400 124.3070
L170.0900 124.3070
" />
<path d="M170.0900 112.1570
L173.0900 112.1570
" />
<path d="M170.0900 113.3070
L170.0900 112.1570
" />
<path d="M170.0900 124.3070
L170.0900 125.4570
" />
<path d="M170.0900 125.4570
L173.0900 125.4570
" />
<path d="M173.0900 112.1570
L173.0900 113.3070
" />
<path d="M173.0900 113.3070
L177.0900 113.3070
" />
<path d="M173.0900 124.3070
L175.9400 124.3070
" />
<path d="M173.0900 125.4570
L173.0900 124.3070
" />
<path d="M175.9400 124.3070
L177.0900 123.1570
" />
<path d="M177.0900 123.1570
L177.0900 113.3070
" />
<path d="M169.7900 130.8570
L169.7900 133.3570
" />
<path d="M169.7900 130.8570
L174.3900 130.8570
" />
<path d="M174.3900 133.3570
L169.7900 133.3570
" />
<path d="M174.3900 133.3570
L174.3900 130.8570
" />
<path d="M171.5100 133.8770
L174.4700 133.8770
" />
<path d="M171.5100 135.3370
L171.5100 133.8770
" />
<path d="M174.4700 133.8770
L174.4700 135.3370
" />
<path d="M174.4700 135.3370
L171.5100 135.3370
" />
<path d="M74.4900 77.7870
L76.3900 77.7870
" />
<path d="M74.4900 81.4870
L74.4900 77.7870
" />
<path d="M76.3900 77.7870
L76.3900 81.4870
" />
<path d="M76.3900 81.4870
L74.4900 81.4870
" />
<path d="M249.2840 165.7670
L251.1840 165.7670
" />
<path d="M249.2840 169.4670
L249.2840 165.7670
" />
<path d="M251.1840 165.7670
L251.1840 169.4670
" />
<path d="M251.1840 169.4670
L249.2840 169.4670
" />
<path d="M237.8840 54.6420
L250.9840 54.6420
" />
<path d="M237.8840 64.1920
L237.8840 54.6420
" />
<path d="M250.9840 54.6420
L250.9840 64.1920
" />
<path d="M250.9840 64.1920
L237.8840 64.1920
" />
<path d="M226.3090 83.0670
L230.5590 83.0670
" />
<path d="M226.3090 86.5670
L226.3090 83.0670
" />
<path d="M230.5590 83.0670
L230.5590 86.5670
" />
<path d="M230.5590 86.5670
L226.3090 86.5670
" />
<path d="M269.5340 37.6370
L269.5340 44.3870
" />
<path d="M269.5340 44.3870
L277.9340 44.3870
" />
<path d="M277.9340 37.6370
L269.5340 37.6370
" />
<path d="M277.9340 44.3870
L277.9340 37.6370
" />
<path d="M173.3600 142.4270
L174.8200 142.4270
" />
<path d="M173.3600 145.3870
L173.3600 142.4270
" />
<path d="M174.8200 142.4270
L174.8200 145.3870
" />
<path d="M174.8200 145.3870
L173.3600 145.3870
" />
<path d="M253.2840 57.2970
L253.2840 61.1370
" />
<path d="M253.2840 61.1370
L256.6840 61.1370
" />
<path d="M256.6840 57.2970
L253.2840 57.2970
" />
<path d="M256.6840 61.1370
L256.6840 57.2970
" />
<path d="M90.4900 90.4620
L94.9900 90.4620
" />
<path d="M90.4900 97.7620
L90.4900 90.4620
" />
<path d="M94.9900 90.4620
L94.9900 97.7620
" />
<path d="M94.9900 97.7620
L90.4900 97.7620
" />
<circle cx="172.7200" cy="162.0520" r="1.2500" /> 
<path d="M183.4920 106.6978
L187.1920 106.6978
" />
<path d="M183.4920 108.5978
L183.4920 106.6978
" />
<path d="M187.1920 106.6978
L187.1920 108.5978
" />
<path d="M187.1920 108.5978
L183.4920 108.5978
" />
<path d="M265.8340 54.4670
L269.5340 54.4670
" />
<path d="M265.8340 56.3670
L265.8340 54.4670
" />
<path d="M269.5340 54.4670
L269.5340 56.3670
" />
<path d="M269.5340 56.3670
L265.8340 56.3670
" />
<path d="M283.2540 23.0195
L283.2540 36.4195
" />
<path d="M283.2540 36.4195
L290.0040 36.4195
" />
<path d="M290.0040 23.0195
L283.2540 23.0195
" />
<path d="M290.0040 36.4195
L290.0040 23.0195
" />
<path d="M90.9900 143.3320
L95.4900 143.3320
" />
<path d="M90.9900 150.6320
L90.9900 143.3320
" />
<path d="M95.4900 143.3320
L95.4900 150.6320
" />
<path d="M95.4900 150.6320
L90.9900 150.6320
" />
<path d="M261.7507 57.2970
L261.7507 61.1370
" />
<path d="M261.7507 61.1370
L265.1507 61.1370
" />
<path d="M265.1507 57.2970
L261.7507 57.2970
" />
<path d="M265.1507 61.1370
L265.1507 57.2970
" />
<circle cx="107.3900" cy="157.2570" r="1.2500" /> 
<path style="fill:none; 
stroke:#000000; stroke-width:0.0500; stroke-opacity:1; 
stroke-linecap:round; stroke-linejoin:round;fill:none"
d="M 229.7900,168.4405
228.0120,168.4405
228.0120,169.7105
224.4560,169.7105
224.4560,168.4405
222.6780,168.4405
222.6780,165.1385
229.7900,165.1385
Z" /> 
<path d="M175.0900 133.6270
L178.4900 133.6270
" />
<path d="M175.0900 135.5870
L175.0900 133.6270
" />
<path d="M178.4900 133.6270
L178.4900 135.5870
" />
<path d="M178.4900 135.5870
L175.0900 135.5870
" />
<circle cx="72.3900" cy="113.1570" r="1.2500" /> 
<path d="M96.9900 84.4070
L101.4900 84.4070
" />
<path d="M96.9900 91.7070
L96.9900 84.4070
" />
<path d="M101.4900 84.4070
L101.4900 91.7070
" />
<path d="M101.4900 91.7070
L96.9900 91.7070
" />
<path d="M110.6400 147.3070
L114.1400 147.3070
" />
<path d="M110.6400 154.3070
L110.6400 147.3070
" />
<path d="M114.1400 147.3070
L114.1400 154.3070
" />
<path d="M114.1400 154.3070
L110.6400 154.3070
" />
<path d="M96.9900 149.4070
L101.4900 149.4070
" />
<path d="M96.9900 156.7070
L96.9900 149.4070
" />
<path d="M101.4900 149.4070
L101.4900 156.7070
" />
<path d="M101.4900 156.7070
L96.9900 156.7070
" />
<path d="M63.1200 82.3570
L63.1200 89.3570
" />
<path d="M63.1200 89.3570
L74.2200 89.3570
" />
<path d="M74.2200 82.3570
L63.1200 82.3570
" />
<path d="M74.2200 89.3570
L74.2200 82.3570
" />
<path d="M167.3400 135.0570
L169.2400 135.0570
" />
<path d="M167.3400 138.7570
L167.3400 135.0570
" />
<path d="M169.2400 135.0570
L169.2400 138.7570
" />
<path d="M169.2400 138.7570
L167.3400 138.7570
" />
<path d="M206.8690 163.5220
L206.8690 170.4220
" />
<path d="M206.8690 170.4220
L212.3690 170.4220
" />
<path d="M212.3690 163.5220
L206.8690 163.5220
" />
<path d="M212.3690 170.4220
L212.3690 163.5220
" />
<circle cx="223.8340" cy="90.0170" r="1.5000" /> 
<path style="fill:none; 
stroke:#000000; stroke-width:0.0500; stroke-opacity:1; 
stroke-linecap:round; stroke-linejoin:round;fill:none"
d="M 293.1205,75.6591
294.6905,75.6591
294.6905,84.6991
293.1205,84.6991
293.1205,91.7191
240.8205,91.7191
240.8205,68.6391
293.1205,68.6391
Z" /> 
<path d="M192.1200 116.9070
L193.0600 116.9070
" />
<path d="M192.1200 119.1070
L192.1200 116.9070
" />
<path d="M193.0600 116.9070
L193.0600 119.1070
" />
<path d="M193.0600 119.1070
L192.1200 119.1070
" />
<path d="M195.4390 73.1520
L216.7890 73.1520
" />
<path d="M195.4390 76.7020
L195.4390 73.1520
" />
<path d="M216.7890 73.1520
L216.7890 76.7020
" />
<path d="M216.7890 76.7020
L195.4390 76.7020
" />
<path d="M253.1340 62.2670
L256.8340 62.2670
" />
<path d="M253.1340 64.1670
L253.1340 62.2670
" />
<path d="M256.8340 62.2670
L256.8340 64.1670
" />
<path d="M256.8340 64.1670
L253.1340 64.1670
" />
<circle cx="270.2340" cy="48.6170" r="1.2500" /> 
<path d="M68.7900 77.7270
L70.6900 77.7270
" />
<path d="M68.7900 81.4270
L68.7900 77.7270
" />
<path d="M70.6900 77.7270
L70.6900 81.4270
" />
<path d="M70.6900 81.4270
L68.7900 81.4270
" />
<path d="M195.4390 67.5700
L216.7890 67.5700
" />
<path d="M195.4390 71.1200
L195.4390 67.5700
" />
<path d="M216.7890 67.5700
L216.7890 71.1200
" />
<path d="M216.7890 71.1200
L195.4390 71.1200
" />
<path d="M232.7840 69.3670
L232.7840 71.8670
" />
<path d="M232.7840 69.3670
L236.0840 69.3670
" />
<path d="M236.0840 71.8670
L232.7840 71.8670
" />
<path d="M236.0840 71.8670
L236.0840 69.3670
" />
<path d="M173.0100 104.5770
L175.9700 104.5770
" />
<path d="M173.0100 106.0370
L173.0100 104.5770
" />
<path d="M175.9700 104.5770
L175.9700 106.0370
" />
<path d="M175.9700 106.0370
L173.0100 106.0370
" />
<path d="M58.8900 75.6570
L67.8900 75.6570
" />
<path d="M58.8900 79.1570
L58.8900 75.6570
" />
<path d="M67.8900 75.6570
L67.8900 79.1570
" />
<path d="M67.8900 79.1570
L58.8900 79.1570
" />
<circle cx="192.9900" cy="138.8070" r="1.2500" /> 
<path d="M245.5840 169.8670
L245.5840 166.5670
" />
<path d="M245.5840 169.8670
L248.0840 169.8670
" />
<path d="M248.0840 166.5670
L245.5840 166.5670
" />
<path d="M248.0840 166.5670
L248.0840 169.8670
" />
<path d="M221.9540 84.8370
L225.7140 84.8370
" />
<path d="M221.9540 86.7970
L221.9540 84.8370
" />
<path d="M225.7140 84.8370
L225.7140 86.7970
" />
<path d="M225.7140 86.7970
L221.9540 86.7970
" />
</g>
<g style="fill:none; 
stroke:#000000; stroke-width:0.1000; stroke-opacity:1; 
stroke-linecap:round; stroke-linejoin:round;">
<path d="M172.2150 135.9570
L178.5650 135.9570
" />
<path d="M172.2150 142.0570
L172.2150 135.9570
" />
<path d="M178.5650 135.9570
L178.5650 142.0570
" />
<path d="M178.5650 142.0570
L172.2150 142.0570
" />
</g>
<g style="fill:none; 
stroke:#000000; stroke-width:0.0500; stroke-opacity:1; 
stroke-linecap:round; stroke-linejoin:round;">
<circle cx="281.8840" cy="19.5670" r="1.2500" /> 
<path d="M90.9900 122.9620
L95.4900 122.9620
" />
<path d="M90.9900 130.2620
L90.9900 122.9620
" />
<path d="M95.4900 122.9620
L95.4900 130.2620
" />
<path d="M95.4900 130.2620
L90.9900 130.2620
" />
<circle cx="290.5540" cy="53.3370" r="1.5000" /> 
<path d="M186.8900 130.0570
L191.4900 130.0570
" />
<path d="M186.8900 132.3570
L186.8900 130.0570
" />
<path d="M191.4900 130.0570
L191.4900 132.3570
" />
<path d="M191.4900 132.3570
L186.8900 132.3570
" />
<path d="M231.2340 165.0670
L231.2340 171.2170
" />
<path d="M231.2340 171.2170
L242.4340 171.2170
" />
<path d="M242.4340 165.0670
L231.2340 165.0670
" />
<path d="M242.4340 171.2170
L242.4340 165.0670
" />
<circle cx="264.2340" cy="127.6170" r="1.2500" /> 
<path d="M175.1900 144.7570
L179.7900 144.7570
" />
<path d="M175.1900 147.0570
L175.1900 144.7570
" />
<path d="M179.7900 144.7570
L179.7900 147.0570
" />
<path d="M179.7900 147.0570
L175.1900 147.0570
" />
<path d="M57.5700 80.9070
L61.4100 80.9070
" />
<path d="M57.5700 88.9070
L57.5700 80.9070
" />
<path d="M61.4100 80.9070
L61.4100 88.9070
" />
<path d="M61.4100 88.9070
L57.5700 88.9070
" />
<circle cx="275.2340" cy="95.6170" r="1.2500" /> 
<path d="M187.4420 102.3298
L187.4420 104.8298
" />
<path d="M187.4420 102.3298
L192.0420 102.3298
" />
<path d="M192.0420 104.8298
L187.4420 104.8298
" />
<path d="M192.0420 104.8298
L192.0420 102.3298
" />
<path d="M166.8975 144.5070
L166.8975 139.9070
" />
<path d="M166.8975 144.5070
L169.3975 144.5070
" />
<path d="M169.3975 139.9070
L166.8975 139.9070
" />
<path d="M169.3975 139.9070
L169.3975 144.5070
" />
<path d="M179.0432 87.1030
L193.5432 87.1030
" />
<path d="M179.0432 101.5030
L179.0432 87.1030
" />
<path d="M193.5432 87.1030
L193.5432 101.5030
" />
<path d="M193.5432 101.5030
L179.0432 101.5030
" />
<path d="M242.7840 169.8670
L242.7840 166.5670
" />
<path d="M242.7840 169.8670
L245.2840 169.8670
" />
<path d="M245.2840 166.5670
L242.7840 166.5670
" />
<path d="M245.2840 166.5670
L245.2840 169.8670
" />
<path d="M277.9740 51.6370
L277.9740 59.0370
" />
<path d="M277.9740 59.0370
L287.1340 59.0370
" />
<path d="M287.1340 51.6370
L277.9740 51.6370
" />
<path d="M287.1340 59.0370
L287.1340 51.6370
" />
<path d="M277.6040 60.4870
L279.5040 60.4870
" />
<path d="M277.6040 64.1870
L277.6040 60.4870
" />
<path d="M279.5040 60.4870
L279.5040 64.1870
" />
<path d="M279.5040 64.1870
L277.6040 64.1870
" />
<path d="M175.1900 142.4270
L178.5900 142.4270
" />
<path d="M175.1900 144.3870
L175.1900 142.4270
" />
<path d="M178.5900 142.4270
L178.5900 144.3870
" />
<path d="M178.5900 144.3870
L175.1900 144.3870
" />
<path d="M257.5173 57.2970
L257.5173 61.1370
" />
<path d="M257.5173 61.1370
L260.9173 61.1370
" />
<path d="M260.9173 57.2970
L257.5173 57.2970
" />
<path d="M260.9173 61.1370
L260.9173 57.2970
" />
<path d="M251.9840 107.6470
L255.6840 107.6470
" />
<path d="M251.9840 109.5470
L251.9840 107.6470
" />
<path d="M255.6840 107.6470
L255.6840 109.5470
" />
<path d="M255.6840 109.5470
L251.9840 109.5470
" />
<path d="M253.1340 54.4670
L256.8340 54.4670
" />
<path d="M253.1340 56.3670
L253.1340 54.4670
" />
<path d="M256.8340 54.4670
L256.8340 56.3670
" />
<path d="M256.8340 56.3670
L253.1340 56.3670
" />
<circle cx="290.5540" cy="57.3370" r="1.5000" /> 
<path d="M260.0840 169.8170
L260.0840 165.4170
" />
<path d="M262.3840 165.4170
L260.0840 165.4170
" />
<path d="M262.3840 165.4170
L262.3840 169.8170
" />
<path d="M262.3840 169.8170
L260.0840 169.8170
" />
<path d="M58.8900 71.8570
L67.8900 71.8570
" />
<path d="M58.8900 75.3570
L58.8900 71.8570
" />
<path d="M67.8900 71.8570
L67.8900 75.3570
" />
<path d="M67.8900 75.3570
L58.8900 75.3570
" />
<path d="M75.2400 68.8570
L84.2400 68.8570
" />
<path d="M75.2400 72.3570
L75.2400 68.8570
" />
<path d="M84.2400 68.8570
L84.2400 72.3570
" />
<path d="M84.2400 72.3570
L75.2400 72.3570
" />
<path d="M70.9400 77.7270
L70.9400 81.5670
" />
<path d="M70.9400 81.5670
L74.3400 81.5670
" />
<path d="M74.3400 77.7270
L70.9400 77.7270
" />
<path d="M74.3400 81.5670
L74.3400 77.7270
" />
<circle cx="223.2340" cy="77.6170" r="1.2500" /> 
<path d="M271.6040 60.4870
L273.5040 60.4870
" />
<path d="M271.6040 64.1870
L271.6040 60.4870
" />
<path d="M273.5040 60.4870
L273.5040 64.1870
" />
<path d="M273.5040 64.1870
L271.6040 64.1870
" />
<path d="M37.0840 155.0670
L37.0840 62.9920
" />
<path d="M242.8240 36.3220
L238.3790 40.7670
" />
<path d="M53.5940 156.9720
L54.8640 158.2420
" />
<path d="M247.2340 5.6170
L247.2690 34.4170
" />
<path d="M197.7390 55.3720
L192.0240 61.0870
" />
<path d="M271.2340 159.6170
L271.2340 105.6170
" />
<path d="M38.9890 156.9720
L53.5940 156.9720
" />
<path d="M38.9890 61.0870
L192.0240 61.0870
" />
<path d="M271.2340 105.6170
L272.2340 104.6170
" />
<path d="M294.2340 161.6170
L293.2340 160.6170
" />
<path d="M272.2340 160.6170
L271.2340 159.6170
" />
<path d="M221.2340 40.7670
L218.6940 43.3070
" />
</g>
<g style="fill:none; 
stroke:#000000; stroke-width:0.1000; stroke-opacity:1; 
stroke-linecap:round; stroke-linejoin:round;">
<circle cx="238.3340" cy="132.8170" r="13.0000" /> 
</g>
<g style="fill:none; 
stroke:#000000; stroke-width:0.0500; stroke-opacity:1; 
stroke-linecap:round; stroke-linejoin:round;">
<path d="M292.2340 3.6170
L294.2340 5.6170
" />
<path d="M78.3590 165.8620
L82.8040 170.3070
" />
<path d="M37.0840 155.0670
L38.9890 156.9720
" />
<path d="M292.2340 173.6170
L200.0250 173.5455
" />
<path d="M245.3640 36.3220
L242.8240 36.3220
" />
<path d="M54.8640 158.2420
L54.8640 159.5120
" />
<path d="M247.2690 34.4170
L245.3640 36.3220
" />
<path d="M293.2340 104.6170
L294.2340 103.6170
" />
<path d="M292.2340 3.6170
L249.2340 3.6170
" />
<path d="M196.0880 170.3070
L82.8040 170.3070
" />
<path d="M294.2340 103.6170
L294.2340 5.6170
" />
<path d="M61.2140 165.8620
L78.3590 165.8620
" />
<path d="M54.8640 159.5120
L61.2140 165.8620
" />
<path d="M216.1540 54.1020
L214.8840 55.3720
" />
<path d="M249.2340 3.6170
L247.2340 5.6170
" />
<path d="M238.3790 40.7670
L221.2340 40.7670
" />
<path d="M272.2340 104.6170
L293.2340 104.6170
" />
<path d="M38.9890 61.0870
L37.0840 62.9920
" />
<path d="M292.2340 173.6170
L294.2340 171.6170
" />
<path d="M196.0880 170.3070
L200.0250 173.5455
" />
<path d="M214.8840 55.3720
L197.7390 55.3720
" />
<path d="M216.1540 48.3870
L216.1540 54.1020
" />
<path d="M293.2340 160.6170
L272.2340 160.6170
" />
<path d="M218.6940 43.3070
L218.6940 45.8470
" />
<path d="M218.6940 45.8470
L216.1540 48.3870
" />
<path d="M294.2340 171.6170
L294.2340 161.6170
" />
</g> 
</svg>
