%TF.GenerationSoftware,KiCad,Pcbnew,8.0.3+1*%
%TF.CreationDate,2024-07-23T19:14:42+00:00*%
%TF.ProjectId,mower_PowerDeviceCarrier,6d6f7765-725f-4506-9f77-657244657669,rev?*%
%TF.SameCoordinates,PX2b5aa20PY5837b10*%
%TF.FileFunction,Legend,Top*%
%TF.FilePolarity,Positive*%
%FSLAX46Y46*%
G04 Gerber Fmt 4.6, Leading zero omitted, Abs format (unit mm)*
G04 Created by KiCad (PCBNEW 8.0.3+1) date 2024-07-23 19:14:42*
%MOMM*%
%LPD*%
G01*
G04 APERTURE LIST*
%ADD10C,0.200000*%
%ADD11C,0.300000*%
%ADD12C,0.150000*%
%ADD13C,0.120000*%
%ADD14C,0.500000*%
G04 APERTURE END LIST*
D10*
X40126000Y-74316400D02*
X45104400Y-74316400D01*
X45104400Y-82647600D01*
X40126000Y-82647600D01*
X40126000Y-74316400D01*
X40126000Y-82850800D02*
X45104400Y-82850800D01*
X45104400Y-91182000D01*
X40126000Y-91182000D01*
X40126000Y-82850800D01*
X41991778Y-81479200D02*
G75*
G02*
X40698622Y-81479200I-646578J0D01*
G01*
X40698622Y-81479200D02*
G75*
G02*
X41991778Y-81479200I646578J0D01*
G01*
X41991778Y-90013600D02*
G75*
G02*
X40698622Y-90013600I-646578J0D01*
G01*
X40698622Y-90013600D02*
G75*
G02*
X41991778Y-90013600I646578J0D01*
G01*
D11*
X156804728Y-87729714D02*
X158304728Y-87296381D01*
X158304728Y-87296381D02*
X156804728Y-86863047D01*
X158304728Y-86429714D02*
X157304728Y-86429714D01*
X156804728Y-86429714D02*
X156876157Y-86491618D01*
X156876157Y-86491618D02*
X156947585Y-86429714D01*
X156947585Y-86429714D02*
X156876157Y-86367809D01*
X156876157Y-86367809D02*
X156804728Y-86429714D01*
X156804728Y-86429714D02*
X156947585Y-86429714D01*
X157304728Y-85810666D02*
X158304728Y-85810666D01*
X157447585Y-85810666D02*
X157376157Y-85748761D01*
X157376157Y-85748761D02*
X157304728Y-85624951D01*
X157304728Y-85624951D02*
X157304728Y-85439237D01*
X157304728Y-85439237D02*
X157376157Y-85315428D01*
X157376157Y-85315428D02*
X157519014Y-85253523D01*
X157519014Y-85253523D02*
X158304728Y-85253523D01*
X157733300Y-84634476D02*
X157733300Y-83644000D01*
X156652328Y-78270513D02*
X158152328Y-77837180D01*
X158152328Y-77837180D02*
X156652328Y-77403846D01*
X158152328Y-76784798D02*
X158080900Y-76908608D01*
X158080900Y-76908608D02*
X158009471Y-76970513D01*
X158009471Y-76970513D02*
X157866614Y-77032417D01*
X157866614Y-77032417D02*
X157438042Y-77032417D01*
X157438042Y-77032417D02*
X157295185Y-76970513D01*
X157295185Y-76970513D02*
X157223757Y-76908608D01*
X157223757Y-76908608D02*
X157152328Y-76784798D01*
X157152328Y-76784798D02*
X157152328Y-76599084D01*
X157152328Y-76599084D02*
X157223757Y-76475275D01*
X157223757Y-76475275D02*
X157295185Y-76413370D01*
X157295185Y-76413370D02*
X157438042Y-76351465D01*
X157438042Y-76351465D02*
X157866614Y-76351465D01*
X157866614Y-76351465D02*
X158009471Y-76413370D01*
X158009471Y-76413370D02*
X158080900Y-76475275D01*
X158080900Y-76475275D02*
X158152328Y-76599084D01*
X158152328Y-76599084D02*
X158152328Y-76784798D01*
X157152328Y-75237180D02*
X158152328Y-75237180D01*
X157152328Y-75794323D02*
X157938042Y-75794323D01*
X157938042Y-75794323D02*
X158080900Y-75732418D01*
X158080900Y-75732418D02*
X158152328Y-75608608D01*
X158152328Y-75608608D02*
X158152328Y-75422894D01*
X158152328Y-75422894D02*
X158080900Y-75299085D01*
X158080900Y-75299085D02*
X158009471Y-75237180D01*
X157152328Y-74803847D02*
X157152328Y-74308609D01*
X156652328Y-74618133D02*
X157938042Y-74618133D01*
X157938042Y-74618133D02*
X158080900Y-74556228D01*
X158080900Y-74556228D02*
X158152328Y-74432418D01*
X158152328Y-74432418D02*
X158152328Y-74308609D01*
X157580900Y-73875276D02*
X157580900Y-72884800D01*
X158152328Y-73380038D02*
X157009471Y-73380038D01*
X153965804Y-83626685D02*
X155265804Y-83126685D01*
X155265804Y-83126685D02*
X153965804Y-82626685D01*
X155265804Y-81912400D02*
X155203900Y-82055257D01*
X155203900Y-82055257D02*
X155141995Y-82126686D01*
X155141995Y-82126686D02*
X155018185Y-82198114D01*
X155018185Y-82198114D02*
X154646757Y-82198114D01*
X154646757Y-82198114D02*
X154522947Y-82126686D01*
X154522947Y-82126686D02*
X154461042Y-82055257D01*
X154461042Y-82055257D02*
X154399138Y-81912400D01*
X154399138Y-81912400D02*
X154399138Y-81698114D01*
X154399138Y-81698114D02*
X154461042Y-81555257D01*
X154461042Y-81555257D02*
X154522947Y-81483829D01*
X154522947Y-81483829D02*
X154646757Y-81412400D01*
X154646757Y-81412400D02*
X155018185Y-81412400D01*
X155018185Y-81412400D02*
X155141995Y-81483829D01*
X155141995Y-81483829D02*
X155203900Y-81555257D01*
X155203900Y-81555257D02*
X155265804Y-81698114D01*
X155265804Y-81698114D02*
X155265804Y-81912400D01*
X154399138Y-80126686D02*
X155265804Y-80126686D01*
X154399138Y-80769543D02*
X155080090Y-80769543D01*
X155080090Y-80769543D02*
X155203900Y-80698114D01*
X155203900Y-80698114D02*
X155265804Y-80555257D01*
X155265804Y-80555257D02*
X155265804Y-80340971D01*
X155265804Y-80340971D02*
X155203900Y-80198114D01*
X155203900Y-80198114D02*
X155141995Y-80126686D01*
X154399138Y-79626685D02*
X154399138Y-79055257D01*
X153965804Y-79412400D02*
X155080090Y-79412400D01*
X155080090Y-79412400D02*
X155203900Y-79340971D01*
X155203900Y-79340971D02*
X155265804Y-79198114D01*
X155265804Y-79198114D02*
X155265804Y-79055257D01*
X154770566Y-78555257D02*
X154770566Y-77412400D01*
D10*
X48835928Y-80085141D02*
X48835928Y-80942284D01*
X48835928Y-80513713D02*
X47335928Y-80513713D01*
X47335928Y-80513713D02*
X47550214Y-80656570D01*
X47550214Y-80656570D02*
X47693071Y-80799427D01*
X47693071Y-80799427D02*
X47764500Y-80942284D01*
X48764500Y-79370856D02*
X48835928Y-79370856D01*
X48835928Y-79370856D02*
X48978785Y-79442285D01*
X48978785Y-79442285D02*
X49050214Y-79513713D01*
X47478785Y-78799427D02*
X47407357Y-78727999D01*
X47407357Y-78727999D02*
X47335928Y-78585142D01*
X47335928Y-78585142D02*
X47335928Y-78227999D01*
X47335928Y-78227999D02*
X47407357Y-78085142D01*
X47407357Y-78085142D02*
X47478785Y-78013713D01*
X47478785Y-78013713D02*
X47621642Y-77942284D01*
X47621642Y-77942284D02*
X47764500Y-77942284D01*
X47764500Y-77942284D02*
X47978785Y-78013713D01*
X47978785Y-78013713D02*
X48835928Y-78870856D01*
X48835928Y-78870856D02*
X48835928Y-77942284D01*
X48407357Y-76227999D02*
X48407357Y-75513714D01*
X48835928Y-76370856D02*
X47335928Y-75870856D01*
X47335928Y-75870856D02*
X48835928Y-75370856D01*
D11*
X154219804Y-93036685D02*
X155519804Y-92536685D01*
X155519804Y-92536685D02*
X154219804Y-92036685D01*
X155519804Y-91536686D02*
X154653138Y-91536686D01*
X154219804Y-91536686D02*
X154281709Y-91608114D01*
X154281709Y-91608114D02*
X154343614Y-91536686D01*
X154343614Y-91536686D02*
X154281709Y-91465257D01*
X154281709Y-91465257D02*
X154219804Y-91536686D01*
X154219804Y-91536686D02*
X154343614Y-91536686D01*
X154653138Y-90822400D02*
X155519804Y-90822400D01*
X154776947Y-90822400D02*
X154715042Y-90750971D01*
X154715042Y-90750971D02*
X154653138Y-90608114D01*
X154653138Y-90608114D02*
X154653138Y-90393828D01*
X154653138Y-90393828D02*
X154715042Y-90250971D01*
X154715042Y-90250971D02*
X154838852Y-90179543D01*
X154838852Y-90179543D02*
X155519804Y-90179543D01*
X155024566Y-89465257D02*
X155024566Y-88322400D01*
X155519804Y-88893828D02*
X154529328Y-88893828D01*
D12*
X41673905Y-76650819D02*
X41673905Y-75650819D01*
X41673905Y-75650819D02*
X42054857Y-75650819D01*
X42054857Y-75650819D02*
X42150095Y-75698438D01*
X42150095Y-75698438D02*
X42197714Y-75746057D01*
X42197714Y-75746057D02*
X42245333Y-75841295D01*
X42245333Y-75841295D02*
X42245333Y-75984152D01*
X42245333Y-75984152D02*
X42197714Y-76079390D01*
X42197714Y-76079390D02*
X42150095Y-76127009D01*
X42150095Y-76127009D02*
X42054857Y-76174628D01*
X42054857Y-76174628D02*
X41673905Y-76174628D01*
X42626286Y-75746057D02*
X42673905Y-75698438D01*
X42673905Y-75698438D02*
X42769143Y-75650819D01*
X42769143Y-75650819D02*
X43007238Y-75650819D01*
X43007238Y-75650819D02*
X43102476Y-75698438D01*
X43102476Y-75698438D02*
X43150095Y-75746057D01*
X43150095Y-75746057D02*
X43197714Y-75841295D01*
X43197714Y-75841295D02*
X43197714Y-75936533D01*
X43197714Y-75936533D02*
X43150095Y-76079390D01*
X43150095Y-76079390D02*
X42578667Y-76650819D01*
X42578667Y-76650819D02*
X43197714Y-76650819D01*
X41775505Y-85236019D02*
X41775505Y-84236019D01*
X41775505Y-84236019D02*
X42156457Y-84236019D01*
X42156457Y-84236019D02*
X42251695Y-84283638D01*
X42251695Y-84283638D02*
X42299314Y-84331257D01*
X42299314Y-84331257D02*
X42346933Y-84426495D01*
X42346933Y-84426495D02*
X42346933Y-84569352D01*
X42346933Y-84569352D02*
X42299314Y-84664590D01*
X42299314Y-84664590D02*
X42251695Y-84712209D01*
X42251695Y-84712209D02*
X42156457Y-84759828D01*
X42156457Y-84759828D02*
X41775505Y-84759828D01*
X43299314Y-85236019D02*
X42727886Y-85236019D01*
X43013600Y-85236019D02*
X43013600Y-84236019D01*
X43013600Y-84236019D02*
X42918362Y-84378876D01*
X42918362Y-84378876D02*
X42823124Y-84474114D01*
X42823124Y-84474114D02*
X42727886Y-84521733D01*
D10*
X47377185Y-90394170D02*
X47305757Y-90322742D01*
X47305757Y-90322742D02*
X47234328Y-90179885D01*
X47234328Y-90179885D02*
X47234328Y-89822742D01*
X47234328Y-89822742D02*
X47305757Y-89679885D01*
X47305757Y-89679885D02*
X47377185Y-89608456D01*
X47377185Y-89608456D02*
X47520042Y-89537027D01*
X47520042Y-89537027D02*
X47662900Y-89537027D01*
X47662900Y-89537027D02*
X47877185Y-89608456D01*
X47877185Y-89608456D02*
X48734328Y-90465599D01*
X48734328Y-90465599D02*
X48734328Y-89537027D01*
X48734328Y-88822742D02*
X48734328Y-88537028D01*
X48734328Y-88537028D02*
X48662900Y-88394171D01*
X48662900Y-88394171D02*
X48591471Y-88322742D01*
X48591471Y-88322742D02*
X48377185Y-88179885D01*
X48377185Y-88179885D02*
X48091471Y-88108456D01*
X48091471Y-88108456D02*
X47520042Y-88108456D01*
X47520042Y-88108456D02*
X47377185Y-88179885D01*
X47377185Y-88179885D02*
X47305757Y-88251314D01*
X47305757Y-88251314D02*
X47234328Y-88394171D01*
X47234328Y-88394171D02*
X47234328Y-88679885D01*
X47234328Y-88679885D02*
X47305757Y-88822742D01*
X47305757Y-88822742D02*
X47377185Y-88894171D01*
X47377185Y-88894171D02*
X47520042Y-88965599D01*
X47520042Y-88965599D02*
X47877185Y-88965599D01*
X47877185Y-88965599D02*
X48020042Y-88894171D01*
X48020042Y-88894171D02*
X48091471Y-88822742D01*
X48091471Y-88822742D02*
X48162900Y-88679885D01*
X48162900Y-88679885D02*
X48162900Y-88394171D01*
X48162900Y-88394171D02*
X48091471Y-88251314D01*
X48091471Y-88251314D02*
X48020042Y-88179885D01*
X48020042Y-88179885D02*
X47877185Y-88108456D01*
X48662900Y-87394171D02*
X48734328Y-87394171D01*
X48734328Y-87394171D02*
X48877185Y-87465600D01*
X48877185Y-87465600D02*
X48948614Y-87537028D01*
X47377185Y-86822742D02*
X47305757Y-86751314D01*
X47305757Y-86751314D02*
X47234328Y-86608457D01*
X47234328Y-86608457D02*
X47234328Y-86251314D01*
X47234328Y-86251314D02*
X47305757Y-86108457D01*
X47305757Y-86108457D02*
X47377185Y-86037028D01*
X47377185Y-86037028D02*
X47520042Y-85965599D01*
X47520042Y-85965599D02*
X47662900Y-85965599D01*
X47662900Y-85965599D02*
X47877185Y-86037028D01*
X47877185Y-86037028D02*
X48734328Y-86894171D01*
X48734328Y-86894171D02*
X48734328Y-85965599D01*
X47234328Y-84394171D02*
X48734328Y-83894171D01*
X48734328Y-83894171D02*
X47234328Y-83394171D01*
D12*
X123532666Y-113719009D02*
X123199333Y-113719009D01*
X123199333Y-114242819D02*
X123199333Y-113242819D01*
X123199333Y-113242819D02*
X123675523Y-113242819D01*
X124580285Y-114242819D02*
X124008857Y-114242819D01*
X124294571Y-114242819D02*
X124294571Y-113242819D01*
X124294571Y-113242819D02*
X124199333Y-113385676D01*
X124199333Y-113385676D02*
X124104095Y-113480914D01*
X124104095Y-113480914D02*
X124008857Y-113528533D01*
X121157723Y-116325619D02*
X120586295Y-116325619D01*
X120872009Y-116325619D02*
X120872009Y-115325619D01*
X120872009Y-115325619D02*
X120776771Y-115468476D01*
X120776771Y-115468476D02*
X120681533Y-115563714D01*
X120681533Y-115563714D02*
X120586295Y-115611333D01*
X121633914Y-116278000D02*
X121633914Y-116325619D01*
X121633914Y-116325619D02*
X121586295Y-116420857D01*
X121586295Y-116420857D02*
X121538676Y-116468476D01*
X122491056Y-115325619D02*
X122300580Y-115325619D01*
X122300580Y-115325619D02*
X122205342Y-115373238D01*
X122205342Y-115373238D02*
X122157723Y-115420857D01*
X122157723Y-115420857D02*
X122062485Y-115563714D01*
X122062485Y-115563714D02*
X122014866Y-115754190D01*
X122014866Y-115754190D02*
X122014866Y-116135142D01*
X122014866Y-116135142D02*
X122062485Y-116230380D01*
X122062485Y-116230380D02*
X122110104Y-116278000D01*
X122110104Y-116278000D02*
X122205342Y-116325619D01*
X122205342Y-116325619D02*
X122395818Y-116325619D01*
X122395818Y-116325619D02*
X122491056Y-116278000D01*
X122491056Y-116278000D02*
X122538675Y-116230380D01*
X122538675Y-116230380D02*
X122586294Y-116135142D01*
X122586294Y-116135142D02*
X122586294Y-115897047D01*
X122586294Y-115897047D02*
X122538675Y-115801809D01*
X122538675Y-115801809D02*
X122491056Y-115754190D01*
X122491056Y-115754190D02*
X122395818Y-115706571D01*
X122395818Y-115706571D02*
X122205342Y-115706571D01*
X122205342Y-115706571D02*
X122110104Y-115754190D01*
X122110104Y-115754190D02*
X122062485Y-115801809D01*
X122062485Y-115801809D02*
X122014866Y-115897047D01*
X123729152Y-116039904D02*
X124205342Y-116039904D01*
X123633914Y-116325619D02*
X123967247Y-115325619D01*
X123967247Y-115325619D02*
X124300580Y-116325619D01*
X125729152Y-115801809D02*
X125395819Y-115801809D01*
X125395819Y-116325619D02*
X125395819Y-115325619D01*
X125395819Y-115325619D02*
X125872009Y-115325619D01*
X126681533Y-116325619D02*
X126681533Y-115801809D01*
X126681533Y-115801809D02*
X126633914Y-115706571D01*
X126633914Y-115706571D02*
X126538676Y-115658952D01*
X126538676Y-115658952D02*
X126348200Y-115658952D01*
X126348200Y-115658952D02*
X126252962Y-115706571D01*
X126681533Y-116278000D02*
X126586295Y-116325619D01*
X126586295Y-116325619D02*
X126348200Y-116325619D01*
X126348200Y-116325619D02*
X126252962Y-116278000D01*
X126252962Y-116278000D02*
X126205343Y-116182761D01*
X126205343Y-116182761D02*
X126205343Y-116087523D01*
X126205343Y-116087523D02*
X126252962Y-115992285D01*
X126252962Y-115992285D02*
X126348200Y-115944666D01*
X126348200Y-115944666D02*
X126586295Y-115944666D01*
X126586295Y-115944666D02*
X126681533Y-115897047D01*
X127110105Y-116278000D02*
X127205343Y-116325619D01*
X127205343Y-116325619D02*
X127395819Y-116325619D01*
X127395819Y-116325619D02*
X127491057Y-116278000D01*
X127491057Y-116278000D02*
X127538676Y-116182761D01*
X127538676Y-116182761D02*
X127538676Y-116135142D01*
X127538676Y-116135142D02*
X127491057Y-116039904D01*
X127491057Y-116039904D02*
X127395819Y-115992285D01*
X127395819Y-115992285D02*
X127252962Y-115992285D01*
X127252962Y-115992285D02*
X127157724Y-115944666D01*
X127157724Y-115944666D02*
X127110105Y-115849428D01*
X127110105Y-115849428D02*
X127110105Y-115801809D01*
X127110105Y-115801809D02*
X127157724Y-115706571D01*
X127157724Y-115706571D02*
X127252962Y-115658952D01*
X127252962Y-115658952D02*
X127395819Y-115658952D01*
X127395819Y-115658952D02*
X127491057Y-115706571D01*
X127824391Y-115658952D02*
X128205343Y-115658952D01*
X127967248Y-115325619D02*
X127967248Y-116182761D01*
X127967248Y-116182761D02*
X128014867Y-116278000D01*
X128014867Y-116278000D02*
X128110105Y-116325619D01*
X128110105Y-116325619D02*
X128205343Y-116325619D01*
X68472733Y-106394019D02*
X68139400Y-105917828D01*
X67901305Y-106394019D02*
X67901305Y-105394019D01*
X67901305Y-105394019D02*
X68282257Y-105394019D01*
X68282257Y-105394019D02*
X68377495Y-105441638D01*
X68377495Y-105441638D02*
X68425114Y-105489257D01*
X68425114Y-105489257D02*
X68472733Y-105584495D01*
X68472733Y-105584495D02*
X68472733Y-105727352D01*
X68472733Y-105727352D02*
X68425114Y-105822590D01*
X68425114Y-105822590D02*
X68377495Y-105870209D01*
X68377495Y-105870209D02*
X68282257Y-105917828D01*
X68282257Y-105917828D02*
X67901305Y-105917828D01*
X69425114Y-106394019D02*
X68853686Y-106394019D01*
X69139400Y-106394019D02*
X69139400Y-105394019D01*
X69139400Y-105394019D02*
X69044162Y-105536876D01*
X69044162Y-105536876D02*
X68948924Y-105632114D01*
X68948924Y-105632114D02*
X68853686Y-105679733D01*
X69840914Y-74485504D02*
X70317104Y-74485504D01*
X69745676Y-74771219D02*
X70079009Y-73771219D01*
X70079009Y-73771219D02*
X70412342Y-74771219D01*
X71269485Y-74771219D02*
X70698057Y-74771219D01*
X70983771Y-74771219D02*
X70983771Y-73771219D01*
X70983771Y-73771219D02*
X70888533Y-73914076D01*
X70888533Y-73914076D02*
X70793295Y-74009314D01*
X70793295Y-74009314D02*
X70698057Y-74056933D01*
X137624819Y-72973333D02*
X138339104Y-72973333D01*
X138339104Y-72973333D02*
X138481961Y-73020952D01*
X138481961Y-73020952D02*
X138577200Y-73116190D01*
X138577200Y-73116190D02*
X138624819Y-73259047D01*
X138624819Y-73259047D02*
X138624819Y-73354285D01*
X137624819Y-72592380D02*
X137624819Y-71973333D01*
X137624819Y-71973333D02*
X138005771Y-72306666D01*
X138005771Y-72306666D02*
X138005771Y-72163809D01*
X138005771Y-72163809D02*
X138053390Y-72068571D01*
X138053390Y-72068571D02*
X138101009Y-72020952D01*
X138101009Y-72020952D02*
X138196247Y-71973333D01*
X138196247Y-71973333D02*
X138434342Y-71973333D01*
X138434342Y-71973333D02*
X138529580Y-72020952D01*
X138529580Y-72020952D02*
X138577200Y-72068571D01*
X138577200Y-72068571D02*
X138624819Y-72163809D01*
X138624819Y-72163809D02*
X138624819Y-72449523D01*
X138624819Y-72449523D02*
X138577200Y-72544761D01*
X138577200Y-72544761D02*
X138529580Y-72592380D01*
X146514819Y-70433333D02*
X147229104Y-70433333D01*
X147229104Y-70433333D02*
X147371961Y-70480952D01*
X147371961Y-70480952D02*
X147467200Y-70576190D01*
X147467200Y-70576190D02*
X147514819Y-70719047D01*
X147514819Y-70719047D02*
X147514819Y-70814285D01*
X147514819Y-69433333D02*
X147514819Y-70004761D01*
X147514819Y-69719047D02*
X146514819Y-69719047D01*
X146514819Y-69719047D02*
X146657676Y-69814285D01*
X146657676Y-69814285D02*
X146752914Y-69909523D01*
X146752914Y-69909523D02*
X146800533Y-70004761D01*
D13*
%TO.C,F1*%
X120616000Y-108708000D02*
X127116000Y-108708000D01*
X111866000Y-111208000D02*
X122616000Y-111208000D01*
X127116000Y-112208000D02*
X136866000Y-112208000D01*
X134616000Y-106208000D02*
X135866000Y-106208000D01*
X134366000Y-111208000D02*
X135866000Y-111208000D01*
X120616000Y-112208000D02*
X120616000Y-105208000D01*
X122366000Y-106208000D02*
X134616000Y-106208000D01*
X127116000Y-105208000D02*
X136866000Y-105208000D01*
X111866000Y-106208000D02*
X122366000Y-106208000D01*
X110866000Y-112208000D02*
X110866000Y-105208000D01*
X110866000Y-112208000D02*
X111866000Y-112208000D01*
X122616000Y-111208000D02*
X134366000Y-111208000D01*
X136866000Y-112208000D02*
X136866000Y-105208000D01*
X111866000Y-111208000D02*
X111866000Y-106208000D01*
X135866000Y-111208000D02*
X135866000Y-106208000D01*
X111866000Y-105208000D02*
X120616000Y-105208000D01*
X110866000Y-105208000D02*
X111866000Y-105208000D01*
X127116000Y-112208000D02*
X127116000Y-105208000D01*
X111866000Y-112208000D02*
X120616000Y-112208000D01*
%TO.C,R1*%
X74819400Y-109309200D02*
X74709400Y-109309200D01*
X62569400Y-106939200D02*
X62569400Y-111679200D01*
X74709400Y-106939200D02*
X62569400Y-106939200D01*
X62569400Y-111679200D02*
X74709400Y-111679200D01*
X74709400Y-111679200D02*
X74709400Y-106939200D01*
X62459400Y-109309200D02*
X62569400Y-109309200D01*
%TO.C,A1*%
X39897400Y-64689800D02*
X104362600Y-64689800D01*
X87319200Y-93010800D02*
X88589200Y-93010800D01*
X104362600Y-64689800D02*
X104362600Y-101443600D01*
X88589200Y-76500800D02*
X69539200Y-93010800D01*
X69539200Y-93010800D02*
X87319200Y-93010800D01*
D14*
X87319200Y-87930800D02*
X84779200Y-87930800D01*
D13*
X69539200Y-76500800D02*
X69539200Y-93010800D01*
X39897400Y-101443600D02*
X39897400Y-64689800D01*
D14*
X83509200Y-87930800D02*
X80969200Y-87930800D01*
X79699200Y-87930800D02*
X77159200Y-87930800D01*
X82239200Y-77770800D02*
X79699200Y-77770800D01*
D13*
X104362600Y-101443600D02*
X39973600Y-101443600D01*
D14*
X78429200Y-77770800D02*
X75889200Y-77770800D01*
X87319200Y-90470800D02*
X75889200Y-90470800D01*
D13*
X88589200Y-93010800D02*
X88589200Y-76500800D01*
D14*
X74619200Y-77770800D02*
X72079200Y-77770800D01*
X82239200Y-80310800D02*
X70809200Y-80310800D01*
D13*
X88589200Y-76500800D02*
X69539200Y-76500800D01*
%TO.C,J3*%
X140570000Y-78216000D02*
X140220000Y-78216000D01*
X140570000Y-80026000D02*
X141570000Y-79776000D01*
X135060000Y-91606000D02*
X142530000Y-91606000D01*
X135920000Y-84336000D02*
X135920000Y-83586000D01*
X140220000Y-78966000D02*
X135920000Y-78966000D01*
X140220000Y-79776000D02*
X140220000Y-80526000D01*
X135920000Y-80526000D02*
X135920000Y-79776000D01*
X135920000Y-79776000D02*
X140220000Y-79776000D01*
X140570000Y-90146000D02*
X140570000Y-89646000D01*
X140220000Y-75966000D02*
X140220000Y-76716000D01*
X135920000Y-88146000D02*
X135920000Y-87396000D01*
X140220000Y-88146000D02*
X140570000Y-88146000D01*
X142530000Y-91606000D02*
X142530000Y-74756000D01*
X140570000Y-78716000D02*
X140570000Y-78216000D01*
X140220000Y-83586000D02*
X140220000Y-84336000D01*
X140220000Y-80526000D02*
X140570000Y-80526000D01*
X140570000Y-88146000D02*
X140570000Y-87646000D01*
X140570000Y-82026000D02*
X140220000Y-82026000D01*
X141570000Y-78966000D02*
X140570000Y-78716000D01*
X141570000Y-83586000D02*
X141570000Y-86586000D01*
X140570000Y-82526000D02*
X140570000Y-82026000D01*
X140220000Y-82776000D02*
X135920000Y-82776000D01*
X142920000Y-74366000D02*
X142920000Y-76366000D01*
X141570000Y-75966000D02*
X141570000Y-78966000D01*
X140570000Y-83836000D02*
X141570000Y-83586000D01*
X135920000Y-82776000D02*
X135920000Y-82026000D01*
X140570000Y-76716000D02*
X140570000Y-76216000D01*
X135920000Y-86586000D02*
X135920000Y-85836000D01*
X141570000Y-90396000D02*
X140570000Y-90146000D01*
X142530000Y-74756000D02*
X135060000Y-74756000D01*
X135920000Y-75966000D02*
X140220000Y-75966000D01*
X140570000Y-85836000D02*
X140220000Y-85836000D01*
X141670000Y-74366000D02*
X142920000Y-74366000D01*
X135060000Y-74756000D02*
X135060000Y-91606000D01*
X140570000Y-84336000D02*
X140570000Y-83836000D01*
X140570000Y-86336000D02*
X140570000Y-85836000D01*
X135920000Y-87396000D02*
X140220000Y-87396000D01*
X140220000Y-87396000D02*
X140220000Y-88146000D01*
X140220000Y-78216000D02*
X140220000Y-78966000D01*
X141570000Y-87396000D02*
X141570000Y-90396000D01*
X140220000Y-76716000D02*
X140570000Y-76716000D01*
X140220000Y-82026000D02*
X140220000Y-82776000D01*
X141570000Y-86586000D02*
X140570000Y-86336000D01*
X140220000Y-89646000D02*
X140220000Y-90396000D01*
X140570000Y-76216000D02*
X141570000Y-75966000D01*
X140570000Y-89646000D02*
X140220000Y-89646000D01*
X135920000Y-90396000D02*
X135920000Y-89646000D01*
X140220000Y-84336000D02*
X140570000Y-84336000D01*
X140220000Y-90396000D02*
X135920000Y-90396000D01*
X140220000Y-86586000D02*
X135920000Y-86586000D01*
X141570000Y-82776000D02*
X140570000Y-82526000D01*
X135920000Y-78966000D02*
X135920000Y-78216000D01*
X135920000Y-83586000D02*
X140220000Y-83586000D01*
X140220000Y-85836000D02*
X140220000Y-86586000D01*
X140570000Y-87646000D02*
X141570000Y-87396000D01*
X140570000Y-80526000D02*
X140570000Y-80026000D01*
X141570000Y-79776000D02*
X141570000Y-82776000D01*
X135920000Y-76716000D02*
X135920000Y-75966000D01*
X135920000Y-84336000D02*
G75*
G02*
X135920156Y-85835647I-1700000J-750000D01*
G01*
X135920000Y-80526000D02*
G75*
G02*
X135920156Y-82025647I-1700000J-750000D01*
G01*
X135920000Y-76716000D02*
G75*
G02*
X135920156Y-78215647I-1700000J-750000D01*
G01*
X135920000Y-88146000D02*
G75*
G02*
X135920156Y-89645647I-1700000J-750000D01*
G01*
%TO.C,J4*%
X107750000Y-91750000D02*
X106420000Y-91750000D01*
X107750000Y-90420000D02*
X107750000Y-73850000D01*
X107750000Y-90420000D02*
X107750000Y-91750000D01*
X107750000Y-73850000D02*
X105090000Y-73850000D01*
X105090000Y-91750000D02*
X105090000Y-73850000D01*
X107750000Y-91750000D02*
X105090000Y-91750000D01*
%TO.C,J1*%
X145153500Y-73401600D02*
X145153500Y-72661600D01*
X152263500Y-94291600D02*
X152263500Y-71751600D01*
X145153500Y-72661600D02*
X150453500Y-72661600D01*
X151453500Y-94291600D02*
X151453500Y-91751600D01*
X150453500Y-72661600D02*
X150453500Y-93381600D01*
X153063500Y-75701600D02*
X152463500Y-75401600D01*
X151453500Y-76401600D02*
X151453500Y-79481600D01*
X152263500Y-76401600D02*
X150453500Y-76401600D01*
X152263500Y-89641600D02*
X152263500Y-91641600D01*
X151453500Y-71751600D02*
X151453500Y-74291600D01*
X150453500Y-86561600D02*
X150453500Y-84561600D01*
X150453500Y-91641600D02*
X150453500Y-89641600D01*
X145153500Y-93381600D02*
X145153500Y-92641600D01*
X152263500Y-91641600D02*
X150453500Y-91641600D01*
X152263500Y-74401600D02*
X152263500Y-76401600D01*
X153063500Y-75101600D02*
X153063500Y-75701600D01*
X150453500Y-76401600D02*
X150453500Y-74401600D01*
X150453500Y-74401600D02*
X152263500Y-74401600D01*
X145153500Y-87561600D02*
X145153500Y-88641600D01*
X150453500Y-81481600D02*
X150453500Y-79481600D01*
X151453500Y-81481600D02*
X151453500Y-84561600D01*
X145153500Y-82481600D02*
X145153500Y-83561600D01*
X152263500Y-81481600D02*
X150453500Y-81481600D01*
X151453500Y-86561600D02*
X151453500Y-89641600D01*
X150453500Y-93381600D02*
X145153500Y-93381600D01*
X150453500Y-89641600D02*
X152263500Y-89641600D01*
X152263500Y-84561600D02*
X152263500Y-86561600D01*
X150453500Y-79481600D02*
X152263500Y-79481600D01*
X152263500Y-79481600D02*
X152263500Y-81481600D01*
X152263500Y-86561600D02*
X150453500Y-86561600D01*
X150453500Y-84561600D02*
X152263500Y-84561600D01*
X145153500Y-77401600D02*
X145153500Y-78481600D01*
X143443500Y-94291600D02*
X152263500Y-94291600D01*
X152463500Y-75401600D02*
X153063500Y-75101600D01*
X143443500Y-71751600D02*
X143443500Y-94291600D01*
X152263500Y-71751600D02*
X143443500Y-71751600D01*
X145137679Y-77388442D02*
G75*
G02*
X145153500Y-73401600I1665821J1986842D01*
G01*
X145137679Y-92628442D02*
G75*
G02*
X145153500Y-88641600I1665821J1986842D01*
G01*
X145137679Y-87548442D02*
G75*
G02*
X145153500Y-83561600I1665821J1986842D01*
G01*
X145137679Y-82468442D02*
G75*
G02*
X145153500Y-78481600I1665821J1986842D01*
G01*
%TD*%
M02*
