%TF.GenerationSoftware,KiCad,Pcbnew,8.0.3+1*%
%TF.CreationDate,2024-07-23T19:13:49+00:00*%
%TF.ProjectId,OpenMowerMainboard,4f70656e-4d6f-4776-9572-4d61696e626f,rev?*%
%TF.SameCoordinates,Original*%
%TF.FileFunction,Profile,NP*%
%FSLAX46Y46*%
G04 Gerber Fmt 4.6, Leading zero omitted, Abs format (unit mm)*
G04 Created by KiCad (PCBNEW 8.0.3+1) date 2024-07-23 19:13:49*
%MOMM*%
%LPD*%
G01*
G04 APERTURE LIST*
%TA.AperFunction,Profile*%
%ADD10C,0.050000*%
%TD*%
%TA.AperFunction,Profile*%
%ADD11C,0.100000*%
%TD*%
G04 APERTURE END LIST*
D10*
X54440000Y-150843000D02*
X54440000Y-58768000D01*
X250180000Y-32098000D02*
X245735000Y-36543000D01*
X70950000Y-152748000D02*
X72220000Y-154018000D01*
X205095000Y-51148000D02*
X199380000Y-56863000D01*
X278590000Y-155393000D02*
X278590000Y-101393000D01*
X56345000Y-152748000D02*
X70950000Y-152748000D01*
X56345000Y-56863000D02*
X199380000Y-56863000D01*
X278590000Y-101393000D02*
X279590000Y-100393000D01*
X301590000Y-157393000D02*
X300590000Y-156393000D01*
X279590000Y-156393000D02*
X278590000Y-155393000D01*
X228590000Y-36543000D02*
X226050000Y-39083000D01*
D11*
X258690000Y-128593000D02*
G75*
G02*
X232690000Y-128593000I-13000000J0D01*
G01*
X232690000Y-128593000D02*
G75*
G02*
X258690000Y-128593000I13000000J0D01*
G01*
D10*
X299590000Y607000D02*
X301590000Y-1393000D01*
X95715000Y-161638000D02*
X100160000Y-166083000D01*
X54440000Y-150843000D02*
X56345000Y-152748000D01*
X299590000Y-169393000D02*
X207381000Y-169321500D01*
X252720000Y-32098000D02*
X250180000Y-32098000D01*
X72220000Y-154018000D02*
X72220000Y-155288000D01*
X254665000Y-30010000D02*
X252720000Y-32098000D01*
X300590000Y-100393000D02*
X301590000Y-99393000D01*
X299590000Y607000D02*
X271165000Y607000D01*
X203444000Y-166083000D02*
X100160000Y-166083000D01*
X301590000Y-99393000D02*
X301590000Y-1393000D01*
X78570000Y-161638000D02*
X95715000Y-161638000D01*
X72220000Y-155288000D02*
X78570000Y-161638000D01*
X223510000Y-49878000D02*
X222240000Y-51148000D01*
X268865000Y-1493000D02*
X268865000Y-13810000D01*
X268865000Y-13810000D02*
X266865000Y-15810000D01*
X271165000Y607000D02*
X268865000Y-1493000D01*
X245735000Y-36543000D02*
X228590000Y-36543000D01*
X256265000Y-15810000D02*
X266865000Y-15810000D01*
X279590000Y-100393000D02*
X300590000Y-100393000D01*
X56345000Y-56863000D02*
X54440000Y-58768000D01*
X299590000Y-169393000D02*
X301590000Y-167393000D01*
X256265000Y-15810000D02*
X254665000Y-17410000D01*
X254665000Y-17410000D02*
X254665000Y-30010000D01*
X203444000Y-166083000D02*
X207381000Y-169321500D01*
X222240000Y-51148000D02*
X205095000Y-51148000D01*
X223510000Y-44163000D02*
X223510000Y-49878000D01*
X300590000Y-156393000D02*
X279590000Y-156393000D01*
X226050000Y-39083000D02*
X226050000Y-41623000D01*
X226050000Y-41623000D02*
X223510000Y-44163000D01*
X301590000Y-167393000D02*
X301590000Y-157393000D01*
M02*
