%TF.GenerationSoftware,KiCad,Pcbnew,8.0.3+1*%
%TF.CreationDate,2024-07-23T19:13:49+00:00*%
%TF.ProjectId,OpenMowerMainboard,4f70656e-4d6f-4776-9572-4d61696e626f,rev?*%
%TF.SameCoordinates,Original*%
%TF.FileFunction,Soldermask,Top*%
%TF.FilePolarity,Negative*%
%FSLAX46Y46*%
G04 Gerber Fmt 4.6, Leading zero omitted, Abs format (unit mm)*
G04 Created by KiCad (PCBNEW 8.0.3+1) date 2024-07-23 19:13:49*
%MOMM*%
%LPD*%
G01*
G04 APERTURE LIST*
G04 Aperture macros list*
%AMRoundRect*
0 Rectangle with rounded corners*
0 $1 Rounding radius*
0 $2 $3 $4 $5 $6 $7 $8 $9 X,Y pos of 4 corners*
0 Add a 4 corners polygon primitive as box body*
4,1,4,$2,$3,$4,$5,$6,$7,$8,$9,$2,$3,0*
0 Add four circle primitives for the rounded corners*
1,1,$1+$1,$2,$3*
1,1,$1+$1,$4,$5*
1,1,$1+$1,$6,$7*
1,1,$1+$1,$8,$9*
0 Add four rect primitives between the rounded corners*
20,1,$1+$1,$2,$3,$4,$5,0*
20,1,$1+$1,$4,$5,$6,$7,0*
20,1,$1+$1,$6,$7,$8,$9,0*
20,1,$1+$1,$8,$9,$2,$3,0*%
%AMFreePoly0*
4,1,19,0.500000,-0.750000,0.000000,-0.750000,0.000000,-0.744911,-0.071157,-0.744911,-0.207708,-0.704816,-0.327430,-0.627875,-0.420627,-0.520320,-0.479746,-0.390866,-0.500000,-0.250000,-0.500000,0.250000,-0.479746,0.390866,-0.420627,0.520320,-0.327430,0.627875,-0.207708,0.704816,-0.071157,0.744911,0.000000,0.744911,0.000000,0.750000,0.500000,0.750000,0.500000,-0.750000,0.500000,-0.750000,
$1*%
%AMFreePoly1*
4,1,19,0.000000,0.744911,0.071157,0.744911,0.207708,0.704816,0.327430,0.627875,0.420627,0.520320,0.479746,0.390866,0.500000,0.250000,0.500000,-0.250000,0.479746,-0.390866,0.420627,-0.520320,0.327430,-0.627875,0.207708,-0.704816,0.071157,-0.744911,0.000000,-0.744911,0.000000,-0.750000,-0.500000,-0.750000,-0.500000,0.750000,0.000000,0.750000,0.000000,0.744911,0.000000,0.744911,
$1*%
%AMFreePoly2*
4,1,26,1.935306,0.780194,1.989950,0.741421,2.341421,0.389950,2.388777,0.314585,2.400000,0.248529,2.400000,-0.248529,2.380194,-0.335306,2.341421,-0.389950,1.989950,-0.741421,1.914585,-0.788777,1.848529,-0.800000,0.000000,-0.800000,-0.248529,-0.800000,-0.335306,-0.780194,-0.389950,-0.741421,-0.741421,-0.389950,-0.788777,-0.314585,-0.800000,-0.248529,-0.800000,0.248529,-0.780194,0.335306,
-0.741421,0.389950,-0.389950,0.741421,-0.314585,0.788777,-0.248529,0.800000,1.848529,0.800000,1.935306,0.780194,1.935306,0.780194,$1*%
%AMFreePoly3*
4,1,26,0.335306,0.780194,0.389950,0.741421,0.741421,0.389950,0.788777,0.314585,0.800000,0.248529,0.800000,-0.248529,0.780194,-0.335306,0.741421,-0.389950,0.389950,-0.741421,0.314585,-0.788777,0.248529,-0.800000,0.000000,-0.800000,-0.248529,-0.800000,-0.335306,-0.780194,-0.389950,-0.741421,-0.741421,-0.389950,-0.788777,-0.314585,-0.800000,-0.248529,-0.800000,0.248529,-0.780194,0.335306,
-0.741421,0.389950,-0.389950,0.741421,-0.314585,0.788777,-0.248529,0.800000,0.248529,0.800000,0.335306,0.780194,0.335306,0.780194,$1*%
%AMFreePoly4*
4,1,26,0.335306,2.380194,0.389950,2.341421,0.741421,1.989950,0.788777,1.914585,0.800000,1.848529,0.800000,-0.248529,0.780194,-0.335306,0.741421,-0.389950,0.389950,-0.741421,0.314585,-0.788777,0.248529,-0.800000,0.000000,-0.800000,-0.248529,-0.800000,-0.335306,-0.780194,-0.389950,-0.741421,-0.741421,-0.389950,-0.788777,-0.314585,-0.800000,-0.248529,-0.800000,1.848529,-0.780194,1.935306,
-0.741421,1.989950,-0.389950,2.341421,-0.314585,2.388777,-0.248529,2.400000,0.248529,2.400000,0.335306,2.380194,0.335306,2.380194,$1*%
G04 Aperture macros list end*
%ADD10RoundRect,0.250001X1.399999X-1.099999X1.399999X1.099999X-1.399999X1.099999X-1.399999X-1.099999X0*%
%ADD11O,3.300000X2.700000*%
%ADD12RoundRect,0.250001X1.099999X1.399999X-1.099999X1.399999X-1.099999X-1.399999X1.099999X-1.399999X0*%
%ADD13O,2.700000X3.300000*%
%ADD14RoundRect,0.250000X-0.600000X-0.725000X0.600000X-0.725000X0.600000X0.725000X-0.600000X0.725000X0*%
%ADD15O,1.700000X1.950000*%
%ADD16RoundRect,0.249999X-0.625001X0.350001X-0.625001X-0.350001X0.625001X-0.350001X0.625001X0.350001X0*%
%ADD17O,1.750000X1.200000*%
%ADD18R,3.500000X1.800000*%
%ADD19C,2.000000*%
%ADD20O,1.700000X3.000000*%
%ADD21O,3.000000X1.700000*%
%ADD22R,0.400000X1.000000*%
%ADD23RoundRect,0.250000X-0.450000X0.350000X-0.450000X-0.350000X0.450000X-0.350000X0.450000X0.350000X0*%
%ADD24RoundRect,0.225000X-0.225000X-0.250000X0.225000X-0.250000X0.225000X0.250000X-0.225000X0.250000X0*%
%ADD25RoundRect,0.150000X-0.587500X-0.150000X0.587500X-0.150000X0.587500X0.150000X-0.587500X0.150000X0*%
%ADD26RoundRect,0.250000X0.350000X0.450000X-0.350000X0.450000X-0.350000X-0.450000X0.350000X-0.450000X0*%
%ADD27RoundRect,0.250000X0.450000X-0.350000X0.450000X0.350000X-0.450000X0.350000X-0.450000X-0.350000X0*%
%ADD28R,0.250000X0.475000*%
%ADD29R,0.475000X0.250000*%
%ADD30RoundRect,0.250000X-0.337500X-0.475000X0.337500X-0.475000X0.337500X0.475000X-0.337500X0.475000X0*%
%ADD31R,2.000000X2.000000*%
%ADD32RoundRect,0.243750X-0.243750X-0.456250X0.243750X-0.456250X0.243750X0.456250X-0.243750X0.456250X0*%
%ADD33C,6.950000*%
%ADD34RoundRect,0.150000X0.512500X0.150000X-0.512500X0.150000X-0.512500X-0.150000X0.512500X-0.150000X0*%
%ADD35RoundRect,0.250000X-1.000000X1.950000X-1.000000X-1.950000X1.000000X-1.950000X1.000000X1.950000X0*%
%ADD36C,2.350000*%
%ADD37RoundRect,0.225000X0.225000X0.250000X-0.225000X0.250000X-0.225000X-0.250000X0.225000X-0.250000X0*%
%ADD38R,1.000000X1.500000*%
%ADD39R,1.100000X1.100000*%
%ADD40R,1.700000X1.700000*%
%ADD41O,1.700000X1.700000*%
%ADD42RoundRect,0.250000X-0.350000X-0.450000X0.350000X-0.450000X0.350000X0.450000X-0.350000X0.450000X0*%
%ADD43RoundRect,0.250000X0.325000X0.650000X-0.325000X0.650000X-0.325000X-0.650000X0.325000X-0.650000X0*%
%ADD44R,2.300000X2.500000*%
%ADD45R,2.413000X3.429000*%
%ADD46R,1.800000X2.500000*%
%ADD47RoundRect,0.250000X-0.475000X0.337500X-0.475000X-0.337500X0.475000X-0.337500X0.475000X0.337500X0*%
%ADD48RoundRect,0.150000X0.150000X-0.587500X0.150000X0.587500X-0.150000X0.587500X-0.150000X-0.587500X0*%
%ADD49RoundRect,0.250000X0.725000X-0.600000X0.725000X0.600000X-0.725000X0.600000X-0.725000X-0.600000X0*%
%ADD50O,1.950000X1.700000*%
%ADD51R,3.048000X3.048000*%
%ADD52C,6.200000*%
%ADD53C,1.300000*%
%ADD54R,1.020000X3.600000*%
%ADD55FreePoly0,180.000000*%
%ADD56FreePoly1,180.000000*%
%ADD57RoundRect,0.250000X-0.325000X-0.650000X0.325000X-0.650000X0.325000X0.650000X-0.325000X0.650000X0*%
%ADD58R,0.650000X1.560000*%
%ADD59R,1.190000X1.730000*%
%ADD60RoundRect,0.250000X-0.600000X-0.750000X0.600000X-0.750000X0.600000X0.750000X-0.600000X0.750000X0*%
%ADD61O,1.700000X2.000000*%
%ADD62RoundRect,0.250000X1.000000X-1.950000X1.000000X1.950000X-1.000000X1.950000X-1.000000X-1.950000X0*%
%ADD63R,0.300000X1.425000*%
%ADD64R,1.150000X0.600000*%
%ADD65RoundRect,0.225000X-0.250000X0.225000X-0.250000X-0.225000X0.250000X-0.225000X0.250000X0.225000X0*%
%ADD66C,1.200000*%
%ADD67R,0.600000X0.700000*%
%ADD68R,0.900000X0.700000*%
%ADD69RoundRect,0.250000X-0.250000X-0.475000X0.250000X-0.475000X0.250000X0.475000X-0.250000X0.475000X0*%
%ADD70R,2.200000X1.200000*%
%ADD71R,6.400000X5.800000*%
%ADD72O,1.800000X1.100000*%
%ADD73O,1.450000X1.050000*%
%ADD74FreePoly2,270.000000*%
%ADD75FreePoly3,270.000000*%
%ADD76O,1.600000X3.200000*%
%ADD77C,1.600000*%
%ADD78RoundRect,0.200000X-0.600000X1.400000X-0.600000X-1.400000X0.600000X-1.400000X0.600000X1.400000X0*%
%ADD79RoundRect,0.200000X-0.600000X0.600000X-0.600000X-0.600000X0.600000X-0.600000X0.600000X0.600000X0*%
%ADD80FreePoly4,270.000000*%
%ADD81RoundRect,0.200000X-1.400000X0.600000X-1.400000X-0.600000X1.400000X-0.600000X1.400000X0.600000X0*%
%ADD82O,3.200000X1.600000*%
%ADD83RoundRect,0.160000X-0.160000X0.222500X-0.160000X-0.222500X0.160000X-0.222500X0.160000X0.222500X0*%
%ADD84C,1.700000*%
%ADD85FreePoly0,90.000000*%
%ADD86FreePoly1,90.000000*%
%ADD87RoundRect,0.250000X0.337500X0.475000X-0.337500X0.475000X-0.337500X-0.475000X0.337500X-0.475000X0*%
%ADD88R,0.300000X0.412500*%
%ADD89R,0.300000X0.875000*%
%ADD90R,0.250000X0.400500*%
%ADD91R,0.250000X1.525000*%
%ADD92R,0.950000X0.400500*%
%ADD93R,0.950000X1.525000*%
%ADD94R,0.600000X0.450000*%
%ADD95R,0.825000X0.450000*%
%ADD96R,1.650000X0.300000*%
%ADD97R,0.425000X0.300000*%
%ADD98R,0.850000X0.450000*%
%ADD99R,0.412500X0.450000*%
%ADD100R,0.875000X0.450000*%
%ADD101R,0.412500X0.300000*%
%ADD102R,0.875000X0.300000*%
%ADD103R,0.350000X0.400000*%
%ADD104R,0.350000X0.500000*%
%ADD105R,0.250000X0.600000*%
%ADD106R,0.349998X0.400000*%
%ADD107RoundRect,0.249999X-1.425001X0.450001X-1.425001X-0.450001X1.425001X-0.450001X1.425001X0.450001X0*%
%ADD108R,1.500000X1.000000*%
%ADD109RoundRect,0.150000X0.150000X-0.825000X0.150000X0.825000X-0.150000X0.825000X-0.150000X-0.825000X0*%
%ADD110O,1.727200X2.500000*%
%ADD111RoundRect,0.150000X-0.150000X0.587500X-0.150000X-0.587500X0.150000X-0.587500X0.150000X0.587500X0*%
G04 APERTURE END LIST*
D10*
%TO.C,J1*%
X77596000Y-152333000D03*
D11*
X77596000Y-148133000D03*
X77596000Y-143933000D03*
X77596000Y-139733000D03*
X77596000Y-135533000D03*
X77596000Y-131333000D03*
X77596000Y-127133000D03*
X77596000Y-122933000D03*
X77596000Y-118733000D03*
X77596000Y-114533000D03*
X77596000Y-110333000D03*
X83096000Y-152333000D03*
X83096000Y-148133000D03*
X83096000Y-143933000D03*
X83096000Y-139733000D03*
X83096000Y-135533000D03*
X83096000Y-131333000D03*
X83096000Y-127133000D03*
X83096000Y-122933000D03*
X83096000Y-118733000D03*
X83096000Y-114533000D03*
X83096000Y-110333000D03*
%TD*%
D12*
%TO.C,J3*%
X65900000Y-127869000D03*
D13*
X65900000Y-122369000D03*
%TD*%
D14*
%TO.C,J13*%
X278590000Y-20328000D03*
D15*
X281090000Y-20328000D03*
X283590000Y-20328000D03*
%TD*%
D14*
%TO.C,J14*%
X278590000Y-28295500D03*
D15*
X281090000Y-28295500D03*
X283590000Y-28295500D03*
%TD*%
D14*
%TO.C,J5*%
X273965000Y-4393000D03*
D15*
X276465000Y-4393000D03*
X278965000Y-4393000D03*
X281465000Y-4393000D03*
%TD*%
D14*
%TO.C,J6*%
X273965000Y-12360500D03*
D15*
X276465000Y-12360500D03*
X278965000Y-12360500D03*
X281465000Y-12360500D03*
%TD*%
D14*
%TO.C,J7*%
X261340000Y-20328000D03*
D15*
X263840000Y-20328000D03*
X266340000Y-20328000D03*
X268840000Y-20328000D03*
%TD*%
D14*
%TO.C,J8*%
X261340000Y-28295500D03*
D15*
X263840000Y-28295500D03*
X266340000Y-28295500D03*
X268840000Y-28295500D03*
%TD*%
D14*
%TO.C,J9*%
X261340000Y-36263000D03*
D15*
X263840000Y-36263000D03*
X266340000Y-36263000D03*
X268840000Y-36263000D03*
%TD*%
D14*
%TO.C,J12*%
X289336000Y-12360500D03*
D15*
X291836000Y-12360500D03*
X294336000Y-12360500D03*
%TD*%
D16*
%TO.C,J10*%
X68541000Y-139387000D03*
D17*
X68541000Y-141387000D03*
X68541000Y-143387000D03*
X68541000Y-145387000D03*
X68541000Y-147387000D03*
%TD*%
D14*
%TO.C,J11*%
X289336000Y-4393000D03*
D15*
X291836000Y-4393000D03*
X294336000Y-4393000D03*
%TD*%
D18*
%TO.C,D15*%
X99670000Y-62183000D03*
X94670000Y-62183000D03*
%TD*%
D19*
%TO.C,FID16*%
X72000000Y-100000000D03*
%TD*%
D20*
%TO.C,U5*%
X144121000Y-129523000D03*
X141581000Y-129523000D03*
X136501000Y-129523000D03*
X133961000Y-129523000D03*
X131421000Y-129523000D03*
X139041000Y-129523000D03*
X108561000Y-129523000D03*
X108561000Y-103123000D03*
X106021000Y-129523000D03*
X106021000Y-103123000D03*
X128881000Y-129523000D03*
D21*
X147161000Y-126483000D03*
X147161000Y-123943000D03*
X147161000Y-118863000D03*
X147161000Y-116323000D03*
D20*
X146661000Y-103123000D03*
X144121000Y-103123000D03*
X141581000Y-103123000D03*
X139041000Y-103123000D03*
X146661000Y-129523000D03*
D21*
X147161000Y-121403000D03*
D20*
X136501000Y-103123000D03*
X126341000Y-129523000D03*
X103481000Y-129523000D03*
X103481000Y-103123000D03*
X100941000Y-129523000D03*
X100941000Y-103123000D03*
D21*
X103981000Y-109973000D03*
X103981000Y-107433000D03*
X100441000Y-109973000D03*
X100441000Y-107433000D03*
X103981000Y-117593000D03*
X103981000Y-115053000D03*
X100441000Y-117593000D03*
X100441000Y-115053000D03*
D20*
X113641000Y-129523000D03*
X113641000Y-103123000D03*
X111101000Y-129523000D03*
X111101000Y-103123000D03*
D21*
X103981000Y-125213000D03*
X103981000Y-122673000D03*
X100441000Y-125213000D03*
X100441000Y-122673000D03*
%TD*%
D22*
%TO.C,U9*%
X230515000Y-59293000D03*
X231165000Y-59293000D03*
X231815000Y-59293000D03*
X232465000Y-59293000D03*
X233115000Y-59293000D03*
X233765000Y-59293000D03*
X234415000Y-59293000D03*
X235065000Y-59293000D03*
X235065000Y-53493000D03*
X234415000Y-53493000D03*
X233765000Y-53493000D03*
X233115000Y-53493000D03*
X232465000Y-53493000D03*
X231815000Y-53493000D03*
X231165000Y-53493000D03*
X230515000Y-53493000D03*
%TD*%
D23*
%TO.C,R5*%
X260590000Y-162393000D03*
X260590000Y-164393000D03*
%TD*%
D24*
%TO.C,C19*%
X194971000Y-129383000D03*
X196521000Y-129383000D03*
%TD*%
D25*
%TO.C,Q3*%
X263652500Y-162443000D03*
X263652500Y-164343000D03*
X265527500Y-163393000D03*
%TD*%
D26*
%TO.C,R41*%
X256390000Y-36193000D03*
X254390000Y-36193000D03*
%TD*%
D27*
%TO.C,R26*%
X94996000Y-76363000D03*
X94996000Y-74363000D03*
%TD*%
D28*
%TO.C,AC1201*%
X187096000Y-101420500D03*
X186596000Y-101420500D03*
X186096000Y-101420500D03*
X185596000Y-101420500D03*
D29*
X185433500Y-102083000D03*
X185433500Y-102583000D03*
X185433500Y-103083000D03*
D28*
X185596000Y-103745500D03*
X186096000Y-103745500D03*
X186596000Y-103745500D03*
X187096000Y-103745500D03*
D29*
X187258500Y-103083000D03*
X187258500Y-102583000D03*
X187258500Y-102083000D03*
%TD*%
D19*
%TO.C,FID6*%
X231590000Y-101393000D03*
%TD*%
D30*
%TO.C,C25*%
X210552500Y-160193000D03*
X212627500Y-160193000D03*
%TD*%
D31*
%TO.C,C3*%
X156958400Y-106347995D03*
D19*
X151958400Y-106347995D03*
%TD*%
D32*
%TO.C,D23*%
X206868500Y-79583000D03*
X208743500Y-79583000D03*
%TD*%
D26*
%TO.C,R14*%
X193698000Y-99359800D03*
X191698000Y-99359800D03*
%TD*%
D33*
%TO.C,MH6*%
X233690000Y-140593000D03*
%TD*%
D34*
%TO.C,U7*%
X212897500Y-165613000D03*
X212897500Y-164663000D03*
X212897500Y-163713000D03*
X210622500Y-163713000D03*
X210622500Y-165613000D03*
%TD*%
D35*
%TO.C,C10*%
X190346000Y-144583000D03*
X190346000Y-152983000D03*
%TD*%
D36*
%TO.C,F4*%
X65900000Y-85100000D03*
X65900000Y-80100000D03*
X65900000Y-70100000D03*
X65900000Y-65100000D03*
%TD*%
D26*
%TO.C,R40*%
X252190000Y-36193000D03*
X250190000Y-36193000D03*
%TD*%
D37*
%TO.C,C24*%
X182621000Y-103833000D03*
X181071000Y-103833000D03*
%TD*%
D27*
%TO.C,R50*%
X297910000Y-59113000D03*
X297910000Y-57113000D03*
%TD*%
D38*
%TO.C,JP1*%
X196739800Y-68930800D03*
X195439800Y-68930800D03*
X194139800Y-68930800D03*
%TD*%
D26*
%TO.C,R43*%
X256390000Y-38393000D03*
X254390000Y-38393000D03*
%TD*%
D23*
%TO.C,R13*%
X217475000Y-58348000D03*
X217475000Y-60348000D03*
%TD*%
D39*
%TO.C,D14*%
X234390000Y-87193000D03*
X237190000Y-87193000D03*
%TD*%
D31*
%TO.C,C2*%
X156958400Y-155154980D03*
D19*
X151958400Y-155154980D03*
%TD*%
D20*
%TO.C,U4*%
X144121000Y-162023000D03*
X141581000Y-162023000D03*
X136501000Y-162023000D03*
X133961000Y-162023000D03*
X131421000Y-162023000D03*
X139041000Y-162023000D03*
X108561000Y-162023000D03*
X108561000Y-135623000D03*
X106021000Y-162023000D03*
X106021000Y-135623000D03*
X128881000Y-162023000D03*
D21*
X147161000Y-158983000D03*
X147161000Y-156443000D03*
X147161000Y-151363000D03*
X147161000Y-148823000D03*
D20*
X146661000Y-135623000D03*
X144121000Y-135623000D03*
X141581000Y-135623000D03*
X139041000Y-135623000D03*
X146661000Y-162023000D03*
D21*
X147161000Y-153903000D03*
D20*
X136501000Y-135623000D03*
X126341000Y-162023000D03*
X103481000Y-162023000D03*
X103481000Y-135623000D03*
X100941000Y-162023000D03*
X100941000Y-135623000D03*
D21*
X103981000Y-142473000D03*
X103981000Y-139933000D03*
X100441000Y-142473000D03*
X100441000Y-139933000D03*
X103981000Y-150093000D03*
X103981000Y-147553000D03*
X100441000Y-150093000D03*
X100441000Y-147553000D03*
D20*
X113641000Y-162023000D03*
X113641000Y-135623000D03*
X111101000Y-162023000D03*
X111101000Y-135623000D03*
D21*
X103981000Y-157713000D03*
X103981000Y-155173000D03*
X100441000Y-157713000D03*
X100441000Y-155173000D03*
%TD*%
D40*
%TO.C,J20*%
X205429200Y-110190800D03*
D41*
X205429200Y-107650800D03*
X205429200Y-105110800D03*
X205429200Y-102570800D03*
X205429200Y-100030800D03*
X205429200Y-97490800D03*
X205429200Y-94950800D03*
X205429200Y-92410800D03*
X205429200Y-89870800D03*
X205429200Y-87330800D03*
%TD*%
D42*
%TO.C,R15*%
X269806666Y-58993000D03*
X271806666Y-58993000D03*
%TD*%
D33*
%TO.C,MH7*%
X233690000Y-116593000D03*
%TD*%
D19*
%TO.C,FID5*%
X283590000Y-162393000D03*
%TD*%
D23*
%TO.C,R48*%
X294910000Y-57113000D03*
X294910000Y-59113000D03*
%TD*%
D35*
%TO.C,C9*%
X178946000Y-144583000D03*
X178946000Y-152983000D03*
%TD*%
D37*
%TO.C,C18*%
X193121000Y-129383000D03*
X191571000Y-129383000D03*
%TD*%
D19*
%TO.C,FID11*%
X180265000Y-82810000D03*
%TD*%
D38*
%TO.C,JP10*%
X195798000Y-103419800D03*
X197098000Y-103419800D03*
X198398000Y-103419800D03*
%TD*%
D43*
%TO.C,C16*%
X193021000Y-126983000D03*
X190071000Y-126983000D03*
%TD*%
D44*
%TO.C,D7*%
X110096000Y-112408000D03*
X110096000Y-108108000D03*
%TD*%
D45*
%TO.C,L1*%
X188825000Y-134783000D03*
X194667000Y-134783000D03*
%TD*%
D46*
%TO.C,D19*%
X129746000Y-115433000D03*
X129746000Y-111433000D03*
%TD*%
D44*
%TO.C,D5*%
X110596000Y-157038000D03*
X110596000Y-152738000D03*
%TD*%
D20*
%TO.C,U6*%
X144121000Y-97023000D03*
X141581000Y-97023000D03*
X136501000Y-97023000D03*
X133961000Y-97023000D03*
X131421000Y-97023000D03*
X139041000Y-97023000D03*
X108561000Y-97023000D03*
X108561000Y-70623000D03*
X106021000Y-97023000D03*
X106021000Y-70623000D03*
X128881000Y-97023000D03*
D21*
X147161000Y-93983000D03*
X147161000Y-91443000D03*
X147161000Y-86363000D03*
X147161000Y-83823000D03*
D20*
X146661000Y-70623000D03*
X144121000Y-70623000D03*
X141581000Y-70623000D03*
X139041000Y-70623000D03*
X146661000Y-97023000D03*
D21*
X147161000Y-88903000D03*
D20*
X136501000Y-70623000D03*
X126341000Y-97023000D03*
X103481000Y-97023000D03*
X103481000Y-70623000D03*
X100941000Y-97023000D03*
X100941000Y-70623000D03*
D21*
X103981000Y-77473000D03*
X103981000Y-74933000D03*
X100441000Y-77473000D03*
X100441000Y-74933000D03*
X103981000Y-85093000D03*
X103981000Y-82553000D03*
X100441000Y-85093000D03*
X100441000Y-82553000D03*
D20*
X113641000Y-97023000D03*
X113641000Y-70623000D03*
X111101000Y-97023000D03*
X111101000Y-70623000D03*
D21*
X103981000Y-92713000D03*
X103981000Y-90173000D03*
X100441000Y-92713000D03*
X100441000Y-90173000D03*
%TD*%
D44*
%TO.C,D9*%
X116596000Y-118483000D03*
X116596000Y-114183000D03*
%TD*%
D23*
%TO.C,R11*%
X175646000Y-126283000D03*
X175646000Y-128283000D03*
%TD*%
D27*
%TO.C,R7*%
X220015000Y-60348000D03*
X220015000Y-58348000D03*
%TD*%
D33*
%TO.C,MH5*%
X257690000Y-140593000D03*
%TD*%
D39*
%TO.C,D13*%
X237190000Y-84593000D03*
X234390000Y-84593000D03*
%TD*%
D27*
%TO.C,R44*%
X288910000Y-59113000D03*
X288910000Y-57113000D03*
%TD*%
D23*
%TO.C,R12*%
X175646000Y-122083000D03*
X175646000Y-124083000D03*
%TD*%
D36*
%TO.C,F2*%
X65900000Y-93000000D03*
X65900000Y-98000000D03*
X65900000Y-108000000D03*
X65900000Y-113000000D03*
%TD*%
D31*
%TO.C,C6*%
X156958400Y-138885985D03*
D19*
X151958400Y-138885985D03*
%TD*%
D22*
%TO.C,U10*%
X237915000Y-59393000D03*
X238565000Y-59393000D03*
X239215000Y-59393000D03*
X239865000Y-59393000D03*
X240515000Y-59393000D03*
X241165000Y-59393000D03*
X241815000Y-59393000D03*
X242465000Y-59393000D03*
X242465000Y-53593000D03*
X241815000Y-53593000D03*
X241165000Y-53593000D03*
X240515000Y-53593000D03*
X239865000Y-53593000D03*
X239215000Y-53593000D03*
X238565000Y-53593000D03*
X237915000Y-53593000D03*
%TD*%
D46*
%TO.C,D20*%
X129696000Y-84633000D03*
X129696000Y-80633000D03*
%TD*%
D47*
%TO.C,C5*%
X282910000Y-50075500D03*
X282910000Y-52150500D03*
%TD*%
D19*
%TO.C,FID1*%
X199546000Y-80383000D03*
%TD*%
%TO.C,FID9*%
X197746000Y-76383000D03*
%TD*%
D48*
%TO.C,Q16*%
X274089999Y-55930500D03*
X275989999Y-55930500D03*
X275039999Y-54055500D03*
%TD*%
D49*
%TO.C,J4*%
X60346000Y-148383000D03*
D50*
X60346000Y-145883000D03*
X60346000Y-143383000D03*
X60346000Y-140883000D03*
X60346000Y-138383000D03*
%TD*%
D51*
%TO.C,U1*%
X193870000Y-156133000D03*
X175470000Y-156133000D03*
X175470000Y-115733000D03*
X193870000Y-115733000D03*
%TD*%
D19*
%TO.C,FID10*%
X124746000Y-123483000D03*
%TD*%
D52*
%TO.C,MH3*%
X216690000Y-104093000D03*
%TD*%
D53*
%TO.C,J21*%
X227590000Y-153093000D03*
X263790000Y-153093000D03*
D54*
X221560000Y-150193000D03*
X221560000Y-155993000D03*
X224100000Y-150193000D03*
X224100000Y-155993000D03*
X226640000Y-150193000D03*
X226640000Y-155993000D03*
X229180000Y-150193000D03*
X229180000Y-155993000D03*
X231720000Y-150193000D03*
X231720000Y-155993000D03*
X234260000Y-150193000D03*
X234260000Y-155993000D03*
X236800000Y-150193000D03*
X236800000Y-155993000D03*
X239340000Y-150193000D03*
X239340000Y-155993000D03*
X241880000Y-150193000D03*
X241880000Y-155993000D03*
X244420000Y-150193000D03*
X244420000Y-155993000D03*
X246960000Y-150193000D03*
X246960000Y-155993000D03*
X249500000Y-150193000D03*
X249500000Y-155993000D03*
X252040000Y-150193000D03*
X252040000Y-155993000D03*
X254580000Y-150193000D03*
X254580000Y-155993000D03*
X257120000Y-150193000D03*
X257120000Y-155993000D03*
X259660000Y-150193000D03*
X259660000Y-155993000D03*
X262200000Y-150193000D03*
X262200000Y-155993000D03*
X264740000Y-150193000D03*
X264740000Y-155993000D03*
X267280000Y-150193000D03*
X267280000Y-155993000D03*
X269820000Y-150193000D03*
X269820000Y-155993000D03*
%TD*%
D55*
%TO.C,JP6*%
X235640000Y-73193000D03*
D56*
X234340000Y-73193000D03*
%TD*%
D23*
%TO.C,R46*%
X282910000Y-57113000D03*
X282910000Y-59113000D03*
%TD*%
D42*
%TO.C,R2*%
X260190000Y-101423000D03*
X262190000Y-101423000D03*
%TD*%
%TO.C,R9*%
X265573333Y-58993000D03*
X267573333Y-58993000D03*
%TD*%
%TO.C,R10*%
X265573333Y-51193000D03*
X267573333Y-51193000D03*
%TD*%
D31*
%TO.C,C7*%
X156958400Y-122616990D03*
D19*
X151958400Y-122616990D03*
%TD*%
D42*
%TO.C,R19*%
X274039999Y-58993000D03*
X276039999Y-58993000D03*
%TD*%
D57*
%TO.C,C20*%
X195071000Y-124183000D03*
X198021000Y-124183000D03*
%TD*%
D44*
%TO.C,D10*%
X110096000Y-79908000D03*
X110096000Y-75608000D03*
%TD*%
D58*
%TO.C,U3*%
X224020000Y-161453000D03*
X223070000Y-161453000D03*
X222120000Y-161453000D03*
X222120000Y-164153000D03*
X223070000Y-164153000D03*
X224020000Y-164153000D03*
%TD*%
D42*
%TO.C,R18*%
X202186000Y-79583000D03*
X204186000Y-79583000D03*
%TD*%
D26*
%TO.C,R42*%
X252190000Y-38393000D03*
X250190000Y-38393000D03*
%TD*%
D23*
%TO.C,R49*%
X291910000Y-57113000D03*
X291910000Y-59113000D03*
%TD*%
D31*
%TO.C,C8*%
X156958400Y-90079000D03*
D19*
X151958400Y-90079000D03*
%TD*%
D42*
%TO.C,R16*%
X269806666Y-51193000D03*
X271806666Y-51193000D03*
%TD*%
D57*
%TO.C,C11*%
X183271000Y-127883000D03*
X186221000Y-127883000D03*
%TD*%
D59*
%TO.C,F1*%
X288658800Y-93489800D03*
X291558800Y-93489800D03*
%TD*%
D43*
%TO.C,C22*%
X193021000Y-124183000D03*
X190071000Y-124183000D03*
%TD*%
D60*
%TO.C,J18*%
X291910000Y-36263000D03*
D61*
X294410000Y-36263000D03*
%TD*%
D62*
%TO.C,C23*%
X178946000Y-118783000D03*
X178946000Y-110383000D03*
%TD*%
D52*
%TO.C,MH4*%
X274690000Y-104093000D03*
%TD*%
D38*
%TO.C,JP5*%
X178146000Y-127883000D03*
X179446000Y-127883000D03*
X180746000Y-127883000D03*
%TD*%
D37*
%TO.C,C17*%
X181121000Y-130383000D03*
X179571000Y-130383000D03*
%TD*%
D27*
%TO.C,R27*%
X92796000Y-76413000D03*
X92796000Y-74413000D03*
%TD*%
%TO.C,R4*%
X257590000Y-164393000D03*
X257590000Y-162393000D03*
%TD*%
D63*
%TO.C,IC1*%
X257540000Y-51381000D03*
X257040000Y-51381000D03*
X256540000Y-51381000D03*
X256040000Y-51381000D03*
X255540000Y-51381000D03*
X255040000Y-51381000D03*
X254540000Y-51381000D03*
X254040000Y-51381000D03*
X253540000Y-51381000D03*
X253040000Y-51381000D03*
X252540000Y-51381000D03*
X252040000Y-51381000D03*
X251540000Y-51381000D03*
X251040000Y-51381000D03*
X250540000Y-51381000D03*
X250040000Y-51381000D03*
X249540000Y-51381000D03*
X249040000Y-51381000D03*
X248540000Y-51381000D03*
X248040000Y-51381000D03*
X247540000Y-51381000D03*
X247040000Y-51381000D03*
X246540000Y-51381000D03*
X246040000Y-51381000D03*
X246040000Y-59005000D03*
X246540000Y-59005000D03*
X247040000Y-59005000D03*
X247540000Y-59005000D03*
X248040000Y-59005000D03*
X248540000Y-59005000D03*
X249040000Y-59005000D03*
X249540000Y-59005000D03*
X250040000Y-59005000D03*
X250540000Y-59005000D03*
X251040000Y-59005000D03*
X251540000Y-59005000D03*
X252040000Y-59005000D03*
X252540000Y-59005000D03*
X253040000Y-59005000D03*
X253540000Y-59005000D03*
X254040000Y-59005000D03*
X254540000Y-59005000D03*
X255040000Y-59005000D03*
X255540000Y-59005000D03*
X256040000Y-59005000D03*
X256540000Y-59005000D03*
X257040000Y-59005000D03*
X257540000Y-59005000D03*
%TD*%
D64*
%TO.C,IC2*%
X237090000Y-81543000D03*
X237090000Y-80593000D03*
X237090000Y-79643000D03*
X234490000Y-79643000D03*
X234490000Y-81543000D03*
%TD*%
D60*
%TO.C,J17*%
X279840000Y-36263000D03*
D61*
X282340000Y-36263000D03*
%TD*%
D65*
%TO.C,C15*%
X181446000Y-138908000D03*
X181446000Y-140458000D03*
%TD*%
D48*
%TO.C,Q13*%
X261390000Y-55930500D03*
X263290000Y-55930500D03*
X262340000Y-54055500D03*
%TD*%
D44*
%TO.C,D11*%
X110096000Y-92038000D03*
X110096000Y-87738000D03*
%TD*%
D19*
%TO.C,FID15*%
X180076000Y-157828000D03*
%TD*%
D26*
%TO.C,R17*%
X193698000Y-103423800D03*
X191698000Y-103423800D03*
%TD*%
D42*
%TO.C,R20*%
X274039999Y-51193000D03*
X276039999Y-51193000D03*
%TD*%
D49*
%TO.C,J19*%
X293460000Y-29245500D03*
D50*
X293460000Y-26745500D03*
X293460000Y-24245500D03*
X293460000Y-21745500D03*
%TD*%
D44*
%TO.C,D4*%
X110596000Y-144908000D03*
X110596000Y-140608000D03*
%TD*%
D48*
%TO.C,Q15*%
X269856666Y-55930500D03*
X271756666Y-55930500D03*
X270806666Y-54055500D03*
%TD*%
D19*
%TO.C,FID13*%
X124746000Y-153033000D03*
%TD*%
D66*
%TO.C,SW1*%
X232090000Y-162490500D03*
X235090000Y-162490500D03*
D67*
X232590000Y-161300500D03*
X234590000Y-161300500D03*
D68*
X236590000Y-162560500D03*
X230590000Y-162560500D03*
D67*
X233590000Y-161300500D03*
%TD*%
D69*
%TO.C,C14*%
X183196000Y-130383000D03*
X185096000Y-130383000D03*
%TD*%
D19*
%TO.C,FID12*%
X89746000Y-108933000D03*
%TD*%
D44*
%TO.C,D12*%
X116596000Y-85983000D03*
X116596000Y-81683000D03*
%TD*%
D46*
%TO.C,D18*%
X129746000Y-148583000D03*
X129746000Y-144583000D03*
%TD*%
D52*
%TO.C,MH2*%
X216690000Y-153093000D03*
%TD*%
D44*
%TO.C,D6*%
X116596000Y-150983000D03*
X116596000Y-146683000D03*
%TD*%
D70*
%TO.C,Q6*%
X81826000Y-79353000D03*
D71*
X88126000Y-81633000D03*
D70*
X81826000Y-83913000D03*
%TD*%
D27*
%TO.C,R8*%
X175646000Y-133683000D03*
X175646000Y-131683000D03*
%TD*%
D38*
%TO.C,D25*%
X215375000Y-165198000D03*
X218575000Y-165198000D03*
X218575000Y-160298000D03*
X215375000Y-160298000D03*
%TD*%
D33*
%TO.C,MH8*%
X257690000Y-116593000D03*
%TD*%
D19*
%TO.C,TP5*%
X231190000Y-85793000D03*
%TD*%
D72*
%TO.C,U11*%
X298726544Y-73230104D03*
D73*
X295696544Y-73530104D03*
X295696544Y-78380104D03*
D72*
X298726544Y-78680104D03*
D74*
X298856544Y-65465104D03*
D75*
X298856544Y-67065104D03*
D76*
X296316544Y-66265104D03*
D77*
X296316544Y-67065104D03*
D78*
X293776544Y-66265104D03*
D79*
X293776544Y-67065104D03*
D76*
X291236544Y-66265104D03*
D77*
X291236544Y-67065104D03*
D76*
X288696544Y-66265104D03*
D77*
X288696544Y-67065104D03*
D76*
X286156544Y-66265104D03*
D77*
X286156544Y-67065104D03*
D76*
X283616544Y-66265104D03*
D77*
X283616544Y-67065104D03*
D78*
X281076544Y-66265104D03*
D79*
X281076544Y-67065104D03*
D76*
X278536544Y-66265104D03*
D77*
X278536544Y-67065104D03*
D76*
X275996544Y-66265104D03*
D77*
X275996544Y-67065104D03*
D76*
X273456544Y-66265104D03*
D77*
X273456544Y-67065104D03*
D76*
X270916544Y-66265104D03*
D77*
X270916544Y-67065104D03*
D78*
X268376544Y-66265104D03*
D79*
X268376544Y-67065104D03*
D76*
X265836544Y-66265104D03*
D77*
X265836544Y-67065104D03*
D76*
X263296544Y-66265104D03*
D77*
X263296544Y-67065104D03*
D76*
X260756544Y-66265104D03*
D77*
X260756544Y-67065104D03*
D76*
X258216544Y-66265104D03*
D77*
X258216544Y-67065104D03*
D78*
X255676544Y-66265104D03*
D79*
X255676544Y-67065104D03*
D76*
X253136544Y-66265104D03*
D77*
X253136544Y-67065104D03*
D76*
X250596544Y-66265104D03*
D77*
X250596544Y-67065104D03*
X250596544Y-84845104D03*
D76*
X250596544Y-85645104D03*
D77*
X253136544Y-84845104D03*
D76*
X253136544Y-85645104D03*
D79*
X255676544Y-84845104D03*
D78*
X255676544Y-85645104D03*
D77*
X258216544Y-84845104D03*
D76*
X258216544Y-85645104D03*
D77*
X260756544Y-84845104D03*
D76*
X260756544Y-85645104D03*
D77*
X263296544Y-84845104D03*
D76*
X263296544Y-85645104D03*
D77*
X265836544Y-84845104D03*
D76*
X265836544Y-85645104D03*
D79*
X268376544Y-84845104D03*
D78*
X268376544Y-85645104D03*
D77*
X270916544Y-84845104D03*
D76*
X270916544Y-85645104D03*
D77*
X273456544Y-84845104D03*
D76*
X273456544Y-85645104D03*
D77*
X275996544Y-84845104D03*
D76*
X275996544Y-85645104D03*
D77*
X278536544Y-84845104D03*
D76*
X278536544Y-85645104D03*
D79*
X281076544Y-84845104D03*
D78*
X281076544Y-85645104D03*
D77*
X283616544Y-84845104D03*
D76*
X283616544Y-85645104D03*
D77*
X286156544Y-84845104D03*
D76*
X286156544Y-85645104D03*
D77*
X288696544Y-84845104D03*
D76*
X288696544Y-85645104D03*
D77*
X291236544Y-84845104D03*
D76*
X291236544Y-85645104D03*
D79*
X293776544Y-84845104D03*
D78*
X293776544Y-85645104D03*
D77*
X296316544Y-84845104D03*
D76*
X296316544Y-85645104D03*
D77*
X298856544Y-84845104D03*
D76*
X298856544Y-85645104D03*
D75*
X250826544Y-73415104D03*
D80*
X249226544Y-73415104D03*
D79*
X250826544Y-75955104D03*
D81*
X250026544Y-75955104D03*
D77*
X250826544Y-78495104D03*
D82*
X250026544Y-78495104D03*
%TD*%
D83*
%TO.C,D17*%
X199946000Y-113210500D03*
X199946000Y-114355500D03*
%TD*%
D84*
%TO.C,SW2*%
X278069200Y-161663400D03*
X278069200Y-159123400D03*
%TD*%
D40*
%TO.C,J23*%
X222345000Y-82926000D03*
D41*
X219805000Y-82926000D03*
X217265000Y-82926000D03*
X214725000Y-82926000D03*
X212185000Y-82926000D03*
X209645000Y-82926000D03*
X207105000Y-82926000D03*
X204565000Y-82926000D03*
%TD*%
D42*
%TO.C,R3*%
X261340000Y-58993000D03*
X263340000Y-58993000D03*
%TD*%
D19*
%TO.C,FID4*%
X277590000Y-44393000D03*
%TD*%
D23*
%TO.C,R28*%
X87096000Y-74353000D03*
X87096000Y-76353000D03*
%TD*%
D40*
%TO.C,J16*%
X222345000Y-65146000D03*
D41*
X219805000Y-65146000D03*
X217265000Y-65146000D03*
X214725000Y-65146000D03*
X212185000Y-65146000D03*
X209645000Y-65146000D03*
X207105000Y-65146000D03*
X204565000Y-65146000D03*
%TD*%
D55*
%TO.C,JP9*%
X242440000Y-66393000D03*
D56*
X241140000Y-66393000D03*
%TD*%
D37*
%TO.C,C26*%
X182621000Y-101083000D03*
X181071000Y-101083000D03*
%TD*%
D18*
%TO.C,D2*%
X78246000Y-73183000D03*
X83246000Y-73183000D03*
%TD*%
D19*
%TO.C,FID7*%
X200346000Y-134583000D03*
%TD*%
D85*
%TO.C,JP8*%
X254190000Y-164643000D03*
D86*
X254190000Y-163343000D03*
%TD*%
D87*
%TO.C,C1*%
X232227500Y-81593000D03*
X230152500Y-81593000D03*
%TD*%
D88*
%TO.C,IC3*%
X181796000Y-137026750D03*
D89*
X181796000Y-136395000D03*
D88*
X182296000Y-137026750D03*
D89*
X182296000Y-136395000D03*
D90*
X182796000Y-137032750D03*
D91*
X182796000Y-136070000D03*
D92*
X183846000Y-137032750D03*
D93*
X183846000Y-136070000D03*
D94*
X184621000Y-136108000D03*
D95*
X185333500Y-136108000D03*
D96*
X184096000Y-134783000D03*
D97*
X185133500Y-134783000D03*
D94*
X184621000Y-133458000D03*
D98*
X185346000Y-133458000D03*
D93*
X183846000Y-133496000D03*
D92*
X183846000Y-132533250D03*
D91*
X182796000Y-133496000D03*
D90*
X182796000Y-132533250D03*
D89*
X182296000Y-133171000D03*
D88*
X182296000Y-132539250D03*
D89*
X181796000Y-133171000D03*
D88*
X181796000Y-132539250D03*
D99*
X180377250Y-133458000D03*
D100*
X181009000Y-133458000D03*
D101*
X180377250Y-134033000D03*
D102*
X181009000Y-134033000D03*
D101*
X180377250Y-134533000D03*
D102*
X181009000Y-134533000D03*
D101*
X180377250Y-135033000D03*
D102*
X181009000Y-135033000D03*
D101*
X180377250Y-135533000D03*
D102*
X181009000Y-135533000D03*
D99*
X180377250Y-136108000D03*
D100*
X181009000Y-136108000D03*
D103*
X181271000Y-137033000D03*
D104*
X181271000Y-136583000D03*
D105*
X183146000Y-134783000D03*
D104*
X181271000Y-132983000D03*
D106*
X181271001Y-132533000D03*
%TD*%
D19*
%TO.C,FID14*%
X288665000Y-20210000D03*
%TD*%
D44*
%TO.C,D8*%
X110596000Y-124538000D03*
X110596000Y-120238000D03*
%TD*%
D19*
%TO.C,TP2*%
X297910000Y-49113000D03*
%TD*%
D57*
%TO.C,C21*%
X195071000Y-126983000D03*
X198021000Y-126983000D03*
%TD*%
D40*
%TO.C,J22*%
X240390000Y-165193000D03*
D41*
X240390000Y-162653000D03*
X242930000Y-165193000D03*
X242930000Y-162653000D03*
X245470000Y-165193000D03*
X245470000Y-162653000D03*
X248010000Y-165193000D03*
X248010000Y-162653000D03*
%TD*%
D19*
%TO.C,FID2*%
X271590000Y-123393000D03*
%TD*%
D57*
%TO.C,C12*%
X183371000Y-141683000D03*
X186321000Y-141683000D03*
%TD*%
D107*
%TO.C,R51*%
X76846000Y-77633000D03*
X76846000Y-83733000D03*
%TD*%
D19*
%TO.C,FID8*%
X282590000Y-91393000D03*
%TD*%
D38*
%TO.C,JP11*%
X195798000Y-99355800D03*
X197098000Y-99355800D03*
X198398000Y-99355800D03*
%TD*%
D108*
%TO.C,JP4*%
X175503500Y-139283000D03*
X175503500Y-137983000D03*
X175503500Y-136683000D03*
%TD*%
D52*
%TO.C,MH1*%
X274690000Y-153093000D03*
%TD*%
D82*
%TO.C,WT901*%
X200449200Y-96429000D03*
X200449200Y-93889000D03*
X200449200Y-91349000D03*
X200449200Y-88809000D03*
X200449200Y-86269000D03*
X200449200Y-83729000D03*
X186849200Y-96429000D03*
X186849200Y-93889000D03*
X186849200Y-91349000D03*
X186849200Y-88809000D03*
X186849200Y-86269000D03*
X186849200Y-83729000D03*
%TD*%
D85*
%TO.C,JP7*%
X251390000Y-164643000D03*
D86*
X251390000Y-163343000D03*
%TD*%
D109*
%TO.C,U2*%
X286100000Y-53588000D03*
X287370000Y-53588000D03*
X288640000Y-53588000D03*
X289910000Y-53588000D03*
X291180000Y-53588000D03*
X292450000Y-53588000D03*
X293720000Y-53588000D03*
X293720000Y-48638000D03*
X292450000Y-48638000D03*
X291180000Y-48638000D03*
X289910000Y-48638000D03*
X288640000Y-48638000D03*
X287370000Y-48638000D03*
X286100000Y-48638000D03*
%TD*%
D23*
%TO.C,R47*%
X285910000Y-57113000D03*
X285910000Y-59113000D03*
%TD*%
D69*
%TO.C,C13*%
X183296000Y-139183000D03*
X185196000Y-139183000D03*
%TD*%
D48*
%TO.C,Q14*%
X265623333Y-55930500D03*
X267523333Y-55930500D03*
X266573333Y-54055500D03*
%TD*%
D42*
%TO.C,R1*%
X260190000Y-104373000D03*
X262190000Y-104373000D03*
%TD*%
%TO.C,R6*%
X261340000Y-51193000D03*
X263340000Y-51193000D03*
%TD*%
D19*
%TO.C,TP1*%
X297910000Y-53113000D03*
%TD*%
D39*
%TO.C,D1*%
X268590000Y-161993000D03*
X268590000Y-164793000D03*
%TD*%
D110*
%TO.C,XA1*%
X267450000Y-43633000D03*
X259830000Y-43633000D03*
X257290000Y-43633000D03*
X244590000Y-43633000D03*
X242050000Y-43633000D03*
X239510000Y-43633000D03*
X236970000Y-43633000D03*
X234430000Y-43633000D03*
X231890000Y-43633000D03*
X271514000Y-92893000D03*
X231890000Y-92893000D03*
X234430000Y-92893000D03*
X236970000Y-92893000D03*
X239510000Y-92893000D03*
X242050000Y-92893000D03*
X244590000Y-92893000D03*
X247130000Y-92893000D03*
X249670000Y-92893000D03*
X253734000Y-92893000D03*
X256274000Y-92893000D03*
X258814000Y-92893000D03*
X261354000Y-92893000D03*
X263894000Y-92893000D03*
X266434000Y-92893000D03*
X268974000Y-92893000D03*
X254750000Y-43633000D03*
X252210000Y-43633000D03*
X264910000Y-43633000D03*
X262370000Y-43633000D03*
X276594000Y-92893000D03*
X274054000Y-92893000D03*
X249670000Y-43633000D03*
%TD*%
D18*
%TO.C,D3*%
X83246000Y-69383000D03*
X78246000Y-69383000D03*
%TD*%
%TO.C,D16*%
X99596000Y-66383000D03*
X94596000Y-66383000D03*
%TD*%
D111*
%TO.C,Q5*%
X90946000Y-74485500D03*
X89046000Y-74485500D03*
X89996000Y-76360500D03*
%TD*%
D19*
%TO.C,FID3*%
X230590000Y-73393000D03*
%TD*%
D23*
%TO.C,R45*%
X279910000Y-57113000D03*
X279910000Y-59113000D03*
%TD*%
D10*
%TO.C,J51*%
X77546000Y-98100000D03*
D11*
X77546000Y-93900000D03*
X83046000Y-98100000D03*
X83046000Y-93900000D03*
%TD*%
D40*
%TO.C,M1*%
X273590000Y-162393000D03*
D41*
X273590000Y-164933000D03*
%TD*%
M02*
