%TF.GenerationSoftware,KiCad,Pcbnew,8.0.3+1*%
%TF.CreationDate,2024-07-23T19:13:49+00:00*%
%TF.ProjectId,OpenMowerMainboard,4f70656e-4d6f-4776-9572-4d61696e626f,rev?*%
%TF.SameCoordinates,Original*%
%TF.FileFunction,Plated,1,2,PTH,Drill*%
%TF.FilePolarity,Positive*%
%FSLAX46Y46*%
G04 Gerber Fmt 4.6, Leading zero omitted, Abs format (unit mm)*
G04 Created by KiCad (PCBNEW 8.0.3+1) date 2024-07-23 19:13:49*
%MOMM*%
%LPD*%
G01*
G04 APERTURE LIST*
%TA.AperFunction,ViaDrill*%
%ADD10C,0.300000*%
%TD*%
%TA.AperFunction,ComponentDrill*%
%ADD11C,0.750000*%
%TD*%
%TA.AperFunction,ComponentDrill*%
%ADD12C,0.900000*%
%TD*%
%TA.AperFunction,ComponentDrill*%
%ADD13C,0.950000*%
%TD*%
%TA.AperFunction,ComponentDrill*%
%ADD14C,1.000000*%
%TD*%
%TA.AperFunction,ComponentDrill*%
%ADD15C,1.016000*%
%TD*%
%TA.AperFunction,ComponentDrill*%
%ADD16C,1.100023*%
%TD*%
%TA.AperFunction,ComponentDrill*%
%ADD17C,1.350000*%
%TD*%
%TA.AperFunction,ComponentDrill*%
%ADD18C,1.400000*%
%TD*%
%TA.AperFunction,ComponentDrill*%
%ADD19C,1.500000*%
%TD*%
G04 APERTURE END LIST*
D10*
X55075000Y-63442090D03*
X55075000Y-68442090D03*
X55075000Y-73442090D03*
X55075000Y-78442090D03*
X55075000Y-83442090D03*
X55075000Y-88613000D03*
X55075000Y-93613000D03*
X55075000Y-98613000D03*
X55075000Y-103613000D03*
X55075000Y-108613000D03*
X55075000Y-113613000D03*
X55075000Y-118613000D03*
X55075000Y-123613000D03*
X55075000Y-128613000D03*
X55075000Y-133613000D03*
X55075000Y-138613000D03*
X55075000Y-143223000D03*
X55075000Y-147033000D03*
X55202000Y-59149000D03*
X55202000Y-150589000D03*
X58546000Y-57498000D03*
X59045000Y-152113000D03*
X60790000Y-132428000D03*
X62220000Y-57498000D03*
X63346000Y-152183000D03*
X66505000Y-133063000D03*
X67346000Y-152183000D03*
X67935000Y-57498000D03*
X69946000Y-152183000D03*
X71585000Y-130523000D03*
X72000000Y-69000000D03*
X72000000Y-94000000D03*
X72000000Y-117000000D03*
X72146000Y-152783000D03*
X72220000Y-110838000D03*
X72220000Y-122268000D03*
X72982000Y-155161000D03*
X73000000Y-108000000D03*
X73650000Y-57498000D03*
X74256000Y-135583000D03*
X75014000Y-157193000D03*
X77000000Y-89000000D03*
X77546000Y-107383000D03*
X77554000Y-159733000D03*
X79365000Y-57498000D03*
X80475000Y-161003000D03*
X80546000Y-112383000D03*
X81946000Y-155983000D03*
X85080000Y-57498000D03*
X85146000Y-160983000D03*
X86000000Y-88000000D03*
X86946000Y-156783000D03*
X88346000Y-139983000D03*
X90000000Y-113000000D03*
X90546000Y-160983000D03*
X90746000Y-72582500D03*
X90795000Y-57498000D03*
X91346000Y-135783000D03*
X92946000Y-72383000D03*
X93000000Y-86000000D03*
X93946000Y-150983000D03*
X94346000Y-144583000D03*
X96146000Y-136783000D03*
X96510000Y-57498000D03*
X96746000Y-72983000D03*
X96746000Y-152183000D03*
X96985000Y-161638000D03*
X97746000Y-135383000D03*
X97746000Y-144783000D03*
X99000000Y-72000000D03*
X99525000Y-164178000D03*
X99946000Y-80583000D03*
X100146000Y-79583000D03*
X100159861Y-87796861D03*
X101946000Y-80583000D03*
X102146000Y-112383000D03*
X102146000Y-119783000D03*
X102225000Y-57498000D03*
X102746000Y-79183000D03*
X102746000Y-87583000D03*
X103335000Y-165448000D03*
X103946000Y-80383000D03*
X104346000Y-112783000D03*
X104546000Y-119983000D03*
X104946000Y-79183000D03*
X104946000Y-87783000D03*
X107940000Y-57498000D03*
X108335000Y-165448000D03*
X110946000Y-89983000D03*
X111146000Y-77783000D03*
X111146000Y-116383000D03*
X111146000Y-154983000D03*
X111346000Y-110183000D03*
X111346000Y-122383000D03*
X111346000Y-142783000D03*
X111546000Y-148983000D03*
X113146000Y-80583000D03*
X113146000Y-84383000D03*
X113335000Y-165448000D03*
X113655000Y-57498000D03*
X116546000Y-148783000D03*
X117146000Y-91383000D03*
X117346000Y-126383000D03*
X118146000Y-108783000D03*
X118146000Y-155783000D03*
X118335000Y-165448000D03*
X118746000Y-75783000D03*
X119146000Y-122383000D03*
X119370000Y-57498000D03*
X119746000Y-79183000D03*
X120346000Y-85783000D03*
X120533667Y-122922844D03*
X120546000Y-112583000D03*
X121545010Y-125583000D03*
X122346000Y-110583000D03*
X122346000Y-115583000D03*
X122346000Y-150583000D03*
X122346000Y-155583000D03*
X123025000Y-165448000D03*
X124146000Y-135583000D03*
X124546000Y-70583000D03*
X124546000Y-100783000D03*
X124546000Y-112983000D03*
X125085000Y-57498000D03*
X127146000Y-137383000D03*
X127346000Y-70583000D03*
X127346000Y-75583000D03*
X127346000Y-85583000D03*
X127346000Y-90583000D03*
X127346000Y-120583000D03*
X127346000Y-125583000D03*
X127346000Y-150583000D03*
X127346000Y-155583000D03*
X128025000Y-165448000D03*
X129546000Y-135583000D03*
X130146000Y-140383000D03*
X130800000Y-57498000D03*
X131346000Y-137983000D03*
X132346000Y-75583000D03*
X132346000Y-85583000D03*
X132346000Y-90583000D03*
X132346000Y-120583000D03*
X132346000Y-125583000D03*
X132346000Y-150583000D03*
X132346000Y-155583000D03*
X133025000Y-165448000D03*
X136515000Y-57498000D03*
X137346000Y-75583000D03*
X137346000Y-85583000D03*
X137346000Y-90583000D03*
X137346000Y-115583000D03*
X137346000Y-120583000D03*
X137346000Y-125583000D03*
X137346000Y-150583000D03*
X137346000Y-155583000D03*
X138025000Y-165448000D03*
X140346000Y-154383000D03*
X140546000Y-150983000D03*
X140800000Y-107663000D03*
X141146000Y-116983000D03*
X142230000Y-57498000D03*
X142346000Y-85583000D03*
X142746000Y-153183000D03*
X142946000Y-112983000D03*
X143025000Y-165448000D03*
X144946000Y-107663000D03*
X147546000Y-76583000D03*
X147945000Y-57498000D03*
X148025000Y-165448000D03*
X148322400Y-96987800D03*
X148985998Y-87081800D03*
X148985998Y-107411000D03*
X148986000Y-114280177D03*
X150456000Y-93635000D03*
X150710000Y-77125000D03*
X150964000Y-128941000D03*
X151346000Y-156383000D03*
X151546000Y-151383000D03*
X152346000Y-85583000D03*
X152346000Y-95583000D03*
X152346000Y-103083000D03*
X152346000Y-133083000D03*
X152346000Y-135583000D03*
X152488000Y-161199000D03*
X153025000Y-165448000D03*
X153199200Y-87488200D03*
X153250000Y-111669000D03*
X153504000Y-77379000D03*
X153504000Y-125893000D03*
X153546000Y-140637500D03*
X153660000Y-57498000D03*
X153758000Y-106335000D03*
X158105000Y-165448000D03*
X158265000Y-162810000D03*
X159375000Y-57498000D03*
X163185000Y-165448000D03*
X165090000Y-57498000D03*
X168185000Y-165448000D03*
X170805000Y-57498000D03*
X172346000Y-77383000D03*
X172409500Y-105810000D03*
X172409500Y-107810000D03*
X172409500Y-109810000D03*
X172546000Y-72183000D03*
X173185000Y-165448000D03*
X173265000Y-108810000D03*
X173265000Y-110810000D03*
X173409500Y-105374800D03*
X173409500Y-106810000D03*
X173546000Y-74583000D03*
X173746000Y-78983000D03*
X174346000Y-142583000D03*
X174346000Y-143583000D03*
X174346000Y-144583000D03*
X174346000Y-145583000D03*
X174346000Y-146583000D03*
X174546000Y-72183000D03*
X175265000Y-83810000D03*
X175346000Y-106583000D03*
X175346000Y-108583000D03*
X175346000Y-110583000D03*
X175346000Y-112583000D03*
X175346000Y-142583000D03*
X175346000Y-143583000D03*
X175346000Y-144583000D03*
X175346000Y-145583000D03*
X175346000Y-146583000D03*
X175647000Y-85810000D03*
X175647000Y-87810000D03*
X175647000Y-89810000D03*
X176265000Y-71810000D03*
X176265000Y-74810000D03*
X176265000Y-76810000D03*
X176265000Y-84810000D03*
X176265000Y-86810000D03*
X176265000Y-88810000D03*
X176346000Y-107583000D03*
X176346000Y-109583000D03*
X176346000Y-111583000D03*
X176346000Y-142583000D03*
X176346000Y-143583000D03*
X176346000Y-144583000D03*
X176346000Y-145583000D03*
X176346000Y-146583000D03*
X176520000Y-57498000D03*
X176531600Y-93685800D03*
X176531600Y-95685800D03*
X176531600Y-97685800D03*
X176531600Y-99685800D03*
X177265000Y-80810000D03*
X177265000Y-83810000D03*
X177265000Y-85810000D03*
X177265000Y-87810000D03*
X177265000Y-89810000D03*
X177346000Y-129583000D03*
X177346000Y-130583000D03*
X177346000Y-139583000D03*
X177531600Y-94685800D03*
X177531600Y-96685800D03*
X177531600Y-98685800D03*
X178149600Y-93685800D03*
X178149600Y-95685800D03*
X178149600Y-97685800D03*
X178185000Y-165448000D03*
X178346000Y-103232500D03*
X178346000Y-124583000D03*
X178346000Y-134983000D03*
X178346000Y-139583000D03*
X178531600Y-99685800D03*
X178746000Y-72383000D03*
X179265000Y-74810000D03*
X179346000Y-79583000D03*
X179346000Y-123583000D03*
X179346000Y-124583000D03*
X179346000Y-125583000D03*
X179596000Y-101583000D03*
X179596000Y-103583000D03*
X179695000Y-67023000D03*
X179830977Y-90803841D03*
X179846000Y-106083000D03*
X180146000Y-140383000D03*
X180247997Y-95583500D03*
X180292730Y-77508713D03*
X180346000Y-122583000D03*
X180346000Y-123583000D03*
X180346000Y-124583000D03*
X182162800Y-134783000D03*
X182235000Y-57498000D03*
X182235000Y-78453000D03*
X182265000Y-90810000D03*
X182346000Y-122583000D03*
X182346000Y-123583000D03*
X182346000Y-124583000D03*
X182346000Y-125583000D03*
X182346000Y-144583000D03*
X182346000Y-146583000D03*
X183185000Y-165448000D03*
X183346000Y-122583000D03*
X183346000Y-123583000D03*
X183346000Y-124583000D03*
X183346000Y-125583000D03*
X183346000Y-144583000D03*
X183346000Y-146583000D03*
X183346000Y-154583000D03*
X183346000Y-156583000D03*
X183346000Y-158583000D03*
X183346000Y-160583000D03*
X184095500Y-102583000D03*
X184096000Y-103583000D03*
X184346000Y-122583000D03*
X184346000Y-123583000D03*
X184346000Y-124583000D03*
X184346000Y-125583000D03*
X184346000Y-155583000D03*
X184346000Y-157583000D03*
X184346000Y-159583000D03*
X185346000Y-99833000D03*
X185346000Y-106583000D03*
X185346000Y-108583000D03*
X185346000Y-110583000D03*
X185346000Y-112583000D03*
X185346000Y-137483000D03*
X185346000Y-154583000D03*
X185346000Y-156583000D03*
X185346000Y-158583000D03*
X185346000Y-160583000D03*
X185946000Y-79983000D03*
X186045000Y-78453000D03*
X186346000Y-99833000D03*
X186346000Y-107583000D03*
X186346000Y-109583000D03*
X186346000Y-111583000D03*
X186346000Y-121583000D03*
X186346000Y-123583000D03*
X186346000Y-125583000D03*
X186346000Y-131583000D03*
X186346000Y-155583000D03*
X186346000Y-157583000D03*
X186346000Y-159583000D03*
X186546000Y-137783000D03*
X186546000Y-138783000D03*
X186546000Y-139783000D03*
X187346000Y-106583000D03*
X187346000Y-108583000D03*
X187346000Y-110583000D03*
X187346000Y-112583000D03*
X187346000Y-122583000D03*
X187346000Y-124583000D03*
X187346000Y-130583000D03*
X187346000Y-131583000D03*
X187346000Y-154583000D03*
X187346000Y-156583000D03*
X187346000Y-158583000D03*
X187346000Y-160583000D03*
X187546000Y-138783000D03*
X187546000Y-139783000D03*
X187950000Y-57498000D03*
X188185000Y-165448000D03*
X188265000Y-80192000D03*
X188265000Y-81810000D03*
X188346000Y-122583000D03*
X188346000Y-123583000D03*
X188346000Y-124583000D03*
X188346000Y-125583000D03*
X188346000Y-126583000D03*
X188346000Y-127583000D03*
X188346000Y-128583000D03*
X188346000Y-129583000D03*
X188346000Y-130583000D03*
X188546000Y-138783000D03*
X188546000Y-139783000D03*
X188546000Y-140783000D03*
X188636734Y-98873734D03*
X188650301Y-112639343D03*
X188695500Y-106583000D03*
X188695500Y-108583000D03*
X188695500Y-110583000D03*
X189265000Y-80810000D03*
X189346000Y-103732500D03*
X189346000Y-107583000D03*
X189346000Y-109583000D03*
X189346000Y-111583000D03*
X189546000Y-138783000D03*
X189546000Y-139783000D03*
X189546000Y-140783000D03*
X189596000Y-100833000D03*
X189846000Y-92583000D03*
X189846000Y-96583000D03*
X189846000Y-98583000D03*
X189986000Y-82713000D03*
X190240000Y-86015000D03*
X190265000Y-80192000D03*
X190265000Y-81810000D03*
X190346000Y-106583000D03*
X190346000Y-108583000D03*
X190346000Y-110583000D03*
X190346000Y-112583000D03*
X190521250Y-101258250D03*
X190546000Y-138783000D03*
X190546000Y-139783000D03*
X190546000Y-140783000D03*
X191265000Y-80810000D03*
X191346000Y-107583000D03*
X191346000Y-109583000D03*
X191346000Y-111583000D03*
X191546000Y-138783000D03*
X191546000Y-139783000D03*
X191546000Y-140783000D03*
X192265000Y-80192000D03*
X192265000Y-81810000D03*
X192346000Y-106583000D03*
X192346000Y-108583000D03*
X192346000Y-110583000D03*
X192346000Y-112583000D03*
X193185000Y-165448000D03*
X193265000Y-80810000D03*
X193288000Y-86523000D03*
X193346000Y-107583000D03*
X193346000Y-109583000D03*
X193346000Y-111583000D03*
X193665000Y-57498000D03*
X193665000Y-65118000D03*
X193796000Y-77379000D03*
X193846000Y-101083000D03*
X194265000Y-79810000D03*
X194265000Y-81810000D03*
X194346000Y-93583000D03*
X194346000Y-106583000D03*
X194346000Y-108583000D03*
X194346000Y-110583000D03*
X194346000Y-112583000D03*
X195846000Y-101583000D03*
X196096000Y-107583000D03*
X197098000Y-101223800D03*
X197265000Y-139192000D03*
X197265000Y-140810000D03*
X197346000Y-89583000D03*
X197352000Y-84491000D03*
X198185000Y-165448000D03*
X198265000Y-139810000D03*
X199265000Y-139192000D03*
X199265000Y-140810000D03*
X199380000Y-57498000D03*
X199969911Y-76159089D03*
X200015000Y-149573000D03*
X200098000Y-105207300D03*
X200265000Y-139810000D03*
X200346000Y-98583000D03*
X200846000Y-102583000D03*
X201265000Y-139192000D03*
X201265000Y-140810000D03*
X201285000Y-149573000D03*
X202146000Y-108983000D03*
X202228800Y-98257800D03*
X202265000Y-139810000D03*
X202432000Y-126655000D03*
X202555000Y-149573000D03*
X202682000Y-54577000D03*
X203185000Y-165448000D03*
X203265000Y-138810000D03*
X203265000Y-140810000D03*
X203646000Y-115283000D03*
X203825000Y-149573000D03*
X204346000Y-114583000D03*
X204946000Y-75583000D03*
X204946000Y-123383000D03*
X205046000Y-113883000D03*
X205222000Y-52037000D03*
X205730000Y-167099000D03*
X205746000Y-112183000D03*
X205746000Y-113183000D03*
X206446000Y-159225000D03*
X207000000Y-58768000D03*
X207635000Y-60038000D03*
X208146000Y-86183000D03*
X208270000Y-59403000D03*
X208270000Y-143223000D03*
X208270000Y-144493000D03*
X208905000Y-145763000D03*
X208905000Y-147668000D03*
X209540000Y-108933000D03*
X209587832Y-168591418D03*
X210810000Y-51783000D03*
X211191000Y-164686000D03*
X214112000Y-162019000D03*
X214112000Y-163162000D03*
X214587832Y-168591418D03*
X214620000Y-109568000D03*
X214990000Y-147393000D03*
X215128000Y-99281000D03*
X215382000Y-161765000D03*
X215890000Y-51783000D03*
X215946000Y-93383000D03*
X216590000Y-79393000D03*
X216990000Y-158393000D03*
X217790000Y-147993000D03*
X218000000Y-53000000D03*
X218224000Y-121395000D03*
X218224000Y-123395000D03*
X218430000Y-75278000D03*
X218684000Y-130370600D03*
X219224000Y-122395000D03*
X219587832Y-168591418D03*
X220224000Y-121395000D03*
X220224000Y-123013000D03*
X220990000Y-137593000D03*
X221224000Y-122395000D03*
X221605000Y-141318000D03*
X221793199Y-134596199D03*
X221884400Y-159783800D03*
X222224000Y-121395000D03*
X222224000Y-123013000D03*
X222240000Y-51783000D03*
X222390000Y-146793000D03*
X222748000Y-126713000D03*
X222790000Y-152993000D03*
X222990000Y-165793000D03*
X223224000Y-122395000D03*
X223730000Y-54253000D03*
X223958001Y-134596199D03*
X223990000Y-165793000D03*
X224145000Y-44798000D03*
X224145000Y-49878000D03*
X224145000Y-75278000D03*
X224224000Y-121395000D03*
X224224000Y-123013000D03*
X224587832Y-168591418D03*
X225690000Y-137993000D03*
X225796000Y-158793000D03*
X226050000Y-161765000D03*
X226685000Y-39718000D03*
X226685000Y-41623000D03*
X226685000Y-61308000D03*
X226685000Y-62578000D03*
X227098000Y-142715000D03*
X227726400Y-164711400D03*
X228190000Y-87993000D03*
X228590000Y-37813000D03*
X228590000Y-63213000D03*
X228590000Y-64483000D03*
X228746000Y-82983000D03*
X228793200Y-126763800D03*
X229098000Y-163289000D03*
X229373000Y-143710000D03*
X229390000Y-66388000D03*
X229587832Y-168591418D03*
X229790000Y-43193000D03*
X229820814Y-44993000D03*
X230390000Y-68928000D03*
X230590000Y-57193000D03*
X230790000Y-51993000D03*
X231130000Y-75278000D03*
X231552411Y-152830589D03*
X231739600Y-125138200D03*
X232316256Y-106828927D03*
X232546000Y-70183000D03*
X232999500Y-96193000D03*
X233035000Y-37813000D03*
X233390000Y-45993000D03*
X233390000Y-99193000D03*
X233590000Y-165393000D03*
X233790000Y-51393000D03*
X234124575Y-159038300D03*
X234390000Y-55193000D03*
X234432000Y-105478600D03*
X234465500Y-50556365D03*
X234587832Y-168591418D03*
X234790000Y-75193000D03*
X234940000Y-70833000D03*
X235390000Y-49793000D03*
X235575000Y-69563000D03*
X235590000Y-148591003D03*
X235790000Y-62793000D03*
X235990000Y-97793000D03*
X236170359Y-103004569D03*
X236590000Y-52193000D03*
X236590000Y-55193000D03*
X236590000Y-59393000D03*
X237390000Y-96393000D03*
X237480000Y-37813000D03*
X237480000Y-66388000D03*
X237590000Y-165193000D03*
X238070966Y-101074216D03*
X238990000Y-48793000D03*
X239587832Y-168591418D03*
X239590000Y-159793000D03*
X239990000Y-68193000D03*
X240590000Y-98593000D03*
X240790000Y-152993000D03*
X241190000Y-51593000D03*
X241190000Y-63193000D03*
X241290000Y-83093000D03*
X241325500Y-86597011D03*
X241925000Y-37813000D03*
X242190000Y-51393000D03*
X243190000Y-51393000D03*
X243195000Y-79723000D03*
X243195000Y-82263000D03*
X243990000Y-54793000D03*
X244190000Y-158793000D03*
X244390000Y-58793000D03*
X244465000Y-80993000D03*
X244465000Y-147414000D03*
X244587832Y-168591418D03*
X244790000Y-65793000D03*
X245190000Y-48793000D03*
X245735000Y-37813000D03*
X245990000Y-49793000D03*
X246185123Y-76943967D03*
X247259003Y-97743990D03*
X247590000Y-46993000D03*
X247990000Y-41593000D03*
X248275000Y-35273000D03*
X248590000Y-48793000D03*
X248590000Y-60793000D03*
X248790000Y-53193000D03*
X248790000Y-107993000D03*
X248790000Y-159793000D03*
X249190000Y-49793000D03*
X249440500Y-47911023D03*
X249587832Y-168591418D03*
X249990000Y-40393000D03*
X250180000Y-33368000D03*
X250188058Y-166193208D03*
X250390000Y-47193000D03*
X250390000Y-160793000D03*
X250590000Y-62392500D03*
X250790000Y-147993000D03*
X250790000Y-158393000D03*
X250990000Y-152993000D03*
X251190000Y-166193000D03*
X251390000Y-60793000D03*
X251766089Y-46769089D03*
X251790000Y-102793000D03*
X252790000Y-56993000D03*
X252990000Y-46393000D03*
X252990000Y-62392500D03*
X253355000Y-33368000D03*
X253390000Y-53193000D03*
X253939200Y-145342500D03*
X253990000Y-161793000D03*
X254396400Y-146575800D03*
X254587832Y-168591418D03*
X254590000Y-49751000D03*
X254650400Y-158615400D03*
X255190000Y-161104600D03*
X256165000Y-18793000D03*
X256165000Y-23793000D03*
X256165000Y-27510000D03*
X256165000Y-31510000D03*
X256190000Y-34393000D03*
X256590000Y-104193000D03*
X257038002Y-147593000D03*
X257790000Y-53793000D03*
X258190000Y-63177500D03*
X258390000Y-159793000D03*
X258435000Y-81628000D03*
X258465000Y-16610000D03*
X259070000Y-63593000D03*
X259390000Y-59193000D03*
X259587832Y-168591418D03*
X259705000Y-81628000D03*
X259990000Y-49793000D03*
X260890000Y-107193000D03*
X261120752Y-78246826D03*
X261127400Y-79088000D03*
X261390000Y-145593000D03*
X261427755Y-73009223D03*
X261590000Y-146793000D03*
X261864000Y-74897000D03*
X262880000Y-60673000D03*
X263621411Y-73266589D03*
X263765000Y-16610000D03*
X263790000Y-24793000D03*
X264150000Y-74643000D03*
X264587832Y-168591418D03*
X265420000Y-69563000D03*
X266055000Y-70833000D03*
X266590000Y-98793000D03*
X266690000Y-72103000D03*
X266790000Y-49793000D03*
X266790000Y-97793000D03*
X266944000Y-76725800D03*
X266944000Y-77538600D03*
X267325000Y-60673000D03*
X268065000Y-15810000D03*
X268390000Y-41193000D03*
X269190000Y-141393000D03*
X269190000Y-146993000D03*
X269390000Y-117593000D03*
X269390000Y-131993000D03*
X269587832Y-168591418D03*
X269865000Y-2610000D03*
X269865000Y-7610000D03*
X269865000Y-12010000D03*
X270990000Y-49793000D03*
X271190000Y-60993000D03*
X271590000Y-145793000D03*
X272405000Y-62593000D03*
X272465000Y-18010000D03*
X273390000Y-116393000D03*
X273765000Y-393000D03*
X273802000Y-62959000D03*
X274587832Y-168591418D03*
X274590000Y-49593000D03*
X274790000Y-60993000D03*
X276291200Y-63162200D03*
X276850000Y-81628000D03*
X276990000Y-37793000D03*
X277430622Y-77805800D03*
X277590000Y-393000D03*
X277590000Y-42893000D03*
X277590000Y-99393000D03*
X277590000Y-107393000D03*
X277590000Y-112393000D03*
X277590000Y-117393000D03*
X277590000Y-122393000D03*
X277590000Y-127393000D03*
X277590000Y-132393000D03*
X277590000Y-137393000D03*
X277590000Y-142393000D03*
X277590000Y-147393000D03*
X277590000Y-157393000D03*
X277890000Y-22493000D03*
X278090000Y-46893000D03*
X278190000Y-53193000D03*
X278990000Y-24393000D03*
X279587832Y-168591418D03*
X280533235Y-73536235D03*
X280590000Y-25593000D03*
X281510000Y-59113000D03*
X282590000Y-393000D03*
X282590000Y-47893000D03*
X282590000Y-99393000D03*
X282590000Y-157393000D03*
X284587832Y-168591418D03*
X284990000Y-41193000D03*
X285590000Y-44393000D03*
X287310000Y-51313000D03*
X287336000Y-13993000D03*
X287510000Y-60113000D03*
X287590000Y-393000D03*
X287590000Y-99393000D03*
X287590000Y-157393000D03*
X288190000Y-71593000D03*
X288265000Y-24010000D03*
X288390000Y-51593000D03*
X289510000Y-51313000D03*
X289587832Y-168591418D03*
X290190000Y-41793000D03*
X290236000Y-15193000D03*
X291390000Y-80193000D03*
X292590000Y-393000D03*
X292590000Y-99393000D03*
X292598000Y-91508600D03*
X293565000Y-17710000D03*
X294587832Y-168591418D03*
X294910000Y-60263500D03*
X295790000Y-82793000D03*
X297390000Y-45793000D03*
X297590000Y-393000D03*
X297590000Y-32393000D03*
X297590000Y-99393000D03*
X297910000Y-55793000D03*
X300565000Y-8710000D03*
X300590000Y-2993000D03*
X300590000Y-14393000D03*
X300590000Y-19393000D03*
X300590000Y-24393000D03*
X300590000Y-29393000D03*
X300590000Y-34393000D03*
X300590000Y-39393000D03*
X300590000Y-44393000D03*
X300590000Y-49393000D03*
X300590000Y-54393000D03*
X300590000Y-59393000D03*
X300590000Y-74393000D03*
X300590000Y-79393000D03*
X300590000Y-84393000D03*
X300590000Y-89393000D03*
X300590000Y-94393000D03*
X300590000Y-99393000D03*
D11*
%TO.C,J10*%
X68541000Y-139387000D03*
X68541000Y-141387000D03*
X68541000Y-143387000D03*
X68541000Y-145387000D03*
X68541000Y-147387000D03*
D12*
%TO.C,SW1*%
X232090000Y-162490500D03*
X235090000Y-162490500D03*
D13*
%TO.C,J4*%
X60346000Y-138383000D03*
X60346000Y-140883000D03*
X60346000Y-143383000D03*
X60346000Y-145883000D03*
X60346000Y-148383000D03*
%TO.C,J7*%
X261340000Y-20328000D03*
%TO.C,J8*%
X261340000Y-28295500D03*
%TO.C,J9*%
X261340000Y-36263000D03*
%TO.C,J7*%
X263840000Y-20328000D03*
%TO.C,J8*%
X263840000Y-28295500D03*
%TO.C,J9*%
X263840000Y-36263000D03*
%TO.C,J7*%
X266340000Y-20328000D03*
%TO.C,J8*%
X266340000Y-28295500D03*
%TO.C,J9*%
X266340000Y-36263000D03*
%TO.C,J7*%
X268840000Y-20328000D03*
%TO.C,J8*%
X268840000Y-28295500D03*
%TO.C,J9*%
X268840000Y-36263000D03*
%TO.C,J5*%
X273965000Y-4393000D03*
%TO.C,J6*%
X273965000Y-12360500D03*
%TO.C,J5*%
X276465000Y-4393000D03*
%TO.C,J6*%
X276465000Y-12360500D03*
%TO.C,J13*%
X278590000Y-20328000D03*
%TO.C,J14*%
X278590000Y-28295500D03*
%TO.C,J5*%
X278965000Y-4393000D03*
%TO.C,J6*%
X278965000Y-12360500D03*
%TO.C,J13*%
X281090000Y-20328000D03*
%TO.C,J14*%
X281090000Y-28295500D03*
%TO.C,J5*%
X281465000Y-4393000D03*
%TO.C,J6*%
X281465000Y-12360500D03*
%TO.C,J13*%
X283590000Y-20328000D03*
%TO.C,J14*%
X283590000Y-28295500D03*
%TO.C,J11*%
X289336000Y-4393000D03*
%TO.C,J12*%
X289336000Y-12360500D03*
%TO.C,J11*%
X291836000Y-4393000D03*
%TO.C,J12*%
X291836000Y-12360500D03*
%TO.C,J19*%
X293460000Y-21745500D03*
X293460000Y-24245500D03*
X293460000Y-26745500D03*
X293460000Y-29245500D03*
%TO.C,J11*%
X294336000Y-4393000D03*
%TO.C,J12*%
X294336000Y-12360500D03*
D14*
%TO.C,U6*%
X100941000Y-71123000D03*
X100941000Y-74933000D03*
X100941000Y-77473000D03*
X100941000Y-82553000D03*
X100941000Y-85093000D03*
X100941000Y-90173000D03*
X100941000Y-92713000D03*
X100941000Y-96523000D03*
%TO.C,U5*%
X100941000Y-103623000D03*
X100941000Y-107433000D03*
X100941000Y-109973000D03*
X100941000Y-115053000D03*
X100941000Y-117593000D03*
X100941000Y-122673000D03*
X100941000Y-125213000D03*
X100941000Y-129023000D03*
%TO.C,U4*%
X100941000Y-136123000D03*
X100941000Y-139933000D03*
X100941000Y-142473000D03*
X100941000Y-147553000D03*
X100941000Y-150093000D03*
X100941000Y-155173000D03*
X100941000Y-157713000D03*
X100941000Y-161523000D03*
%TO.C,U6*%
X103481000Y-71123000D03*
X103481000Y-74933000D03*
X103481000Y-77473000D03*
X103481000Y-82553000D03*
X103481000Y-85093000D03*
X103481000Y-90173000D03*
X103481000Y-92713000D03*
X103481000Y-96523000D03*
%TO.C,U5*%
X103481000Y-103623000D03*
X103481000Y-107433000D03*
X103481000Y-109973000D03*
X103481000Y-115053000D03*
X103481000Y-117593000D03*
X103481000Y-122673000D03*
X103481000Y-125213000D03*
X103481000Y-129023000D03*
%TO.C,U4*%
X103481000Y-136123000D03*
X103481000Y-139933000D03*
X103481000Y-142473000D03*
X103481000Y-147553000D03*
X103481000Y-150093000D03*
X103481000Y-155173000D03*
X103481000Y-157713000D03*
X103481000Y-161523000D03*
%TO.C,U6*%
X106021000Y-71123000D03*
X106021000Y-96523000D03*
%TO.C,U5*%
X106021000Y-103623000D03*
X106021000Y-129023000D03*
%TO.C,U4*%
X106021000Y-136123000D03*
X106021000Y-161523000D03*
%TO.C,U6*%
X108561000Y-71123000D03*
X108561000Y-96523000D03*
%TO.C,U5*%
X108561000Y-103623000D03*
X108561000Y-129023000D03*
%TO.C,U4*%
X108561000Y-136123000D03*
X108561000Y-161523000D03*
%TO.C,U6*%
X111101000Y-71123000D03*
X111101000Y-96523000D03*
%TO.C,U5*%
X111101000Y-103623000D03*
X111101000Y-129023000D03*
%TO.C,U4*%
X111101000Y-136123000D03*
X111101000Y-161523000D03*
%TO.C,U6*%
X113641000Y-71123000D03*
X113641000Y-96523000D03*
%TO.C,U5*%
X113641000Y-103623000D03*
X113641000Y-129023000D03*
%TO.C,U4*%
X113641000Y-136123000D03*
X113641000Y-161523000D03*
%TO.C,U6*%
X126341000Y-96523000D03*
%TO.C,U5*%
X126341000Y-129023000D03*
%TO.C,U4*%
X126341000Y-161523000D03*
%TO.C,U6*%
X128881000Y-96523000D03*
%TO.C,U5*%
X128881000Y-129023000D03*
%TO.C,U4*%
X128881000Y-161523000D03*
%TO.C,U6*%
X131421000Y-96523000D03*
%TO.C,U5*%
X131421000Y-129023000D03*
%TO.C,U4*%
X131421000Y-161523000D03*
%TO.C,U6*%
X133961000Y-96523000D03*
%TO.C,U5*%
X133961000Y-129023000D03*
%TO.C,U4*%
X133961000Y-161523000D03*
%TO.C,U6*%
X136501000Y-71123000D03*
X136501000Y-96523000D03*
%TO.C,U5*%
X136501000Y-103623000D03*
X136501000Y-129023000D03*
%TO.C,U4*%
X136501000Y-136123000D03*
X136501000Y-161523000D03*
%TO.C,U6*%
X139041000Y-71123000D03*
X139041000Y-96523000D03*
%TO.C,U5*%
X139041000Y-103623000D03*
X139041000Y-129023000D03*
%TO.C,U4*%
X139041000Y-136123000D03*
X139041000Y-161523000D03*
%TO.C,U6*%
X141581000Y-71123000D03*
X141581000Y-96523000D03*
%TO.C,U5*%
X141581000Y-103623000D03*
X141581000Y-129023000D03*
%TO.C,U4*%
X141581000Y-136123000D03*
X141581000Y-161523000D03*
%TO.C,U6*%
X144121000Y-71123000D03*
X144121000Y-96523000D03*
%TO.C,U5*%
X144121000Y-103623000D03*
X144121000Y-129023000D03*
%TO.C,U4*%
X144121000Y-136123000D03*
X144121000Y-161523000D03*
%TO.C,U6*%
X146661000Y-71123000D03*
X146661000Y-83823000D03*
X146661000Y-86363000D03*
X146661000Y-88903000D03*
X146661000Y-91443000D03*
X146661000Y-93983000D03*
X146661000Y-96523000D03*
%TO.C,U5*%
X146661000Y-103623000D03*
X146661000Y-116323000D03*
X146661000Y-118863000D03*
X146661000Y-121403000D03*
X146661000Y-123943000D03*
X146661000Y-126483000D03*
X146661000Y-129023000D03*
%TO.C,U4*%
X146661000Y-136123000D03*
X146661000Y-148823000D03*
X146661000Y-151363000D03*
X146661000Y-153903000D03*
X146661000Y-156443000D03*
X146661000Y-158983000D03*
X146661000Y-161523000D03*
%TO.C,C8*%
X151958400Y-90079000D03*
%TO.C,C3*%
X151958400Y-106347995D03*
%TO.C,C7*%
X151958400Y-122616990D03*
%TO.C,C6*%
X151958400Y-138885985D03*
%TO.C,C2*%
X151958400Y-155154980D03*
%TO.C,C8*%
X156958400Y-90079000D03*
%TO.C,C3*%
X156958400Y-106347995D03*
%TO.C,C7*%
X156958400Y-122616990D03*
%TO.C,C6*%
X156958400Y-138885985D03*
%TO.C,C2*%
X156958400Y-155154980D03*
%TO.C,J16*%
X204565000Y-65146000D03*
%TO.C,J23*%
X204565000Y-82926000D03*
%TO.C,J20*%
X205429200Y-87330800D03*
X205429200Y-89870800D03*
X205429200Y-92410800D03*
X205429200Y-94950800D03*
X205429200Y-97490800D03*
X205429200Y-100030800D03*
X205429200Y-102570800D03*
X205429200Y-105110800D03*
X205429200Y-107650800D03*
X205429200Y-110190800D03*
%TO.C,J16*%
X207105000Y-65146000D03*
%TO.C,J23*%
X207105000Y-82926000D03*
%TO.C,J16*%
X209645000Y-65146000D03*
%TO.C,J23*%
X209645000Y-82926000D03*
%TO.C,J16*%
X212185000Y-65146000D03*
%TO.C,J23*%
X212185000Y-82926000D03*
%TO.C,J16*%
X214725000Y-65146000D03*
%TO.C,J23*%
X214725000Y-82926000D03*
%TO.C,J16*%
X217265000Y-65146000D03*
%TO.C,J23*%
X217265000Y-82926000D03*
%TO.C,J16*%
X219805000Y-65146000D03*
%TO.C,J23*%
X219805000Y-82926000D03*
%TO.C,J16*%
X222345000Y-65146000D03*
%TO.C,J23*%
X222345000Y-82926000D03*
%TO.C,J22*%
X240390000Y-162653000D03*
X240390000Y-165193000D03*
X242930000Y-162653000D03*
X242930000Y-165193000D03*
X245470000Y-162653000D03*
X245470000Y-165193000D03*
X248010000Y-162653000D03*
X248010000Y-165193000D03*
%TO.C,U11*%
X250596544Y-67065104D03*
X250596544Y-84845104D03*
X250826544Y-73415104D03*
X250826544Y-75955104D03*
X250826544Y-78495104D03*
X253136544Y-67065104D03*
X253136544Y-84845104D03*
X255676544Y-67065104D03*
X255676544Y-84845104D03*
X258216544Y-67065104D03*
X258216544Y-84845104D03*
X260756544Y-67065104D03*
X260756544Y-84845104D03*
X263296544Y-67065104D03*
X263296544Y-84845104D03*
X265836544Y-67065104D03*
X265836544Y-84845104D03*
X268376544Y-67065104D03*
X268376544Y-84845104D03*
X270916544Y-67065104D03*
X270916544Y-84845104D03*
X273456544Y-67065104D03*
X273456544Y-84845104D03*
%TO.C,M1*%
X273590000Y-162393000D03*
X273590000Y-164933000D03*
%TO.C,U11*%
X275996544Y-67065104D03*
X275996544Y-84845104D03*
X278536544Y-67065104D03*
X278536544Y-84845104D03*
%TO.C,J17*%
X279840000Y-36263000D03*
%TO.C,U11*%
X281076544Y-67065104D03*
X281076544Y-84845104D03*
%TO.C,J17*%
X282340000Y-36263000D03*
%TO.C,U11*%
X283616544Y-67065104D03*
X283616544Y-84845104D03*
X286156544Y-67065104D03*
X286156544Y-84845104D03*
X288696544Y-67065104D03*
X288696544Y-84845104D03*
X291236544Y-67065104D03*
X291236544Y-84845104D03*
%TO.C,J18*%
X291910000Y-36263000D03*
%TO.C,U11*%
X293776544Y-67065104D03*
X293776544Y-84845104D03*
%TO.C,J18*%
X294410000Y-36263000D03*
%TO.C,U11*%
X296316544Y-67065104D03*
X296316544Y-84845104D03*
X298856544Y-67065104D03*
X298856544Y-84845104D03*
D15*
%TO.C,XA1*%
X231890000Y-44133000D03*
X231890000Y-92393000D03*
X234430000Y-44133000D03*
X234430000Y-92393000D03*
X236970000Y-44133000D03*
X236970000Y-92393000D03*
X239510000Y-44133000D03*
X239510000Y-92393000D03*
X242050000Y-44133000D03*
X242050000Y-92393000D03*
X244590000Y-44133000D03*
X244590000Y-92393000D03*
X247130000Y-92393000D03*
X249670000Y-44133000D03*
X249670000Y-92393000D03*
X252210000Y-44133000D03*
X253734000Y-92393000D03*
X254750000Y-44133000D03*
X256274000Y-92393000D03*
X257290000Y-44133000D03*
X258814000Y-92393000D03*
X259830000Y-44133000D03*
X261354000Y-92393000D03*
X262370000Y-44133000D03*
X263894000Y-92393000D03*
X264910000Y-44133000D03*
X266434000Y-92393000D03*
X267450000Y-44133000D03*
X268974000Y-92393000D03*
X271514000Y-92393000D03*
X274054000Y-92393000D03*
X276594000Y-92393000D03*
D16*
%TO.C,SW2*%
X278069200Y-159123400D03*
X278069200Y-161663400D03*
D17*
%TO.C,F4*%
X65900000Y-65100000D03*
X65900000Y-70100000D03*
X65900000Y-80100000D03*
X65900000Y-85100000D03*
%TO.C,F2*%
X65900000Y-93000000D03*
X65900000Y-98000000D03*
X65900000Y-108000000D03*
X65900000Y-113000000D03*
D18*
%TO.C,J3*%
X65900000Y-122369000D03*
X65900000Y-127869000D03*
%TO.C,J51*%
X77546000Y-93900000D03*
X77546000Y-98100000D03*
%TO.C,J1*%
X77596000Y-110333000D03*
X77596000Y-114533000D03*
X77596000Y-118733000D03*
X77596000Y-122933000D03*
X77596000Y-127133000D03*
X77596000Y-131333000D03*
X77596000Y-135533000D03*
X77596000Y-139733000D03*
X77596000Y-143933000D03*
X77596000Y-148133000D03*
X77596000Y-152333000D03*
%TO.C,J51*%
X83046000Y-93900000D03*
X83046000Y-98100000D03*
%TO.C,J1*%
X83096000Y-110333000D03*
X83096000Y-114533000D03*
X83096000Y-118733000D03*
X83096000Y-122933000D03*
X83096000Y-127133000D03*
X83096000Y-131333000D03*
X83096000Y-135533000D03*
X83096000Y-139733000D03*
X83096000Y-143933000D03*
X83096000Y-148133000D03*
X83096000Y-152333000D03*
D19*
%TO.C,U1*%
X175470000Y-115733000D03*
X175470000Y-156133000D03*
X193870000Y-115733000D03*
X193870000Y-156133000D03*
M02*
