%TF.GenerationSoftware,KiCad,Pcbnew,8.0.3+1*%
%TF.CreationDate,2024-07-23T19:13:49+00:00*%
%TF.ProjectId,OpenMowerMainboard,4f70656e-4d6f-4776-9572-4d61696e626f,rev?*%
%TF.SameCoordinates,Original*%
%TF.FileFunction,Soldermask,Bot*%
%TF.FilePolarity,Negative*%
%FSLAX46Y46*%
G04 Gerber Fmt 4.6, Leading zero omitted, Abs format (unit mm)*
G04 Created by KiCad (PCBNEW 8.0.3+1) date 2024-07-23 19:13:49*
%MOMM*%
%LPD*%
G01*
G04 APERTURE LIST*
G04 Aperture macros list*
%AMRoundRect*
0 Rectangle with rounded corners*
0 $1 Rounding radius*
0 $2 $3 $4 $5 $6 $7 $8 $9 X,Y pos of 4 corners*
0 Add a 4 corners polygon primitive as box body*
4,1,4,$2,$3,$4,$5,$6,$7,$8,$9,$2,$3,0*
0 Add four circle primitives for the rounded corners*
1,1,$1+$1,$2,$3*
1,1,$1+$1,$4,$5*
1,1,$1+$1,$6,$7*
1,1,$1+$1,$8,$9*
0 Add four rect primitives between the rounded corners*
20,1,$1+$1,$2,$3,$4,$5,0*
20,1,$1+$1,$4,$5,$6,$7,0*
20,1,$1+$1,$6,$7,$8,$9,0*
20,1,$1+$1,$8,$9,$2,$3,0*%
%AMFreePoly0*
4,1,26,0.335306,0.780194,0.389950,0.741421,0.741421,0.389950,0.788777,0.314585,0.800000,0.248529,0.800000,-0.248529,0.780194,-0.335306,0.741421,-0.389950,0.389950,-0.741421,0.314585,-0.788777,0.248529,-0.800000,0.000000,-0.800000,-0.248529,-0.800000,-0.335306,-0.780194,-0.389950,-0.741421,-0.741421,-0.389950,-0.788777,-0.314585,-0.800000,-0.248529,-0.800000,0.248529,-0.780194,0.335306,
-0.741421,0.389950,-0.389950,0.741421,-0.314585,0.788777,-0.248529,0.800000,0.248529,0.800000,0.335306,0.780194,0.335306,0.780194,$1*%
G04 Aperture macros list end*
%ADD10RoundRect,0.250001X1.399999X-1.099999X1.399999X1.099999X-1.399999X1.099999X-1.399999X-1.099999X0*%
%ADD11O,3.300000X2.700000*%
%ADD12RoundRect,0.250001X1.099999X1.399999X-1.099999X1.399999X-1.099999X-1.399999X1.099999X-1.399999X0*%
%ADD13O,2.700000X3.300000*%
%ADD14RoundRect,0.250000X-0.600000X-0.725000X0.600000X-0.725000X0.600000X0.725000X-0.600000X0.725000X0*%
%ADD15O,1.700000X1.950000*%
%ADD16RoundRect,0.249999X-0.625001X0.350001X-0.625001X-0.350001X0.625001X-0.350001X0.625001X0.350001X0*%
%ADD17O,1.750000X1.200000*%
%ADD18O,1.700000X3.000000*%
%ADD19O,3.000000X1.700000*%
%ADD20R,2.000000X2.000000*%
%ADD21C,2.000000*%
%ADD22C,6.950000*%
%ADD23C,2.350000*%
%ADD24R,1.700000X1.700000*%
%ADD25O,1.700000X1.700000*%
%ADD26RoundRect,0.250000X0.725000X-0.600000X0.725000X0.600000X-0.725000X0.600000X-0.725000X-0.600000X0*%
%ADD27O,1.950000X1.700000*%
%ADD28R,3.048000X3.048000*%
%ADD29C,6.200000*%
%ADD30C,1.300000*%
%ADD31RoundRect,0.250000X-0.600000X-0.750000X0.600000X-0.750000X0.600000X0.750000X-0.600000X0.750000X0*%
%ADD32O,1.700000X2.000000*%
%ADD33C,1.200000*%
%ADD34O,1.800000X1.100000*%
%ADD35O,1.450000X1.050000*%
%ADD36FreePoly0,270.000000*%
%ADD37C,1.600000*%
%ADD38RoundRect,0.200000X-0.600000X0.600000X-0.600000X-0.600000X0.600000X-0.600000X0.600000X0.600000X0*%
%ADD39C,1.700000*%
%ADD40O,1.727200X2.500000*%
%ADD41R,1.500000X1.000000*%
G04 APERTURE END LIST*
D10*
%TO.C,J1*%
X77596000Y-152333000D03*
D11*
X77596000Y-148133000D03*
X77596000Y-143933000D03*
X77596000Y-139733000D03*
X77596000Y-135533000D03*
X77596000Y-131333000D03*
X77596000Y-127133000D03*
X77596000Y-122933000D03*
X77596000Y-118733000D03*
X77596000Y-114533000D03*
X77596000Y-110333000D03*
X83096000Y-152333000D03*
X83096000Y-148133000D03*
X83096000Y-143933000D03*
X83096000Y-139733000D03*
X83096000Y-135533000D03*
X83096000Y-131333000D03*
X83096000Y-127133000D03*
X83096000Y-122933000D03*
X83096000Y-118733000D03*
X83096000Y-114533000D03*
X83096000Y-110333000D03*
%TD*%
D12*
%TO.C,J3*%
X65900000Y-127869000D03*
D13*
X65900000Y-122369000D03*
%TD*%
D14*
%TO.C,J13*%
X278590000Y-20328000D03*
D15*
X281090000Y-20328000D03*
X283590000Y-20328000D03*
%TD*%
D14*
%TO.C,J14*%
X278590000Y-28295500D03*
D15*
X281090000Y-28295500D03*
X283590000Y-28295500D03*
%TD*%
D14*
%TO.C,J5*%
X273965000Y-4393000D03*
D15*
X276465000Y-4393000D03*
X278965000Y-4393000D03*
X281465000Y-4393000D03*
%TD*%
D14*
%TO.C,J6*%
X273965000Y-12360500D03*
D15*
X276465000Y-12360500D03*
X278965000Y-12360500D03*
X281465000Y-12360500D03*
%TD*%
D14*
%TO.C,J7*%
X261340000Y-20328000D03*
D15*
X263840000Y-20328000D03*
X266340000Y-20328000D03*
X268840000Y-20328000D03*
%TD*%
D14*
%TO.C,J8*%
X261340000Y-28295500D03*
D15*
X263840000Y-28295500D03*
X266340000Y-28295500D03*
X268840000Y-28295500D03*
%TD*%
D14*
%TO.C,J9*%
X261340000Y-36263000D03*
D15*
X263840000Y-36263000D03*
X266340000Y-36263000D03*
X268840000Y-36263000D03*
%TD*%
D14*
%TO.C,J12*%
X289336000Y-12360500D03*
D15*
X291836000Y-12360500D03*
X294336000Y-12360500D03*
%TD*%
D16*
%TO.C,J10*%
X68541000Y-139387000D03*
D17*
X68541000Y-141387000D03*
X68541000Y-143387000D03*
X68541000Y-145387000D03*
X68541000Y-147387000D03*
%TD*%
D14*
%TO.C,J11*%
X289336000Y-4393000D03*
D15*
X291836000Y-4393000D03*
X294336000Y-4393000D03*
%TD*%
D18*
%TO.C,U5*%
X144121000Y-129523000D03*
X141581000Y-129523000D03*
X136501000Y-129523000D03*
X133961000Y-129523000D03*
X131421000Y-129523000D03*
X139041000Y-129523000D03*
X108561000Y-129523000D03*
X108561000Y-103123000D03*
X106021000Y-129523000D03*
X106021000Y-103123000D03*
X128881000Y-129523000D03*
D19*
X147161000Y-126483000D03*
X147161000Y-123943000D03*
X147161000Y-118863000D03*
X147161000Y-116323000D03*
D18*
X146661000Y-103123000D03*
X144121000Y-103123000D03*
X141581000Y-103123000D03*
X139041000Y-103123000D03*
X146661000Y-129523000D03*
D19*
X147161000Y-121403000D03*
D18*
X136501000Y-103123000D03*
X126341000Y-129523000D03*
X103481000Y-129523000D03*
X103481000Y-103123000D03*
X100941000Y-129523000D03*
X100941000Y-103123000D03*
D19*
X103981000Y-109973000D03*
X103981000Y-107433000D03*
X100441000Y-109973000D03*
X100441000Y-107433000D03*
X103981000Y-117593000D03*
X103981000Y-115053000D03*
X100441000Y-117593000D03*
X100441000Y-115053000D03*
D18*
X113641000Y-129523000D03*
X113641000Y-103123000D03*
X111101000Y-129523000D03*
X111101000Y-103123000D03*
D19*
X103981000Y-125213000D03*
X103981000Y-122673000D03*
X100441000Y-125213000D03*
X100441000Y-122673000D03*
%TD*%
D20*
%TO.C,C3*%
X156958400Y-106347995D03*
D21*
X151958400Y-106347995D03*
%TD*%
D22*
%TO.C,MH6*%
X233690000Y-140593000D03*
%TD*%
D23*
%TO.C,F4*%
X65900000Y-85100000D03*
X65900000Y-80100000D03*
X65900000Y-70100000D03*
X65900000Y-65100000D03*
%TD*%
D20*
%TO.C,C2*%
X156958400Y-155154980D03*
D21*
X151958400Y-155154980D03*
%TD*%
D18*
%TO.C,U4*%
X144121000Y-162023000D03*
X141581000Y-162023000D03*
X136501000Y-162023000D03*
X133961000Y-162023000D03*
X131421000Y-162023000D03*
X139041000Y-162023000D03*
X108561000Y-162023000D03*
X108561000Y-135623000D03*
X106021000Y-162023000D03*
X106021000Y-135623000D03*
X128881000Y-162023000D03*
D19*
X147161000Y-158983000D03*
X147161000Y-156443000D03*
X147161000Y-151363000D03*
X147161000Y-148823000D03*
D18*
X146661000Y-135623000D03*
X144121000Y-135623000D03*
X141581000Y-135623000D03*
X139041000Y-135623000D03*
X146661000Y-162023000D03*
D19*
X147161000Y-153903000D03*
D18*
X136501000Y-135623000D03*
X126341000Y-162023000D03*
X103481000Y-162023000D03*
X103481000Y-135623000D03*
X100941000Y-162023000D03*
X100941000Y-135623000D03*
D19*
X103981000Y-142473000D03*
X103981000Y-139933000D03*
X100441000Y-142473000D03*
X100441000Y-139933000D03*
X103981000Y-150093000D03*
X103981000Y-147553000D03*
X100441000Y-150093000D03*
X100441000Y-147553000D03*
D18*
X113641000Y-162023000D03*
X113641000Y-135623000D03*
X111101000Y-162023000D03*
X111101000Y-135623000D03*
D19*
X103981000Y-157713000D03*
X103981000Y-155173000D03*
X100441000Y-157713000D03*
X100441000Y-155173000D03*
%TD*%
D24*
%TO.C,J20*%
X205429200Y-110190800D03*
D25*
X205429200Y-107650800D03*
X205429200Y-105110800D03*
X205429200Y-102570800D03*
X205429200Y-100030800D03*
X205429200Y-97490800D03*
X205429200Y-94950800D03*
X205429200Y-92410800D03*
X205429200Y-89870800D03*
X205429200Y-87330800D03*
%TD*%
D22*
%TO.C,MH7*%
X233690000Y-116593000D03*
%TD*%
D18*
%TO.C,U6*%
X144121000Y-97023000D03*
X141581000Y-97023000D03*
X136501000Y-97023000D03*
X133961000Y-97023000D03*
X131421000Y-97023000D03*
X139041000Y-97023000D03*
X108561000Y-97023000D03*
X108561000Y-70623000D03*
X106021000Y-97023000D03*
X106021000Y-70623000D03*
X128881000Y-97023000D03*
D19*
X147161000Y-93983000D03*
X147161000Y-91443000D03*
X147161000Y-86363000D03*
X147161000Y-83823000D03*
D18*
X146661000Y-70623000D03*
X144121000Y-70623000D03*
X141581000Y-70623000D03*
X139041000Y-70623000D03*
X146661000Y-97023000D03*
D19*
X147161000Y-88903000D03*
D18*
X136501000Y-70623000D03*
X126341000Y-97023000D03*
X103481000Y-97023000D03*
X103481000Y-70623000D03*
X100941000Y-97023000D03*
X100941000Y-70623000D03*
D19*
X103981000Y-77473000D03*
X103981000Y-74933000D03*
X100441000Y-77473000D03*
X100441000Y-74933000D03*
X103981000Y-85093000D03*
X103981000Y-82553000D03*
X100441000Y-85093000D03*
X100441000Y-82553000D03*
D18*
X113641000Y-97023000D03*
X113641000Y-70623000D03*
X111101000Y-97023000D03*
X111101000Y-70623000D03*
D19*
X103981000Y-92713000D03*
X103981000Y-90173000D03*
X100441000Y-92713000D03*
X100441000Y-90173000D03*
%TD*%
D22*
%TO.C,MH5*%
X257690000Y-140593000D03*
%TD*%
D23*
%TO.C,F2*%
X65900000Y-93000000D03*
X65900000Y-98000000D03*
X65900000Y-108000000D03*
X65900000Y-113000000D03*
%TD*%
D20*
%TO.C,C6*%
X156958400Y-138885985D03*
D21*
X151958400Y-138885985D03*
%TD*%
D26*
%TO.C,J4*%
X60346000Y-148383000D03*
D27*
X60346000Y-145883000D03*
X60346000Y-143383000D03*
X60346000Y-140883000D03*
X60346000Y-138383000D03*
%TD*%
D28*
%TO.C,U1*%
X193870000Y-156133000D03*
X175470000Y-156133000D03*
X175470000Y-115733000D03*
X193870000Y-115733000D03*
%TD*%
D29*
%TO.C,MH3*%
X216690000Y-104093000D03*
%TD*%
D30*
%TO.C,J21*%
X227590000Y-153093000D03*
X263790000Y-153093000D03*
%TD*%
D20*
%TO.C,C7*%
X156958400Y-122616990D03*
D21*
X151958400Y-122616990D03*
%TD*%
D20*
%TO.C,C8*%
X156958400Y-90079000D03*
D21*
X151958400Y-90079000D03*
%TD*%
D31*
%TO.C,J18*%
X291910000Y-36263000D03*
D32*
X294410000Y-36263000D03*
%TD*%
D29*
%TO.C,MH4*%
X274690000Y-104093000D03*
%TD*%
D31*
%TO.C,J17*%
X279840000Y-36263000D03*
D32*
X282340000Y-36263000D03*
%TD*%
D26*
%TO.C,J19*%
X293460000Y-29245500D03*
D27*
X293460000Y-26745500D03*
X293460000Y-24245500D03*
X293460000Y-21745500D03*
%TD*%
D33*
%TO.C,SW1*%
X232090000Y-162490500D03*
X235090000Y-162490500D03*
%TD*%
D29*
%TO.C,MH2*%
X216690000Y-153093000D03*
%TD*%
D22*
%TO.C,MH8*%
X257690000Y-116593000D03*
%TD*%
D34*
%TO.C,U11*%
X298726544Y-73230104D03*
D35*
X295696544Y-73530104D03*
X295696544Y-78380104D03*
D34*
X298726544Y-78680104D03*
D36*
X298856544Y-67065104D03*
D37*
X296316544Y-67065104D03*
D38*
X293776544Y-67065104D03*
D37*
X291236544Y-67065104D03*
X288696544Y-67065104D03*
X286156544Y-67065104D03*
X283616544Y-67065104D03*
D38*
X281076544Y-67065104D03*
D37*
X278536544Y-67065104D03*
X275996544Y-67065104D03*
X273456544Y-67065104D03*
X270916544Y-67065104D03*
D38*
X268376544Y-67065104D03*
D37*
X265836544Y-67065104D03*
X263296544Y-67065104D03*
X260756544Y-67065104D03*
X258216544Y-67065104D03*
D38*
X255676544Y-67065104D03*
D37*
X253136544Y-67065104D03*
X250596544Y-67065104D03*
X250596544Y-84845104D03*
X253136544Y-84845104D03*
D38*
X255676544Y-84845104D03*
D37*
X258216544Y-84845104D03*
X260756544Y-84845104D03*
X263296544Y-84845104D03*
X265836544Y-84845104D03*
D38*
X268376544Y-84845104D03*
D37*
X270916544Y-84845104D03*
X273456544Y-84845104D03*
X275996544Y-84845104D03*
X278536544Y-84845104D03*
D38*
X281076544Y-84845104D03*
D37*
X283616544Y-84845104D03*
X286156544Y-84845104D03*
X288696544Y-84845104D03*
X291236544Y-84845104D03*
D38*
X293776544Y-84845104D03*
D37*
X296316544Y-84845104D03*
X298856544Y-84845104D03*
D36*
X250826544Y-73415104D03*
D38*
X250826544Y-75955104D03*
D37*
X250826544Y-78495104D03*
%TD*%
D39*
%TO.C,SW2*%
X278069200Y-161663400D03*
X278069200Y-159123400D03*
%TD*%
D24*
%TO.C,J23*%
X222345000Y-82926000D03*
D25*
X219805000Y-82926000D03*
X217265000Y-82926000D03*
X214725000Y-82926000D03*
X212185000Y-82926000D03*
X209645000Y-82926000D03*
X207105000Y-82926000D03*
X204565000Y-82926000D03*
%TD*%
D24*
%TO.C,J16*%
X222345000Y-65146000D03*
D25*
X219805000Y-65146000D03*
X217265000Y-65146000D03*
X214725000Y-65146000D03*
X212185000Y-65146000D03*
X209645000Y-65146000D03*
X207105000Y-65146000D03*
X204565000Y-65146000D03*
%TD*%
D24*
%TO.C,J22*%
X240390000Y-165193000D03*
D25*
X240390000Y-162653000D03*
X242930000Y-165193000D03*
X242930000Y-162653000D03*
X245470000Y-165193000D03*
X245470000Y-162653000D03*
X248010000Y-165193000D03*
X248010000Y-162653000D03*
%TD*%
D29*
%TO.C,MH1*%
X274690000Y-153093000D03*
%TD*%
D40*
%TO.C,XA1*%
X267450000Y-43633000D03*
X259830000Y-43633000D03*
X257290000Y-43633000D03*
X244590000Y-43633000D03*
X242050000Y-43633000D03*
X239510000Y-43633000D03*
X236970000Y-43633000D03*
X234430000Y-43633000D03*
X231890000Y-43633000D03*
X271514000Y-92893000D03*
X231890000Y-92893000D03*
X234430000Y-92893000D03*
X236970000Y-92893000D03*
X239510000Y-92893000D03*
X242050000Y-92893000D03*
X244590000Y-92893000D03*
X247130000Y-92893000D03*
X249670000Y-92893000D03*
X253734000Y-92893000D03*
X256274000Y-92893000D03*
X258814000Y-92893000D03*
X261354000Y-92893000D03*
X263894000Y-92893000D03*
X266434000Y-92893000D03*
X268974000Y-92893000D03*
X254750000Y-43633000D03*
X252210000Y-43633000D03*
X264910000Y-43633000D03*
X262370000Y-43633000D03*
X276594000Y-92893000D03*
X274054000Y-92893000D03*
X249670000Y-43633000D03*
%TD*%
D10*
%TO.C,J51*%
X77546000Y-98100000D03*
D11*
X77546000Y-93900000D03*
X83046000Y-98100000D03*
X83046000Y-93900000D03*
%TD*%
D41*
%TO.C,JP3*%
X247190000Y-56493000D03*
X247190000Y-55193000D03*
X247190000Y-53893000D03*
%TD*%
D24*
%TO.C,M1*%
X273590000Y-162393000D03*
D25*
X273590000Y-164933000D03*
%TD*%
D41*
%TO.C,JP2*%
X250190000Y-53893000D03*
X250190000Y-55193000D03*
X250190000Y-56493000D03*
%TD*%
M02*
